*
G04 Mass Parameters ***
*
G04 Image ***
*
%INW:\PROJECT WORKSPACE\PROJECT_WORK\AMOEBA2\IPS SCHEMATIC VER2_FINALPCB\IPS-1.DRD*%
%ICAS*%
%MOIN*%
%IPPOS*%
%ASAXBY*%
G74*%FSLAN2X34Y34*%
*
G04 Aperture Definitions ***
*
%ADD10C,0.1378*%
%ADD11C,0.0550*%
%ADD12C,0.1575*%
%ADD13C,0.0606*%
%ADD14R,0.0394X0.0905*%
%ADD15R,0.0433X0.0669*%
%ADD16R,0.0669X0.0433*%
%ADD17R,0.1063X0.0394*%
%ADD18R,0.0512X0.0472*%
%ADD19R,0.0472X0.0512*%
%ADD20R,0.0630X0.1378*%
%ADD21C,0.0787*%
%ADD22R,0.1968X0.1968*%
%ADD23C,0.0866*%
%ADD24C,0.1772*%
%ADD25C,0.0750*%
%ADD26R,0.0750X0.0750*%
%ADD27R,0.0354X0.0354*%
%ADD28R,0.0571X0.0787*%
%ADD29R,0.0334X0.0256*%
%ADD30R,0.0787X0.0571*%
%ADD31R,0.0256X0.0334*%
%ADD32C,0.1181*%
%ADD33O,0.0940X0.0256*%
%ADD34R,0.0940X0.0256*%
%ADD35O,0.0256X0.0940*%
%ADD36R,0.0256X0.0940*%
%ADD37R,0.0400X0.0560*%
%ADD38R,0.0472X0.0236*%
%ADD39O,0.0606X0.0606*%
%ADD40R,0.0886X0.0886*%
%ADD41C,0.0886*%
%ADD42R,0.0880X0.1420*%
%ADD43R,0.0880X0.0480*%
%ADD44C,0.0472*%
%ADD45R,0.0433X0.0433*%
%ADD46R,0.0560X0.0400*%
%ADD47R,0.0708X0.1496*%
%ADD48R,0.3346X0.3346*%
%ADD49C,0.0551*%
%ADD50C,0.0531*%
%ADD51R,0.0531X0.0531*%
%ADD52R,0.0334X0.0620*%
%ADD53O,0.0886X0.0256*%
%ADD54R,0.0886X0.0256*%
%ADD55O,0.1063X0.0551*%
%ADD56R,0.0945X0.0551*%
%ADD57O,0.0177X0.0689*%
%ADD58R,0.0177X0.0689*%
%ADD59R,0.0640X0.0320*%
%ADD60R,0.0940X0.0320*%
%ADD61C,0.0039*%
%ADD62C,0.0100*%
%ADD63C,0.0010*%
%ADD64C,0.0079*%
%ADD65C,0.0059*%
%ADD66C,0.0394*%
%ADD67C,0.0120*%
%ADD68C,0.0080*%
%ADD69C,0.0394*%
%ADD70C,0.0472*%
%ADD71C,0.0394*%
%ADD72C,0.0276*%
%ADD73C,0.0197*%
%ADD74C,0.1181*%
%ADD75C,0.0118*%
%ADD76C,0.0140*%
%ADD77C,0.0140*%
%ADD78C,0.0787*%
%ADD79C,0.0590*%
%ADD80C,0.0984*%
%ADD81C,0.0600*%
%ADD82C,0.1693*%
%ADD83C,0.0724*%
%ADD84R,0.0512X0.1023*%
%ADD85R,0.0472X0.0708*%
%ADD86R,0.0708X0.0472*%
%ADD87R,0.1063X0.0512*%
%ADD88R,0.0669X0.1417*%
%ADD89R,0.2086X0.2086*%
%ADD90R,0.2047X0.2047*%
%ADD91C,0.0945*%
%ADD92C,0.1850*%
%ADD93R,0.0787X0.0787*%
%ADD94R,0.0394X0.0394*%
%ADD95R,0.0630X0.0866*%
%ADD96R,0.0354X0.0275*%
%ADD97R,0.0866X0.0630*%
%ADD98R,0.0275X0.0354*%
%ADD99C,0.1299*%
%ADD100C,0.0984*%
%ADD101O,0.0979X0.0295*%
%ADD102R,0.0979X0.0295*%
%ADD103O,0.0295X0.0979*%
%ADD104R,0.0295X0.0979*%
%ADD105R,0.0964X0.0964*%
%ADD106C,0.0964*%
%ADD107R,0.0551X0.0551*%
%ADD108R,0.0748X0.1535*%
%ADD109C,0.0669*%
%ADD110C,0.0649*%
%ADD111R,0.0649X0.0649*%
%ADD112R,0.0394X0.0670*%
%ADD113O,0.0925X0.0295*%
%ADD114R,0.0925X0.0295*%
%ADD115O,0.1142X0.0551*%
%ADD116O,0.0216X0.0728*%
%ADD117R,0.0216X0.0728*%
%ADD118C,0.0472*%
%ADD119C,0.0472*%
%ADD120C,0.0157*%
%ADD121C,0.0098*%
%ADD122C,0.0060*%
%ADD123C,0.0086*%
%ADD124C,0.0138*%
*
G04 Plot Data ***
*
G54D62*
G01X0026087Y-0036892D02*
X0026170Y-0037059D01*
X0026670D01*
X0026754Y-0036892D01*
Y-0036559D01*
X0026587Y-0036392D01*
X0026087D01*
Y-0036059D01*
X0026754D01*
X0025804Y-0036725D02*
X0025137D01*
X0025470Y-0036059D01*
X0025637D01*
Y-0037059D01*
X0024854Y-0036725D02*
X0024187D01*
X0024520Y-0036059D01*
X0024687D01*
Y-0037059D01*
X0014358D02*
X0013774D01*
Y-0036059D01*
X0013491Y-0036725D02*
X0012824D01*
X0013491Y-0037059D02*
Y-0036559D01*
X0013241Y-0036059D01*
X0013074D01*
X0012824Y-0036559D01*
Y-0037059D01*
X0012208D02*
Y-0036059D01*
X0012541D02*
X0011874D01*
X0011008Y-0037059D02*
X0010924Y-0036892D01*
Y-0036225D01*
X0011008Y-0036059D01*
X0011508D01*
X0011591Y-0036225D01*
Y-0036892D01*
X0011508Y-0037059D01*
X0011008D01*
X0010308D02*
Y-0036059D01*
X0010641D02*
X0009974D01*
X0026754Y-0034975D02*
X0026309D01*
X0026531Y-0034531D01*
X0026642D01*
Y-0035198D01*
X0012915D02*
Y-0034864D01*
X0013137Y-0035198D02*
Y-0034864D01*
X0013081Y-0034753D01*
X0012970D01*
X0012915Y-0034864D01*
X0012859Y-0034753D01*
X0012748D01*
X0012692Y-0034864D01*
Y-0035198D01*
X0012215D02*
Y-0034864D01*
X0012437Y-0035198D02*
Y-0034864D01*
X0012381Y-0034753D01*
X0012270D01*
X0012215Y-0034864D01*
X0012159Y-0034753D01*
X0012048D01*
X0011992Y-0034864D01*
Y-0035198D01*
X0010509D02*
X0010398Y-0035086D01*
X0010342Y-0034975D01*
Y-0034753D01*
X0010398Y-0034642D01*
X0010509Y-0034531D01*
X0010620D01*
X0010731Y-0034642D01*
X0010787Y-0034753D01*
Y-0034975D01*
X0010731Y-0035086D01*
X0010620Y-0035198D01*
X0010509D01*
X0009809D02*
X0009698Y-0035086D01*
X0009642Y-0034975D01*
Y-0034753D01*
X0009698Y-0034642D01*
X0009809Y-0034531D01*
X0009920D01*
X0010031Y-0034642D01*
X0010087Y-0034753D01*
Y-0034975D01*
X0010031Y-0035086D01*
X0009920Y-0035198D01*
X0009809D01*
X0008942Y-0035086D02*
X0008998Y-0035198D01*
X0009331D01*
X0009387Y-0035086D01*
Y-0034864D01*
X0009276Y-0034753D01*
X0008942D01*
Y-0034531D01*
X0009387D01*
X0008576Y-0035198D02*
X0008687D01*
Y-0035086D01*
X0008576D01*
Y-0035198D01*
X0008209Y-0034975D02*
X0007765D01*
X0007987Y-0034531D01*
X0008098D01*
Y-0035198D01*
X0026754Y-0033475D02*
X0026309D01*
X0026531Y-0033031D01*
X0026642D01*
Y-0033698D01*
X0012915D02*
Y-0033364D01*
X0013137Y-0033698D02*
Y-0033364D01*
X0013081Y-0033253D01*
X0012970D01*
X0012915Y-0033364D01*
X0012859Y-0033253D01*
X0012748D01*
X0012692Y-0033364D01*
Y-0033698D01*
X0012215D02*
Y-0033364D01*
X0012437Y-0033698D02*
Y-0033364D01*
X0012381Y-0033253D01*
X0012270D01*
X0012215Y-0033364D01*
X0012159Y-0033253D01*
X0012048D01*
X0011992Y-0033364D01*
Y-0033698D01*
X0010731Y-0033364D02*
X0010398D01*
X0010342Y-0033253D01*
Y-0033142D01*
X0010398Y-0033031D01*
X0010731D01*
X0010787Y-0033142D01*
Y-0033253D01*
X0010565Y-0033698D01*
X0010031Y-0033364D02*
X0009698D01*
X0009642Y-0033253D01*
Y-0033142D01*
X0009698Y-0033031D01*
X0010031D01*
X0010087Y-0033142D01*
Y-0033253D01*
X0009865Y-0033698D01*
X0009387D02*
X0009165D01*
X0009276D02*
Y-0033031D01*
X0009165Y-0033142D01*
X0008687Y-0033698D02*
X0008798D01*
Y-0033586D01*
X0008687D01*
Y-0033698D01*
X0008320Y-0033475D02*
X0007876D01*
X0008098Y-0033031D01*
X0008209D01*
Y-0033698D01*
X0026309Y-0032086D02*
X0026365Y-0032198D01*
X0026698D01*
X0026754Y-0032086D01*
Y-0031864D01*
X0026642Y-0031753D01*
X0026309D01*
Y-0031531D01*
X0026754D01*
X0012915Y-0032198D02*
Y-0031864D01*
X0013137Y-0032198D02*
Y-0031864D01*
X0013081Y-0031753D01*
X0012970D01*
X0012915Y-0031864D01*
X0012859Y-0031753D01*
X0012748D01*
X0012692Y-0031864D01*
Y-0032198D01*
X0012215D02*
Y-0031864D01*
X0012437Y-0032198D02*
Y-0031864D01*
X0012381Y-0031753D01*
X0012270D01*
X0012215Y-0031864D01*
X0012159Y-0031753D01*
X0012048D01*
X0011992Y-0031864D01*
Y-0032198D01*
X0010509D02*
X0010398Y-0032086D01*
X0010342Y-0031975D01*
Y-0031753D01*
X0010398Y-0031642D01*
X0010509Y-0031531D01*
X0010620D01*
X0010731Y-0031642D01*
X0010787Y-0031753D01*
Y-0031975D01*
X0010731Y-0032086D01*
X0010620Y-0032198D01*
X0010509D01*
X0009809D02*
X0009698Y-0032086D01*
X0009642Y-0031975D01*
Y-0031753D01*
X0009698Y-0031642D01*
X0009809Y-0031531D01*
X0009920D01*
X0010031Y-0031642D01*
X0010087Y-0031753D01*
Y-0031975D01*
X0010031Y-0032086D01*
X0009920Y-0032198D01*
X0009809D01*
X0008942Y-0032086D02*
X0008998Y-0032198D01*
X0009331D01*
X0009387Y-0032086D01*
Y-0031864D01*
X0009276Y-0031753D01*
X0008942D01*
Y-0031531D01*
X0009387D01*
X0008576Y-0032198D02*
X0008687D01*
Y-0032086D01*
X0008576D01*
Y-0032198D01*
X0007765Y-0032086D02*
X0007876Y-0032198D01*
X0008098D01*
X0008209Y-0032086D01*
Y-0031975D01*
X0007987Y-0031753D01*
X0008209Y-0031531D01*
X0007765D01*
X0026698Y-0030364D02*
X0026754Y-0030253D01*
Y-0030142D01*
X0026698Y-0030031D01*
X0026365D01*
X0026309Y-0030142D01*
Y-0030253D01*
X0026365Y-0030364D01*
X0026698D01*
X0026754Y-0030475D01*
Y-0030586D01*
X0026698Y-0030698D01*
X0026365D01*
X0026309Y-0030586D01*
Y-0030475D01*
X0026365Y-0030364D01*
X0026054Y-0030698D02*
X0025831D01*
X0025942D02*
Y-0030031D01*
X0025831Y-0030142D01*
X0012915Y-0030698D02*
Y-0030364D01*
X0013137Y-0030698D02*
Y-0030364D01*
X0013081Y-0030253D01*
X0012970D01*
X0012915Y-0030364D01*
X0012859Y-0030253D01*
X0012748D01*
X0012692Y-0030364D01*
Y-0030698D01*
X0012215D02*
Y-0030364D01*
X0012437Y-0030698D02*
Y-0030364D01*
X0012381Y-0030253D01*
X0012270D01*
X0012215Y-0030364D01*
X0012159Y-0030253D01*
X0012048D01*
X0011992Y-0030364D01*
Y-0030698D01*
X0010731Y-0030364D02*
X0010398D01*
X0010342Y-0030253D01*
Y-0030142D01*
X0010398Y-0030031D01*
X0010731D01*
X0010787Y-0030142D01*
Y-0030253D01*
X0010565Y-0030698D01*
X0010031Y-0030364D02*
X0009698D01*
X0009642Y-0030253D01*
Y-0030142D01*
X0009698Y-0030031D01*
X0010031D01*
X0010087Y-0030142D01*
Y-0030253D01*
X0009865Y-0030698D01*
X0009387Y-0030475D02*
X0008942D01*
X0009165Y-0030031D01*
X0009276D01*
Y-0030698D01*
X0008576D02*
X0008687D01*
Y-0030586D01*
X0008576D01*
Y-0030698D01*
X0007765Y-0030586D02*
X0007876Y-0030698D01*
X0008098D01*
X0008209Y-0030586D01*
Y-0030475D01*
X0007987Y-0030253D01*
X0008209Y-0030031D01*
X0007765D01*
X0026698Y-0028864D02*
X0026754Y-0028753D01*
Y-0028642D01*
X0026698Y-0028531D01*
X0026365D01*
X0026309Y-0028642D01*
Y-0028753D01*
X0026365Y-0028864D01*
X0026698D01*
X0026754Y-0028975D01*
Y-0029086D01*
X0026698Y-0029198D01*
X0026365D01*
X0026309Y-0029086D01*
Y-0028975D01*
X0026365Y-0028864D01*
X0012915Y-0029198D02*
Y-0028864D01*
X0013137Y-0029198D02*
Y-0028864D01*
X0013081Y-0028753D01*
X0012970D01*
X0012915Y-0028864D01*
X0012859Y-0028753D01*
X0012748D01*
X0012692Y-0028864D01*
Y-0029198D01*
X0012215D02*
Y-0028864D01*
X0012437Y-0029198D02*
Y-0028864D01*
X0012381Y-0028753D01*
X0012270D01*
X0012215Y-0028864D01*
X0012159Y-0028753D01*
X0012048D01*
X0011992Y-0028864D01*
Y-0029198D01*
X0010731Y-0028864D02*
X0010398D01*
X0010342Y-0028753D01*
Y-0028642D01*
X0010398Y-0028531D01*
X0010731D01*
X0010787Y-0028642D01*
Y-0028753D01*
X0010565Y-0029198D01*
X0009642Y-0029086D02*
X0009698Y-0029198D01*
X0010031D01*
X0010087Y-0029086D01*
Y-0028864D01*
X0009976Y-0028753D01*
X0009642D01*
Y-0028531D01*
X0010087D01*
X0008942Y-0029086D02*
X0008998Y-0029198D01*
X0009331D01*
X0009387Y-0029086D01*
Y-0028864D01*
X0009276Y-0028753D01*
X0008942D01*
Y-0028531D01*
X0009387D01*
X0008576Y-0029198D02*
X0008687D01*
Y-0029086D01*
X0008576D01*
Y-0029198D01*
X0008209D02*
X0007765D01*
X0008209Y-0028753D01*
Y-0028642D01*
X0008154Y-0028531D01*
X0007820D01*
X0007765Y-0028642D01*
X0026309Y-0027586D02*
X0026365Y-0027698D01*
X0026698D01*
X0026754Y-0027586D01*
Y-0027364D01*
X0026642Y-0027253D01*
X0026309D01*
Y-0027031D01*
X0026754D01*
X0012915Y-0027698D02*
Y-0027364D01*
X0013137Y-0027698D02*
Y-0027364D01*
X0013081Y-0027253D01*
X0012970D01*
X0012915Y-0027364D01*
X0012859Y-0027253D01*
X0012748D01*
X0012692Y-0027364D01*
Y-0027698D01*
X0012215D02*
Y-0027364D01*
X0012437Y-0027698D02*
Y-0027364D01*
X0012381Y-0027253D01*
X0012270D01*
X0012215Y-0027364D01*
X0012159Y-0027253D01*
X0012048D01*
X0011992Y-0027364D01*
Y-0027698D01*
X0010509D02*
X0010398Y-0027586D01*
X0010342Y-0027475D01*
Y-0027253D01*
X0010398Y-0027142D01*
X0010509Y-0027031D01*
X0010620D01*
X0010731Y-0027142D01*
X0010787Y-0027253D01*
Y-0027475D01*
X0010731Y-0027586D01*
X0010620Y-0027698D01*
X0010509D01*
X0009642Y-0027586D02*
X0009698Y-0027698D01*
X0010031D01*
X0010087Y-0027586D01*
Y-0027364D01*
X0009976Y-0027253D01*
X0009642D01*
Y-0027031D01*
X0010087D01*
X0009331Y-0027364D02*
X0009387Y-0027253D01*
Y-0027142D01*
X0009331Y-0027031D01*
X0008998D01*
X0008942Y-0027142D01*
Y-0027253D01*
X0008998Y-0027364D01*
X0009331D01*
X0009387Y-0027475D01*
Y-0027586D01*
X0009331Y-0027698D01*
X0008998D01*
X0008942Y-0027586D01*
Y-0027475D01*
X0008998Y-0027364D01*
X0008576Y-0027698D02*
X0008687D01*
Y-0027586D01*
X0008576D01*
Y-0027698D01*
X0008209D02*
X0007987D01*
X0008098D02*
Y-0027031D01*
X0007987Y-0027142D01*
X0026698Y-0025864D02*
X0026754Y-0025753D01*
Y-0025642D01*
X0026698Y-0025531D01*
X0026365D01*
X0026309Y-0025642D01*
Y-0025753D01*
X0026365Y-0025864D01*
X0026698D01*
X0026754Y-0025975D01*
Y-0026086D01*
X0026698Y-0026198D01*
X0026365D01*
X0026309Y-0026086D01*
Y-0025975D01*
X0026365Y-0025864D01*
X0012915Y-0026198D02*
Y-0025864D01*
X0013137Y-0026198D02*
Y-0025864D01*
X0013081Y-0025753D01*
X0012970D01*
X0012915Y-0025864D01*
X0012859Y-0025753D01*
X0012748D01*
X0012692Y-0025864D01*
Y-0026198D01*
X0012215D02*
Y-0025864D01*
X0012437Y-0026198D02*
Y-0025864D01*
X0012381Y-0025753D01*
X0012270D01*
X0012215Y-0025864D01*
X0012159Y-0025753D01*
X0012048D01*
X0011992Y-0025864D01*
Y-0026198D01*
X0010731Y-0025864D02*
X0010398D01*
X0010342Y-0025753D01*
Y-0025642D01*
X0010398Y-0025531D01*
X0010731D01*
X0010787Y-0025642D01*
Y-0025753D01*
X0010565Y-0026198D01*
X0010031Y-0025864D02*
X0009698D01*
X0009642Y-0025753D01*
Y-0025642D01*
X0009698Y-0025531D01*
X0010031D01*
X0010087Y-0025642D01*
Y-0025753D01*
X0009865Y-0026198D01*
X0009054D02*
X0009387Y-0025531D01*
X0008942D01*
X0008576Y-0026198D02*
X0008687D01*
Y-0026086D01*
X0008576D01*
Y-0026198D01*
X0008209D02*
X0007987D01*
X0008098D02*
Y-0025531D01*
X0007987Y-0025642D01*
X0026476Y-0024698D02*
X0026365Y-0024586D01*
X0026309Y-0024475D01*
Y-0024253D01*
X0026365Y-0024142D01*
X0026476Y-0024031D01*
X0026587D01*
X0026698Y-0024142D01*
X0026754Y-0024253D01*
Y-0024475D01*
X0026698Y-0024586D01*
X0026587Y-0024698D01*
X0026476D01*
X0026054D02*
X0025831D01*
X0025942D02*
Y-0024031D01*
X0025831Y-0024142D01*
X0012915Y-0024698D02*
Y-0024364D01*
X0013137Y-0024698D02*
Y-0024364D01*
X0013081Y-0024253D01*
X0012970D01*
X0012915Y-0024364D01*
X0012859Y-0024253D01*
X0012748D01*
X0012692Y-0024364D01*
Y-0024698D01*
X0012215D02*
Y-0024364D01*
X0012437Y-0024698D02*
Y-0024364D01*
X0012381Y-0024253D01*
X0012270D01*
X0012215Y-0024364D01*
X0012159Y-0024253D01*
X0012048D01*
X0011992Y-0024364D01*
Y-0024698D01*
X0010731Y-0024364D02*
X0010398D01*
X0010342Y-0024253D01*
Y-0024142D01*
X0010398Y-0024031D01*
X0010731D01*
X0010787Y-0024142D01*
Y-0024253D01*
X0010565Y-0024698D01*
X0010031Y-0024364D02*
X0009698D01*
X0009642Y-0024253D01*
Y-0024142D01*
X0009698Y-0024031D01*
X0010031D01*
X0010087Y-0024142D01*
Y-0024253D01*
X0009865Y-0024698D01*
X0008942Y-0024586D02*
X0008998Y-0024698D01*
X0009331D01*
X0009387Y-0024586D01*
Y-0024364D01*
X0009276Y-0024253D01*
X0008942D01*
Y-0024031D01*
X0009387D01*
X0008576Y-0024698D02*
X0008687D01*
Y-0024586D01*
X0008576D01*
Y-0024698D01*
X0008209D02*
X0007987D01*
X0008098D02*
Y-0024031D01*
X0007987Y-0024142D01*
X0026309Y-0023086D02*
X0026365Y-0023198D01*
X0026698D01*
X0026754Y-0023086D01*
Y-0022864D01*
X0026642Y-0022753D01*
X0026309D01*
Y-0022531D01*
X0026754D01*
X0012915Y-0023198D02*
Y-0022864D01*
X0013137Y-0023198D02*
Y-0022864D01*
X0013081Y-0022753D01*
X0012970D01*
X0012915Y-0022864D01*
X0012859Y-0022753D01*
X0012748D01*
X0012692Y-0022864D01*
Y-0023198D01*
X0012215D02*
Y-0022864D01*
X0012437Y-0023198D02*
Y-0022864D01*
X0012381Y-0022753D01*
X0012270D01*
X0012215Y-0022864D01*
X0012159Y-0022753D01*
X0012048D01*
X0011992Y-0022864D01*
Y-0023198D01*
X0010731Y-0022864D02*
X0010398D01*
X0010342Y-0022753D01*
Y-0022642D01*
X0010398Y-0022531D01*
X0010731D01*
X0010787Y-0022642D01*
Y-0022753D01*
X0010565Y-0023198D01*
X0010031Y-0022864D02*
X0009698D01*
X0009642Y-0022753D01*
Y-0022642D01*
X0009698Y-0022531D01*
X0010031D01*
X0010087Y-0022642D01*
Y-0022753D01*
X0009865Y-0023198D01*
X0009387Y-0022975D02*
X0008942D01*
X0009165Y-0022531D01*
X0009276D01*
Y-0023198D01*
X0008576D02*
X0008687D01*
Y-0023086D01*
X0008576D01*
Y-0023198D01*
X0008209D02*
X0007987D01*
X0008098D02*
Y-0022531D01*
X0007987Y-0022642D01*
X0026698Y-0021364D02*
X0026754Y-0021253D01*
Y-0021142D01*
X0026698Y-0021031D01*
X0026365D01*
X0026309Y-0021142D01*
Y-0021253D01*
X0026365Y-0021364D01*
X0026698D01*
X0026754Y-0021475D01*
Y-0021586D01*
X0026698Y-0021698D01*
X0026365D01*
X0026309Y-0021586D01*
Y-0021475D01*
X0026365Y-0021364D01*
X0026054Y-0021698D02*
X0025831D01*
X0025942D02*
Y-0021031D01*
X0025831Y-0021142D01*
X0012915Y-0021698D02*
Y-0021364D01*
X0013137Y-0021698D02*
Y-0021364D01*
X0013081Y-0021253D01*
X0012970D01*
X0012915Y-0021364D01*
X0012859Y-0021253D01*
X0012748D01*
X0012692Y-0021364D01*
Y-0021698D01*
X0012215D02*
Y-0021364D01*
X0012437Y-0021698D02*
Y-0021364D01*
X0012381Y-0021253D01*
X0012270D01*
X0012215Y-0021364D01*
X0012159Y-0021253D01*
X0012048D01*
X0011992Y-0021364D01*
Y-0021698D01*
X0010509D02*
X0010398Y-0021586D01*
X0010342Y-0021475D01*
Y-0021253D01*
X0010398Y-0021142D01*
X0010509Y-0021031D01*
X0010620D01*
X0010731Y-0021142D01*
X0010787Y-0021253D01*
Y-0021475D01*
X0010731Y-0021586D01*
X0010620Y-0021698D01*
X0010509D01*
X0009809D02*
X0009698Y-0021586D01*
X0009642Y-0021475D01*
Y-0021253D01*
X0009698Y-0021142D01*
X0009809Y-0021031D01*
X0009920D01*
X0010031Y-0021142D01*
X0010087Y-0021253D01*
Y-0021475D01*
X0010031Y-0021586D01*
X0009920Y-0021698D01*
X0009809D01*
X0009387Y-0021475D02*
X0008942D01*
X0009165Y-0021031D01*
X0009276D01*
Y-0021698D01*
X0008576D02*
X0008687D01*
Y-0021586D01*
X0008576D01*
Y-0021698D01*
X0008209D02*
X0007987D01*
X0008098D02*
Y-0021031D01*
X0007987Y-0021142D01*
X0026309Y-0020086D02*
X0026365Y-0020198D01*
X0026698D01*
X0026754Y-0020086D01*
Y-0019864D01*
X0026642Y-0019753D01*
X0026309D01*
Y-0019531D01*
X0026754D01*
X0012915Y-0020198D02*
Y-0019864D01*
X0013137Y-0020198D02*
Y-0019864D01*
X0013081Y-0019753D01*
X0012970D01*
X0012915Y-0019864D01*
X0012859Y-0019753D01*
X0012748D01*
X0012692Y-0019864D01*
Y-0020198D01*
X0012215D02*
Y-0019864D01*
X0012437Y-0020198D02*
Y-0019864D01*
X0012381Y-0019753D01*
X0012270D01*
X0012215Y-0019864D01*
X0012159Y-0019753D01*
X0012048D01*
X0011992Y-0019864D01*
Y-0020198D01*
X0010787D02*
X0010565D01*
X0010676D02*
Y-0019531D01*
X0010565Y-0019642D01*
X0010198Y-0020198D02*
X0009754D01*
X0010198Y-0019753D01*
Y-0019642D01*
X0010142Y-0019531D01*
X0009809D01*
X0009754Y-0019642D01*
X0009054Y-0020086D02*
X0009165Y-0020198D01*
X0009387D01*
X0009498Y-0020086D01*
Y-0019975D01*
X0009276Y-0019753D01*
X0009498Y-0019531D01*
X0009054D01*
X0008687Y-0020198D02*
X0008798D01*
Y-0020086D01*
X0008687D01*
Y-0020198D01*
X0008320D02*
X0008098D01*
X0008209D02*
Y-0019531D01*
X0008098Y-0019642D01*
X0026365Y-0018364D02*
X0026698D01*
X0026754Y-0018475D01*
Y-0018586D01*
X0026698Y-0018698D01*
X0026365D01*
X0026309Y-0018586D01*
Y-0018475D01*
X0026531Y-0018031D01*
X0012915Y-0018698D02*
Y-0018364D01*
X0013137Y-0018698D02*
Y-0018364D01*
X0013081Y-0018253D01*
X0012970D01*
X0012915Y-0018364D01*
X0012859Y-0018253D01*
X0012748D01*
X0012692Y-0018364D01*
Y-0018698D01*
X0012215D02*
Y-0018364D01*
X0012437Y-0018698D02*
Y-0018364D01*
X0012381Y-0018253D01*
X0012270D01*
X0012215Y-0018364D01*
X0012159Y-0018253D01*
X0012048D01*
X0011992Y-0018364D01*
Y-0018698D01*
X0010509D02*
X0010398Y-0018586D01*
X0010342Y-0018475D01*
Y-0018253D01*
X0010398Y-0018142D01*
X0010509Y-0018031D01*
X0010620D01*
X0010731Y-0018142D01*
X0010787Y-0018253D01*
Y-0018475D01*
X0010731Y-0018586D01*
X0010620Y-0018698D01*
X0010509D01*
X0009809D02*
X0009698Y-0018586D01*
X0009642Y-0018475D01*
Y-0018253D01*
X0009698Y-0018142D01*
X0009809Y-0018031D01*
X0009920D01*
X0010031Y-0018142D01*
X0010087Y-0018253D01*
Y-0018475D01*
X0010031Y-0018586D01*
X0009920Y-0018698D01*
X0009809D01*
X0009387D02*
X0008942D01*
X0009387Y-0018253D01*
Y-0018142D01*
X0009331Y-0018031D01*
X0008998D01*
X0008942Y-0018142D01*
X0008576Y-0018698D02*
X0008687D01*
Y-0018586D01*
X0008576D01*
Y-0018698D01*
X0008209D02*
X0007987D01*
X0008098D02*
Y-0018031D01*
X0007987Y-0018142D01*
X0026476Y-0017198D02*
X0026365Y-0017086D01*
X0026309Y-0016975D01*
Y-0016753D01*
X0026365Y-0016642D01*
X0026476Y-0016531D01*
X0026587D01*
X0026698Y-0016642D01*
X0026754Y-0016753D01*
Y-0016975D01*
X0026698Y-0017086D01*
X0026587Y-0017198D01*
X0026476D01*
X0026054D02*
X0025609D01*
X0026054Y-0016753D01*
Y-0016642D01*
X0025998Y-0016531D01*
X0025665D01*
X0025609Y-0016642D01*
X0012915Y-0017198D02*
Y-0016864D01*
X0013137Y-0017198D02*
Y-0016864D01*
X0013081Y-0016753D01*
X0012970D01*
X0012915Y-0016864D01*
X0012859Y-0016753D01*
X0012748D01*
X0012692Y-0016864D01*
Y-0017198D01*
X0012215D02*
Y-0016864D01*
X0012437Y-0017198D02*
Y-0016864D01*
X0012381Y-0016753D01*
X0012270D01*
X0012215Y-0016864D01*
X0012159Y-0016753D01*
X0012048D01*
X0011992Y-0016864D01*
Y-0017198D01*
X0010509D02*
X0010398Y-0017086D01*
X0010342Y-0016975D01*
Y-0016753D01*
X0010398Y-0016642D01*
X0010509Y-0016531D01*
X0010620D01*
X0010731Y-0016642D01*
X0010787Y-0016753D01*
Y-0016975D01*
X0010731Y-0017086D01*
X0010620Y-0017198D01*
X0010509D01*
X0010087Y-0016975D02*
X0009642D01*
X0009865Y-0016531D01*
X0009976D01*
Y-0017198D01*
X0009331Y-0016864D02*
X0008998D01*
X0008942Y-0016753D01*
Y-0016642D01*
X0008998Y-0016531D01*
X0009331D01*
X0009387Y-0016642D01*
Y-0016753D01*
X0009165Y-0017198D01*
X0008576D02*
X0008687D01*
Y-0017086D01*
X0008576D01*
Y-0017198D01*
X0007931D02*
X0007820Y-0017086D01*
X0007765Y-0016975D01*
Y-0016753D01*
X0007820Y-0016642D01*
X0007931Y-0016531D01*
X0008043D01*
X0008154Y-0016642D01*
X0008209Y-0016753D01*
Y-0016975D01*
X0008154Y-0017086D01*
X0008043Y-0017198D01*
X0007931D01*
X0026309Y-0015586D02*
X0026365Y-0015698D01*
X0026698D01*
X0026754Y-0015586D01*
Y-0015364D01*
X0026642Y-0015253D01*
X0026309D01*
Y-0015031D01*
X0026754D01*
X0026054Y-0015698D02*
X0025831D01*
X0025942D02*
Y-0015031D01*
X0025831Y-0015142D01*
X0025465Y-0015698D02*
X0025020D01*
X0025465Y-0015253D01*
Y-0015142D01*
X0025409Y-0015031D01*
X0025076D01*
X0025020Y-0015142D01*
X0012915Y-0015698D02*
Y-0015364D01*
X0013137Y-0015698D02*
Y-0015364D01*
X0013081Y-0015253D01*
X0012970D01*
X0012915Y-0015364D01*
X0012859Y-0015253D01*
X0012748D01*
X0012692Y-0015364D01*
Y-0015698D01*
X0012215D02*
Y-0015364D01*
X0012437Y-0015698D02*
Y-0015364D01*
X0012381Y-0015253D01*
X0012270D01*
X0012215Y-0015364D01*
X0012159Y-0015253D01*
X0012048D01*
X0011992Y-0015364D01*
Y-0015698D01*
X0010787Y-0015475D02*
X0010342D01*
X0010565Y-0015031D01*
X0010676D01*
Y-0015698D01*
X0010087D02*
X0009865D01*
X0009976D02*
Y-0015031D01*
X0009865Y-0015142D01*
X0009442Y-0015364D02*
X0009109D01*
X0009054Y-0015253D01*
Y-0015142D01*
X0009109Y-0015031D01*
X0009442D01*
X0009498Y-0015142D01*
Y-0015253D01*
X0009276Y-0015698D01*
X0008687D02*
X0008798D01*
Y-0015586D01*
X0008687D01*
Y-0015698D01*
X0008043D02*
X0007931Y-0015586D01*
X0007876Y-0015475D01*
Y-0015253D01*
X0007931Y-0015142D01*
X0008043Y-0015031D01*
X0008154D01*
X0008265Y-0015142D01*
X0008320Y-0015253D01*
Y-0015475D01*
X0008265Y-0015586D01*
X0008154Y-0015698D01*
X0008043D01*
X0026754Y-0013975D02*
X0026309D01*
X0026531Y-0013531D01*
X0026642D01*
Y-0014198D01*
X0012915D02*
Y-0013864D01*
X0013137Y-0014198D02*
Y-0013864D01*
X0013081Y-0013753D01*
X0012970D01*
X0012915Y-0013864D01*
X0012859Y-0013753D01*
X0012748D01*
X0012692Y-0013864D01*
Y-0014198D01*
X0012215D02*
Y-0013864D01*
X0012437Y-0014198D02*
Y-0013864D01*
X0012381Y-0013753D01*
X0012270D01*
X0012215Y-0013864D01*
X0012159Y-0013753D01*
X0012048D01*
X0011992Y-0013864D01*
Y-0014198D01*
X0010731Y-0013864D02*
X0010398D01*
X0010342Y-0013753D01*
Y-0013642D01*
X0010398Y-0013531D01*
X0010731D01*
X0010787Y-0013642D01*
Y-0013753D01*
X0010565Y-0014198D01*
X0010087Y-0013975D02*
X0009642D01*
X0009865Y-0013531D01*
X0009976D01*
Y-0014198D01*
X0009331Y-0013864D02*
X0009387Y-0013753D01*
Y-0013642D01*
X0009331Y-0013531D01*
X0008998D01*
X0008942Y-0013642D01*
Y-0013753D01*
X0008998Y-0013864D01*
X0009331D01*
X0009387Y-0013975D01*
Y-0014086D01*
X0009331Y-0014198D01*
X0008998D01*
X0008942Y-0014086D01*
Y-0013975D01*
X0008998Y-0013864D01*
X0008576Y-0014198D02*
X0008687D01*
Y-0014086D01*
X0008576D01*
Y-0014198D01*
X0007931D02*
X0007820Y-0014086D01*
X0007765Y-0013975D01*
Y-0013753D01*
X0007820Y-0013642D01*
X0007931Y-0013531D01*
X0008043D01*
X0008154Y-0013642D01*
X0008209Y-0013753D01*
Y-0013975D01*
X0008154Y-0014086D01*
X0008043Y-0014198D01*
X0007931D01*
X0026309Y-0012586D02*
X0026420Y-0012698D01*
X0026642D01*
X0026754Y-0012586D01*
Y-0012475D01*
X0026531Y-0012253D01*
X0026754Y-0012031D01*
X0026309D01*
X0012915Y-0012698D02*
Y-0012364D01*
X0013137Y-0012698D02*
Y-0012364D01*
X0013081Y-0012253D01*
X0012970D01*
X0012915Y-0012364D01*
X0012859Y-0012253D01*
X0012748D01*
X0012692Y-0012364D01*
Y-0012698D01*
X0012215D02*
Y-0012364D01*
X0012437Y-0012698D02*
Y-0012364D01*
X0012381Y-0012253D01*
X0012270D01*
X0012215Y-0012364D01*
X0012159Y-0012253D01*
X0012048D01*
X0011992Y-0012364D01*
Y-0012698D01*
X0010509D02*
X0010398Y-0012586D01*
X0010342Y-0012475D01*
Y-0012253D01*
X0010398Y-0012142D01*
X0010509Y-0012031D01*
X0010620D01*
X0010731Y-0012142D01*
X0010787Y-0012253D01*
Y-0012475D01*
X0010731Y-0012586D01*
X0010620Y-0012698D01*
X0010509D01*
X0009809D02*
X0009698Y-0012586D01*
X0009642Y-0012475D01*
Y-0012253D01*
X0009698Y-0012142D01*
X0009809Y-0012031D01*
X0009920D01*
X0010031Y-0012142D01*
X0010087Y-0012253D01*
Y-0012475D01*
X0010031Y-0012586D01*
X0009920Y-0012698D01*
X0009809D01*
X0009331Y-0012364D02*
X0009387Y-0012253D01*
Y-0012142D01*
X0009331Y-0012031D01*
X0008998D01*
X0008942Y-0012142D01*
Y-0012253D01*
X0008998Y-0012364D01*
X0009331D01*
X0009387Y-0012475D01*
Y-0012586D01*
X0009331Y-0012698D01*
X0008998D01*
X0008942Y-0012586D01*
Y-0012475D01*
X0008998Y-0012364D01*
X0008576Y-0012698D02*
X0008687D01*
Y-0012586D01*
X0008576D01*
Y-0012698D01*
X0007931D02*
X0007820Y-0012586D01*
X0007765Y-0012475D01*
Y-0012253D01*
X0007820Y-0012142D01*
X0007931Y-0012031D01*
X0008043D01*
X0008154Y-0012142D01*
X0008209Y-0012253D01*
Y-0012475D01*
X0008154Y-0012586D01*
X0008043Y-0012698D01*
X0007931D01*
X0026698Y-0010864D02*
X0026754Y-0010753D01*
Y-0010642D01*
X0026698Y-0010531D01*
X0026365D01*
X0026309Y-0010642D01*
Y-0010753D01*
X0026365Y-0010864D01*
X0026698D01*
X0026754Y-0010975D01*
Y-0011086D01*
X0026698Y-0011198D01*
X0026365D01*
X0026309Y-0011086D01*
Y-0010975D01*
X0026365Y-0010864D01*
X0012915Y-0011198D02*
Y-0010864D01*
X0013137Y-0011198D02*
Y-0010864D01*
X0013081Y-0010753D01*
X0012970D01*
X0012915Y-0010864D01*
X0012859Y-0010753D01*
X0012748D01*
X0012692Y-0010864D01*
Y-0011198D01*
X0012215D02*
Y-0010864D01*
X0012437Y-0011198D02*
Y-0010864D01*
X0012381Y-0010753D01*
X0012270D01*
X0012215Y-0010864D01*
X0012159Y-0010753D01*
X0012048D01*
X0011992Y-0010864D01*
Y-0011198D01*
X0010731Y-0010864D02*
X0010398D01*
X0010342Y-0010753D01*
Y-0010642D01*
X0010398Y-0010531D01*
X0010731D01*
X0010787Y-0010642D01*
Y-0010753D01*
X0010565Y-0011198D01*
X0010031Y-0010864D02*
X0009698D01*
X0009642Y-0010753D01*
Y-0010642D01*
X0009698Y-0010531D01*
X0010031D01*
X0010087Y-0010642D01*
Y-0010753D01*
X0009865Y-0011198D01*
X0009054D02*
X0009387Y-0010531D01*
X0008942D01*
X0008576Y-0011198D02*
X0008687D01*
Y-0011086D01*
X0008576D01*
Y-0011198D01*
X0007931D02*
X0007820Y-0011086D01*
X0007765Y-0010975D01*
Y-0010753D01*
X0007820Y-0010642D01*
X0007931Y-0010531D01*
X0008043D01*
X0008154Y-0010642D01*
X0008209Y-0010753D01*
Y-0010975D01*
X0008154Y-0011086D01*
X0008043Y-0011198D01*
X0007931D01*
X0026698Y-0009364D02*
X0026754Y-0009253D01*
Y-0009142D01*
X0026698Y-0009031D01*
X0026365D01*
X0026309Y-0009142D01*
Y-0009253D01*
X0026365Y-0009364D01*
X0026698D01*
X0026754Y-0009475D01*
Y-0009586D01*
X0026698Y-0009698D01*
X0026365D01*
X0026309Y-0009586D01*
Y-0009475D01*
X0026365Y-0009364D01*
X0012915Y-0009698D02*
Y-0009364D01*
X0013137Y-0009698D02*
Y-0009364D01*
X0013081Y-0009253D01*
X0012970D01*
X0012915Y-0009364D01*
X0012859Y-0009253D01*
X0012748D01*
X0012692Y-0009364D01*
Y-0009698D01*
X0012215D02*
Y-0009364D01*
X0012437Y-0009698D02*
Y-0009364D01*
X0012381Y-0009253D01*
X0012270D01*
X0012215Y-0009364D01*
X0012159Y-0009253D01*
X0012048D01*
X0011992Y-0009364D01*
Y-0009698D01*
X0010731Y-0009364D02*
X0010398D01*
X0010342Y-0009253D01*
Y-0009142D01*
X0010398Y-0009031D01*
X0010731D01*
X0010787Y-0009142D01*
Y-0009253D01*
X0010565Y-0009698D01*
X0010087Y-0009475D02*
X0009642D01*
X0009865Y-0009031D01*
X0009976D01*
Y-0009698D01*
X0009054D02*
X0009387Y-0009031D01*
X0008942D01*
X0008576Y-0009698D02*
X0008687D01*
Y-0009586D01*
X0008576D01*
Y-0009698D01*
X0007931D02*
X0007820Y-0009586D01*
X0007765Y-0009475D01*
Y-0009253D01*
X0007820Y-0009142D01*
X0007931Y-0009031D01*
X0008043D01*
X0008154Y-0009142D01*
X0008209Y-0009253D01*
Y-0009475D01*
X0008154Y-0009586D01*
X0008043Y-0009698D01*
X0007931D01*
X0026754Y-0008198D02*
X0026531D01*
X0026642D02*
Y-0007531D01*
X0026531Y-0007642D01*
X0026109Y-0007864D02*
X0025776D01*
X0025720Y-0007753D01*
Y-0007642D01*
X0025776Y-0007531D01*
X0026109D01*
X0026165Y-0007642D01*
Y-0007753D01*
X0025942Y-0008198D01*
X0012915D02*
Y-0007864D01*
X0013137Y-0008198D02*
Y-0007864D01*
X0013081Y-0007753D01*
X0012970D01*
X0012915Y-0007864D01*
X0012859Y-0007753D01*
X0012748D01*
X0012692Y-0007864D01*
Y-0008198D01*
X0012215D02*
Y-0007864D01*
X0012437Y-0008198D02*
Y-0007864D01*
X0012381Y-0007753D01*
X0012270D01*
X0012215Y-0007864D01*
X0012159Y-0007753D01*
X0012048D01*
X0011992Y-0007864D01*
Y-0008198D01*
X0010787D02*
X0010565D01*
X0010676D02*
Y-0007531D01*
X0010565Y-0007642D01*
X0010198Y-0008198D02*
X0009976D01*
X0010087D02*
Y-0007531D01*
X0009976Y-0007642D01*
X0009276Y-0008198D02*
X0009609Y-0007531D01*
X0009165D01*
X0008798Y-0008198D02*
X0008909D01*
Y-0008086D01*
X0008798D01*
Y-0008198D01*
X0008154D02*
X0008043Y-0008086D01*
X0007987Y-0007975D01*
Y-0007753D01*
X0008043Y-0007642D01*
X0008154Y-0007531D01*
X0008265D01*
X0008376Y-0007642D01*
X0008432Y-0007753D01*
Y-0007975D01*
X0008376Y-0008086D01*
X0008265Y-0008198D01*
X0008154D01*
X0035158Y-0006059D02*
X0034658D01*
X0035324Y-0006559D02*
X0034658D01*
Y-0005559D01*
X0035324D01*
X0034041Y-0006559D02*
Y-0005559D01*
X0034374D02*
X0033708D01*
X0032841Y-0006559D02*
X0032758Y-0006392D01*
Y-0005725D01*
X0032841Y-0005559D01*
X0033341D01*
X0033424Y-0005725D01*
Y-0006392D01*
X0033341Y-0006559D01*
X0032841D01*
X0032474Y-0005559D02*
Y-0006559D01*
X0032308Y-0006392D01*
X0031974Y-0005725D01*
X0031808Y-0005559D01*
Y-0006559D01*
X0025970D02*
Y-0006059D01*
X0026304Y-0005559D02*
X0026054Y-0006059D01*
X0025887D01*
X0025637Y-0005559D01*
X0025020Y-0006559D02*
Y-0005559D01*
X0025354D02*
X0024687D01*
X0024070Y-0006225D02*
X0024404Y-0006559D01*
X0023737Y-0006392D02*
X0023820Y-0006559D01*
X0024154D01*
X0024237Y-0006392D01*
X0024404Y-0006225D01*
Y-0005725D01*
X0024320Y-0005559D01*
X0023820D01*
X0023737Y-0005725D01*
Y-0006392D01*
X0019454Y-0006559D02*
X0018870D01*
Y-0005559D01*
X0018004Y-0006559D02*
X0017920Y-0006392D01*
Y-0005725D01*
X0018004Y-0005559D01*
X0018504D01*
X0018587Y-0005725D01*
Y-0006392D01*
X0018504Y-0006559D01*
X0018004D01*
X0017304D02*
Y-0005559D01*
X0017637D02*
X0016970D01*
X0011633Y-0006559D02*
Y-0005559D01*
X0011466Y-0005725D01*
X0011299Y-0006059D01*
X0011133Y-0005725D01*
X0010966Y-0005559D01*
Y-0006559D01*
X0010683Y-0006225D02*
X0010016D01*
X0010683Y-0006559D02*
Y-0006059D01*
X0010433Y-0005559D01*
X0010266D01*
X0010016Y-0006059D01*
Y-0006559D01*
X0009733D02*
X0009399D01*
X0009566D02*
Y-0005559D01*
X0009733D02*
X0009399D01*
X0008366Y-0006559D02*
Y-0005559D01*
X0008283Y-0006559D02*
X0008783D01*
X0008949Y-0006225D01*
Y-0005892D01*
X0008783Y-0005559D01*
X0008283D01*
X0005195Y-0006559D02*
Y-0005559D01*
X0005029Y-0005725D01*
X0004862Y-0006059D01*
X0004695Y-0005725D01*
X0004529Y-0005559D01*
Y-0006559D01*
X0003912D02*
Y-0006059D01*
X0004245Y-0005559D02*
X0003995Y-0006059D01*
X0003829D01*
X0003579Y-0005559D01*
X0003295Y-0005725D02*
X0003212Y-0005559D01*
X0002712D01*
X0002629Y-0005725D01*
Y-0005892D01*
X0002712Y-0006059D01*
X0003212D01*
X0003295Y-0006225D01*
Y-0006392D01*
X0003212Y-0006559D01*
X0002712D01*
X0002629Y-0006392D01*
X0025483Y-0004559D02*
Y-0003559D01*
X0025816D02*
X0025149D01*
X0024616Y-0004059D02*
X0024866Y-0004559D01*
X0024199Y-0004059D02*
X0024699D01*
X0024866Y-0003892D01*
Y-0003725D01*
X0024699Y-0003559D01*
X0024199D01*
Y-0004559D01*
X0023916Y-0004225D02*
X0023249D01*
X0023916Y-0004559D02*
Y-0004059D01*
X0023666Y-0003559D01*
X0023499D01*
X0023249Y-0004059D01*
Y-0004559D01*
X0022966Y-0004059D02*
X0022299D01*
X0022966Y-0004559D02*
Y-0003559D01*
X0022299Y-0004559D02*
Y-0003559D01*
X0022016Y-0004392D02*
X0021933Y-0004559D01*
X0021433D01*
X0021349Y-0004392D01*
Y-0003725D01*
X0021433Y-0003559D01*
X0021933D01*
X0022016Y-0003725D01*
X0019741Y-0004559D02*
X0019158D01*
Y-0003559D01*
X0018874Y-0004559D02*
X0018291D01*
Y-0003559D01*
X0018008Y-0004559D02*
X0017674D01*
X0017841D02*
Y-0003559D01*
X0018008D02*
X0017674D01*
X0016974Y-0004059D02*
X0017224Y-0004559D01*
X0016558Y-0004059D02*
X0017058D01*
X0017224Y-0003892D01*
Y-0003725D01*
X0017058Y-0003559D01*
X0016558D01*
Y-0004559D01*
X0015691D02*
Y-0003559D01*
X0015608Y-0004559D02*
X0016108D01*
X0016274Y-0004225D01*
Y-0003892D01*
X0016108Y-0003559D01*
X0015608D01*
X0046800Y0017360D02*
X0046550Y0017110D01*
X0047050D02*
X0046800Y0017360D01*
X0046550Y0017110D02*
X0047050D01*
X0045773Y0010539D02*
X0045523Y0010289D01*
X0046023D02*
X0045773Y0010539D01*
X0045523Y0010289D02*
X0046023D01*
X0050179Y0035088D02*
X0049929Y0034838D01*
X0050429D02*
X0050179Y0035088D01*
X0049929Y0034838D02*
X0050429D01*
X0032175Y0036612D02*
X0031925Y0036362D01*
X0032425D02*
X0032175Y0036612D01*
X0031925Y0036362D02*
X0032425D01*
X0030883Y0034469D02*
X0030633Y0034219D01*
X0031133D02*
X0030883Y0034469D01*
X0030633Y0034219D02*
X0031133D01*
X0105256Y0035078D02*
X0105006Y0034828D01*
X0105506D02*
X0105256Y0035078D01*
X0105006Y0034828D02*
X0105506D01*
X0064231Y0013445D02*
X0063981Y0013195D01*
X0064481D02*
X0064231Y0013445D01*
X0063981Y0013195D02*
X0064481D01*
X0032175Y0036612D02*
X0031925Y0036362D01*
X0032425D02*
X0032175Y0036612D01*
X0031925Y0036362D02*
X0032425D01*
X0050179Y0035088D02*
X0049929Y0034838D01*
X0050429D02*
X0050179Y0035088D01*
X0049929Y0034838D02*
X0050429D01*
X0038153Y0035393D02*
X0037903Y0035143D01*
X0038403D02*
X0038153Y0035393D01*
X0037903Y0035143D02*
X0038403D01*
X0050179Y0035088D02*
X0049929Y0034838D01*
X0050429D02*
X0050179Y0035088D01*
X0049929Y0034838D02*
X0050429D01*
X0030883Y0034469D02*
X0030633Y0034219D01*
X0031133D02*
X0030883Y0034469D01*
X0030633Y0034219D02*
X0031133D01*
X0032175Y0036612D02*
X0031925Y0036362D01*
X0032425D02*
X0032175Y0036612D01*
X0031925Y0036362D02*
X0032425D01*
X0105256Y0035078D02*
X0105006Y0034828D01*
X0105506D02*
X0105256Y0035078D01*
X0105006Y0034828D02*
X0105506D01*
X0110959Y0033544D02*
X0110709Y0033294D01*
X0111209D02*
X0110959Y0033544D01*
X0110709Y0033294D02*
X0111209D01*
X0101323Y0032799D02*
X0101073Y0032549D01*
X0101573D02*
X0101323Y0032799D01*
X0101073Y0032549D02*
X0101573D01*
X0031863Y0016419D02*
X0031613Y0016169D01*
X0032113D02*
X0031863Y0016419D01*
X0031613Y0016169D02*
X0032113D01*
X0030247Y0006640D02*
X0029997Y0006390D01*
X0030497D02*
X0030247Y0006640D01*
X0029997Y0006390D02*
X0030497D01*
X0026039Y0011793D02*
X0025789Y0011543D01*
X0026289D02*
X0026039Y0011793D01*
X0025789Y0011543D02*
X0026289D01*
X0029185Y0012855D02*
X0028935Y0012605D01*
X0029435D02*
X0029185Y0012855D01*
X0028935Y0012605D02*
X0029435D01*
X0050099Y0010062D02*
X0049849Y0009812D01*
X0050349D02*
X0050099Y0010062D01*
X0049849Y0009812D02*
X0050349D01*
X0047463Y0020089D02*
X0047213Y0019839D01*
X0047713D02*
X0047463Y0020089D01*
X0047213Y0019839D02*
X0047713D01*
X0109673Y0032745D02*
X0109423Y0032495D01*
X0109923D02*
X0109673Y0032745D01*
X0109423Y0032495D02*
X0109923D01*
X0109673Y0031565D02*
X0109423Y0031315D01*
X0109923D02*
X0109673Y0031565D01*
X0109423Y0031315D02*
X0109923D01*
X0031853Y0018129D02*
X0031603Y0017879D01*
X0032103D02*
X0031853Y0018129D01*
X0031603Y0017879D02*
X0032103D01*
X0030090Y0009354D02*
X0029840Y0009104D01*
X0030340D02*
X0030090Y0009354D01*
X0029840Y0009104D02*
X0030340D01*
X0056286Y0008331D02*
X0056036Y0008081D01*
X0056536D02*
X0056286Y0008331D01*
X0056036Y0008081D02*
X0056536D01*
X0053926Y0009039D02*
X0053676Y0008789D01*
X0054176D02*
X0053926Y0009039D01*
X0053676Y0008789D02*
X0054176D01*
X0047790Y0010062D02*
X0047540Y0009812D01*
X0048040D02*
X0047790Y0010062D01*
X0047540Y0009812D02*
X0048040D01*
X0040946Y0010377D02*
X0040696Y0010127D01*
X0041196D02*
X0040946Y0010377D01*
X0040696Y0010127D02*
X0041196D01*
X0040946Y0010377D02*
X0040696Y0010127D01*
X0041196D02*
X0040946Y0010377D01*
X0040696Y0010127D02*
X0041196D01*
X0103183Y0006289D02*
X0102933Y0006039D01*
X0103433D02*
X0103183Y0006289D01*
X0102933Y0006039D02*
X0103433D01*
X0032804Y0011321D02*
X0032554Y0011071D01*
X0033054D02*
X0032804Y0011321D01*
X0032554Y0011071D02*
X0033054D01*
X0030090Y0009354D02*
X0029840Y0009104D01*
X0030340D02*
X0030090Y0009354D01*
X0029840Y0009104D02*
X0030340D01*
X0054083Y0007112D02*
X0053833Y0006862D01*
X0054333D02*
X0054083Y0007112D01*
X0053833Y0006862D02*
X0054333D01*
X0066092Y0019844D02*
X0065842Y0019594D01*
X0066342D02*
X0066092Y0019844D01*
X0065842Y0019594D02*
X0066342D01*
X0065372Y0013759D02*
X0065122Y0013509D01*
X0065622D02*
X0065372Y0013759D01*
X0065122Y0013509D02*
X0065622D01*
X0066867Y0014546D02*
X0066617Y0014296D01*
X0067117D02*
X0066867Y0014546D01*
X0066617Y0014296D02*
X0067117D01*
X0058725Y0018558D02*
X0058475Y0018308D01*
X0058975D02*
X0058725Y0018558D01*
X0058475Y0018308D02*
X0058975D01*
X0106380Y0031047D02*
X0106130Y0030797D01*
X0106630D02*
X0106380Y0031047D01*
X0106130Y0030797D02*
X0106630D01*
X0043699Y0022413D02*
X0043449Y0022163D01*
X0043949D02*
X0043699Y0022413D01*
X0043449Y0022163D02*
X0043949D01*
X0061714Y0016591D02*
X0061464Y0016341D01*
X0061964D02*
X0061714Y0016591D01*
X0061464Y0016341D02*
X0061964D01*
X0063759Y0017457D02*
X0063509Y0017207D01*
X0064009D02*
X0063759Y0017457D01*
X0063509Y0017207D02*
X0064009D01*
X0104391Y0031931D02*
X0104141Y0031681D01*
X0104641D02*
X0104391Y0031931D01*
X0104141Y0031681D02*
X0104641D01*
X0101323Y0033819D02*
X0101073Y0033569D01*
X0101573D02*
X0101323Y0033819D01*
X0101073Y0033569D02*
X0101573D01*
X0060770Y0018873D02*
X0060520Y0018623D01*
X0061020D02*
X0060770Y0018873D01*
X0060520Y0018623D02*
X0061020D01*
X0062535Y0019895D02*
X0062285Y0019645D01*
X0062785D02*
X0062535Y0019895D01*
X0062285Y0019645D02*
X0062785D01*
X0070913Y0015079D02*
X0070663Y0014829D01*
X0071163D02*
X0070913Y0015079D01*
X0070663Y0014829D02*
X0071163D01*
X0066190Y0021319D02*
X0065940Y0021069D01*
X0066440D02*
X0066190Y0021319D01*
X0065940Y0021069D02*
X0066440D01*
X0070561Y0021009D02*
X0070311Y0020759D01*
X0070811D02*
X0070561Y0021009D01*
X0070311Y0020759D02*
X0070811D01*
X0062535Y0019895D02*
X0062285Y0019645D01*
X0062785D02*
X0062535Y0019895D01*
X0062285Y0019645D02*
X0062785D01*
X0061127Y0020139D02*
X0060877Y0019889D01*
X0061377D02*
X0061127Y0020139D01*
X0060877Y0019889D02*
X0061377D01*
X0030798Y0015608D02*
X0030548Y0015358D01*
X0031048D02*
X0030798Y0015608D01*
X0030548Y0015358D02*
X0031048D01*
X0055143Y0013139D02*
X0054893Y0012889D01*
X0055393D02*
X0055143Y0013139D01*
X0054893Y0012889D02*
X0055393D01*
X0052603Y0008509D02*
X0052353Y0008259D01*
X0052853D02*
X0052603Y0008509D01*
X0052353Y0008259D02*
X0052853D01*
X0054713Y0010141D02*
X0054463Y0009891D01*
X0054963D02*
X0054713Y0010141D01*
X0054463Y0009891D02*
X0054963D01*
X0046217Y0014389D02*
X0045967Y0014139D01*
X0046467D02*
X0046217Y0014389D01*
X0045967Y0014139D02*
X0046467D01*
X0043699Y0022413D02*
X0043449Y0022163D01*
X0043949D02*
X0043699Y0022413D01*
X0043449Y0022163D02*
X0043949D01*
X0053847Y0015293D02*
X0053597Y0015043D01*
X0054097D02*
X0053847Y0015293D01*
X0053597Y0015043D02*
X0054097D01*
X0056533Y0017609D02*
X0056283Y0017359D01*
X0056783D02*
X0056533Y0017609D01*
X0056283Y0017359D02*
X0056783D01*
X0057859Y0017181D02*
X0057609Y0016931D01*
X0058109D02*
X0057859Y0017181D01*
X0057609Y0016931D02*
X0058109D01*
X0054831Y0017024D02*
X0054581Y0016774D01*
X0055081D02*
X0054831Y0017024D01*
X0054581Y0016774D02*
X0055081D01*
X0070448Y0017930D02*
X0070198Y0017680D01*
X0070698D02*
X0070448Y0017930D01*
X0070198Y0017680D02*
X0070698D01*
X0069423Y0008961D02*
X0069173Y0008711D01*
X0069673D02*
X0069423Y0008961D01*
X0069173Y0008711D02*
X0069673D01*
X0050333Y0014709D02*
X0050083Y0014459D01*
X0050583D02*
X0050333Y0014709D01*
X0050083Y0014459D02*
X0050583D01*
X0052393Y0015369D02*
X0052143Y0015119D01*
X0052643D02*
X0052393Y0015369D01*
X0052143Y0015119D02*
X0052643D01*
X0112062Y0029022D02*
X0111812Y0028772D01*
X0112312D02*
X0112062Y0029022D01*
X0111812Y0028772D02*
X0112312D01*
X0055133Y0016129D02*
X0054883Y0015879D01*
X0055383D02*
X0055133Y0016129D01*
X0054883Y0015879D02*
X0055383D01*
X0114027Y0037241D02*
X0113777Y0036991D01*
X0114277D02*
X0114027Y0037241D01*
X0113777Y0036991D02*
X0114277D01*
X0052643Y0017039D02*
X0052393Y0016789D01*
X0052893D02*
X0052643Y0017039D01*
X0052393Y0016789D02*
X0052893D01*
X0053887Y0012147D02*
X0053637Y0011897D01*
X0054137D02*
X0053887Y0012147D01*
X0053637Y0011897D02*
X0054137D01*
X0057859Y0017181D02*
X0057609Y0016931D01*
X0058109D02*
X0057859Y0017181D01*
X0057609Y0016931D02*
X0058109D01*
X0056533Y0017609D02*
X0056283Y0017359D01*
X0056783D02*
X0056533Y0017609D01*
X0056283Y0017359D02*
X0056783D01*
X0112062Y0029022D02*
X0111812Y0028772D01*
X0112312D02*
X0112062Y0029022D01*
X0111812Y0028772D02*
X0112312D01*
X0065885Y0015885D02*
X0065635Y0015635D01*
X0066135D02*
X0065885Y0015885D01*
X0065635Y0015635D02*
X0066135D01*
X0066591Y0008331D02*
X0066341Y0008081D01*
X0066841D02*
X0066591Y0008331D01*
X0066341Y0008081D02*
X0066841D01*
X0068597Y0017968D02*
X0068347Y0017718D01*
X0068847D02*
X0068597Y0017968D01*
X0068347Y0017718D02*
X0068847D01*
X0049009Y0015490D02*
X0048759Y0015240D01*
X0049259D02*
X0049009Y0015490D01*
X0048759Y0015240D02*
X0049259D01*
X0052113Y0022039D02*
X0051863Y0021789D01*
X0052363D02*
X0052113Y0022039D01*
X0051863Y0021789D02*
X0052363D01*
X0052117Y0035039D02*
X0051867Y0034789D01*
X0052367D02*
X0052117Y0035039D01*
X0051867Y0034789D02*
X0052367D01*
X0040395Y0038657D02*
X0040145Y0038407D01*
X0040645D02*
X0040395Y0038657D01*
X0040145Y0038407D02*
X0040645D01*
X0111983Y0019542D02*
X0111733Y0019292D01*
X0112233D02*
X0111983Y0019542D01*
X0111733Y0019292D02*
X0112233D01*
X0052510Y0014349D02*
X0052260Y0014099D01*
X0052760D02*
X0052510Y0014349D01*
X0052260Y0014099D02*
X0052760D01*
X0053493Y0017811D02*
X0053243Y0017561D01*
X0053743D02*
X0053493Y0017811D01*
X0053243Y0017561D02*
X0053743D01*
X0104813Y0038149D02*
X0104563Y0037899D01*
X0105063D02*
X0104813Y0038149D01*
X0104563Y0037899D02*
X0105063D01*
X0112013Y0016710D02*
X0111763Y0016460D01*
X0112263D02*
X0112013Y0016710D01*
X0111763Y0016460D02*
X0112263D01*
X0051723Y0014310D02*
X0051473Y0014060D01*
X0051973D02*
X0051723Y0014310D01*
X0051473Y0014060D02*
X0051973D01*
X0111746Y0020839D02*
X0111496Y0020589D01*
X0111996D02*
X0111746Y0020839D01*
X0111496Y0020589D02*
X0111996D01*
X0054643Y0015319D02*
X0054393Y0015069D01*
X0054893D02*
X0054643Y0015319D01*
X0054393Y0015069D02*
X0054893D01*
X0058323Y0007649D02*
X0058073Y0007399D01*
X0058573D02*
X0058323Y0007649D01*
X0058073Y0007399D02*
X0058573D01*
X0053633Y0014359D02*
X0053383Y0014109D01*
X0053883D02*
X0053633Y0014359D01*
X0053383Y0014109D02*
X0053883D01*
X0050333Y0014709D02*
X0050083Y0014459D01*
X0050583D02*
X0050333Y0014709D01*
X0050083Y0014459D02*
X0050583D01*
X0052823Y0023149D02*
X0052573Y0022899D01*
X0053073D02*
X0052823Y0023149D01*
X0052573Y0022899D02*
X0053073D01*
X0052825Y0034016D02*
X0052575Y0033766D01*
X0053075D02*
X0052825Y0034016D01*
X0052575Y0033766D02*
X0053075D01*
X0051292Y0038459D02*
X0051042Y0038209D01*
X0051542D02*
X0051292Y0038459D01*
X0051042Y0038209D02*
X0051542D01*
X0054693Y0012129D02*
X0054443Y0011879D01*
X0054943D02*
X0054693Y0012129D01*
X0054443Y0011879D02*
X0054943D01*
X0057702Y0008489D02*
X0057452Y0008239D01*
X0057952D02*
X0057702Y0008489D01*
X0057452Y0008239D02*
X0057952D01*
X0054477Y0014349D02*
X0054227Y0014099D01*
X0054727D02*
X0054477Y0014349D01*
X0054227Y0014099D02*
X0054727D01*
X0051363Y0011159D02*
X0051113Y0010909D01*
X0051613D02*
X0051363Y0011159D01*
X0051113Y0010909D02*
X0051613D01*
X0029539Y0015687D02*
X0029289Y0015437D01*
X0029789D02*
X0029539Y0015687D01*
X0029289Y0015437D02*
X0029789D01*
X0032883Y0038389D02*
X0032633Y0038139D01*
X0033133D02*
X0032883Y0038389D01*
X0032633Y0038139D02*
X0033133D01*
X0051487Y0035865D02*
X0051237Y0035615D01*
X0051737D02*
X0051487Y0035865D01*
X0051237Y0035615D02*
X0051737D01*
X0051493Y0021070D02*
X0051243Y0020820D01*
X0051743D02*
X0051493Y0021070D01*
X0051243Y0020820D02*
X0051743D01*
X0052353Y0017859D02*
X0052103Y0017609D01*
X0052603D02*
X0052353Y0017859D01*
X0052103Y0017609D02*
X0052603D01*
X0046728Y0010534D02*
X0046478Y0010284D01*
X0046978D02*
X0046728Y0010534D01*
X0046478Y0010284D02*
X0046978D01*
X0003370Y-0034775D02*
Y-0035175D01*
X0003670Y-0034475D02*
X0003370Y-0034775D01*
X0004070Y-0034475D02*
X0003670D01*
X0004370Y-0034775D02*
X0004070Y-0034475D01*
X0004370Y-0035175D02*
Y-0034775D01*
X0004070Y-0035475D02*
X0004370Y-0035175D01*
X0003670Y-0035475D02*
X0004070D01*
X0003370Y-0035175D02*
X0003670Y-0035475D01*
X0003770Y-0034775D02*
Y-0034675D01*
X0003670Y-0034775D02*
X0003770D01*
X0003670Y-0034675D02*
Y-0034775D01*
X0003770Y-0034675D02*
X0003670D01*
X0003970D02*
Y-0034775D01*
X0004070Y-0034675D02*
X0003970D01*
X0004070Y-0034775D02*
Y-0034675D01*
X0003970Y-0034775D02*
X0004070D01*
X0003770Y-0035275D02*
X0003570Y-0035075D01*
X0003970Y-0035275D02*
X0003770D01*
X0004170Y-0035075D02*
X0003970Y-0035275D01*
Y-0034975D02*
X0003770D01*
X0003870Y-0034875D02*
Y-0035075D01*
X0003620Y-0033225D02*
Y-0033475D01*
X0003870Y-0033225D02*
X0003620D01*
X0003870Y-0033725D02*
Y-0033225D01*
X0004120Y-0033725D02*
X0003870D01*
X0004120Y-0033475D02*
Y-0033725D01*
X0003620Y-0033475D02*
X0004120D01*
X0003870Y-0031675D02*
X0003370Y-0032175D01*
X0004370D02*
X0003870Y-0031675D01*
X0003370Y-0032175D02*
X0004370D01*
X0003920Y-0031975D02*
X0003820D01*
X0003870Y-0031925D02*
Y-0032025D01*
X0003620Y-0030375D02*
Y-0030575D01*
X0003870Y-0030625D02*
X0003620Y-0030375D01*
X0004120D02*
X0003870Y-0030625D01*
X0004120Y-0030575D02*
Y-0030375D01*
X0003870Y-0030325D02*
X0004120Y-0030575D01*
X0003620D02*
X0003870Y-0030325D01*
X0003370Y-0028775D02*
Y-0029175D01*
X0003870Y-0029275D02*
X0003370Y-0028775D01*
X0004370D02*
X0003870Y-0029275D01*
X0004370Y-0029175D02*
Y-0028775D01*
X0003870Y-0028675D02*
X0004370Y-0029175D01*
X0003370D02*
X0003870Y-0028675D01*
X0003920Y-0028975D02*
X0003820D01*
X0003870Y-0028925D02*
Y-0029025D01*
X0004370Y-0027475D02*
X0003370D01*
X0003870Y-0026975D02*
Y-0027975D01*
X0003620Y-0025725D02*
Y-0026225D01*
X0004120Y-0025725D02*
X0003620D01*
X0004120Y-0026225D02*
Y-0025725D01*
X0003620Y-0026225D02*
X0004120D01*
Y-0025975D02*
X0003620D01*
X0003870Y-0025725D02*
Y-0026225D01*
X0003370Y-0023975D02*
Y-0024475D01*
X0003870Y-0023975D02*
X0003370D01*
X0003870Y-0024975D02*
Y-0023975D01*
X0004370Y-0024975D02*
X0003870D01*
X0004370Y-0024475D02*
Y-0024975D01*
X0003370Y-0024475D02*
X0004370D01*
X0003370Y-0022775D02*
Y-0023175D01*
X0003670Y-0022475D02*
X0003370Y-0022775D01*
X0004070Y-0022475D02*
X0003670D01*
X0004370Y-0022775D02*
X0004070Y-0022475D01*
X0004370Y-0023175D02*
Y-0022775D01*
X0004070Y-0023475D02*
X0004370Y-0023175D01*
X0003670Y-0023475D02*
X0004070D01*
X0003370Y-0023175D02*
X0003670Y-0023475D01*
X0003970Y-0022975D02*
X0003770D01*
X0003870Y-0022875D02*
Y-0023075D01*
Y-0021225D02*
X0003620Y-0021475D01*
X0004120D02*
X0003870Y-0021225D01*
Y-0021725D02*
X0004120Y-0021475D01*
X0003620D02*
X0003870Y-0021725D01*
X0004120Y-0019975D02*
X0003620D01*
X0003870Y-0019725D02*
Y-0020225D01*
X0003370Y-0017975D02*
Y-0018975D01*
X0004370Y-0017975D02*
X0003370D01*
X0004370Y-0018975D02*
Y-0017975D01*
X0003370Y-0018975D02*
X0004370D01*
Y-0018475D02*
X0003370D01*
X0003870Y-0017975D02*
Y-0018975D01*
X0004120Y-0016725D02*
X0003620Y-0017225D01*
X0004120D02*
X0003620Y-0016725D01*
Y-0015375D02*
Y-0015575D01*
X0003770Y-0015225D02*
X0003620Y-0015375D01*
X0003970Y-0015225D02*
X0003770D01*
X0004120Y-0015375D02*
X0003970Y-0015225D01*
X0004120Y-0015575D02*
Y-0015375D01*
X0003970Y-0015725D02*
X0004120Y-0015575D01*
X0003770Y-0015725D02*
X0003970D01*
X0003620Y-0015575D02*
X0003770Y-0015725D01*
X0003620Y-0013875D02*
Y-0014075D01*
X0003770Y-0013725D02*
X0003620Y-0013875D01*
X0003970Y-0013725D02*
X0003770D01*
X0004120Y-0013875D02*
X0003970Y-0013725D01*
X0004120Y-0014075D02*
Y-0013875D01*
X0003970Y-0014225D02*
X0004120Y-0014075D01*
X0003770Y-0014225D02*
X0003970D01*
X0003620Y-0014075D02*
X0003770Y-0014225D01*
X0003820Y-0013875D02*
Y-0013825D01*
X0003770Y-0013875D02*
X0003820D01*
X0003770Y-0013825D02*
Y-0013875D01*
X0003820Y-0013825D02*
X0003770D01*
X0003920D02*
Y-0013875D01*
X0003970Y-0013825D02*
X0003920D01*
X0003970Y-0013875D02*
Y-0013825D01*
X0003920Y-0013875D02*
X0003970D01*
X0003820Y-0014125D02*
X0003720Y-0014025D01*
X0003920Y-0014125D02*
X0003820D01*
X0004020Y-0014025D02*
X0003920Y-0014125D01*
X0003620Y-0012225D02*
Y-0012725D01*
X0004120Y-0012225D02*
X0003620D01*
X0004120Y-0012725D02*
Y-0012225D01*
X0003620Y-0012725D02*
X0004120D01*
Y-0012225D02*
X0003620Y-0012725D01*
X0004120D02*
X0003620Y-0012225D01*
X0004370Y-0010475D02*
X0003370Y-0011475D01*
X0004370D02*
X0003370Y-0010475D01*
Y-0008975D02*
Y-0009975D01*
X0004370Y-0008975D02*
X0003370D01*
X0004370Y-0009975D02*
Y-0008975D01*
X0003370Y-0009975D02*
X0004370D01*
Y-0008975D02*
X0003370Y-0009975D01*
X0004370D02*
X0003370Y-0008975D01*
X0003870Y-0007825D02*
X0003620Y-0008075D01*
X0004120D02*
X0003870Y-0007825D01*
X0003620Y-0008075D02*
X0004120D01*
X0039345Y-0037775D02*
X0001995D01*
X0039295Y-0037725D02*
X0002045D01*
X0039295Y-0035725D02*
X0002045D01*
X0039295Y-0034225D02*
X0002045D01*
X0039295Y-0032725D02*
X0002045D01*
X0039295Y-0031225D02*
X0002045D01*
X0039295Y-0029725D02*
X0002045D01*
X0039295Y-0028225D02*
X0002045D01*
X0039295Y-0026725D02*
X0002045D01*
X0039295Y-0025225D02*
X0002045D01*
X0039295Y-0023725D02*
X0002045D01*
X0039295Y-0022225D02*
X0002045D01*
X0039295Y-0020725D02*
X0002045D01*
X0039295Y-0019225D02*
X0002045D01*
X0039295Y-0017725D02*
X0002045D01*
X0039295Y-0016225D02*
X0002045D01*
X0039295Y-0014725D02*
X0002045D01*
X0039295Y-0013225D02*
X0002045D01*
X0039295Y-0011725D02*
X0002045D01*
X0039295Y-0010225D02*
X0002045D01*
X0039295Y-0008725D02*
X0002045D01*
X0039295Y-0007225D02*
X0002045D01*
X0039295Y-0007175D02*
X0002045D01*
X0039295Y-0005225D02*
X0002045D01*
X0039295Y-0005175D02*
X0002045D01*
X0039295Y-0003225D02*
X0002045D01*
X0039345Y-0003175D02*
X0001995D01*
X0039345Y-0037725D02*
Y-0003225D01*
X0039295Y-0037725D02*
Y-0003225D01*
X0027754Y-0037725D02*
Y-0005225D01*
X0022204Y-0037725D02*
Y-0005225D01*
X0014137Y-0035725D02*
Y-0005225D01*
X0005745Y-0035725D02*
Y-0005225D01*
X0005695Y-0035725D02*
Y-0005225D01*
X0001995Y-0037725D02*
Y-0003225D01*
X0002045Y-0037725D02*
Y-0003225D01*
X0031649Y0028735D02*
Y0028535D01*
X0031799Y0028885D02*
X0031649Y0028735D01*
X0031999Y0028885D02*
X0031799D01*
X0032149Y0028735D02*
X0031999Y0028885D01*
X0032149Y0028535D02*
Y0028735D01*
X0031999Y0028385D02*
X0032149Y0028535D01*
X0031799Y0028385D02*
X0031999D01*
X0031649Y0028535D02*
X0031799Y0028385D01*
X0031099Y0029285D02*
Y0029085D01*
X0031249Y0029435D02*
X0031099Y0029285D01*
X0031449Y0029435D02*
X0031249D01*
X0031599Y0029285D02*
X0031449Y0029435D01*
X0031599Y0029085D02*
Y0029285D01*
X0031449Y0028935D02*
X0031599Y0029085D01*
X0031249Y0028935D02*
X0031449D01*
X0031099Y0029085D02*
X0031249Y0028935D01*
X0030509Y0029915D02*
Y0029715D01*
X0030659Y0030065D02*
X0030509Y0029915D01*
X0030859Y0030065D02*
X0030659D01*
X0031009Y0029915D02*
X0030859Y0030065D01*
X0031009Y0029715D02*
Y0029915D01*
X0030859Y0029565D02*
X0031009Y0029715D01*
X0030659Y0029565D02*
X0030859D01*
X0030509Y0029715D02*
X0030659Y0029565D01*
X0114118Y0017531D02*
Y0016531D01*
X0115118Y0017531D02*
X0114118D01*
X0115118Y0016531D02*
Y0017531D01*
X0114118Y0016531D02*
X0115118D01*
Y0017531D02*
X0114118Y0016531D01*
X0115118D02*
X0114118Y0017531D01*
X0113118D02*
Y0016531D01*
X0114118Y0017531D02*
X0113118D01*
X0114118Y0016531D02*
Y0017531D01*
X0113118Y0016531D02*
X0114118D01*
Y0017531D02*
X0113118Y0016531D01*
X0114118D02*
X0113118Y0017531D01*
X0075256Y0019159D02*
Y0018759D01*
X0075556Y0019459D02*
X0075256Y0019159D01*
X0075956Y0019459D02*
X0075556D01*
X0076256Y0019159D02*
X0075956Y0019459D01*
X0076256Y0018759D02*
Y0019159D01*
X0075956Y0018459D02*
X0076256Y0018759D01*
X0075556Y0018459D02*
X0075956D01*
X0075256Y0018759D02*
X0075556Y0018459D01*
X0075856Y0018959D02*
X0075656D01*
X0075756Y0019059D02*
Y0018859D01*
X0077622Y0018367D02*
Y0017967D01*
X0077922Y0018667D02*
X0077622Y0018367D01*
X0078322Y0018667D02*
X0077922D01*
X0078622Y0018367D02*
X0078322Y0018667D01*
X0078622Y0017967D02*
Y0018367D01*
X0078322Y0017667D02*
X0078622Y0017967D01*
X0077922Y0017667D02*
X0078322D01*
X0077622Y0017967D02*
X0077922Y0017667D01*
X0078222Y0018167D02*
X0078022D01*
X0078122Y0018267D02*
Y0018067D01*
X0072894Y0018367D02*
Y0017967D01*
X0073194Y0018667D02*
X0072894Y0018367D01*
X0073594Y0018667D02*
X0073194D01*
X0073894Y0018367D02*
X0073594Y0018667D01*
X0073894Y0017967D02*
Y0018367D01*
X0073594Y0017667D02*
X0073894Y0017967D01*
X0073194Y0017667D02*
X0073594D01*
X0072894Y0017967D02*
X0073194Y0017667D01*
X0073494Y0018167D02*
X0073294D01*
X0073394Y0018267D02*
Y0018067D01*
X0077622Y0013564D02*
Y0013164D01*
X0077922Y0013864D02*
X0077622Y0013564D01*
X0078322Y0013864D02*
X0077922D01*
X0078622Y0013564D02*
X0078322Y0013864D01*
X0078622Y0013164D02*
Y0013564D01*
X0078322Y0012864D02*
X0078622Y0013164D01*
X0077922Y0012864D02*
X0078322D01*
X0077622Y0013164D02*
X0077922Y0012864D01*
X0078222Y0013364D02*
X0078022D01*
X0078122Y0013464D02*
Y0013264D01*
X0072894Y0013564D02*
Y0013164D01*
X0073194Y0013864D02*
X0072894Y0013564D01*
X0073594Y0013864D02*
X0073194D01*
X0073894Y0013564D02*
X0073594Y0013864D01*
X0073894Y0013164D02*
Y0013564D01*
X0073594Y0012864D02*
X0073894Y0013164D01*
X0073194Y0012864D02*
X0073594D01*
X0072894Y0013164D02*
X0073194Y0012864D01*
X0073494Y0013364D02*
X0073294D01*
X0073394Y0013464D02*
Y0013264D01*
X0040527Y0014357D02*
X0040027D01*
X0040277Y0014607D02*
Y0014107D01*
X0040527Y0015026D02*
X0040027D01*
X0040277Y0015276D02*
Y0014776D01*
X0040527Y0015695D02*
X0040027D01*
X0040277Y0015945D02*
Y0015445D01*
X0040527Y0016364D02*
X0040027D01*
X0040277Y0016614D02*
Y0016114D01*
X0040527Y0017034D02*
X0040027D01*
X0040277Y0017284D02*
Y0016784D01*
X0114118Y0020205D02*
Y0019205D01*
X0115118Y0020205D02*
X0114118D01*
X0115118Y0019205D02*
Y0020205D01*
X0114118Y0019205D02*
X0115118D01*
Y0020205D02*
X0114118Y0019205D01*
X0115118D02*
X0114118Y0020205D01*
X0113118D02*
Y0019205D01*
X0114118Y0020205D02*
X0113118D01*
X0114118Y0019205D02*
Y0020205D01*
X0113118Y0019205D02*
X0114118D01*
Y0020205D02*
X0113118Y0019205D01*
X0114118D02*
X0113118Y0020205D01*
X0114117Y0028820D02*
Y0027820D01*
X0115117Y0028820D02*
X0114117D01*
X0115117Y0027820D02*
Y0028820D01*
X0114117Y0027820D02*
X0115117D01*
Y0028820D02*
X0114117Y0027820D01*
X0115117D02*
X0114117Y0028820D01*
X0113117D02*
Y0027820D01*
X0114117Y0028820D02*
X0113117D01*
X0114117Y0027820D02*
Y0028820D01*
X0113117Y0027820D02*
X0114117D01*
Y0028820D02*
X0113117Y0027820D01*
X0114117D02*
X0113117Y0028820D01*
X0114098Y0031396D02*
Y0030396D01*
X0115098Y0031396D02*
X0114098D01*
X0115098Y0030396D02*
Y0031396D01*
X0114098Y0030396D02*
X0115098D01*
Y0031396D02*
X0114098Y0030396D01*
X0115098D02*
X0114098Y0031396D01*
X0113098D02*
Y0030396D01*
X0114098Y0031396D02*
X0113098D01*
X0114098Y0030396D02*
Y0031396D01*
X0113098Y0030396D02*
X0114098D01*
Y0031396D02*
X0113098Y0030396D01*
X0114098D02*
X0113098Y0031396D01*
X0091989Y0041957D02*
X0090989Y0040957D01*
X0091989D02*
X0090989Y0041957D01*
X0091989Y0038207D02*
X0090989Y0037207D01*
X0091989D02*
X0090989Y0038207D01*
X0090849Y0041957D02*
X0089849Y0040957D01*
X0090849D02*
X0089849Y0041957D01*
X0090849Y0038207D02*
X0089849Y0037207D01*
X0090849D02*
X0089849Y0038207D01*
X0091989Y0046481D02*
X0090989Y0045481D01*
X0091989D02*
X0090989Y0046481D01*
X0091989Y0042731D02*
X0090989Y0041731D01*
X0091989D02*
X0090989Y0042731D01*
X0090809Y0046481D02*
X0089809Y0045481D01*
X0090809D02*
X0089809Y0046481D01*
X0090809Y0042731D02*
X0089809Y0041731D01*
X0090809D02*
X0089809Y0042731D01*
X0009805Y0019237D02*
Y0018837D01*
X0010105Y0019537D02*
X0009805Y0019237D01*
X0010505Y0019537D02*
X0010105D01*
X0010805Y0019237D02*
X0010505Y0019537D01*
X0010805Y0018837D02*
Y0019237D01*
X0010505Y0018537D02*
X0010805Y0018837D01*
X0010105Y0018537D02*
X0010505D01*
X0009805Y0018837D02*
X0010105Y0018537D01*
X0010205Y0019237D02*
Y0019337D01*
X0010105Y0019237D02*
X0010205D01*
X0010105Y0019337D02*
Y0019237D01*
X0010205Y0019337D02*
X0010105D01*
X0010405D02*
Y0019237D01*
X0010505Y0019337D02*
X0010405D01*
X0010505Y0019237D02*
Y0019337D01*
X0010405Y0019237D02*
X0010505D01*
X0010205Y0018737D02*
X0010005Y0018937D01*
X0010405Y0018737D02*
X0010205D01*
X0010605Y0018937D02*
X0010405Y0018737D01*
Y0019037D02*
X0010205D01*
X0010305Y0019137D02*
Y0018937D01*
X0009884Y0035954D02*
Y0035554D01*
X0010184Y0036254D02*
X0009884Y0035954D01*
X0010584Y0036254D02*
X0010184D01*
X0010884Y0035954D02*
X0010584Y0036254D01*
X0010884Y0035554D02*
Y0035954D01*
X0010584Y0035254D02*
X0010884Y0035554D01*
X0010184Y0035254D02*
X0010584D01*
X0009884Y0035554D02*
X0010184Y0035254D01*
X0010284Y0035954D02*
Y0036054D01*
X0010184Y0035954D02*
X0010284D01*
X0010184Y0036054D02*
Y0035954D01*
X0010284Y0036054D02*
X0010184D01*
X0010484D02*
Y0035954D01*
X0010584Y0036054D02*
X0010484D01*
X0010584Y0035954D02*
Y0036054D01*
X0010484Y0035954D02*
X0010584D01*
X0010284Y0035454D02*
X0010084Y0035654D01*
X0010484Y0035454D02*
X0010284D01*
X0010684Y0035654D02*
X0010484Y0035454D01*
Y0035754D02*
X0010284D01*
X0010384Y0035854D02*
Y0035654D01*
X0009845Y0040163D02*
Y0039763D01*
X0010145Y0040463D02*
X0009845Y0040163D01*
X0010545Y0040463D02*
X0010145D01*
X0010845Y0040163D02*
X0010545Y0040463D01*
X0010845Y0039763D02*
Y0040163D01*
X0010545Y0039463D02*
X0010845Y0039763D01*
X0010145Y0039463D02*
X0010545D01*
X0009845Y0039763D02*
X0010145Y0039463D01*
X0010245Y0040163D02*
Y0040263D01*
X0010145Y0040163D02*
X0010245D01*
X0010145Y0040263D02*
Y0040163D01*
X0010245Y0040263D02*
X0010145D01*
X0010445D02*
Y0040163D01*
X0010545Y0040263D02*
X0010445D01*
X0010545Y0040163D02*
Y0040263D01*
X0010445Y0040163D02*
X0010545D01*
X0010245Y0039663D02*
X0010045Y0039863D01*
X0010445Y0039663D02*
X0010245D01*
X0010645Y0039863D02*
X0010445Y0039663D01*
Y0039963D02*
X0010245D01*
X0010345Y0040063D02*
Y0039863D01*
X0110330Y0047175D02*
X0110080Y0046925D01*
X0110580D02*
X0110330Y0047175D01*
Y0046675D02*
X0110580Y0046925D01*
X0110080D02*
X0110330Y0046675D01*
X0111330Y0047175D02*
X0111080Y0046925D01*
X0111580D02*
X0111330Y0047175D01*
Y0046675D02*
X0111580Y0046925D01*
X0111080D02*
X0111330Y0046675D01*
X0112330Y0047175D02*
X0112080Y0046925D01*
X0112580D02*
X0112330Y0047175D01*
Y0046675D02*
X0112580Y0046925D01*
X0112080D02*
X0112330Y0046675D01*
X0097665Y0047175D02*
X0097415Y0046925D01*
X0097915D02*
X0097665Y0047175D01*
Y0046675D02*
X0097915Y0046925D01*
X0097415D02*
X0097665Y0046675D01*
X0098665Y0047175D02*
X0098415Y0046925D01*
X0098915D02*
X0098665Y0047175D01*
Y0046675D02*
X0098915Y0046925D01*
X0098415D02*
X0098665Y0046675D01*
X0099665Y0047175D02*
X0099415Y0046925D01*
X0099915D02*
X0099665Y0047175D01*
Y0046675D02*
X0099915Y0046925D01*
X0099415D02*
X0099665Y0046675D01*
X0046925Y0047175D02*
X0046675Y0046925D01*
X0047175D02*
X0046925Y0047175D01*
Y0046675D02*
X0047175Y0046925D01*
X0046675D02*
X0046925Y0046675D01*
X0047925Y0047175D02*
X0047675Y0046925D01*
X0048175D02*
X0047925Y0047175D01*
Y0046675D02*
X0048175Y0046925D01*
X0047675D02*
X0047925Y0046675D01*
X0048925Y0047175D02*
X0048675Y0046925D01*
X0049175D02*
X0048925Y0047175D01*
Y0046675D02*
X0049175Y0046925D01*
X0048675D02*
X0048925Y0046675D01*
X0037760Y0047175D02*
X0037510Y0046925D01*
X0038010D02*
X0037760Y0047175D01*
Y0046675D02*
X0038010Y0046925D01*
X0037510D02*
X0037760Y0046675D01*
X0038760Y0047175D02*
X0038510Y0046925D01*
X0039010D02*
X0038760Y0047175D01*
Y0046675D02*
X0039010Y0046925D01*
X0038510D02*
X0038760Y0046675D01*
X0039760Y0047175D02*
X0039510Y0046925D01*
X0040010D02*
X0039760Y0047175D01*
Y0046675D02*
X0040010Y0046925D01*
X0039510D02*
X0039760Y0046675D01*
X0028792Y0047175D02*
X0028542Y0046925D01*
X0029042D02*
X0028792Y0047175D01*
Y0046675D02*
X0029042Y0046925D01*
X0028542D02*
X0028792Y0046675D01*
X0029792Y0047175D02*
X0029542Y0046925D01*
X0030042D02*
X0029792Y0047175D01*
Y0046675D02*
X0030042Y0046925D01*
X0029542D02*
X0029792Y0046675D01*
X0030792Y0047175D02*
X0030542Y0046925D01*
X0031042D02*
X0030792Y0047175D01*
Y0046675D02*
X0031042Y0046925D01*
X0030542D02*
X0030792Y0046675D01*
X0047961Y0006820D02*
X0047461Y0006320D01*
X0047961D02*
X0047461Y0006820D01*
X0048961D02*
X0048461Y0006320D01*
X0048961D02*
X0048461Y0006820D01*
X0049961D02*
X0049461Y0006320D01*
X0049961D02*
X0049461Y0006820D01*
X0050961D02*
X0050461Y0006320D01*
X0050961D02*
X0050461Y0006820D01*
X0051961D02*
X0051461Y0006320D01*
X0051961D02*
X0051461Y0006820D01*
X0052961D02*
X0052461Y0006320D01*
X0052961D02*
X0052461Y0006820D01*
X0043140Y0008583D02*
Y0008083D01*
X0043640Y0008583D02*
X0043140D01*
X0043640Y0008083D02*
Y0008583D01*
X0043140Y0008083D02*
X0043640D01*
Y0008583D02*
X0043140Y0008083D01*
X0043640D02*
X0043140Y0008583D01*
Y0007604D02*
Y0007104D01*
X0043640Y0007604D02*
X0043140D01*
X0043640Y0007104D02*
Y0007604D01*
X0043140Y0007104D02*
X0043640D01*
Y0007604D02*
X0043140Y0007104D01*
X0043640D02*
X0043140Y0007604D01*
Y0006625D02*
Y0006125D01*
X0043640Y0006625D02*
X0043140D01*
X0043640Y0006125D02*
Y0006625D01*
X0043140Y0006125D02*
X0043640D01*
Y0006625D02*
X0043140Y0006125D01*
X0043640D02*
X0043140Y0006625D01*
X0010687Y0008417D02*
X0009687D01*
X0010187Y0008917D02*
Y0007917D01*
X0012187Y0008421D02*
X0011187D01*
X0011687Y0008921D02*
Y0007921D01*
X0013687Y0008421D02*
X0012687D01*
X0013187Y0008921D02*
Y0007921D01*
X0005687Y0009417D02*
X0004687D01*
X0005187Y0009917D02*
Y0008917D01*
X0005687Y0007413D02*
X0004687D01*
X0005187Y0007913D02*
Y0006913D01*
X0105783Y0013741D02*
X0105283Y0013241D01*
X0105783D02*
X0105283Y0013741D01*
X0105783Y0012741D02*
X0105283Y0012241D01*
X0105783D02*
X0105283Y0012741D01*
X0105783Y0011741D02*
X0105283Y0011241D01*
X0105783D02*
X0105283Y0011741D01*
X0105783Y0010741D02*
X0105283Y0010241D01*
X0105783D02*
X0105283Y0010741D01*
X0105783Y0009741D02*
X0105283Y0009241D01*
X0105783D02*
X0105283Y0009741D01*
X0105783Y0008741D02*
X0105283Y0008241D01*
X0105783D02*
X0105283Y0008741D01*
X0060864Y0015393D02*
X0060364Y0014893D01*
X0060864D02*
X0060364Y0015393D01*
X0060864Y0014393D02*
X0060364Y0013893D01*
X0060864D02*
X0060364Y0014393D01*
X0060864Y0013393D02*
X0060364Y0012893D01*
X0060864D02*
X0060364Y0013393D01*
X0060864Y0012393D02*
X0060364Y0011893D01*
X0060864D02*
X0060364Y0012393D01*
X0060864Y0011393D02*
X0060364Y0010893D01*
X0060864D02*
X0060364Y0011393D01*
X0060864Y0010393D02*
X0060364Y0009893D01*
X0060864D02*
X0060364Y0010393D01*
X0060864Y0009397D02*
X0060364Y0008897D01*
X0060864D02*
X0060364Y0009397D01*
X0060864Y0008401D02*
X0060364Y0007901D01*
X0060864D02*
X0060364Y0008401D01*
X0081232Y0011671D02*
Y0011171D01*
X0081732Y0011671D02*
X0081232D01*
X0081732Y0010671D02*
Y0011671D01*
X0082232Y0010671D02*
X0081732D01*
X0082232Y0011171D02*
Y0010671D01*
X0081232Y0011171D02*
X0082232D01*
X0081232Y0020529D02*
Y0020029D01*
X0081732Y0020529D02*
X0081232D01*
X0081732Y0019529D02*
Y0020529D01*
X0082232Y0019529D02*
X0081732D01*
X0082232Y0020029D02*
Y0019529D01*
X0081232Y0020029D02*
X0082232D01*
X0020858Y0012000D02*
Y0011600D01*
X0021358Y0011500D02*
X0020858Y0012000D01*
X0021858D02*
X0021358Y0011500D01*
X0021858Y0011600D02*
Y0012000D01*
X0021358Y0012100D02*
X0021858Y0011600D01*
X0020858D02*
X0021358Y0012100D01*
X0021408Y0011800D02*
X0021308D01*
X0021358Y0011850D02*
Y0011750D01*
X0017858Y0011996D02*
Y0011596D01*
X0018358Y0011496D02*
X0017858Y0011996D01*
X0018858D02*
X0018358Y0011496D01*
X0018858Y0011596D02*
Y0011996D01*
X0018358Y0012096D02*
X0018858Y0011596D01*
X0017858D02*
X0018358Y0012096D01*
X0018408Y0011796D02*
X0018308D01*
X0018358Y0011846D02*
Y0011746D01*
X0010405Y0012000D02*
Y0011600D01*
X0010905Y0011500D02*
X0010405Y0012000D01*
X0011405D02*
X0010905Y0011500D01*
X0011405Y0011600D02*
Y0012000D01*
X0010905Y0012100D02*
X0011405Y0011600D01*
X0010405D02*
X0010905Y0012100D01*
X0010955Y0011800D02*
X0010855D01*
X0010905Y0011850D02*
Y0011750D01*
X0007405Y0012000D02*
Y0011600D01*
X0007905Y0011500D02*
X0007405Y0012000D01*
X0008405D02*
X0007905Y0011500D01*
X0008405Y0011600D02*
Y0012000D01*
X0007905Y0012100D02*
X0008405Y0011600D01*
X0007405D02*
X0007905Y0012100D01*
X0007955Y0011800D02*
X0007855D01*
X0007905Y0011850D02*
Y0011750D01*
X0020858Y0015265D02*
Y0014865D01*
X0021358Y0014765D02*
X0020858Y0015265D01*
X0021858D02*
X0021358Y0014765D01*
X0021858Y0014865D02*
Y0015265D01*
X0021358Y0015365D02*
X0021858Y0014865D01*
X0020858D02*
X0021358Y0015365D01*
X0021408Y0015065D02*
X0021308D01*
X0021358Y0015115D02*
Y0015015D01*
X0017858Y0015261D02*
Y0014861D01*
X0018358Y0014761D02*
X0017858Y0015261D01*
X0018858D02*
X0018358Y0014761D01*
X0018858Y0014861D02*
Y0015261D01*
X0018358Y0015361D02*
X0018858Y0014861D01*
X0017858D02*
X0018358Y0015361D01*
X0018408Y0015061D02*
X0018308D01*
X0018358Y0015111D02*
Y0015011D01*
X0010405Y0015265D02*
Y0014865D01*
X0010905Y0014765D02*
X0010405Y0015265D01*
X0011405D02*
X0010905Y0014765D01*
X0011405Y0014865D02*
Y0015265D01*
X0010905Y0015365D02*
X0011405Y0014865D01*
X0010405D02*
X0010905Y0015365D01*
X0010955Y0015065D02*
X0010855D01*
X0010905Y0015115D02*
Y0015015D01*
X0007405Y0015265D02*
Y0014865D01*
X0007905Y0014765D02*
X0007405Y0015265D01*
X0008405D02*
X0007905Y0014765D01*
X0008405Y0014865D02*
Y0015265D01*
X0007905Y0015365D02*
X0008405Y0014865D01*
X0007405D02*
X0007905Y0015365D01*
X0007955Y0015065D02*
X0007855D01*
X0007905Y0015115D02*
Y0015015D01*
X0019627Y0047175D02*
X0019377Y0046925D01*
X0019877D02*
X0019627Y0047175D01*
Y0046675D02*
X0019877Y0046925D01*
X0019377D02*
X0019627Y0046675D01*
X0020627Y0047175D02*
X0020377Y0046925D01*
X0020877D02*
X0020627Y0047175D01*
Y0046675D02*
X0020877Y0046925D01*
X0020377D02*
X0020627Y0046675D01*
X0021627Y0047175D02*
X0021377Y0046925D01*
X0021877D02*
X0021627Y0047175D01*
Y0046675D02*
X0021877Y0046925D01*
X0021377D02*
X0021627Y0046675D01*
X0099238Y0010841D02*
X0098738Y0010341D01*
X0099738D02*
X0099238Y0010841D01*
X0098738Y0010341D02*
X0099738D01*
X0099288Y0010541D02*
X0099188D01*
X0099238Y0010591D02*
Y0010491D01*
X0076189Y0008678D02*
X0075689Y0008178D01*
X0076689D02*
X0076189Y0008678D01*
X0075689Y0008178D02*
X0076689D01*
X0076239Y0008378D02*
X0076139D01*
X0076189Y0008428D02*
Y0008328D01*
X0073868Y0010802D02*
X0073368Y0010302D01*
X0074368D02*
X0073868Y0010802D01*
X0073368Y0010302D02*
X0074368D01*
X0073918Y0010502D02*
X0073818D01*
X0073868Y0010552D02*
Y0010452D01*
X0099238Y0015050D02*
X0098738Y0014550D01*
X0099738D02*
X0099238Y0015050D01*
X0098738Y0014550D02*
X0099738D01*
X0099288Y0014750D02*
X0099188D01*
X0099238Y0014800D02*
Y0014700D01*
X0018433Y0018933D02*
Y0018683D01*
X0018683Y0018933D02*
X0018433D01*
X0018683Y0018433D02*
Y0018933D01*
X0018933Y0018433D02*
X0018683D01*
X0018933Y0018683D02*
Y0018433D01*
X0018433Y0018683D02*
X0018933D01*
X0075756Y0021029D02*
X0075256Y0020529D01*
X0076256D02*
X0075756Y0021029D01*
X0075256Y0020529D02*
X0076256D01*
X0075806Y0020729D02*
X0075706D01*
X0075756Y0020779D02*
Y0020679D01*
X0009687Y0025570D02*
Y0025170D01*
X0009987Y0025870D02*
X0009687Y0025570D01*
X0010387Y0025870D02*
X0009987D01*
X0010687Y0025570D02*
X0010387Y0025870D01*
X0010687Y0025170D02*
Y0025570D01*
X0010387Y0024870D02*
X0010687Y0025170D01*
X0009987Y0024870D02*
X0010387D01*
X0009687Y0025170D02*
X0009987Y0024870D01*
X0010087Y0025570D02*
Y0025670D01*
X0009987Y0025570D02*
X0010087D01*
X0009987Y0025670D02*
Y0025570D01*
X0010087Y0025670D02*
X0009987D01*
X0010287D02*
Y0025570D01*
X0010387Y0025670D02*
X0010287D01*
X0010387Y0025570D02*
Y0025670D01*
X0010287Y0025570D02*
X0010387D01*
X0010087Y0025070D02*
X0009887Y0025270D01*
X0010287Y0025070D02*
X0010087D01*
X0010487Y0025270D02*
X0010287Y0025070D01*
Y0025370D02*
X0010087D01*
X0010187Y0025470D02*
Y0025270D01*
X0007681Y0021897D02*
Y0021397D01*
X0008181Y0021897D02*
X0007681D01*
X0008181Y0020897D02*
Y0021897D01*
X0008681Y0020897D02*
X0008181D01*
X0008681Y0021397D02*
Y0020897D01*
X0007681Y0021397D02*
X0008681D01*
X0011701Y0021897D02*
Y0021397D01*
X0012201Y0021897D02*
X0011701D01*
X0012201Y0020897D02*
Y0021897D01*
X0012701Y0020897D02*
X0012201D01*
X0012701Y0021397D02*
Y0020897D01*
X0011701Y0021397D02*
X0012701D01*
X0007693Y0025913D02*
Y0025413D01*
X0008193Y0025913D02*
X0007693D01*
X0008193Y0024913D02*
Y0025913D01*
X0008693Y0024913D02*
X0008193D01*
X0008693Y0025413D02*
Y0024913D01*
X0007693Y0025413D02*
X0008693D01*
X0011701Y0025909D02*
Y0025409D01*
X0012201Y0025909D02*
X0011701D01*
X0012201Y0024909D02*
Y0025909D01*
X0012701Y0024909D02*
X0012201D01*
X0012701Y0025409D02*
Y0024909D01*
X0011701Y0025409D02*
X0012701D01*
X0018315Y0036358D02*
Y0036108D01*
X0018565Y0036358D02*
X0018315D01*
X0018565Y0035858D02*
Y0036358D01*
X0018815Y0035858D02*
X0018565D01*
X0018815Y0036108D02*
Y0035858D01*
X0018315Y0036108D02*
X0018815D01*
X0007681Y0036372D02*
Y0035872D01*
X0008181Y0036372D02*
X0007681D01*
X0008181Y0035372D02*
Y0036372D01*
X0008681Y0035372D02*
X0008181D01*
X0008681Y0035872D02*
Y0035372D01*
X0007681Y0035872D02*
X0008681D01*
X0011701Y0036372D02*
Y0035872D01*
X0012201Y0036372D02*
X0011701D01*
X0012201Y0035372D02*
Y0036372D01*
X0012701Y0035372D02*
X0012201D01*
X0012701Y0035872D02*
Y0035372D01*
X0011701Y0035872D02*
X0012701D01*
X0007693Y0040388D02*
Y0039888D01*
X0008193Y0040388D02*
X0007693D01*
X0008193Y0039388D02*
Y0040388D01*
X0008693Y0039388D02*
X0008193D01*
X0008693Y0039888D02*
Y0039388D01*
X0007693Y0039888D02*
X0008693D01*
X0011701Y0040384D02*
Y0039884D01*
X0012201Y0040384D02*
X0011701D01*
X0012201Y0039384D02*
Y0040384D01*
X0012701Y0039384D02*
X0012201D01*
X0012701Y0039884D02*
Y0039384D01*
X0011701Y0039884D02*
X0012701D01*
X0006122Y0044625D02*
Y0044425D01*
X0006372Y0044375D02*
X0006122Y0044625D01*
X0006622D02*
X0006372Y0044375D01*
X0006622Y0044425D02*
Y0044625D01*
X0006372Y0044675D02*
X0006622Y0044425D01*
X0006122D02*
X0006372Y0044675D01*
X0104337Y0045405D02*
Y0045155D01*
X0104587Y0045405D02*
X0104337D01*
X0104587Y0044905D02*
Y0045405D01*
X0104837Y0044905D02*
X0104587D01*
X0104837Y0045155D02*
Y0044905D01*
X0104337Y0045155D02*
X0104837D01*
X0093875Y0045405D02*
Y0045155D01*
X0094125Y0045405D02*
X0093875D01*
X0094125Y0044905D02*
Y0045405D01*
X0094375Y0044905D02*
X0094125D01*
X0094375Y0045155D02*
Y0044905D01*
X0093875Y0045155D02*
X0094375D01*
X0006161Y0056583D02*
Y0056383D01*
X0006411Y0056333D02*
X0006161Y0056583D01*
X0006661D02*
X0006411Y0056333D01*
X0006661Y0056383D02*
Y0056583D01*
X0006411Y0056633D02*
X0006661Y0056383D01*
X0006161D02*
X0006411Y0056633D01*
X0094489Y0011041D02*
Y0010041D01*
X0095489Y0011041D02*
X0094489D01*
X0095489Y0010041D02*
Y0011041D01*
X0094489Y0010041D02*
X0095489D01*
Y0010541D02*
X0094489D01*
X0094989Y0011041D02*
Y0010041D01*
X0094489Y0019907D02*
Y0018907D01*
X0095489Y0019907D02*
X0094489D01*
X0095489Y0018907D02*
Y0019907D01*
X0094489Y0018907D02*
X0095489D01*
Y0019407D02*
X0094489D01*
X0094989Y0019907D02*
Y0018907D01*
X0090162Y0011041D02*
Y0010041D01*
X0091162Y0011041D02*
X0090162D01*
X0091162Y0010041D02*
Y0011041D01*
X0090162Y0010041D02*
X0091162D01*
Y0010541D02*
X0090162D01*
X0090662Y0011041D02*
Y0010041D01*
X0090162Y0019907D02*
Y0018907D01*
X0091162Y0019907D02*
X0090162D01*
X0091162Y0018907D02*
Y0019907D01*
X0090162Y0018907D02*
X0091162D01*
Y0019407D02*
X0090162D01*
X0090662Y0019907D02*
Y0018907D01*
X0085836Y0011041D02*
Y0010041D01*
X0086836Y0011041D02*
X0085836D01*
X0086836Y0010041D02*
Y0011041D01*
X0085836Y0010041D02*
X0086836D01*
Y0010541D02*
X0085836D01*
X0086336Y0011041D02*
Y0010041D01*
X0085836Y0019907D02*
Y0018907D01*
X0086836Y0019907D02*
X0085836D01*
X0086836Y0018907D02*
Y0019907D01*
X0085836Y0018907D02*
X0086836D01*
Y0019407D02*
X0085836D01*
X0086336Y0019907D02*
Y0018907D01*
X0078338Y0035886D02*
Y0035386D01*
X0078838Y0035886D02*
X0078338D01*
X0078838Y0035386D02*
Y0035886D01*
X0078338Y0035386D02*
X0078838D01*
Y0035636D02*
X0078338D01*
X0078588Y0035886D02*
Y0035386D01*
X0078338Y0031949D02*
Y0031449D01*
X0078838Y0031949D02*
X0078338D01*
X0078838Y0031449D02*
Y0031949D01*
X0078338Y0031449D02*
X0078838D01*
Y0031699D02*
X0078338D01*
X0078588Y0031949D02*
Y0031449D01*
X0061582Y0035886D02*
Y0035386D01*
X0062082Y0035886D02*
X0061582D01*
X0062082Y0035386D02*
Y0035886D01*
X0061582Y0035386D02*
X0062082D01*
Y0035636D02*
X0061582D01*
X0061832Y0035886D02*
Y0035386D01*
X0061582Y0031949D02*
Y0031449D01*
X0062082Y0031949D02*
X0061582D01*
X0062082Y0031449D02*
Y0031949D01*
X0061582Y0031449D02*
X0062082D01*
Y0031699D02*
X0061582D01*
X0061832Y0031949D02*
Y0031449D01*
X0088369Y0040771D02*
Y0040571D01*
X0088519Y0040921D02*
X0088369Y0040771D01*
X0088719Y0040921D02*
X0088519D01*
X0088869Y0040771D02*
X0088719Y0040921D01*
X0088869Y0040571D02*
Y0040771D01*
X0088719Y0040421D02*
X0088869Y0040571D01*
X0088519Y0040421D02*
X0088719D01*
X0088369Y0040571D02*
X0088519Y0040421D01*
X0088569Y0040771D02*
Y0040821D01*
X0088519Y0040771D02*
X0088569D01*
X0088519Y0040821D02*
Y0040771D01*
X0088569Y0040821D02*
X0088519D01*
X0088669D02*
Y0040771D01*
X0088719Y0040821D02*
X0088669D01*
X0088719Y0040771D02*
Y0040821D01*
X0088669Y0040771D02*
X0088719D01*
X0088569Y0040521D02*
X0088469Y0040621D01*
X0088669Y0040521D02*
X0088569D01*
X0088769Y0040621D02*
X0088669Y0040521D01*
X0088365Y0038798D02*
Y0038598D01*
X0088515Y0038948D02*
X0088365Y0038798D01*
X0088715Y0038948D02*
X0088515D01*
X0088865Y0038798D02*
X0088715Y0038948D01*
X0088865Y0038598D02*
Y0038798D01*
X0088715Y0038448D02*
X0088865Y0038598D01*
X0088515Y0038448D02*
X0088715D01*
X0088365Y0038598D02*
X0088515Y0038448D01*
X0088565Y0038798D02*
Y0038848D01*
X0088515Y0038798D02*
X0088565D01*
X0088515Y0038848D02*
Y0038798D01*
X0088565Y0038848D02*
X0088515D01*
X0088665D02*
Y0038798D01*
X0088715Y0038848D02*
X0088665D01*
X0088715Y0038798D02*
Y0038848D01*
X0088665Y0038798D02*
X0088715D01*
X0088565Y0038548D02*
X0088465Y0038648D01*
X0088665Y0038548D02*
X0088565D01*
X0088765Y0038648D02*
X0088665Y0038548D01*
X0088408Y0045569D02*
Y0045369D01*
X0088558Y0045719D02*
X0088408Y0045569D01*
X0088758Y0045719D02*
X0088558D01*
X0088908Y0045569D02*
X0088758Y0045719D01*
X0088908Y0045369D02*
Y0045569D01*
X0088758Y0045219D02*
X0088908Y0045369D01*
X0088558Y0045219D02*
X0088758D01*
X0088408Y0045369D02*
X0088558Y0045219D01*
X0088608Y0045569D02*
Y0045619D01*
X0088558Y0045569D02*
X0088608D01*
X0088558Y0045619D02*
Y0045569D01*
X0088608Y0045619D02*
X0088558D01*
X0088708D02*
Y0045569D01*
X0088758Y0045619D02*
X0088708D01*
X0088758Y0045569D02*
Y0045619D01*
X0088708Y0045569D02*
X0088758D01*
X0088608Y0045319D02*
X0088508Y0045419D01*
X0088708Y0045319D02*
X0088608D01*
X0088808Y0045419D02*
X0088708Y0045319D01*
X0088404Y0043597D02*
Y0043397D01*
X0088554Y0043747D02*
X0088404Y0043597D01*
X0088754Y0043747D02*
X0088554D01*
X0088904Y0043597D02*
X0088754Y0043747D01*
X0088904Y0043397D02*
Y0043597D01*
X0088754Y0043247D02*
X0088904Y0043397D01*
X0088554Y0043247D02*
X0088754D01*
X0088404Y0043397D02*
X0088554Y0043247D01*
X0088604Y0043597D02*
Y0043647D01*
X0088554Y0043597D02*
X0088604D01*
X0088554Y0043647D02*
Y0043597D01*
X0088604Y0043647D02*
X0088554D01*
X0088704D02*
Y0043597D01*
X0088754Y0043647D02*
X0088704D01*
X0088754Y0043597D02*
Y0043647D01*
X0088704Y0043597D02*
X0088754D01*
X0088604Y0043347D02*
X0088504Y0043447D01*
X0088704Y0043347D02*
X0088604D01*
X0088804Y0043447D02*
X0088704Y0043347D01*
X0078377Y0052721D02*
Y0052221D01*
X0078877Y0052721D02*
X0078377D01*
X0078877Y0052221D02*
Y0052721D01*
X0078377Y0052221D02*
X0078877D01*
Y0052471D02*
X0078377D01*
X0078627Y0052721D02*
Y0052221D01*
X0078377Y0048784D02*
Y0048284D01*
X0078877Y0048784D02*
X0078377D01*
X0078877Y0048284D02*
Y0048784D01*
X0078377Y0048284D02*
X0078877D01*
Y0048534D02*
X0078377D01*
X0078627Y0048784D02*
Y0048284D01*
X0061621Y0052724D02*
Y0052224D01*
X0062121Y0052724D02*
X0061621D01*
X0062121Y0052224D02*
Y0052724D01*
X0061621Y0052224D02*
X0062121D01*
Y0052474D02*
X0061621D01*
X0061871Y0052724D02*
Y0052224D01*
X0061621Y0048787D02*
Y0048287D01*
X0062121Y0048787D02*
X0061621D01*
X0062121Y0048287D02*
Y0048787D01*
X0061621Y0048287D02*
X0062121D01*
Y0048537D02*
X0061621D01*
X0061871Y0048787D02*
Y0048287D01*
X0043056Y0030505D02*
Y0030305D01*
X0043206Y0030655D02*
X0043056Y0030505D01*
X0043406Y0030655D02*
X0043206D01*
X0043556Y0030505D02*
X0043406Y0030655D01*
X0043556Y0030305D02*
Y0030505D01*
X0043406Y0030155D02*
X0043556Y0030305D01*
X0043206Y0030155D02*
X0043406D01*
X0043056Y0030305D02*
X0043206Y0030155D01*
X0042387Y0030505D02*
Y0030305D01*
X0042537Y0030655D02*
X0042387Y0030505D01*
X0042737Y0030655D02*
X0042537D01*
X0042887Y0030505D02*
X0042737Y0030655D01*
X0042887Y0030305D02*
Y0030505D01*
X0042737Y0030155D02*
X0042887Y0030305D01*
X0042537Y0030155D02*
X0042737D01*
X0042387Y0030305D02*
X0042537Y0030155D01*
X0041679Y0030544D02*
Y0030344D01*
X0041829Y0030694D02*
X0041679Y0030544D01*
X0042029Y0030694D02*
X0041829D01*
X0042179Y0030544D02*
X0042029Y0030694D01*
X0042179Y0030344D02*
Y0030544D01*
X0042029Y0030194D02*
X0042179Y0030344D01*
X0041829Y0030194D02*
X0042029D01*
X0041679Y0030344D02*
X0041829Y0030194D01*
X0104849Y0055127D02*
Y0054927D01*
X0104999Y0055277D02*
X0104849Y0055127D01*
X0105199Y0055277D02*
X0104999D01*
X0105349Y0055127D02*
X0105199Y0055277D01*
X0105349Y0054927D02*
Y0055127D01*
X0105199Y0054777D02*
X0105349Y0054927D01*
X0104999Y0054777D02*
X0105199D01*
X0104849Y0054927D02*
X0104999Y0054777D01*
X0104101Y0055127D02*
Y0054927D01*
X0104251Y0055277D02*
X0104101Y0055127D01*
X0104451Y0055277D02*
X0104251D01*
X0104601Y0055127D02*
X0104451Y0055277D01*
X0104601Y0054927D02*
Y0055127D01*
X0104451Y0054777D02*
X0104601Y0054927D01*
X0104251Y0054777D02*
X0104451D01*
X0104101Y0054927D02*
X0104251Y0054777D01*
X0103315Y0055127D02*
Y0054927D01*
X0103465Y0055277D02*
X0103315Y0055127D01*
X0103665Y0055277D02*
X0103465D01*
X0103815Y0055127D02*
X0103665Y0055277D01*
X0103815Y0054927D02*
Y0055127D01*
X0103665Y0054777D02*
X0103815Y0054927D01*
X0103465Y0054777D02*
X0103665D01*
X0103315Y0054927D02*
X0103465Y0054777D01*
X0098241Y0055127D02*
Y0054927D01*
X0098391Y0055277D02*
X0098241Y0055127D01*
X0098591Y0055277D02*
X0098391D01*
X0098741Y0055127D02*
X0098591Y0055277D01*
X0098741Y0054927D02*
Y0055127D01*
X0098591Y0054777D02*
X0098741Y0054927D01*
X0098391Y0054777D02*
X0098591D01*
X0098241Y0054927D02*
X0098391Y0054777D01*
X0097533Y0055127D02*
Y0054927D01*
X0097683Y0055277D02*
X0097533Y0055127D01*
X0097883Y0055277D02*
X0097683D01*
X0098033Y0055127D02*
X0097883Y0055277D01*
X0098033Y0054927D02*
Y0055127D01*
X0097883Y0054777D02*
X0098033Y0054927D01*
X0097683Y0054777D02*
X0097883D01*
X0097533Y0054927D02*
X0097683Y0054777D01*
X0069999Y0042226D02*
Y0042026D01*
X0070249Y0041976D02*
X0069999Y0042226D01*
X0070499D02*
X0070249Y0041976D01*
X0070499Y0042026D02*
Y0042226D01*
X0070249Y0042276D02*
X0070499Y0042026D01*
X0069999D02*
X0070249Y0042276D01*
X0096825Y0055127D02*
Y0054927D01*
X0096975Y0055277D02*
X0096825Y0055127D01*
X0097175Y0055277D02*
X0096975D01*
X0097325Y0055127D02*
X0097175Y0055277D01*
X0097325Y0054927D02*
Y0055127D01*
X0097175Y0054777D02*
X0097325Y0054927D01*
X0096975Y0054777D02*
X0097175D01*
X0096825Y0054927D02*
X0096975Y0054777D01*
X0050293Y0055127D02*
Y0054927D01*
X0050443Y0055277D02*
X0050293Y0055127D01*
X0050643Y0055277D02*
X0050443D01*
X0050793Y0055127D02*
X0050643Y0055277D01*
X0050793Y0054927D02*
Y0055127D01*
X0050643Y0054777D02*
X0050793Y0054927D01*
X0050443Y0054777D02*
X0050643D01*
X0050293Y0054927D02*
X0050443Y0054777D01*
X0049585Y0055127D02*
Y0054927D01*
X0049735Y0055277D02*
X0049585Y0055127D01*
X0049935Y0055277D02*
X0049735D01*
X0050085Y0055127D02*
X0049935Y0055277D01*
X0050085Y0054927D02*
Y0055127D01*
X0049935Y0054777D02*
X0050085Y0054927D01*
X0049735Y0054777D02*
X0049935D01*
X0049585Y0054927D02*
X0049735Y0054777D01*
X0048877Y0055127D02*
Y0054927D01*
X0049027Y0055277D02*
X0048877Y0055127D01*
X0049227Y0055277D02*
X0049027D01*
X0049377Y0055127D02*
X0049227Y0055277D01*
X0049377Y0054927D02*
Y0055127D01*
X0049227Y0054777D02*
X0049377Y0054927D01*
X0049027Y0054777D02*
X0049227D01*
X0048877Y0054927D02*
X0049027Y0054777D01*
X0025159Y0055127D02*
Y0054927D01*
X0025309Y0055277D02*
X0025159Y0055127D01*
X0025509Y0055277D02*
X0025309D01*
X0025659Y0055127D02*
X0025509Y0055277D01*
X0025659Y0054927D02*
Y0055127D01*
X0025509Y0054777D02*
X0025659Y0054927D01*
X0025309Y0054777D02*
X0025509D01*
X0025159Y0054927D02*
X0025309Y0054777D01*
X0024491Y0055127D02*
Y0054927D01*
X0024641Y0055277D02*
X0024491Y0055127D01*
X0024841Y0055277D02*
X0024641D01*
X0024991Y0055127D02*
X0024841Y0055277D01*
X0024991Y0054927D02*
Y0055127D01*
X0024841Y0054777D02*
X0024991Y0054927D01*
X0024641Y0054777D02*
X0024841D01*
X0024491Y0054927D02*
X0024641Y0054777D01*
X0023783Y0055127D02*
Y0054927D01*
X0023933Y0055277D02*
X0023783Y0055127D01*
X0024133Y0055277D02*
X0023933D01*
X0024283Y0055127D02*
X0024133Y0055277D01*
X0024283Y0054927D02*
Y0055127D01*
X0024133Y0054777D02*
X0024283Y0054927D01*
X0023933Y0054777D02*
X0024133D01*
X0023783Y0054927D02*
X0023933Y0054777D01*
X0020518Y0055127D02*
Y0054927D01*
X0020668Y0055277D02*
X0020518Y0055127D01*
X0020868Y0055277D02*
X0020668D01*
X0021018Y0055127D02*
X0020868Y0055277D01*
X0021018Y0054927D02*
Y0055127D01*
X0020868Y0054777D02*
X0021018Y0054927D01*
X0020668Y0054777D02*
X0020868D01*
X0020518Y0054927D02*
X0020668Y0054777D01*
X0019771Y0055127D02*
Y0054927D01*
X0019921Y0055277D02*
X0019771Y0055127D01*
X0020121Y0055277D02*
X0019921D01*
X0020271Y0055127D02*
X0020121Y0055277D01*
X0020271Y0054927D02*
Y0055127D01*
X0020121Y0054777D02*
X0020271Y0054927D01*
X0019921Y0054777D02*
X0020121D01*
X0019771Y0054927D02*
X0019921Y0054777D01*
X0019063Y0055127D02*
Y0054927D01*
X0019213Y0055277D02*
X0019063Y0055127D01*
X0019413Y0055277D02*
X0019213D01*
X0019563Y0055127D02*
X0019413Y0055277D01*
X0019563Y0054927D02*
Y0055127D01*
X0019413Y0054777D02*
X0019563Y0054927D01*
X0019213Y0054777D02*
X0019413D01*
X0019063Y0054927D02*
X0019213Y0054777D01*
X0012219Y0018154D02*
Y0017954D01*
X0012369Y0018304D02*
X0012219Y0018154D01*
X0012569Y0018304D02*
X0012369D01*
X0012719Y0018154D02*
X0012569Y0018304D01*
X0012719Y0017954D02*
Y0018154D01*
X0012569Y0017804D02*
X0012719Y0017954D01*
X0012369Y0017804D02*
X0012569D01*
X0012219Y0017954D02*
X0012369Y0017804D01*
X0056351Y0021379D02*
Y0021179D01*
X0056501Y0021529D02*
X0056351Y0021379D01*
X0056701Y0021529D02*
X0056501D01*
X0056851Y0021379D02*
X0056701Y0021529D01*
X0056851Y0021179D02*
Y0021379D01*
X0056701Y0021029D02*
X0056851Y0021179D01*
X0056501Y0021029D02*
X0056701D01*
X0056351Y0021179D02*
X0056501Y0021029D01*
X0040027Y0012569D02*
Y0012369D01*
X0040177Y0012719D02*
X0040027Y0012569D01*
X0040377Y0012719D02*
X0040177D01*
X0040527Y0012569D02*
X0040377Y0012719D01*
X0040527Y0012369D02*
Y0012569D01*
X0040377Y0012219D02*
X0040527Y0012369D01*
X0040177Y0012219D02*
X0040377D01*
X0040027Y0012369D02*
X0040177Y0012219D01*
X0007813Y0016738D02*
Y0016538D01*
X0007963Y0016888D02*
X0007813Y0016738D01*
X0008163Y0016888D02*
X0007963D01*
X0008313Y0016738D02*
X0008163Y0016888D01*
X0008313Y0016538D02*
Y0016738D01*
X0008163Y0016388D02*
X0008313Y0016538D01*
X0007963Y0016388D02*
X0008163D01*
X0007813Y0016538D02*
X0007963Y0016388D01*
X0042623Y0049739D02*
Y0049539D01*
X0042873Y0049489D02*
X0042623Y0049739D01*
X0043123D02*
X0042873Y0049489D01*
X0043123Y0049539D02*
Y0049739D01*
X0042873Y0049789D02*
X0043123Y0049539D01*
X0042623D02*
X0042873Y0049789D01*
X0014421Y0021222D02*
Y0021022D01*
X0014571Y0021372D02*
X0014421Y0021222D01*
X0014771Y0021372D02*
X0014571D01*
X0014921Y0021222D02*
X0014771Y0021372D01*
X0014921Y0021022D02*
Y0021222D01*
X0014771Y0020872D02*
X0014921Y0021022D01*
X0014571Y0020872D02*
X0014771D01*
X0014421Y0021022D02*
X0014571Y0020872D01*
X0020557Y0013591D02*
Y0013391D01*
X0020707Y0013741D02*
X0020557Y0013591D01*
X0020907Y0013741D02*
X0020707D01*
X0021057Y0013591D02*
X0020907Y0013741D01*
X0021057Y0013391D02*
Y0013591D01*
X0020907Y0013241D02*
X0021057Y0013391D01*
X0020707Y0013241D02*
X0020907D01*
X0020557Y0013391D02*
X0020707Y0013241D01*
X0012219Y0016738D02*
Y0016538D01*
X0012369Y0016888D02*
X0012219Y0016738D01*
X0012569Y0016888D02*
X0012369D01*
X0012719Y0016738D02*
X0012569Y0016888D01*
X0012719Y0016538D02*
Y0016738D01*
X0012569Y0016388D02*
X0012719Y0016538D01*
X0012369Y0016388D02*
X0012569D01*
X0012219Y0016538D02*
X0012369Y0016388D01*
X0009308Y0016030D02*
Y0015830D01*
X0009458Y0016180D02*
X0009308Y0016030D01*
X0009658Y0016180D02*
X0009458D01*
X0009808Y0016030D02*
X0009658Y0016180D01*
X0009808Y0015830D02*
Y0016030D01*
X0009658Y0015680D02*
X0009808Y0015830D01*
X0009458Y0015680D02*
X0009658D01*
X0009308Y0015830D02*
X0009458Y0015680D01*
X0008403Y0005685D02*
Y0005485D01*
X0008553Y0005835D02*
X0008403Y0005685D01*
X0008753Y0005835D02*
X0008553D01*
X0008903Y0005685D02*
X0008753Y0005835D01*
X0008903Y0005485D02*
Y0005685D01*
X0008753Y0005335D02*
X0008903Y0005485D01*
X0008553Y0005335D02*
X0008753D01*
X0008403Y0005485D02*
X0008553Y0005335D01*
X0088840Y0007927D02*
Y0007727D01*
X0089090Y0007677D02*
X0088840Y0007927D01*
X0089340D02*
X0089090Y0007677D01*
X0089340Y0007727D02*
Y0007927D01*
X0089090Y0007977D02*
X0089340Y0007727D01*
X0088840D02*
X0089090Y0007977D01*
X0102685Y0045373D02*
Y0045173D01*
X0102835Y0045523D02*
X0102685Y0045373D01*
X0103035Y0045523D02*
X0102835D01*
X0103185Y0045373D02*
X0103035Y0045523D01*
X0103185Y0045173D02*
Y0045373D01*
X0103035Y0045023D02*
X0103185Y0045173D01*
X0102835Y0045023D02*
X0103035D01*
X0102685Y0045173D02*
X0102835Y0045023D01*
X0014382Y0018823D02*
Y0018623D01*
X0014532Y0018973D02*
X0014382Y0018823D01*
X0014732Y0018973D02*
X0014532D01*
X0014882Y0018823D02*
X0014732Y0018973D01*
X0014882Y0018623D02*
Y0018823D01*
X0014732Y0018473D02*
X0014882Y0018623D01*
X0014532Y0018473D02*
X0014732D01*
X0014382Y0018623D02*
X0014532Y0018473D01*
X0009937Y0022638D02*
Y0022438D01*
X0010087Y0022788D02*
X0009937Y0022638D01*
X0010287Y0022788D02*
X0010087D01*
X0010437Y0022638D02*
X0010287Y0022788D01*
X0010437Y0022438D02*
Y0022638D01*
X0010287Y0022288D02*
X0010437Y0022438D01*
X0010087Y0022288D02*
X0010287D01*
X0009937Y0022438D02*
X0010087Y0022288D01*
X0006240Y0055088D02*
Y0054888D01*
X0006390Y0055238D02*
X0006240Y0055088D01*
X0006590Y0055238D02*
X0006390D01*
X0006740Y0055088D02*
X0006590Y0055238D01*
X0006740Y0054888D02*
Y0055088D01*
X0006590Y0054738D02*
X0006740Y0054888D01*
X0006390Y0054738D02*
X0006590D01*
X0006240Y0054888D02*
X0006390Y0054738D01*
X0006987Y0020396D02*
Y0020196D01*
X0007137Y0020546D02*
X0006987Y0020396D01*
X0007337Y0020546D02*
X0007137D01*
X0007487Y0020396D02*
X0007337Y0020546D01*
X0007487Y0020196D02*
Y0020396D01*
X0007337Y0020046D02*
X0007487Y0020196D01*
X0007137Y0020046D02*
X0007337D01*
X0006987Y0020196D02*
X0007137Y0020046D01*
X0114131Y0059690D02*
Y0059490D01*
X0114381Y0059440D02*
X0114131Y0059690D01*
X0114631D02*
X0114381Y0059440D01*
X0114631Y0059490D02*
Y0059690D01*
X0114381Y0059740D02*
X0114631Y0059490D01*
X0114131D02*
X0114381Y0059740D01*
X0010685Y0022638D02*
Y0022438D01*
X0010835Y0022788D02*
X0010685Y0022638D01*
X0011035Y0022788D02*
X0010835D01*
X0011185Y0022638D02*
X0011035Y0022788D01*
X0011185Y0022438D02*
Y0022638D01*
X0011035Y0022288D02*
X0011185Y0022438D01*
X0010835Y0022288D02*
X0011035D01*
X0010685Y0022438D02*
X0010835Y0022288D01*
X0007774Y0013513D02*
Y0013313D01*
X0007924Y0013663D02*
X0007774Y0013513D01*
X0008124Y0013663D02*
X0007924D01*
X0008274Y0013513D02*
X0008124Y0013663D01*
X0008274Y0013313D02*
Y0013513D01*
X0008124Y0013163D02*
X0008274Y0013313D01*
X0007924Y0013163D02*
X0008124D01*
X0007774Y0013313D02*
X0007924Y0013163D01*
X0014421Y0014968D02*
Y0014768D01*
X0014571Y0015118D02*
X0014421Y0014968D01*
X0014771Y0015118D02*
X0014571D01*
X0014921Y0014968D02*
X0014771Y0015118D01*
X0014921Y0014768D02*
Y0014968D01*
X0014771Y0014618D02*
X0014921Y0014768D01*
X0014571Y0014618D02*
X0014771D01*
X0014421Y0014768D02*
X0014571Y0014618D01*
X0007066Y0016777D02*
Y0016577D01*
X0007216Y0016927D02*
X0007066Y0016777D01*
X0007416Y0016927D02*
X0007216D01*
X0007566Y0016777D02*
X0007416Y0016927D01*
X0007566Y0016577D02*
Y0016777D01*
X0007416Y0016427D02*
X0007566Y0016577D01*
X0007216Y0016427D02*
X0007416D01*
X0007066Y0016577D02*
X0007216Y0016427D01*
X0014421Y0016541D02*
Y0016341D01*
X0014571Y0016691D02*
X0014421Y0016541D01*
X0014771Y0016691D02*
X0014571D01*
X0014921Y0016541D02*
X0014771Y0016691D01*
X0014921Y0016341D02*
Y0016541D01*
X0014771Y0016191D02*
X0014921Y0016341D01*
X0014571Y0016191D02*
X0014771D01*
X0014421Y0016341D02*
X0014571Y0016191D01*
X0009308Y0014535D02*
Y0014335D01*
X0009458Y0014685D02*
X0009308Y0014535D01*
X0009658Y0014685D02*
X0009458D01*
X0009808Y0014535D02*
X0009658Y0014685D01*
X0009808Y0014335D02*
Y0014535D01*
X0009658Y0014185D02*
X0009808Y0014335D01*
X0009458Y0014185D02*
X0009658D01*
X0009308Y0014335D02*
X0009458Y0014185D01*
X0005571Y0046199D02*
Y0045999D01*
X0005721Y0046349D02*
X0005571Y0046199D01*
X0005921Y0046349D02*
X0005721D01*
X0006071Y0046199D02*
X0005921Y0046349D01*
X0006071Y0045999D02*
Y0046199D01*
X0005921Y0045849D02*
X0006071Y0045999D01*
X0005721Y0045849D02*
X0005921D01*
X0005571Y0045999D02*
X0005721Y0045849D01*
X0011589Y0013552D02*
Y0013352D01*
X0011739Y0013702D02*
X0011589Y0013552D01*
X0011939Y0013702D02*
X0011739D01*
X0012089Y0013552D02*
X0011939Y0013702D01*
X0012089Y0013352D02*
Y0013552D01*
X0011939Y0013202D02*
X0012089Y0013352D01*
X0011739Y0013202D02*
X0011939D01*
X0011589Y0013352D02*
X0011739Y0013202D01*
X0008482Y0020396D02*
Y0020196D01*
X0008632Y0020546D02*
X0008482Y0020396D01*
X0008832Y0020546D02*
X0008632D01*
X0008982Y0020396D02*
X0008832Y0020546D01*
X0008982Y0020196D02*
Y0020396D01*
X0008832Y0020046D02*
X0008982Y0020196D01*
X0008632Y0020046D02*
X0008832D01*
X0008482Y0020196D02*
X0008632Y0020046D01*
X0006987Y0017485D02*
Y0017285D01*
X0007137Y0017635D02*
X0006987Y0017485D01*
X0007337Y0017635D02*
X0007137D01*
X0007487Y0017485D02*
X0007337Y0017635D01*
X0007487Y0017285D02*
Y0017485D01*
X0007337Y0017135D02*
X0007487Y0017285D01*
X0007137Y0017135D02*
X0007337D01*
X0006987Y0017285D02*
X0007137Y0017135D01*
X0012848Y0022638D02*
Y0022438D01*
X0012998Y0022788D02*
X0012848Y0022638D01*
X0013198Y0022788D02*
X0012998D01*
X0013348Y0022638D02*
X0013198Y0022788D01*
X0013348Y0022438D02*
Y0022638D01*
X0013198Y0022288D02*
X0013348Y0022438D01*
X0012998Y0022288D02*
X0013198D01*
X0012848Y0022438D02*
X0012998Y0022288D01*
X0009308Y0012097D02*
Y0011897D01*
X0009458Y0012247D02*
X0009308Y0012097D01*
X0009658Y0012247D02*
X0009458D01*
X0009808Y0012097D02*
X0009658Y0012247D01*
X0009808Y0011897D02*
Y0012097D01*
X0009658Y0011747D02*
X0009808Y0011897D01*
X0009458Y0011747D02*
X0009658D01*
X0009308Y0011897D02*
X0009458Y0011747D01*
X0063037Y0014417D02*
Y0014217D01*
X0063187Y0014567D02*
X0063037Y0014417D01*
X0063387Y0014567D02*
X0063187D01*
X0063537Y0014417D02*
X0063387Y0014567D01*
X0063537Y0014217D02*
Y0014417D01*
X0063387Y0014067D02*
X0063537Y0014217D01*
X0063187Y0014067D02*
X0063387D01*
X0063037Y0014217D02*
X0063187Y0014067D01*
X0017135Y0011821D02*
Y0011621D01*
X0017285Y0011971D02*
X0017135Y0011821D01*
X0017485Y0011971D02*
X0017285D01*
X0017635Y0011821D02*
X0017485Y0011971D01*
X0017635Y0011621D02*
Y0011821D01*
X0017485Y0011471D02*
X0017635Y0011621D01*
X0017285Y0011471D02*
X0017485D01*
X0017135Y0011621D02*
X0017285Y0011471D01*
X0017804Y0016541D02*
Y0016341D01*
X0017954Y0016691D02*
X0017804Y0016541D01*
X0018154Y0016691D02*
X0017954D01*
X0018304Y0016541D02*
X0018154Y0016691D01*
X0018304Y0016341D02*
Y0016541D01*
X0018154Y0016191D02*
X0018304Y0016341D01*
X0017954Y0016191D02*
X0018154D01*
X0017804Y0016341D02*
X0017954Y0016191D01*
X0007695Y0022638D02*
Y0022438D01*
X0007845Y0022788D02*
X0007695Y0022638D01*
X0008045Y0022788D02*
X0007845D01*
X0008195Y0022638D02*
X0008045Y0022788D01*
X0008195Y0022438D02*
Y0022638D01*
X0008045Y0022288D02*
X0008195Y0022438D01*
X0007845Y0022288D02*
X0008045D01*
X0007695Y0022438D02*
X0007845Y0022288D01*
X0010016Y0016777D02*
Y0016577D01*
X0010166Y0016927D02*
X0010016Y0016777D01*
X0010366Y0016927D02*
X0010166D01*
X0010516Y0016777D02*
X0010366Y0016927D01*
X0010516Y0016577D02*
Y0016777D01*
X0010366Y0016427D02*
X0010516Y0016577D01*
X0010166Y0016427D02*
X0010366D01*
X0010016Y0016577D02*
X0010166Y0016427D01*
X0017686Y0037663D02*
Y0037463D01*
X0017836Y0037813D02*
X0017686Y0037663D01*
X0018036Y0037813D02*
X0017836D01*
X0018186Y0037663D02*
X0018036Y0037813D01*
X0018186Y0037463D02*
Y0037663D01*
X0018036Y0037313D02*
X0018186Y0037463D01*
X0017836Y0037313D02*
X0018036D01*
X0017686Y0037463D02*
X0017836Y0037313D01*
X0035150Y0007849D02*
Y0007649D01*
X0035300Y0007999D02*
X0035150Y0007849D01*
X0035500Y0007999D02*
X0035300D01*
X0035650Y0007849D02*
X0035500Y0007999D01*
X0035650Y0007649D02*
Y0007849D01*
X0035500Y0007499D02*
X0035650Y0007649D01*
X0035300Y0007499D02*
X0035500D01*
X0035150Y0007649D02*
X0035300Y0007499D01*
X0017804Y0013552D02*
Y0013352D01*
X0017954Y0013702D02*
X0017804Y0013552D01*
X0018154Y0013702D02*
X0017954D01*
X0018304Y0013552D02*
X0018154Y0013702D01*
X0018304Y0013352D02*
Y0013552D01*
X0018154Y0013202D02*
X0018304Y0013352D01*
X0017954Y0013202D02*
X0018154D01*
X0017804Y0013352D02*
X0017954Y0013202D01*
X0100207Y0059651D02*
Y0059451D01*
X0100457Y0059401D02*
X0100207Y0059651D01*
X0100707D02*
X0100457Y0059401D01*
X0100707Y0059451D02*
Y0059651D01*
X0100457Y0059701D02*
X0100707Y0059451D01*
X0100207D02*
X0100457Y0059701D01*
X0026733Y0006590D02*
Y0006390D01*
X0026883Y0006740D02*
X0026733Y0006590D01*
X0027083Y0006740D02*
X0026883D01*
X0027233Y0006590D02*
X0027083Y0006740D01*
X0027233Y0006390D02*
Y0006590D01*
X0027083Y0006240D02*
X0027233Y0006390D01*
X0026883Y0006240D02*
X0027083D01*
X0026733Y0006390D02*
X0026883Y0006240D01*
X0091003Y0049739D02*
Y0049539D01*
X0091253Y0049489D02*
X0091003Y0049739D01*
X0091503D02*
X0091253Y0049489D01*
X0091503Y0049539D02*
Y0049739D01*
X0091253Y0049789D02*
X0091503Y0049539D01*
X0091003D02*
X0091253Y0049789D01*
X0101387Y0024290D02*
Y0024090D01*
X0101537Y0024440D02*
X0101387Y0024290D01*
X0101737Y0024440D02*
X0101537D01*
X0101887Y0024290D02*
X0101737Y0024440D01*
X0101887Y0024090D02*
Y0024290D01*
X0101737Y0023940D02*
X0101887Y0024090D01*
X0101537Y0023940D02*
X0101737D01*
X0101387Y0024090D02*
X0101537Y0023940D01*
X0009308Y0015322D02*
Y0015122D01*
X0009458Y0015472D02*
X0009308Y0015322D01*
X0009658Y0015472D02*
X0009458D01*
X0009808Y0015322D02*
X0009658Y0015472D01*
X0009808Y0015122D02*
Y0015322D01*
X0009658Y0014972D02*
X0009808Y0015122D01*
X0009458Y0014972D02*
X0009658D01*
X0009308Y0015122D02*
X0009458Y0014972D01*
X0019181Y0016541D02*
Y0016341D01*
X0019331Y0016691D02*
X0019181Y0016541D01*
X0019531Y0016691D02*
X0019331D01*
X0019681Y0016541D02*
X0019531Y0016691D01*
X0019681Y0016341D02*
Y0016541D01*
X0019531Y0016191D02*
X0019681Y0016341D01*
X0019331Y0016191D02*
X0019531D01*
X0019181Y0016341D02*
X0019331Y0016191D01*
X0013792Y0013552D02*
Y0013352D01*
X0013942Y0013702D02*
X0013792Y0013552D01*
X0014142Y0013702D02*
X0013942D01*
X0014292Y0013552D02*
X0014142Y0013702D01*
X0014292Y0013352D02*
Y0013552D01*
X0014142Y0013202D02*
X0014292Y0013352D01*
X0013942Y0013202D02*
X0014142D01*
X0013792Y0013352D02*
X0013942Y0013202D01*
X0019220Y0015125D02*
Y0014925D01*
X0019370Y0015275D02*
X0019220Y0015125D01*
X0019570Y0015275D02*
X0019370D01*
X0019720Y0015125D02*
X0019570Y0015275D01*
X0019720Y0014925D02*
Y0015125D01*
X0019570Y0014775D02*
X0019720Y0014925D01*
X0019370Y0014775D02*
X0019570D01*
X0019220Y0014925D02*
X0019370Y0014775D01*
X0006987Y0019649D02*
Y0019449D01*
X0007137Y0019799D02*
X0006987Y0019649D01*
X0007337Y0019799D02*
X0007137D01*
X0007487Y0019649D02*
X0007337Y0019799D01*
X0007487Y0019449D02*
Y0019649D01*
X0007337Y0019299D02*
X0007487Y0019449D01*
X0007137Y0019299D02*
X0007337D01*
X0006987Y0019449D02*
X0007137Y0019299D01*
X0006987Y0021104D02*
Y0020904D01*
X0007137Y0021254D02*
X0006987Y0021104D01*
X0007337Y0021254D02*
X0007137D01*
X0007487Y0021104D02*
X0007337Y0021254D01*
X0007487Y0020904D02*
Y0021104D01*
X0007337Y0020754D02*
X0007487Y0020904D01*
X0007137Y0020754D02*
X0007337D01*
X0006987Y0020904D02*
X0007137Y0020754D01*
X0019259Y0014378D02*
Y0014178D01*
X0019409Y0014528D02*
X0019259Y0014378D01*
X0019609Y0014528D02*
X0019409D01*
X0019759Y0014378D02*
X0019609Y0014528D01*
X0019759Y0014178D02*
Y0014378D01*
X0019609Y0014028D02*
X0019759Y0014178D01*
X0019409Y0014028D02*
X0019609D01*
X0019259Y0014178D02*
X0019409Y0014028D01*
X0006240Y0046199D02*
Y0045999D01*
X0006390Y0046349D02*
X0006240Y0046199D01*
X0006590Y0046349D02*
X0006390D01*
X0006740Y0046199D02*
X0006590Y0046349D01*
X0006740Y0045999D02*
Y0046199D01*
X0006590Y0045849D02*
X0006740Y0045999D01*
X0006390Y0045849D02*
X0006590D01*
X0006240Y0045999D02*
X0006390Y0045849D01*
X0024137Y0020081D02*
Y0019881D01*
X0024287Y0020231D02*
X0024137Y0020081D01*
X0024487Y0020231D02*
X0024287D01*
X0024637Y0020081D02*
X0024487Y0020231D01*
X0024637Y0019881D02*
Y0020081D01*
X0024487Y0019731D02*
X0024637Y0019881D01*
X0024287Y0019731D02*
X0024487D01*
X0024137Y0019881D02*
X0024287Y0019731D01*
X0012927Y0016777D02*
Y0016577D01*
X0013077Y0016927D02*
X0012927Y0016777D01*
X0013277Y0016927D02*
X0013077D01*
X0013427Y0016777D02*
X0013277Y0016927D01*
X0013427Y0016577D02*
Y0016777D01*
X0013277Y0016427D02*
X0013427Y0016577D01*
X0013077Y0016427D02*
X0013277D01*
X0012927Y0016577D02*
X0013077Y0016427D01*
X0019338Y0012018D02*
Y0011818D01*
X0019488Y0012168D02*
X0019338Y0012018D01*
X0019688Y0012168D02*
X0019488D01*
X0019838Y0012018D02*
X0019688Y0012168D01*
X0019838Y0011818D02*
Y0012018D01*
X0019688Y0011668D02*
X0019838Y0011818D01*
X0019488Y0011668D02*
X0019688D01*
X0019338Y0011818D02*
X0019488Y0011668D01*
X0024058Y0014496D02*
Y0014296D01*
X0024208Y0014646D02*
X0024058Y0014496D01*
X0024408Y0014646D02*
X0024208D01*
X0024558Y0014496D02*
X0024408Y0014646D01*
X0024558Y0014296D02*
Y0014496D01*
X0024408Y0014146D02*
X0024558Y0014296D01*
X0024208Y0014146D02*
X0024408D01*
X0024058Y0014296D02*
X0024208Y0014146D01*
X0017135Y0022087D02*
Y0021887D01*
X0017285Y0022237D02*
X0017135Y0022087D01*
X0017485Y0022237D02*
X0017285D01*
X0017635Y0022087D02*
X0017485Y0022237D01*
X0017635Y0021887D02*
Y0022087D01*
X0017485Y0021737D02*
X0017635Y0021887D01*
X0017285Y0021737D02*
X0017485D01*
X0017135Y0021887D02*
X0017285Y0021737D01*
X0014500Y0013513D02*
Y0013313D01*
X0014650Y0013663D02*
X0014500Y0013513D01*
X0014850Y0013663D02*
X0014650D01*
X0015000Y0013513D02*
X0014850Y0013663D01*
X0015000Y0013313D02*
Y0013513D01*
X0014850Y0013163D02*
X0015000Y0013313D01*
X0014650Y0013163D02*
X0014850D01*
X0014500Y0013313D02*
X0014650Y0013163D01*
X0006987Y0013513D02*
Y0013313D01*
X0007137Y0013663D02*
X0006987Y0013513D01*
X0007337Y0013663D02*
X0007137D01*
X0007487Y0013513D02*
X0007337Y0013663D01*
X0007487Y0013313D02*
Y0013513D01*
X0007337Y0013163D02*
X0007487Y0013313D01*
X0007137Y0013163D02*
X0007337D01*
X0006987Y0013313D02*
X0007137Y0013163D01*
X0022131Y0059690D02*
Y0059490D01*
X0022381Y0059440D02*
X0022131Y0059690D01*
X0022631D02*
X0022381Y0059440D01*
X0022631Y0059490D02*
Y0059690D01*
X0022381Y0059740D02*
X0022631Y0059490D01*
X0022131D02*
X0022381Y0059740D01*
X0101387Y0027004D02*
Y0026804D01*
X0101537Y0027154D02*
X0101387Y0027004D01*
X0101737Y0027154D02*
X0101537D01*
X0101887Y0027004D02*
X0101737Y0027154D01*
X0101887Y0026804D02*
Y0027004D01*
X0101737Y0026654D02*
X0101887Y0026804D01*
X0101537Y0026654D02*
X0101737D01*
X0101387Y0026804D02*
X0101537Y0026654D01*
X0008718Y0006275D02*
Y0006075D01*
X0008868Y0006425D02*
X0008718Y0006275D01*
X0009068Y0006425D02*
X0008868D01*
X0009218Y0006275D02*
X0009068Y0006425D01*
X0009218Y0006075D02*
Y0006275D01*
X0009068Y0005925D02*
X0009218Y0006075D01*
X0008868Y0005925D02*
X0009068D01*
X0008718Y0006075D02*
X0008868Y0005925D01*
X0009426Y0021537D02*
Y0021337D01*
X0009576Y0021687D02*
X0009426Y0021537D01*
X0009776Y0021687D02*
X0009576D01*
X0009926Y0021537D02*
X0009776Y0021687D01*
X0009926Y0021337D02*
Y0021537D01*
X0009776Y0021187D02*
X0009926Y0021337D01*
X0009576Y0021187D02*
X0009776D01*
X0009426Y0021337D02*
X0009576Y0021187D01*
X0022721Y0016541D02*
Y0016341D01*
X0022871Y0016691D02*
X0022721Y0016541D01*
X0023071Y0016691D02*
X0022871D01*
X0023221Y0016541D02*
X0023071Y0016691D01*
X0023221Y0016341D02*
Y0016541D01*
X0023071Y0016191D02*
X0023221Y0016341D01*
X0022871Y0016191D02*
X0023071D01*
X0022721Y0016341D02*
X0022871Y0016191D01*
X0102646Y0046238D02*
Y0046038D01*
X0102796Y0046388D02*
X0102646Y0046238D01*
X0102996Y0046388D02*
X0102796D01*
X0103146Y0046238D02*
X0102996Y0046388D01*
X0103146Y0046038D02*
Y0046238D01*
X0102996Y0045888D02*
X0103146Y0046038D01*
X0102796Y0045888D02*
X0102996D01*
X0102646Y0046038D02*
X0102796Y0045888D01*
X0045180Y0020907D02*
Y0020707D01*
X0045330Y0021057D02*
X0045180Y0020907D01*
X0045530Y0021057D02*
X0045330D01*
X0045680Y0020907D02*
X0045530Y0021057D01*
X0045680Y0020707D02*
Y0020907D01*
X0045530Y0020557D02*
X0045680Y0020707D01*
X0045330Y0020557D02*
X0045530D01*
X0045180Y0020707D02*
X0045330Y0020557D01*
X0020361Y0009147D02*
Y0008947D01*
X0020511Y0009297D02*
X0020361Y0009147D01*
X0020711Y0009297D02*
X0020511D01*
X0020861Y0009147D02*
X0020711Y0009297D01*
X0020861Y0008947D02*
Y0009147D01*
X0020711Y0008797D02*
X0020861Y0008947D01*
X0020511Y0008797D02*
X0020711D01*
X0020361Y0008947D02*
X0020511Y0008797D01*
X0011511Y0016777D02*
Y0016577D01*
X0011661Y0016927D02*
X0011511Y0016777D01*
X0011861Y0016927D02*
X0011661D01*
X0012011Y0016777D02*
X0011861Y0016927D01*
X0012011Y0016577D02*
Y0016777D01*
X0011861Y0016427D02*
X0012011Y0016577D01*
X0011661Y0016427D02*
X0011861D01*
X0011511Y0016577D02*
X0011661Y0016427D01*
X0019220Y0015833D02*
Y0015633D01*
X0019370Y0015983D02*
X0019220Y0015833D01*
X0019570Y0015983D02*
X0019370D01*
X0019720Y0015833D02*
X0019570Y0015983D01*
X0019720Y0015633D02*
Y0015833D01*
X0019570Y0015483D02*
X0019720Y0015633D01*
X0019370Y0015483D02*
X0019570D01*
X0019220Y0015633D02*
X0019370Y0015483D01*
X0022721Y0015204D02*
Y0015004D01*
X0022871Y0015354D02*
X0022721Y0015204D01*
X0023071Y0015354D02*
X0022871D01*
X0023221Y0015204D02*
X0023071Y0015354D01*
X0023221Y0015004D02*
Y0015204D01*
X0023071Y0014854D02*
X0023221Y0015004D01*
X0022871Y0014854D02*
X0023071D01*
X0022721Y0015004D02*
X0022871Y0014854D01*
X0023389Y0014496D02*
Y0014296D01*
X0023539Y0014646D02*
X0023389Y0014496D01*
X0023739Y0014646D02*
X0023539D01*
X0023889Y0014496D02*
X0023739Y0014646D01*
X0023889Y0014296D02*
Y0014496D01*
X0023739Y0014146D02*
X0023889Y0014296D01*
X0023539Y0014146D02*
X0023739D01*
X0023389Y0014296D02*
X0023539Y0014146D01*
X0024137Y0022087D02*
Y0021887D01*
X0024287Y0022237D02*
X0024137Y0022087D01*
X0024487Y0022237D02*
X0024287D01*
X0024637Y0022087D02*
X0024487Y0022237D01*
X0024637Y0021887D02*
Y0022087D01*
X0024487Y0021737D02*
X0024637Y0021887D01*
X0024287Y0021737D02*
X0024487D01*
X0024137Y0021887D02*
X0024287Y0021737D01*
X0017135Y0015873D02*
Y0015673D01*
X0017285Y0016023D02*
X0017135Y0015873D01*
X0017485Y0016023D02*
X0017285D01*
X0017635Y0015873D02*
X0017485Y0016023D01*
X0017635Y0015673D02*
Y0015873D01*
X0017485Y0015523D02*
X0017635Y0015673D01*
X0017285Y0015523D02*
X0017485D01*
X0017135Y0015673D02*
X0017285Y0015523D01*
X0114131Y0033140D02*
Y0032940D01*
X0114381Y0032890D02*
X0114131Y0033140D01*
X0114631D02*
X0114381Y0032890D01*
X0114631Y0032940D02*
Y0033140D01*
X0114381Y0033190D02*
X0114631Y0032940D01*
X0114131D02*
X0114381Y0033190D01*
X0023350Y0011153D02*
Y0010953D01*
X0023500Y0011303D02*
X0023350Y0011153D01*
X0023700Y0011303D02*
X0023500D01*
X0023850Y0011153D02*
X0023700Y0011303D01*
X0023850Y0010953D02*
Y0011153D01*
X0023700Y0010803D02*
X0023850Y0010953D01*
X0023500Y0010803D02*
X0023700D01*
X0023350Y0010953D02*
X0023500Y0010803D01*
X0012297Y0013513D02*
Y0013313D01*
X0012447Y0013663D02*
X0012297Y0013513D01*
X0012647Y0013663D02*
X0012447D01*
X0012797Y0013513D02*
X0012647Y0013663D01*
X0012797Y0013313D02*
Y0013513D01*
X0012647Y0013163D02*
X0012797Y0013313D01*
X0012447Y0013163D02*
X0012647D01*
X0012297Y0013313D02*
X0012447Y0013163D01*
X0006948Y0018193D02*
Y0017993D01*
X0007098Y0018343D02*
X0006948Y0018193D01*
X0007298Y0018343D02*
X0007098D01*
X0007448Y0018193D02*
X0007298Y0018343D01*
X0007448Y0017993D02*
Y0018193D01*
X0007298Y0017843D02*
X0007448Y0017993D01*
X0007098Y0017843D02*
X0007298D01*
X0006948Y0017993D02*
X0007098Y0017843D01*
X0024137Y0019413D02*
Y0019213D01*
X0024287Y0019563D02*
X0024137Y0019413D01*
X0024487Y0019563D02*
X0024287D01*
X0024637Y0019413D02*
X0024487Y0019563D01*
X0024637Y0019213D02*
Y0019413D01*
X0024487Y0019063D02*
X0024637Y0019213D01*
X0024287Y0019063D02*
X0024487D01*
X0024137Y0019213D02*
X0024287Y0019063D01*
X0008482Y0022638D02*
Y0022438D01*
X0008632Y0022788D02*
X0008482Y0022638D01*
X0008832Y0022788D02*
X0008632D01*
X0008982Y0022638D02*
X0008832Y0022788D01*
X0008982Y0022438D02*
Y0022638D01*
X0008832Y0022288D02*
X0008982Y0022438D01*
X0008632Y0022288D02*
X0008832D01*
X0008482Y0022438D02*
X0008632Y0022288D01*
X0006948Y0055088D02*
Y0054888D01*
X0007098Y0055238D02*
X0006948Y0055088D01*
X0007298Y0055238D02*
X0007098D01*
X0007448Y0055088D02*
X0007298Y0055238D01*
X0007448Y0054888D02*
Y0055088D01*
X0007298Y0054738D02*
X0007448Y0054888D01*
X0007098Y0054738D02*
X0007298D01*
X0006948Y0054888D02*
X0007098Y0054738D01*
X0005532Y0055088D02*
Y0054888D01*
X0005682Y0055238D02*
X0005532Y0055088D01*
X0005882Y0055238D02*
X0005682D01*
X0006032Y0055088D02*
X0005882Y0055238D01*
X0006032Y0054888D02*
Y0055088D01*
X0005882Y0054738D02*
X0006032Y0054888D01*
X0005682Y0054738D02*
X0005882D01*
X0005532Y0054888D02*
X0005682Y0054738D01*
X0024058Y0013827D02*
Y0013627D01*
X0024208Y0013977D02*
X0024058Y0013827D01*
X0024408Y0013977D02*
X0024208D01*
X0024558Y0013827D02*
X0024408Y0013977D01*
X0024558Y0013627D02*
Y0013827D01*
X0024408Y0013477D02*
X0024558Y0013627D01*
X0024208Y0013477D02*
X0024408D01*
X0024058Y0013627D02*
X0024208Y0013477D01*
X0019928Y0016541D02*
Y0016341D01*
X0020078Y0016691D02*
X0019928Y0016541D01*
X0020278Y0016691D02*
X0020078D01*
X0020428Y0016541D02*
X0020278Y0016691D01*
X0020428Y0016341D02*
Y0016541D01*
X0020278Y0016191D02*
X0020428Y0016341D01*
X0020078Y0016191D02*
X0020278D01*
X0019928Y0016341D02*
X0020078Y0016191D01*
X0022721Y0018783D02*
Y0018583D01*
X0022871Y0018933D02*
X0022721Y0018783D01*
X0023071Y0018933D02*
X0022871D01*
X0023221Y0018783D02*
X0023071Y0018933D01*
X0023221Y0018583D02*
Y0018783D01*
X0023071Y0018433D02*
X0023221Y0018583D01*
X0022871Y0018433D02*
X0023071D01*
X0022721Y0018583D02*
X0022871Y0018433D01*
X0022721Y0014535D02*
Y0014335D01*
X0022871Y0014685D02*
X0022721Y0014535D01*
X0023071Y0014685D02*
X0022871D01*
X0023221Y0014535D02*
X0023071Y0014685D01*
X0023221Y0014335D02*
Y0014535D01*
X0023071Y0014185D02*
X0023221Y0014335D01*
X0022871Y0014185D02*
X0023071D01*
X0022721Y0014335D02*
X0022871Y0014185D01*
X0014461Y0014221D02*
Y0014021D01*
X0014611Y0014371D02*
X0014461Y0014221D01*
X0014811Y0014371D02*
X0014611D01*
X0014961Y0014221D02*
X0014811Y0014371D01*
X0014961Y0014021D02*
Y0014221D01*
X0014811Y0013871D02*
X0014961Y0014021D01*
X0014611Y0013871D02*
X0014811D01*
X0014461Y0014021D02*
X0014611Y0013871D01*
X0017135Y0020750D02*
Y0020550D01*
X0017285Y0020900D02*
X0017135Y0020750D01*
X0017485Y0020900D02*
X0017285D01*
X0017635Y0020750D02*
X0017485Y0020900D01*
X0017635Y0020550D02*
Y0020750D01*
X0017485Y0020400D02*
X0017635Y0020550D01*
X0017285Y0020400D02*
X0017485D01*
X0017135Y0020550D02*
X0017285Y0020400D01*
X0014382Y0018115D02*
Y0017915D01*
X0014532Y0018265D02*
X0014382Y0018115D01*
X0014732Y0018265D02*
X0014532D01*
X0014882Y0018115D02*
X0014732Y0018265D01*
X0014882Y0017915D02*
Y0018115D01*
X0014732Y0017765D02*
X0014882Y0017915D01*
X0014532Y0017765D02*
X0014732D01*
X0014382Y0017915D02*
X0014532Y0017765D01*
X0022642Y0011153D02*
Y0010953D01*
X0022792Y0011303D02*
X0022642Y0011153D01*
X0022992Y0011303D02*
X0022792D01*
X0023142Y0011153D02*
X0022992Y0011303D01*
X0023142Y0010953D02*
Y0011153D01*
X0022992Y0010803D02*
X0023142Y0010953D01*
X0022792Y0010803D02*
X0022992D01*
X0022642Y0010953D02*
X0022792Y0010803D01*
X0013595Y0022638D02*
Y0022438D01*
X0013745Y0022788D02*
X0013595Y0022638D01*
X0013945Y0022788D02*
X0013745D01*
X0014095Y0022638D02*
X0013945Y0022788D01*
X0014095Y0022438D02*
Y0022638D01*
X0013945Y0022288D02*
X0014095Y0022438D01*
X0013745Y0022288D02*
X0013945D01*
X0013595Y0022438D02*
X0013745Y0022288D01*
X0022721Y0019452D02*
Y0019252D01*
X0022871Y0019602D02*
X0022721Y0019452D01*
X0023071Y0019602D02*
X0022871D01*
X0023221Y0019452D02*
X0023071Y0019602D01*
X0023221Y0019252D02*
Y0019452D01*
X0023071Y0019102D02*
X0023221Y0019252D01*
X0022871Y0019102D02*
X0023071D01*
X0022721Y0019252D02*
X0022871Y0019102D01*
X0023507Y0022756D02*
Y0022556D01*
X0023657Y0022906D02*
X0023507Y0022756D01*
X0023857Y0022906D02*
X0023657D01*
X0024007Y0022756D02*
X0023857Y0022906D01*
X0024007Y0022556D02*
Y0022756D01*
X0023857Y0022406D02*
X0024007Y0022556D01*
X0023657Y0022406D02*
X0023857D01*
X0023507Y0022556D02*
X0023657Y0022406D01*
X0010881Y0013552D02*
Y0013352D01*
X0011031Y0013702D02*
X0010881Y0013552D01*
X0011231Y0013702D02*
X0011031D01*
X0011381Y0013552D02*
X0011231Y0013702D01*
X0011381Y0013352D02*
Y0013552D01*
X0011231Y0013202D02*
X0011381Y0013352D01*
X0011031Y0013202D02*
X0011231D01*
X0010881Y0013352D02*
X0011031Y0013202D01*
X0101387Y0024959D02*
Y0024759D01*
X0101537Y0025109D02*
X0101387Y0024959D01*
X0101737Y0025109D02*
X0101537D01*
X0101887Y0024959D02*
X0101737Y0025109D01*
X0101887Y0024759D02*
Y0024959D01*
X0101737Y0024609D02*
X0101887Y0024759D01*
X0101537Y0024609D02*
X0101737D01*
X0101387Y0024759D02*
X0101537Y0024609D01*
X0024058Y0011821D02*
Y0011621D01*
X0024208Y0011971D02*
X0024058Y0011821D01*
X0024408Y0011971D02*
X0024208D01*
X0024558Y0011821D02*
X0024408Y0011971D01*
X0024558Y0011621D02*
Y0011821D01*
X0024408Y0011471D02*
X0024558Y0011621D01*
X0024208Y0011471D02*
X0024408D01*
X0024058Y0011621D02*
X0024208Y0011471D01*
X0018512Y0022756D02*
Y0022556D01*
X0018662Y0022906D02*
X0018512Y0022756D01*
X0018862Y0022906D02*
X0018662D01*
X0019012Y0022756D02*
X0018862Y0022906D01*
X0019012Y0022556D02*
Y0022756D01*
X0018862Y0022406D02*
X0019012Y0022556D01*
X0018662Y0022406D02*
X0018862D01*
X0018512Y0022556D02*
X0018662Y0022406D01*
X0017804Y0022756D02*
Y0022556D01*
X0017954Y0022906D02*
X0017804Y0022756D01*
X0018154Y0022906D02*
X0017954D01*
X0018304Y0022756D02*
X0018154Y0022906D01*
X0018304Y0022556D02*
Y0022756D01*
X0018154Y0022406D02*
X0018304Y0022556D01*
X0017954Y0022406D02*
X0018154D01*
X0017804Y0022556D02*
X0017954Y0022406D01*
X0021226Y0017446D02*
Y0017246D01*
X0021376Y0017596D02*
X0021226Y0017446D01*
X0021576Y0017596D02*
X0021376D01*
X0021726Y0017446D02*
X0021576Y0017596D01*
X0021726Y0017246D02*
Y0017446D01*
X0021576Y0017096D02*
X0021726Y0017246D01*
X0021376Y0017096D02*
X0021576D01*
X0021226Y0017246D02*
X0021376Y0017096D01*
X0019377Y0011192D02*
Y0010992D01*
X0019527Y0011342D02*
X0019377Y0011192D01*
X0019727Y0011342D02*
X0019527D01*
X0019877Y0011192D02*
X0019727Y0011342D01*
X0019877Y0010992D02*
Y0011192D01*
X0019727Y0010842D02*
X0019877Y0010992D01*
X0019527Y0010842D02*
X0019727D01*
X0019377Y0010992D02*
X0019527Y0010842D01*
X0024058Y0011153D02*
Y0010953D01*
X0024208Y0011303D02*
X0024058Y0011153D01*
X0024408Y0011303D02*
X0024208D01*
X0024558Y0011153D02*
X0024408Y0011303D01*
X0024558Y0010953D02*
Y0011153D01*
X0024408Y0010803D02*
X0024558Y0010953D01*
X0024208Y0010803D02*
X0024408D01*
X0024058Y0010953D02*
X0024208Y0010803D01*
X0105360Y0046710D02*
Y0046510D01*
X0105510Y0046860D02*
X0105360Y0046710D01*
X0105710Y0046860D02*
X0105510D01*
X0105860Y0046710D02*
X0105710Y0046860D01*
X0105860Y0046510D02*
Y0046710D01*
X0105710Y0046360D02*
X0105860Y0046510D01*
X0105510Y0046360D02*
X0105710D01*
X0105360Y0046510D02*
X0105510Y0046360D01*
X0022721Y0018115D02*
Y0017915D01*
X0022871Y0018265D02*
X0022721Y0018115D01*
X0023071Y0018265D02*
X0022871D01*
X0023221Y0018115D02*
X0023071Y0018265D01*
X0023221Y0017915D02*
Y0018115D01*
X0023071Y0017765D02*
X0023221Y0017915D01*
X0022871Y0017765D02*
X0023071D01*
X0022721Y0017915D02*
X0022871Y0017765D01*
X0012219Y0020514D02*
Y0020314D01*
X0012369Y0020664D02*
X0012219Y0020514D01*
X0012569Y0020664D02*
X0012369D01*
X0012719Y0020514D02*
X0012569Y0020664D01*
X0012719Y0020314D02*
Y0020514D01*
X0012569Y0020164D02*
X0012719Y0020314D01*
X0012369Y0020164D02*
X0012569D01*
X0012219Y0020314D02*
X0012369Y0020164D01*
X0018512Y0013552D02*
Y0013352D01*
X0018662Y0013702D02*
X0018512Y0013552D01*
X0018862Y0013702D02*
X0018662D01*
X0019012Y0013552D02*
X0018862Y0013702D01*
X0019012Y0013352D02*
Y0013552D01*
X0018862Y0013202D02*
X0019012Y0013352D01*
X0018662Y0013202D02*
X0018862D01*
X0018512Y0013352D02*
X0018662Y0013202D01*
X0020518Y0022756D02*
Y0022556D01*
X0020668Y0022906D02*
X0020518Y0022756D01*
X0020868Y0022906D02*
X0020668D01*
X0021018Y0022756D02*
X0020868Y0022906D01*
X0021018Y0022556D02*
Y0022756D01*
X0020868Y0022406D02*
X0021018Y0022556D01*
X0020668Y0022406D02*
X0020868D01*
X0020518Y0022556D02*
X0020668Y0022406D01*
X0017135Y0013159D02*
Y0012959D01*
X0017285Y0013309D02*
X0017135Y0013159D01*
X0017485Y0013309D02*
X0017285D01*
X0017635Y0013159D02*
X0017485Y0013309D01*
X0017635Y0012959D02*
Y0013159D01*
X0017485Y0012809D02*
X0017635Y0012959D01*
X0017285Y0012809D02*
X0017485D01*
X0017135Y0012959D02*
X0017285Y0012809D01*
X0010213Y0021537D02*
Y0021337D01*
X0010363Y0021687D02*
X0010213Y0021537D01*
X0010563Y0021687D02*
X0010363D01*
X0010713Y0021537D02*
X0010563Y0021687D01*
X0010713Y0021337D02*
Y0021537D01*
X0010563Y0021187D02*
X0010713Y0021337D01*
X0010363Y0021187D02*
X0010563D01*
X0010213Y0021337D02*
X0010363Y0021187D01*
X0094740Y0043721D02*
Y0043521D01*
X0094890Y0043871D02*
X0094740Y0043721D01*
X0095090Y0043871D02*
X0094890D01*
X0095240Y0043721D02*
X0095090Y0043871D01*
X0095240Y0043521D02*
Y0043721D01*
X0095090Y0043371D02*
X0095240Y0043521D01*
X0094890Y0043371D02*
X0095090D01*
X0094740Y0043521D02*
X0094890Y0043371D01*
X0019338Y0012726D02*
Y0012526D01*
X0019488Y0012876D02*
X0019338Y0012726D01*
X0019688Y0012876D02*
X0019488D01*
X0019838Y0012726D02*
X0019688Y0012876D01*
X0019838Y0012526D02*
Y0012726D01*
X0019688Y0012376D02*
X0019838Y0012526D01*
X0019488Y0012376D02*
X0019688D01*
X0019338Y0012526D02*
X0019488Y0012376D01*
X0021855Y0013552D02*
Y0013352D01*
X0022005Y0013702D02*
X0021855Y0013552D01*
X0022205Y0013702D02*
X0022005D01*
X0022355Y0013552D02*
X0022205Y0013702D01*
X0022355Y0013352D02*
Y0013552D01*
X0022205Y0013202D02*
X0022355Y0013352D01*
X0022005Y0013202D02*
X0022205D01*
X0021855Y0013352D02*
X0022005Y0013202D01*
X0014461Y0012805D02*
Y0012605D01*
X0014611Y0012955D02*
X0014461Y0012805D01*
X0014811Y0012955D02*
X0014611D01*
X0014961Y0012805D02*
X0014811Y0012955D01*
X0014961Y0012605D02*
Y0012805D01*
X0014811Y0012455D02*
X0014961Y0012605D01*
X0014611Y0012455D02*
X0014811D01*
X0014461Y0012605D02*
X0014611Y0012455D01*
X0009308Y0011389D02*
Y0011189D01*
X0009458Y0011539D02*
X0009308Y0011389D01*
X0009658Y0011539D02*
X0009458D01*
X0009808Y0011389D02*
X0009658Y0011539D01*
X0009808Y0011189D02*
Y0011389D01*
X0009658Y0011039D02*
X0009808Y0011189D01*
X0009458Y0011039D02*
X0009658D01*
X0009308Y0011189D02*
X0009458Y0011039D01*
X0014421Y0017289D02*
Y0017089D01*
X0014571Y0017439D02*
X0014421Y0017289D01*
X0014771Y0017439D02*
X0014571D01*
X0014921Y0017289D02*
X0014771Y0017439D01*
X0014921Y0017089D02*
Y0017289D01*
X0014771Y0016939D02*
X0014921Y0017089D01*
X0014571Y0016939D02*
X0014771D01*
X0014421Y0017089D02*
X0014571Y0016939D01*
X0011393Y0022638D02*
Y0022438D01*
X0011543Y0022788D02*
X0011393Y0022638D01*
X0011743Y0022788D02*
X0011543D01*
X0011893Y0022638D02*
X0011743Y0022788D01*
X0011893Y0022438D02*
Y0022638D01*
X0011743Y0022288D02*
X0011893Y0022438D01*
X0011543Y0022288D02*
X0011743D01*
X0011393Y0022438D02*
X0011543Y0022288D01*
X0014461Y0015715D02*
Y0015515D01*
X0014611Y0015865D02*
X0014461Y0015715D01*
X0014811Y0015865D02*
X0014611D01*
X0014961Y0015715D02*
X0014811Y0015865D01*
X0014961Y0015515D02*
Y0015715D01*
X0014811Y0015365D02*
X0014961Y0015515D01*
X0014611Y0015365D02*
X0014811D01*
X0014461Y0015515D02*
X0014611Y0015365D01*
X0006987Y0021851D02*
Y0021651D01*
X0007137Y0022001D02*
X0006987Y0021851D01*
X0007337Y0022001D02*
X0007137D01*
X0007487Y0021851D02*
X0007337Y0022001D01*
X0007487Y0021651D02*
Y0021851D01*
X0007337Y0021501D02*
X0007487Y0021651D01*
X0007137Y0021501D02*
X0007337D01*
X0006987Y0021651D02*
X0007137Y0021501D01*
X0009190Y0022638D02*
Y0022438D01*
X0009340Y0022788D02*
X0009190Y0022638D01*
X0009540Y0022788D02*
X0009340D01*
X0009690Y0022638D02*
X0009540Y0022788D01*
X0009690Y0022438D02*
Y0022638D01*
X0009540Y0022288D02*
X0009690Y0022438D01*
X0009340Y0022288D02*
X0009540D01*
X0009190Y0022438D02*
X0009340Y0022288D01*
X0006948Y0046199D02*
Y0045999D01*
X0007098Y0046349D02*
X0006948Y0046199D01*
X0007298Y0046349D02*
X0007098D01*
X0007448Y0046199D02*
X0007298Y0046349D01*
X0007448Y0045999D02*
Y0046199D01*
X0007298Y0045849D02*
X0007448Y0045999D01*
X0007098Y0045849D02*
X0007298D01*
X0006948Y0045999D02*
X0007098Y0045849D01*
X0014461Y0012097D02*
Y0011897D01*
X0014611Y0012247D02*
X0014461Y0012097D01*
X0014811Y0012247D02*
X0014611D01*
X0014961Y0012097D02*
X0014811Y0012247D01*
X0014961Y0011897D02*
Y0012097D01*
X0014811Y0011747D02*
X0014961Y0011897D01*
X0014611Y0011747D02*
X0014811D01*
X0014461Y0011897D02*
X0014611Y0011747D01*
X0012219Y0019727D02*
Y0019527D01*
X0012369Y0019877D02*
X0012219Y0019727D01*
X0012569Y0019877D02*
X0012369D01*
X0012719Y0019727D02*
X0012569Y0019877D01*
X0012719Y0019527D02*
Y0019727D01*
X0012569Y0019377D02*
X0012719Y0019527D01*
X0012369Y0019377D02*
X0012569D01*
X0012219Y0019527D02*
X0012369Y0019377D01*
X0014343Y0022638D02*
Y0022438D01*
X0014493Y0022788D02*
X0014343Y0022638D01*
X0014693Y0022788D02*
X0014493D01*
X0014843Y0022638D02*
X0014693Y0022788D01*
X0014843Y0022438D02*
Y0022638D01*
X0014693Y0022288D02*
X0014843Y0022438D01*
X0014493Y0022288D02*
X0014693D01*
X0014343Y0022438D02*
X0014493Y0022288D01*
X0005571Y0059690D02*
Y0059490D01*
X0005821Y0059440D02*
X0005571Y0059690D01*
X0006071D02*
X0005821Y0059440D01*
X0006071Y0059490D02*
Y0059690D01*
X0005821Y0059740D02*
X0006071Y0059490D01*
X0005571D02*
X0005821Y0059740D01*
X0008600Y0016738D02*
Y0016538D01*
X0008750Y0016888D02*
X0008600Y0016738D01*
X0008950Y0016888D02*
X0008750D01*
X0009100Y0016738D02*
X0008950Y0016888D01*
X0009100Y0016538D02*
Y0016738D01*
X0008950Y0016388D02*
X0009100Y0016538D01*
X0008750Y0016388D02*
X0008950D01*
X0008600Y0016538D02*
X0008750Y0016388D01*
X0093363Y0043721D02*
Y0043521D01*
X0093513Y0043871D02*
X0093363Y0043721D01*
X0093713Y0043871D02*
X0093513D01*
X0093863Y0043721D02*
X0093713Y0043871D01*
X0093863Y0043521D02*
Y0043721D01*
X0093713Y0043371D02*
X0093863Y0043521D01*
X0093513Y0043371D02*
X0093713D01*
X0093363Y0043521D02*
X0093513Y0043371D01*
X0014461Y0019609D02*
Y0019409D01*
X0014611Y0019759D02*
X0014461Y0019609D01*
X0014811Y0019759D02*
X0014611D01*
X0014961Y0019609D02*
X0014811Y0019759D01*
X0014961Y0019409D02*
Y0019609D01*
X0014811Y0019259D02*
X0014961Y0019409D01*
X0014611Y0019259D02*
X0014811D01*
X0014461Y0019409D02*
X0014611Y0019259D01*
X0010095Y0013552D02*
Y0013352D01*
X0010245Y0013702D02*
X0010095Y0013552D01*
X0010445Y0013702D02*
X0010245D01*
X0010595Y0013552D02*
X0010445Y0013702D01*
X0010595Y0013352D02*
Y0013552D01*
X0010445Y0013202D02*
X0010595Y0013352D01*
X0010245Y0013202D02*
X0010445D01*
X0010095Y0013352D02*
X0010245Y0013202D01*
X0026733Y0009186D02*
Y0008986D01*
X0026883Y0009336D02*
X0026733Y0009186D01*
X0027083Y0009336D02*
X0026883D01*
X0027233Y0009186D02*
X0027083Y0009336D01*
X0027233Y0008986D02*
Y0009186D01*
X0027083Y0008836D02*
X0027233Y0008986D01*
X0026883Y0008836D02*
X0027083D01*
X0026733Y0008986D02*
X0026883Y0008836D01*
X0033380Y0011271D02*
Y0011071D01*
X0033530Y0011421D02*
X0033380Y0011271D01*
X0033730Y0011421D02*
X0033530D01*
X0033880Y0011271D02*
X0033730Y0011421D01*
X0033880Y0011071D02*
Y0011271D01*
X0033730Y0010921D02*
X0033880Y0011071D01*
X0033530Y0010921D02*
X0033730D01*
X0033380Y0011071D02*
X0033530Y0010921D01*
X0105006Y0032668D02*
Y0032468D01*
X0105156Y0032818D02*
X0105006Y0032668D01*
X0105356Y0032818D02*
X0105156D01*
X0105506Y0032668D02*
X0105356Y0032818D01*
X0105506Y0032468D02*
Y0032668D01*
X0105356Y0032318D02*
X0105506Y0032468D01*
X0105156Y0032318D02*
X0105356D01*
X0105006Y0032468D02*
X0105156Y0032318D01*
X0018355Y0037663D02*
Y0037463D01*
X0018505Y0037813D02*
X0018355Y0037663D01*
X0018705Y0037813D02*
X0018505D01*
X0018855Y0037663D02*
X0018705Y0037813D01*
X0018855Y0037463D02*
Y0037663D01*
X0018705Y0037313D02*
X0018855Y0037463D01*
X0018505Y0037313D02*
X0018705D01*
X0018355Y0037463D02*
X0018505Y0037313D01*
X0008521Y0018862D02*
Y0018662D01*
X0008671Y0019012D02*
X0008521Y0018862D01*
X0008871Y0019012D02*
X0008671D01*
X0009021Y0018862D02*
X0008871Y0019012D01*
X0009021Y0018662D02*
Y0018862D01*
X0008871Y0018512D02*
X0009021Y0018662D01*
X0008671Y0018512D02*
X0008871D01*
X0008521Y0018662D02*
X0008671Y0018512D01*
X0009347Y0013513D02*
Y0013313D01*
X0009497Y0013663D02*
X0009347Y0013513D01*
X0009697Y0013663D02*
X0009497D01*
X0009847Y0013513D02*
X0009697Y0013663D01*
X0009847Y0013313D02*
Y0013513D01*
X0009697Y0013163D02*
X0009847Y0013313D01*
X0009497Y0013163D02*
X0009697D01*
X0009347Y0013313D02*
X0009497Y0013163D01*
X0010763Y0016738D02*
Y0016538D01*
X0010913Y0016888D02*
X0010763Y0016738D01*
X0011113Y0016888D02*
X0010913D01*
X0011263Y0016738D02*
X0011113Y0016888D01*
X0011263Y0016538D02*
Y0016738D01*
X0011113Y0016388D02*
X0011263Y0016538D01*
X0010913Y0016388D02*
X0011113D01*
X0010763Y0016538D02*
X0010913Y0016388D01*
X0101387Y0026335D02*
Y0026135D01*
X0101537Y0026485D02*
X0101387Y0026335D01*
X0101737Y0026485D02*
X0101537D01*
X0101887Y0026335D02*
X0101737Y0026485D01*
X0101887Y0026135D02*
Y0026335D01*
X0101737Y0025985D02*
X0101887Y0026135D01*
X0101537Y0025985D02*
X0101737D01*
X0101387Y0026135D02*
X0101537Y0025985D01*
X0009151Y0005685D02*
Y0005485D01*
X0009301Y0005835D02*
X0009151Y0005685D01*
X0009501Y0005835D02*
X0009301D01*
X0009651Y0005685D02*
X0009501Y0005835D01*
X0009651Y0005485D02*
Y0005685D01*
X0009501Y0005335D02*
X0009651Y0005485D01*
X0009301Y0005335D02*
X0009501D01*
X0009151Y0005485D02*
X0009301Y0005335D01*
X0011078Y0021537D02*
Y0021337D01*
X0011228Y0021687D02*
X0011078Y0021537D01*
X0011428Y0021687D02*
X0011228D01*
X0011578Y0021537D02*
X0011428Y0021687D01*
X0011578Y0021337D02*
Y0021537D01*
X0011428Y0021187D02*
X0011578Y0021337D01*
X0011228Y0021187D02*
X0011428D01*
X0011078Y0021337D02*
X0011228Y0021187D01*
X0019259Y0013552D02*
Y0013352D01*
X0019409Y0013702D02*
X0019259Y0013552D01*
X0019609Y0013702D02*
X0019409D01*
X0019759Y0013552D02*
X0019609Y0013702D01*
X0019759Y0013352D02*
Y0013552D01*
X0019609Y0013202D02*
X0019759Y0013352D01*
X0019409Y0013202D02*
X0019609D01*
X0019259Y0013352D02*
X0019409Y0013202D01*
X0008561Y0018233D02*
Y0018033D01*
X0008711Y0018383D02*
X0008561Y0018233D01*
X0008911Y0018383D02*
X0008711D01*
X0009061Y0018233D02*
X0008911Y0018383D01*
X0009061Y0018033D02*
Y0018233D01*
X0008911Y0017883D02*
X0009061Y0018033D01*
X0008711Y0017883D02*
X0008911D01*
X0008561Y0018033D02*
X0008711Y0017883D01*
X0007617Y0005685D02*
Y0005485D01*
X0007767Y0005835D02*
X0007617Y0005685D01*
X0007967Y0005835D02*
X0007767D01*
X0008117Y0005685D02*
X0007967Y0005835D01*
X0008117Y0005485D02*
Y0005685D01*
X0007967Y0005335D02*
X0008117Y0005485D01*
X0007767Y0005335D02*
X0007967D01*
X0007617Y0005485D02*
X0007767Y0005335D01*
X0102056Y0025352D02*
Y0025152D01*
X0102206Y0025502D02*
X0102056Y0025352D01*
X0102406Y0025502D02*
X0102206D01*
X0102556Y0025352D02*
X0102406Y0025502D01*
X0102556Y0025152D02*
Y0025352D01*
X0102406Y0025002D02*
X0102556Y0025152D01*
X0102206Y0025002D02*
X0102406D01*
X0102056Y0025152D02*
X0102206Y0025002D01*
X0024058Y0013159D02*
Y0012959D01*
X0024208Y0013309D02*
X0024058Y0013159D01*
X0024408Y0013309D02*
X0024208D01*
X0024558Y0013159D02*
X0024408Y0013309D01*
X0024558Y0012959D02*
Y0013159D01*
X0024408Y0012809D02*
X0024558Y0012959D01*
X0024208Y0012809D02*
X0024408D01*
X0024058Y0012959D02*
X0024208Y0012809D01*
X0101387Y0025627D02*
Y0025427D01*
X0101537Y0025777D02*
X0101387Y0025627D01*
X0101737Y0025777D02*
X0101537D01*
X0101887Y0025627D02*
X0101737Y0025777D01*
X0101887Y0025427D02*
Y0025627D01*
X0101737Y0025277D02*
X0101887Y0025427D01*
X0101537Y0025277D02*
X0101737D01*
X0101387Y0025427D02*
X0101537Y0025277D01*
X0014421Y0011389D02*
Y0011189D01*
X0014571Y0011539D02*
X0014421Y0011389D01*
X0014771Y0011539D02*
X0014571D01*
X0014921Y0011389D02*
X0014771Y0011539D01*
X0014921Y0011189D02*
Y0011389D01*
X0014771Y0011039D02*
X0014921Y0011189D01*
X0014571Y0011039D02*
X0014771D01*
X0014421Y0011189D02*
X0014571Y0011039D01*
X0021187Y0018154D02*
Y0017954D01*
X0021337Y0018304D02*
X0021187Y0018154D01*
X0021537Y0018304D02*
X0021337D01*
X0021687Y0018154D02*
X0021537Y0018304D01*
X0021687Y0017954D02*
Y0018154D01*
X0021537Y0017804D02*
X0021687Y0017954D01*
X0021337Y0017804D02*
X0021537D01*
X0021187Y0017954D02*
X0021337Y0017804D01*
X0105596Y0032668D02*
Y0032468D01*
X0105746Y0032818D02*
X0105596Y0032668D01*
X0105946Y0032818D02*
X0105746D01*
X0106096Y0032668D02*
X0105946Y0032818D01*
X0106096Y0032468D02*
Y0032668D01*
X0105946Y0032318D02*
X0106096Y0032468D01*
X0105746Y0032318D02*
X0105946D01*
X0105596Y0032468D02*
X0105746Y0032318D01*
X0019023Y0037663D02*
Y0037463D01*
X0019173Y0037813D02*
X0019023Y0037663D01*
X0019373Y0037813D02*
X0019173D01*
X0019523Y0037663D02*
X0019373Y0037813D01*
X0019523Y0037463D02*
Y0037663D01*
X0019373Y0037313D02*
X0019523Y0037463D01*
X0019173Y0037313D02*
X0019373D01*
X0019023Y0037463D02*
X0019173Y0037313D01*
X0025867Y0006590D02*
Y0006390D01*
X0026017Y0006740D02*
X0025867Y0006590D01*
X0026217Y0006740D02*
X0026017D01*
X0026367Y0006590D02*
X0026217Y0006740D01*
X0026367Y0006390D02*
Y0006590D01*
X0026217Y0006240D02*
X0026367Y0006390D01*
X0026017Y0006240D02*
X0026217D01*
X0025867Y0006390D02*
X0026017Y0006240D01*
X0006987Y0022638D02*
Y0022438D01*
X0007137Y0022788D02*
X0006987Y0022638D01*
X0007337Y0022788D02*
X0007137D01*
X0007487Y0022638D02*
X0007337Y0022788D01*
X0007487Y0022438D02*
Y0022638D01*
X0007337Y0022288D02*
X0007487Y0022438D01*
X0007137Y0022288D02*
X0007337D01*
X0006987Y0022438D02*
X0007137Y0022288D01*
X0051041Y0059690D02*
Y0059490D01*
X0051291Y0059440D02*
X0051041Y0059690D01*
X0051541D02*
X0051291Y0059440D01*
X0051541Y0059490D02*
Y0059690D01*
X0051291Y0059740D02*
X0051541Y0059490D01*
X0051041D02*
X0051291Y0059740D01*
X0022170Y0022717D02*
Y0022517D01*
X0022320Y0022867D02*
X0022170Y0022717D01*
X0022520Y0022867D02*
X0022320D01*
X0022670Y0022717D02*
X0022520Y0022867D01*
X0022670Y0022517D02*
Y0022717D01*
X0022520Y0022367D02*
X0022670Y0022517D01*
X0022320Y0022367D02*
X0022520D01*
X0022170Y0022517D02*
X0022320Y0022367D01*
X0046124Y0019019D02*
Y0018819D01*
X0046274Y0019169D02*
X0046124Y0019019D01*
X0046474Y0019169D02*
X0046274D01*
X0046624Y0019019D02*
X0046474Y0019169D01*
X0046624Y0018819D02*
Y0019019D01*
X0046474Y0018669D02*
X0046624Y0018819D01*
X0046274Y0018669D02*
X0046474D01*
X0046124Y0018819D02*
X0046274Y0018669D01*
X0017135Y0021419D02*
Y0021219D01*
X0017285Y0021569D02*
X0017135Y0021419D01*
X0017485Y0021569D02*
X0017285D01*
X0017635Y0021419D02*
X0017485Y0021569D01*
X0017635Y0021219D02*
Y0021419D01*
X0017485Y0021069D02*
X0017635Y0021219D01*
X0017285Y0021069D02*
X0017485D01*
X0017135Y0021219D02*
X0017285Y0021069D01*
X0019259Y0020514D02*
Y0020314D01*
X0019409Y0020664D02*
X0019259Y0020514D01*
X0019609Y0020664D02*
X0019409D01*
X0019759Y0020514D02*
X0019609Y0020664D01*
X0019759Y0020314D02*
Y0020514D01*
X0019609Y0020164D02*
X0019759Y0020314D01*
X0019409Y0020164D02*
X0019609D01*
X0019259Y0020314D02*
X0019409Y0020164D01*
X0017135Y0013827D02*
Y0013627D01*
X0017285Y0013977D02*
X0017135Y0013827D01*
X0017485Y0013977D02*
X0017285D01*
X0017635Y0013827D02*
X0017485Y0013977D01*
X0017635Y0013627D02*
Y0013827D01*
X0017485Y0013477D02*
X0017635Y0013627D01*
X0017285Y0013477D02*
X0017485D01*
X0017135Y0013627D02*
X0017285Y0013477D01*
X0114131Y0006039D02*
Y0005839D01*
X0114381Y0005789D02*
X0114131Y0006039D01*
X0114631D02*
X0114381Y0005789D01*
X0114631Y0005839D02*
Y0006039D01*
X0114381Y0006089D02*
X0114631Y0005839D01*
X0114131D02*
X0114381Y0006089D01*
X0017135Y0014535D02*
Y0014335D01*
X0017285Y0014685D02*
X0017135Y0014535D01*
X0017485Y0014685D02*
X0017285D01*
X0017635Y0014535D02*
X0017485Y0014685D01*
X0017635Y0014335D02*
Y0014535D01*
X0017485Y0014185D02*
X0017635Y0014335D01*
X0017285Y0014185D02*
X0017485D01*
X0017135Y0014335D02*
X0017285Y0014185D01*
X0021187Y0019531D02*
Y0019331D01*
X0021337Y0019681D02*
X0021187Y0019531D01*
X0021537Y0019681D02*
X0021337D01*
X0021687Y0019531D02*
X0021537Y0019681D01*
X0021687Y0019331D02*
Y0019531D01*
X0021537Y0019181D02*
X0021687Y0019331D01*
X0021337Y0019181D02*
X0021537D01*
X0021187Y0019331D02*
X0021337Y0019181D01*
X0023389Y0019452D02*
Y0019252D01*
X0023539Y0019602D02*
X0023389Y0019452D01*
X0023739Y0019602D02*
X0023539D01*
X0023889Y0019452D02*
X0023739Y0019602D01*
X0023889Y0019252D02*
Y0019452D01*
X0023739Y0019102D02*
X0023889Y0019252D01*
X0023539Y0019102D02*
X0023739D01*
X0023389Y0019252D02*
X0023539Y0019102D01*
X0101387Y0020239D02*
Y0020039D01*
X0101537Y0020389D02*
X0101387Y0020239D01*
X0101737Y0020389D02*
X0101537D01*
X0101887Y0020239D02*
X0101737Y0020389D01*
X0101887Y0020039D02*
Y0020239D01*
X0101737Y0019889D02*
X0101887Y0020039D01*
X0101537Y0019889D02*
X0101737D01*
X0101387Y0020039D02*
X0101537Y0019889D01*
X0021265Y0016541D02*
Y0016341D01*
X0021415Y0016691D02*
X0021265Y0016541D01*
X0021615Y0016691D02*
X0021415D01*
X0021765Y0016541D02*
X0021615Y0016691D01*
X0021765Y0016341D02*
Y0016541D01*
X0021615Y0016191D02*
X0021765Y0016341D01*
X0021415Y0016191D02*
X0021615D01*
X0021265Y0016341D02*
X0021415Y0016191D01*
X0024058Y0012490D02*
Y0012290D01*
X0024208Y0012640D02*
X0024058Y0012490D01*
X0024408Y0012640D02*
X0024208D01*
X0024558Y0012490D02*
X0024408Y0012640D01*
X0024558Y0012290D02*
Y0012490D01*
X0024408Y0012140D02*
X0024558Y0012290D01*
X0024208Y0012140D02*
X0024408D01*
X0024058Y0012290D02*
X0024208Y0012140D01*
X0101427Y0019570D02*
Y0019370D01*
X0101577Y0019720D02*
X0101427Y0019570D01*
X0101777Y0019720D02*
X0101577D01*
X0101927Y0019570D02*
X0101777Y0019720D01*
X0101927Y0019370D02*
Y0019570D01*
X0101777Y0019220D02*
X0101927Y0019370D01*
X0101577Y0019220D02*
X0101777D01*
X0101427Y0019370D02*
X0101577Y0019220D01*
X0103747Y0046749D02*
Y0046549D01*
X0103897Y0046899D02*
X0103747Y0046749D01*
X0104097Y0046899D02*
X0103897D01*
X0104247Y0046749D02*
X0104097Y0046899D01*
X0104247Y0046549D02*
Y0046749D01*
X0104097Y0046399D02*
X0104247Y0046549D01*
X0103897Y0046399D02*
X0104097D01*
X0103747Y0046549D02*
X0103897Y0046399D01*
X0009308Y0016777D02*
Y0016577D01*
X0009458Y0016927D02*
X0009308Y0016777D01*
X0009658Y0016927D02*
X0009458D01*
X0009808Y0016777D02*
X0009658Y0016927D01*
X0009808Y0016577D02*
Y0016777D01*
X0009658Y0016427D02*
X0009808Y0016577D01*
X0009458Y0016427D02*
X0009658D01*
X0009308Y0016577D02*
X0009458Y0016427D01*
X0101427Y0017564D02*
Y0017364D01*
X0101577Y0017714D02*
X0101427Y0017564D01*
X0101777Y0017714D02*
X0101577D01*
X0101927Y0017564D02*
X0101777Y0017714D01*
X0101927Y0017364D02*
Y0017564D01*
X0101777Y0017214D02*
X0101927Y0017364D01*
X0101577Y0017214D02*
X0101777D01*
X0101427Y0017364D02*
X0101577Y0017214D01*
X0094032Y0043721D02*
Y0043521D01*
X0094182Y0043871D02*
X0094032Y0043721D01*
X0094382Y0043871D02*
X0094182D01*
X0094532Y0043721D02*
X0094382Y0043871D01*
X0094532Y0043521D02*
Y0043721D01*
X0094382Y0043371D02*
X0094532Y0043521D01*
X0094182Y0043371D02*
X0094382D01*
X0094032Y0043521D02*
X0094182Y0043371D01*
X0022721Y0017446D02*
Y0017246D01*
X0022871Y0017596D02*
X0022721Y0017446D01*
X0023071Y0017596D02*
X0022871D01*
X0023221Y0017446D02*
X0023071Y0017596D01*
X0023221Y0017246D02*
Y0017446D01*
X0023071Y0017096D02*
X0023221Y0017246D01*
X0022871Y0017096D02*
X0023071D01*
X0022721Y0017246D02*
X0022871Y0017096D01*
X0009308Y0012805D02*
Y0012605D01*
X0009458Y0012955D02*
X0009308Y0012805D01*
X0009658Y0012955D02*
X0009458D01*
X0009808Y0012805D02*
X0009658Y0012955D01*
X0009808Y0012605D02*
Y0012805D01*
X0009658Y0012455D02*
X0009808Y0012605D01*
X0009458Y0012455D02*
X0009658D01*
X0009308Y0012605D02*
X0009458Y0012455D01*
X0014657Y0049739D02*
Y0049539D01*
X0014907Y0049489D02*
X0014657Y0049739D01*
X0015157D02*
X0014907Y0049489D01*
X0015157Y0049539D02*
Y0049739D01*
X0014907Y0049789D02*
X0015157Y0049539D01*
X0014657D02*
X0014907Y0049789D01*
X0017135Y0016541D02*
Y0016341D01*
X0017285Y0016691D02*
X0017135Y0016541D01*
X0017485Y0016691D02*
X0017285D01*
X0017635Y0016541D02*
X0017485Y0016691D01*
X0017635Y0016341D02*
Y0016541D01*
X0017485Y0016191D02*
X0017635Y0016341D01*
X0017285Y0016191D02*
X0017485D01*
X0017135Y0016341D02*
X0017285Y0016191D01*
X0014500Y0021969D02*
Y0021769D01*
X0014650Y0022119D02*
X0014500Y0021969D01*
X0014850Y0022119D02*
X0014650D01*
X0015000Y0021969D02*
X0014850Y0022119D01*
X0015000Y0021769D02*
Y0021969D01*
X0014850Y0021619D02*
X0015000Y0021769D01*
X0014650Y0021619D02*
X0014850D01*
X0014500Y0021769D02*
X0014650Y0021619D01*
X0012140Y0022638D02*
Y0022438D01*
X0012290Y0022788D02*
X0012140Y0022638D01*
X0012490Y0022788D02*
X0012290D01*
X0012640Y0022638D02*
X0012490Y0022788D01*
X0012640Y0022438D02*
Y0022638D01*
X0012490Y0022288D02*
X0012640Y0022438D01*
X0012290Y0022288D02*
X0012490D01*
X0012140Y0022438D02*
X0012290Y0022288D01*
X0024963Y0005685D02*
Y0005485D01*
X0025113Y0005835D02*
X0024963Y0005685D01*
X0025313Y0005835D02*
X0025113D01*
X0025463Y0005685D02*
X0025313Y0005835D01*
X0025463Y0005485D02*
Y0005685D01*
X0025313Y0005335D02*
X0025463Y0005485D01*
X0025113Y0005335D02*
X0025313D01*
X0024963Y0005485D02*
X0025113Y0005335D01*
X0101427Y0018233D02*
Y0018033D01*
X0101577Y0018383D02*
X0101427Y0018233D01*
X0101777Y0018383D02*
X0101577D01*
X0101927Y0018233D02*
X0101777Y0018383D01*
X0101927Y0018033D02*
Y0018233D01*
X0101777Y0017883D02*
X0101927Y0018033D01*
X0101577Y0017883D02*
X0101777D01*
X0101427Y0018033D02*
X0101577Y0017883D01*
X0019889Y0013552D02*
Y0013352D01*
X0020039Y0013702D02*
X0019889Y0013552D01*
X0020239Y0013702D02*
X0020039D01*
X0020389Y0013552D02*
X0020239Y0013702D01*
X0020389Y0013352D02*
Y0013552D01*
X0020239Y0013202D02*
X0020389Y0013352D01*
X0020039Y0013202D02*
X0020239D01*
X0019889Y0013352D02*
X0020039Y0013202D01*
X0102017Y0019216D02*
Y0019016D01*
X0102167Y0019366D02*
X0102017Y0019216D01*
X0102367Y0019366D02*
X0102167D01*
X0102517Y0019216D02*
X0102367Y0019366D01*
X0102517Y0019016D02*
Y0019216D01*
X0102367Y0018866D02*
X0102517Y0019016D01*
X0102167Y0018866D02*
X0102367D01*
X0102017Y0019016D02*
X0102167Y0018866D01*
X0040027Y0009461D02*
Y0009261D01*
X0040177Y0009611D02*
X0040027Y0009461D01*
X0040377Y0009611D02*
X0040177D01*
X0040527Y0009461D02*
X0040377Y0009611D01*
X0040527Y0009261D02*
Y0009461D01*
X0040377Y0009111D02*
X0040527Y0009261D01*
X0040177Y0009111D02*
X0040377D01*
X0040027Y0009261D02*
X0040177Y0009111D01*
X0021501Y0022717D02*
Y0022517D01*
X0021651Y0022867D02*
X0021501Y0022717D01*
X0021851Y0022867D02*
X0021651D01*
X0022001Y0022717D02*
X0021851Y0022867D01*
X0022001Y0022517D02*
Y0022717D01*
X0021851Y0022367D02*
X0022001Y0022517D01*
X0021651Y0022367D02*
X0021851D01*
X0021501Y0022517D02*
X0021651Y0022367D01*
X0024137Y0020750D02*
Y0020550D01*
X0024287Y0020900D02*
X0024137Y0020750D01*
X0024487Y0020900D02*
X0024287D01*
X0024637Y0020750D02*
X0024487Y0020900D01*
X0024637Y0020550D02*
Y0020750D01*
X0024487Y0020400D02*
X0024637Y0020550D01*
X0024287Y0020400D02*
X0024487D01*
X0024137Y0020550D02*
X0024287Y0020400D01*
X0018591Y0020514D02*
Y0020314D01*
X0018741Y0020664D02*
X0018591Y0020514D01*
X0018941Y0020664D02*
X0018741D01*
X0019091Y0020514D02*
X0018941Y0020664D01*
X0019091Y0020314D02*
Y0020514D01*
X0018941Y0020164D02*
X0019091Y0020314D01*
X0018741Y0020164D02*
X0018941D01*
X0018591Y0020314D02*
X0018741Y0020164D01*
X0025867Y0009186D02*
Y0008986D01*
X0026017Y0009336D02*
X0025867Y0009186D01*
X0026217Y0009336D02*
X0026017D01*
X0026367Y0009186D02*
X0026217Y0009336D01*
X0026367Y0008986D02*
Y0009186D01*
X0026217Y0008836D02*
X0026367Y0008986D01*
X0026017Y0008836D02*
X0026217D01*
X0025867Y0008986D02*
X0026017Y0008836D01*
X0008482Y0019649D02*
Y0019449D01*
X0008632Y0019799D02*
X0008482Y0019649D01*
X0008832Y0019799D02*
X0008632D01*
X0008982Y0019649D02*
X0008832Y0019799D01*
X0008982Y0019449D02*
Y0019649D01*
X0008832Y0019299D02*
X0008982Y0019449D01*
X0008632Y0019299D02*
X0008832D01*
X0008482Y0019449D02*
X0008632Y0019299D01*
X0022721Y0015873D02*
Y0015673D01*
X0022871Y0016023D02*
X0022721Y0015873D01*
X0023071Y0016023D02*
X0022871D01*
X0023221Y0015873D02*
X0023071Y0016023D01*
X0023221Y0015673D02*
Y0015873D01*
X0023071Y0015523D02*
X0023221Y0015673D01*
X0022871Y0015523D02*
X0023071D01*
X0022721Y0015673D02*
X0022871Y0015523D01*
X0019181Y0022756D02*
Y0022556D01*
X0019331Y0022906D02*
X0019181Y0022756D01*
X0019531Y0022906D02*
X0019331D01*
X0019681Y0022756D02*
X0019531Y0022906D01*
X0019681Y0022556D02*
Y0022756D01*
X0019531Y0022406D02*
X0019681Y0022556D01*
X0019331Y0022406D02*
X0019531D01*
X0019181Y0022556D02*
X0019331Y0022406D01*
X0101427Y0018901D02*
Y0018701D01*
X0101577Y0019051D02*
X0101427Y0018901D01*
X0101777Y0019051D02*
X0101577D01*
X0101927Y0018901D02*
X0101777Y0019051D01*
X0101927Y0018701D02*
Y0018901D01*
X0101777Y0018551D02*
X0101927Y0018701D01*
X0101577Y0018551D02*
X0101777D01*
X0101427Y0018701D02*
X0101577Y0018551D01*
X0013005Y0013552D02*
Y0013352D01*
X0013155Y0013702D02*
X0013005Y0013552D01*
X0013355Y0013702D02*
X0013155D01*
X0013505Y0013552D02*
X0013355Y0013702D01*
X0013505Y0013352D02*
Y0013552D01*
X0013355Y0013202D02*
X0013505Y0013352D01*
X0013155Y0013202D02*
X0013355D01*
X0013005Y0013352D02*
X0013155Y0013202D01*
X0019928Y0020514D02*
Y0020314D01*
X0020078Y0020664D02*
X0019928Y0020514D01*
X0020278Y0020664D02*
X0020078D01*
X0020428Y0020514D02*
X0020278Y0020664D01*
X0020428Y0020314D02*
Y0020514D01*
X0020278Y0020164D02*
X0020428Y0020314D01*
X0020078Y0020164D02*
X0020278D01*
X0019928Y0020314D02*
X0020078Y0020164D01*
X0018473Y0016541D02*
Y0016341D01*
X0018623Y0016691D02*
X0018473Y0016541D01*
X0018823Y0016691D02*
X0018623D01*
X0018973Y0016541D02*
X0018823Y0016691D01*
X0018973Y0016341D02*
Y0016541D01*
X0018823Y0016191D02*
X0018973Y0016341D01*
X0018623Y0016191D02*
X0018823D01*
X0018473Y0016341D02*
X0018623Y0016191D01*
X0024137Y0022756D02*
Y0022556D01*
X0024287Y0022906D02*
X0024137Y0022756D01*
X0024487Y0022906D02*
X0024287D01*
X0024637Y0022756D02*
X0024487Y0022906D01*
X0024637Y0022556D02*
Y0022756D01*
X0024487Y0022406D02*
X0024637Y0022556D01*
X0024287Y0022406D02*
X0024487D01*
X0024137Y0022556D02*
X0024287Y0022406D01*
X0021187Y0018823D02*
Y0018623D01*
X0021337Y0018973D02*
X0021187Y0018823D01*
X0021537Y0018973D02*
X0021337D01*
X0021687Y0018823D02*
X0021537Y0018973D01*
X0021687Y0018623D02*
Y0018823D01*
X0021537Y0018473D02*
X0021687Y0018623D01*
X0021337Y0018473D02*
X0021537D01*
X0021187Y0018623D02*
X0021337Y0018473D01*
X0017135Y0022756D02*
Y0022556D01*
X0017285Y0022906D02*
X0017135Y0022756D01*
X0017485Y0022906D02*
X0017285D01*
X0017635Y0022756D02*
X0017485Y0022906D01*
X0017635Y0022556D02*
Y0022756D01*
X0017485Y0022406D02*
X0017635Y0022556D01*
X0017285Y0022406D02*
X0017485D01*
X0017135Y0022556D02*
X0017285Y0022406D01*
X0019849Y0022756D02*
Y0022556D01*
X0019999Y0022906D02*
X0019849Y0022756D01*
X0020199Y0022906D02*
X0019999D01*
X0020349Y0022756D02*
X0020199Y0022906D01*
X0020349Y0022556D02*
Y0022756D01*
X0020199Y0022406D02*
X0020349Y0022556D01*
X0019999Y0022406D02*
X0020199D01*
X0019849Y0022556D02*
X0019999Y0022406D01*
X0021187Y0013552D02*
Y0013352D01*
X0021337Y0013702D02*
X0021187Y0013552D01*
X0021537Y0013702D02*
X0021337D01*
X0021687Y0013552D02*
X0021537Y0013702D01*
X0021687Y0013352D02*
Y0013552D01*
X0021537Y0013202D02*
X0021687Y0013352D01*
X0021337Y0013202D02*
X0021537D01*
X0021187Y0013352D02*
X0021337Y0013202D01*
X0013635Y0016777D02*
Y0016577D01*
X0013785Y0016927D02*
X0013635Y0016777D01*
X0013985Y0016927D02*
X0013785D01*
X0014135Y0016777D02*
X0013985Y0016927D01*
X0014135Y0016577D02*
Y0016777D01*
X0013985Y0016427D02*
X0014135Y0016577D01*
X0013785Y0016427D02*
X0013985D01*
X0013635Y0016577D02*
X0013785Y0016427D01*
X0040617Y0022559D02*
Y0022359D01*
X0040867Y0022309D02*
X0040617Y0022559D01*
X0041117D02*
X0040867Y0022309D01*
X0041117Y0022359D02*
Y0022559D01*
X0040867Y0022609D02*
X0041117Y0022359D01*
X0040617D02*
X0040867Y0022609D01*
X0102017Y0018508D02*
Y0018308D01*
X0102167Y0018658D02*
X0102017Y0018508D01*
X0102367Y0018658D02*
X0102167D01*
X0102517Y0018508D02*
X0102367Y0018658D01*
X0102517Y0018308D02*
Y0018508D01*
X0102367Y0018158D02*
X0102517Y0018308D01*
X0102167Y0018158D02*
X0102367D01*
X0102017Y0018308D02*
X0102167Y0018158D01*
X0022839Y0022717D02*
Y0022517D01*
X0022989Y0022867D02*
X0022839Y0022717D01*
X0023189Y0022867D02*
X0022989D01*
X0023339Y0022717D02*
X0023189Y0022867D01*
X0023339Y0022517D02*
Y0022717D01*
X0023189Y0022367D02*
X0023339Y0022517D01*
X0022989Y0022367D02*
X0023189D01*
X0022839Y0022517D02*
X0022989Y0022367D01*
X0007931Y0006236D02*
Y0006036D01*
X0008081Y0006386D02*
X0007931Y0006236D01*
X0008281Y0006386D02*
X0008081D01*
X0008431Y0006236D02*
X0008281Y0006386D01*
X0008431Y0006036D02*
Y0006236D01*
X0008281Y0005886D02*
X0008431Y0006036D01*
X0008081Y0005886D02*
X0008281D01*
X0007931Y0006036D02*
X0008081Y0005886D01*
X0014421Y0020396D02*
Y0020196D01*
X0014571Y0020546D02*
X0014421Y0020396D01*
X0014771Y0020546D02*
X0014571D01*
X0014921Y0020396D02*
X0014771Y0020546D01*
X0014921Y0020196D02*
Y0020396D01*
X0014771Y0020046D02*
X0014921Y0020196D01*
X0014571Y0020046D02*
X0014771D01*
X0014421Y0020196D02*
X0014571Y0020046D01*
X0012219Y0018901D02*
Y0018701D01*
X0012369Y0019051D02*
X0012219Y0018901D01*
X0012569Y0019051D02*
X0012369D01*
X0012719Y0018901D02*
X0012569Y0019051D01*
X0012719Y0018701D02*
Y0018901D01*
X0012569Y0018551D02*
X0012719Y0018701D01*
X0012369Y0018551D02*
X0012569D01*
X0012219Y0018701D02*
X0012369Y0018551D01*
X0008521Y0013513D02*
Y0013313D01*
X0008671Y0013663D02*
X0008521Y0013513D01*
X0008871Y0013663D02*
X0008671D01*
X0009021Y0013513D02*
X0008871Y0013663D01*
X0009021Y0013313D02*
Y0013513D01*
X0008871Y0013163D02*
X0009021Y0013313D01*
X0008671Y0013163D02*
X0008871D01*
X0008521Y0013313D02*
X0008671Y0013163D01*
X0020597Y0016541D02*
Y0016341D01*
X0020747Y0016691D02*
X0020597Y0016541D01*
X0020947Y0016691D02*
X0020747D01*
X0021097Y0016541D02*
X0020947Y0016691D01*
X0021097Y0016341D02*
Y0016541D01*
X0020947Y0016191D02*
X0021097Y0016341D01*
X0020747Y0016191D02*
X0020947D01*
X0020597Y0016341D02*
X0020747Y0016191D01*
X0102056Y0026099D02*
Y0025899D01*
X0102206Y0026249D02*
X0102056Y0026099D01*
X0102406Y0026249D02*
X0102206D01*
X0102556Y0026099D02*
X0102406Y0026249D01*
X0102556Y0025899D02*
Y0026099D01*
X0102406Y0025749D02*
X0102556Y0025899D01*
X0102206Y0025749D02*
X0102406D01*
X0102056Y0025899D02*
X0102206Y0025749D01*
X0006948Y0018901D02*
Y0018701D01*
X0007098Y0019051D02*
X0006948Y0018901D01*
X0007298Y0019051D02*
X0007098D01*
X0007448Y0018901D02*
X0007298Y0019051D01*
X0007448Y0018701D02*
Y0018901D01*
X0007298Y0018551D02*
X0007448Y0018701D01*
X0007098Y0018551D02*
X0007298D01*
X0006948Y0018701D02*
X0007098Y0018551D01*
X0005729Y0005843D02*
Y0005643D01*
X0005979Y0005593D02*
X0005729Y0005843D01*
X0006229D02*
X0005979Y0005593D01*
X0006229Y0005643D02*
Y0005843D01*
X0005979Y0005893D02*
X0006229Y0005643D01*
X0005729D02*
X0005979Y0005893D01*
X0104573Y0046749D02*
Y0046549D01*
X0104723Y0046899D02*
X0104573Y0046749D01*
X0104923Y0046899D02*
X0104723D01*
X0105073Y0046749D02*
X0104923Y0046899D01*
X0105073Y0046549D02*
Y0046749D01*
X0104923Y0046399D02*
X0105073Y0046549D01*
X0104723Y0046399D02*
X0104923D01*
X0104573Y0046549D02*
X0104723Y0046399D01*
X0017135Y0012490D02*
Y0012290D01*
X0017285Y0012640D02*
X0017135Y0012490D01*
X0017485Y0012640D02*
X0017285D01*
X0017635Y0012490D02*
X0017485Y0012640D01*
X0017635Y0012290D02*
Y0012490D01*
X0017485Y0012140D02*
X0017635Y0012290D01*
X0017285Y0012140D02*
X0017485D01*
X0017135Y0012290D02*
X0017285Y0012140D01*
X0024137Y0021419D02*
Y0021219D01*
X0024287Y0021569D02*
X0024137Y0021419D01*
X0024487Y0021569D02*
X0024287D01*
X0024637Y0021419D02*
X0024487Y0021569D01*
X0024637Y0021219D02*
Y0021419D01*
X0024487Y0021069D02*
X0024637Y0021219D01*
X0024287Y0021069D02*
X0024487D01*
X0024137Y0021219D02*
X0024287Y0021069D01*
X0017135Y0015204D02*
Y0015004D01*
X0017285Y0015354D02*
X0017135Y0015204D01*
X0017485Y0015354D02*
X0017285D01*
X0017635Y0015204D02*
X0017485Y0015354D01*
X0017635Y0015004D02*
Y0015204D01*
X0017485Y0014854D02*
X0017635Y0015004D01*
X0017285Y0014854D02*
X0017485D01*
X0017135Y0015004D02*
X0017285Y0014854D01*
X0032161Y0034399D02*
Y0034199D01*
X0032311Y0034549D02*
X0032161Y0034399D01*
X0032511Y0034549D02*
X0032311D01*
X0032661Y0034399D02*
X0032511Y0034549D01*
X0032661Y0034199D02*
Y0034399D01*
X0032511Y0034049D02*
X0032661Y0034199D01*
X0032311Y0034049D02*
X0032511D01*
X0032161Y0034199D02*
X0032311Y0034049D01*
X0021973Y0007849D02*
Y0007649D01*
X0022223Y0007599D02*
X0021973Y0007849D01*
X0022473D02*
X0022223Y0007599D01*
X0022473Y0007649D02*
Y0007849D01*
X0022223Y0007899D02*
X0022473Y0007649D01*
X0021973D02*
X0022223Y0007899D01*
X0114131Y0049739D02*
Y0049539D01*
X0114381Y0049489D02*
X0114131Y0049739D01*
X0114631D02*
X0114381Y0049489D01*
X0114631Y0049539D02*
Y0049739D01*
X0114381Y0049789D02*
X0114631Y0049539D01*
X0114131D02*
X0114381Y0049789D01*
G54D69*
G01X0116191Y0004484D02*
X0116702D01*
Y0061281D01*
X0004445D01*
Y0004484D01*
X0116191D01*
M02*
