*
G04 Mass Parameters ***
*
G04 Image ***
*
%INW:\PROJECT WORKSPACE\PROJECT_WORK\AMOEBA2\IPS SCHEMATIC VER2_FINALPCB\IPS-1.SMT*%
%ICAS*%
%MOIN*%
%IPPOS*%
%ASAXBY*%
G74*%FSLAN2X34Y34*%
*
G04 Aperture Definitions ***
*
%ADD10C,0.1378*%
%ADD11C,0.0550*%
%ADD12C,0.1575*%
%ADD13C,0.0606*%
%ADD14R,0.0394X0.0905*%
%ADD15R,0.0433X0.0669*%
%ADD16R,0.0669X0.0433*%
%ADD17R,0.1063X0.0394*%
%ADD18R,0.0512X0.0472*%
%ADD19R,0.0472X0.0512*%
%ADD20R,0.0630X0.1378*%
%ADD21C,0.0787*%
%ADD22R,0.1968X0.1968*%
%ADD23C,0.0866*%
%ADD24C,0.1772*%
%ADD25C,0.0750*%
%ADD26R,0.0750X0.0750*%
%ADD27R,0.0354X0.0354*%
%ADD28R,0.0571X0.0787*%
%ADD29R,0.0334X0.0256*%
%ADD30R,0.0787X0.0571*%
%ADD31R,0.0256X0.0334*%
%ADD32C,0.1181*%
%ADD33O,0.0940X0.0256*%
%ADD34R,0.0940X0.0256*%
%ADD35O,0.0256X0.0940*%
%ADD36R,0.0256X0.0940*%
%ADD37R,0.0400X0.0560*%
%ADD38R,0.0472X0.0236*%
%ADD39O,0.0606X0.0606*%
%ADD40R,0.0886X0.0886*%
%ADD41C,0.0886*%
%ADD42R,0.0880X0.1420*%
%ADD43R,0.0880X0.0480*%
%ADD44C,0.0472*%
%ADD45R,0.0433X0.0433*%
%ADD46R,0.0560X0.0400*%
%ADD47R,0.0708X0.1496*%
%ADD48R,0.3346X0.3346*%
%ADD49C,0.0551*%
%ADD50C,0.0531*%
%ADD51R,0.0531X0.0531*%
%ADD52R,0.0334X0.0620*%
%ADD53O,0.0886X0.0256*%
%ADD54R,0.0886X0.0256*%
%ADD55O,0.1063X0.0551*%
%ADD56R,0.0945X0.0551*%
%ADD57O,0.0177X0.0689*%
%ADD58R,0.0177X0.0689*%
%ADD59R,0.0640X0.0320*%
%ADD60R,0.0940X0.0320*%
%ADD61C,0.0039*%
%ADD62C,0.0100*%
%ADD63C,0.0010*%
%ADD64C,0.0079*%
%ADD65C,0.0059*%
%ADD66C,0.0394*%
%ADD67C,0.0120*%
%ADD68C,0.0080*%
%ADD69C,0.0394*%
%ADD70C,0.0472*%
%ADD71C,0.0394*%
%ADD72C,0.0276*%
%ADD73C,0.0197*%
%ADD74C,0.1181*%
%ADD75C,0.0118*%
%ADD76C,0.0140*%
%ADD77C,0.0140*%
%ADD78C,0.0787*%
%ADD79C,0.0590*%
%ADD80C,0.0984*%
%ADD81C,0.0600*%
%ADD82C,0.1693*%
%ADD83C,0.0724*%
%ADD84R,0.0512X0.1023*%
%ADD85R,0.0472X0.0708*%
%ADD86R,0.0708X0.0472*%
%ADD87R,0.1063X0.0512*%
%ADD88R,0.0669X0.1417*%
%ADD89R,0.2086X0.2086*%
%ADD90R,0.2047X0.2047*%
%ADD91C,0.0945*%
%ADD92C,0.1850*%
%ADD93R,0.0787X0.0787*%
%ADD94R,0.0394X0.0394*%
%ADD95R,0.0630X0.0866*%
%ADD96R,0.0354X0.0275*%
%ADD97R,0.0866X0.0630*%
%ADD98R,0.0275X0.0354*%
%ADD99C,0.1299*%
%ADD100C,0.0984*%
%ADD101O,0.0979X0.0295*%
%ADD102R,0.0979X0.0295*%
%ADD103O,0.0295X0.0979*%
%ADD104R,0.0295X0.0979*%
%ADD105R,0.0964X0.0964*%
%ADD106C,0.0964*%
%ADD107R,0.0551X0.0551*%
%ADD108R,0.0748X0.1535*%
%ADD109C,0.0669*%
%ADD110C,0.0649*%
%ADD111R,0.0649X0.0649*%
%ADD112R,0.0394X0.0670*%
%ADD113O,0.0925X0.0295*%
%ADD114R,0.0925X0.0295*%
%ADD115O,0.1142X0.0551*%
%ADD116O,0.0216X0.0728*%
%ADD117R,0.0216X0.0728*%
%ADD118C,0.0472*%
%ADD119C,0.0472*%
*
G04 Plot Data ***
*
G54D62*
G01X0027376Y0008775D02*
X0025763D01*
X0027376Y0008685D02*
X0025763D01*
X0027376Y0008595D02*
X0025763D01*
X0027376Y0008505D02*
X0025763D01*
X0027376Y0008415D02*
X0025763D01*
X0027376Y0008325D02*
X0025763D01*
X0027376Y0008235D02*
X0025763D01*
X0027376Y0008145D02*
X0025763D01*
X0027376Y0008055D02*
X0025763D01*
X0027376Y0007965D02*
X0025763D01*
X0027376Y0007875D02*
X0025763D01*
X0027376Y0007785D02*
X0025763D01*
X0027376Y0007695D02*
X0025763D01*
X0027376Y0007605D02*
X0025763D01*
X0027376Y0007515D02*
X0025763D01*
X0027376Y0007425D02*
X0025763D01*
X0027376Y0007335D02*
X0025763D01*
X0027376Y0007245D02*
X0025763D01*
X0027376Y0007155D02*
X0025763D01*
X0027376Y0007065D02*
X0025763D01*
X0027376Y0006975D02*
X0025763D01*
X0027376Y0006885D02*
X0025763D01*
X0027376Y0006795D02*
X0025763D01*
X0027376Y0006705D02*
X0025763D01*
X0027376Y0006615D02*
X0025763D01*
X0027376Y0006525D02*
X0025763D01*
X0027376Y0006435D02*
X0025763D01*
X0027376Y0006345D02*
X0025763D01*
Y0009361D02*
Y0006215D01*
X0027376Y0009361D02*
X0025763D01*
X0027376D02*
Y0006215D01*
X0027333Y0009361D02*
Y0006215D01*
X0027243Y0009361D02*
Y0006215D01*
X0027153Y0009361D02*
Y0006215D01*
X0027063Y0009361D02*
Y0006215D01*
X0026973Y0009361D02*
Y0006215D01*
X0026883Y0009361D02*
Y0006215D01*
X0026793Y0009361D02*
Y0006215D01*
X0026703Y0009361D02*
Y0006215D01*
X0026613Y0009361D02*
Y0006215D01*
X0026523Y0009361D02*
Y0006215D01*
X0026433Y0009361D02*
Y0006215D01*
X0026343Y0009361D02*
Y0006215D01*
X0026253Y0009361D02*
Y0006215D01*
X0026163Y0009361D02*
Y0006215D01*
X0026073Y0009361D02*
Y0006215D01*
X0025983Y0009361D02*
Y0006215D01*
X0025893Y0009361D02*
Y0006215D01*
X0025803Y0009361D02*
Y0006215D01*
X0027376Y0009315D02*
X0025763D01*
X0027376Y0009225D02*
X0025763D01*
X0027376Y0009135D02*
X0025763D01*
X0027376Y0009045D02*
X0025763D01*
X0027376Y0008955D02*
X0025763D01*
X0027376Y0008865D02*
X0025763D01*
X0027376Y0006255D02*
X0025763D01*
X0027376Y0006215D02*
X0025763D01*
X0024977Y0017189D02*
X0017110D01*
Y0022735D02*
Y0017149D01*
X0024977D02*
X0017110D01*
X0024977Y0022735D02*
Y0017149D01*
Y0022735D02*
X0017110D01*
X0024977Y0020069D02*
X0017110D01*
X0024890Y0022735D02*
Y0017149D01*
X0024800Y0022735D02*
Y0017149D01*
X0024710Y0022735D02*
Y0017149D01*
X0024620Y0022735D02*
Y0017149D01*
X0024530Y0022735D02*
Y0017149D01*
X0024440Y0022735D02*
Y0017149D01*
X0024350Y0022735D02*
Y0017149D01*
X0024260Y0022735D02*
Y0017149D01*
X0024170Y0022735D02*
Y0017149D01*
X0024080Y0022735D02*
Y0017149D01*
X0023990Y0022735D02*
Y0017149D01*
X0023900Y0022735D02*
Y0017149D01*
X0023810Y0022735D02*
Y0017149D01*
X0023720Y0022735D02*
Y0017149D01*
X0023630Y0022735D02*
Y0017149D01*
X0023540Y0022735D02*
Y0017149D01*
X0023450Y0022735D02*
Y0017149D01*
X0023360Y0022735D02*
Y0017149D01*
X0023270Y0022735D02*
Y0017149D01*
X0023180Y0022735D02*
Y0017149D01*
X0023090Y0022735D02*
Y0017149D01*
X0023000Y0022735D02*
Y0017149D01*
X0022910Y0022735D02*
Y0017149D01*
X0022820Y0022735D02*
Y0017149D01*
X0022730Y0022735D02*
Y0017149D01*
X0022640Y0022735D02*
Y0017149D01*
X0022550Y0022735D02*
Y0017149D01*
X0022460Y0022735D02*
Y0017149D01*
X0022370Y0022735D02*
Y0017149D01*
X0022280Y0022735D02*
Y0017149D01*
X0022190Y0022735D02*
Y0017149D01*
X0022100Y0022735D02*
Y0017149D01*
X0022010Y0022735D02*
Y0017149D01*
X0021920Y0022735D02*
Y0017149D01*
X0021830Y0022735D02*
Y0017149D01*
X0021740Y0022735D02*
Y0017149D01*
X0021650Y0022735D02*
Y0017149D01*
X0021560Y0022735D02*
Y0017149D01*
X0021470Y0022735D02*
Y0017149D01*
X0021380Y0022735D02*
Y0017149D01*
X0021290Y0022735D02*
Y0017149D01*
X0021200Y0022735D02*
Y0017149D01*
X0021110Y0022735D02*
Y0017149D01*
X0021020Y0022735D02*
Y0017149D01*
X0020930Y0022735D02*
Y0017149D01*
X0020840Y0022735D02*
Y0017149D01*
X0020750Y0022735D02*
Y0017149D01*
X0020660Y0022735D02*
Y0017149D01*
X0020570Y0022735D02*
Y0017149D01*
X0020480Y0022735D02*
Y0017149D01*
X0020390Y0022735D02*
Y0017149D01*
X0020300Y0022735D02*
Y0017149D01*
X0020210Y0022735D02*
Y0017149D01*
X0020120Y0022735D02*
Y0017149D01*
X0020030Y0022735D02*
Y0017149D01*
X0019940Y0022735D02*
Y0017149D01*
X0019850Y0022735D02*
Y0017149D01*
X0019760Y0022735D02*
Y0017149D01*
X0019670Y0022735D02*
Y0017149D01*
X0019580Y0022735D02*
Y0017149D01*
X0019490Y0022735D02*
Y0017149D01*
X0019400Y0022735D02*
Y0017149D01*
X0019310Y0022735D02*
Y0017149D01*
X0019220Y0022735D02*
Y0017149D01*
X0019130Y0022735D02*
Y0017149D01*
X0019040Y0022735D02*
Y0017149D01*
X0018950Y0022735D02*
Y0017149D01*
X0018860Y0022735D02*
Y0017149D01*
X0018770Y0022735D02*
Y0017149D01*
X0018680Y0022735D02*
Y0017149D01*
X0018590Y0022735D02*
Y0017149D01*
X0018500Y0022735D02*
Y0017149D01*
X0018410Y0022735D02*
Y0017149D01*
X0018320Y0022735D02*
Y0017149D01*
X0018230Y0022735D02*
Y0017149D01*
X0018140Y0022735D02*
Y0017149D01*
X0018050Y0022735D02*
Y0017149D01*
X0017960Y0022735D02*
Y0017149D01*
X0017870Y0022735D02*
Y0017149D01*
X0017780Y0022735D02*
Y0017149D01*
X0017690Y0022735D02*
Y0017149D01*
X0017600Y0022735D02*
Y0017149D01*
X0017510Y0022735D02*
Y0017149D01*
X0017420Y0022735D02*
Y0017149D01*
X0017330Y0022735D02*
Y0017149D01*
X0017240Y0022735D02*
Y0017149D01*
X0024977Y0022679D02*
X0017110D01*
X0024977Y0022589D02*
X0017110D01*
X0024977Y0022499D02*
X0017110D01*
X0024977Y0022409D02*
X0017110D01*
X0024977Y0022319D02*
X0017110D01*
X0024977Y0022229D02*
X0017110D01*
X0024977Y0022139D02*
X0017110D01*
X0024977Y0022049D02*
X0017110D01*
X0024977Y0021959D02*
X0017110D01*
X0024977Y0021869D02*
X0017110D01*
X0024977Y0021779D02*
X0017110D01*
X0024977Y0021689D02*
X0017110D01*
X0024977Y0021599D02*
X0017110D01*
X0024977Y0021509D02*
X0017110D01*
X0024977Y0021419D02*
X0017110D01*
X0024977Y0021329D02*
X0017110D01*
X0024977Y0021239D02*
X0017110D01*
X0024977Y0021149D02*
X0017110D01*
X0024977Y0021059D02*
X0017110D01*
X0024977Y0020969D02*
X0017110D01*
X0024977Y0020879D02*
X0017110D01*
X0024977Y0020789D02*
X0017110D01*
X0024977Y0020699D02*
X0017110D01*
X0024977Y0020609D02*
X0017110D01*
X0024977Y0020519D02*
X0017110D01*
X0024977Y0020429D02*
X0017110D01*
X0024977Y0020339D02*
X0017110D01*
X0024977Y0020249D02*
X0017110D01*
X0024977Y0020159D02*
X0017110D01*
X0017150Y0022735D02*
Y0017149D01*
X0024977Y0019979D02*
X0017110D01*
X0024977Y0019889D02*
X0017110D01*
X0024977Y0019799D02*
X0017110D01*
X0024977Y0019709D02*
X0017110D01*
X0024977Y0019619D02*
X0017110D01*
X0024977Y0019529D02*
X0017110D01*
X0024977Y0019439D02*
X0017110D01*
X0024977Y0019349D02*
X0017110D01*
X0024977Y0019259D02*
X0017110D01*
X0024977Y0019169D02*
X0017110D01*
X0024977Y0019079D02*
X0017110D01*
X0024977Y0018989D02*
X0017110D01*
X0024977Y0018899D02*
X0017110D01*
X0024977Y0018809D02*
X0017110D01*
X0024977Y0018719D02*
X0017110D01*
X0024977Y0018629D02*
X0017110D01*
X0024977Y0018539D02*
X0017110D01*
X0024977Y0018449D02*
X0017110D01*
X0024977Y0018359D02*
X0017110D01*
X0024977Y0018269D02*
X0017110D01*
X0024977Y0018179D02*
X0017110D01*
X0024977Y0018089D02*
X0017110D01*
X0024977Y0017999D02*
X0017110D01*
X0024977Y0017909D02*
X0017110D01*
X0024977Y0017819D02*
X0017110D01*
X0024977Y0017729D02*
X0017110D01*
X0024977Y0017639D02*
X0017110D01*
X0024977Y0017549D02*
X0017110D01*
X0024977Y0017459D02*
X0017110D01*
X0024977Y0017369D02*
X0017110D01*
X0024977Y0017279D02*
X0017110D01*
X0024937Y0010975D02*
X0017071D01*
X0024937Y0016559D02*
X0017071D01*
X0024937D02*
Y0010935D01*
X0017071D01*
Y0016559D02*
Y0010935D01*
X0024937Y0013855D02*
X0017071D01*
X0024851Y0016559D02*
Y0010935D01*
X0024761Y0016559D02*
Y0010935D01*
X0024671Y0016559D02*
Y0010935D01*
X0024581Y0016559D02*
Y0010935D01*
X0024491Y0016559D02*
Y0010935D01*
X0024401Y0016559D02*
Y0010935D01*
X0024311Y0016559D02*
Y0010935D01*
X0024221Y0016559D02*
Y0010935D01*
X0024131Y0016559D02*
Y0010935D01*
X0024041Y0016559D02*
Y0010935D01*
X0023951Y0016559D02*
Y0010935D01*
X0023861Y0016559D02*
Y0010935D01*
X0023771Y0016559D02*
Y0010935D01*
X0023681Y0016559D02*
Y0010935D01*
X0023591Y0016559D02*
Y0010935D01*
X0023501Y0016559D02*
Y0010935D01*
X0023411Y0016559D02*
Y0010935D01*
X0023321Y0016559D02*
Y0010935D01*
X0023231Y0016559D02*
Y0010935D01*
X0023141Y0016559D02*
Y0010935D01*
X0023051Y0016559D02*
Y0010935D01*
X0022961Y0016559D02*
Y0010935D01*
X0022871Y0016559D02*
Y0010935D01*
X0022781Y0016559D02*
Y0010935D01*
X0022691Y0016559D02*
Y0010935D01*
X0022601Y0016559D02*
Y0010935D01*
X0022511Y0016559D02*
Y0010935D01*
X0022421Y0016559D02*
Y0010935D01*
X0022331Y0016559D02*
Y0010935D01*
X0022241Y0016559D02*
Y0010935D01*
X0022151Y0016559D02*
Y0010935D01*
X0022061Y0016559D02*
Y0010935D01*
X0021971Y0016559D02*
Y0010935D01*
X0021881Y0016559D02*
Y0010935D01*
X0021791Y0016559D02*
Y0010935D01*
X0021701Y0016559D02*
Y0010935D01*
X0021611Y0016559D02*
Y0010935D01*
X0021521Y0016559D02*
Y0010935D01*
X0021431Y0016559D02*
Y0010935D01*
X0021341Y0016559D02*
Y0010935D01*
X0021251Y0016559D02*
Y0010935D01*
X0021161Y0016559D02*
Y0010935D01*
X0021071Y0016559D02*
Y0010935D01*
X0020981Y0016559D02*
Y0010935D01*
X0020891Y0016559D02*
Y0010935D01*
X0020801Y0016559D02*
Y0010935D01*
X0020711Y0016559D02*
Y0010935D01*
X0020621Y0016559D02*
Y0010935D01*
X0020531Y0016559D02*
Y0010935D01*
X0020441Y0016559D02*
Y0010935D01*
X0020351Y0016559D02*
Y0010935D01*
X0020261Y0016559D02*
Y0010935D01*
X0020171Y0016559D02*
Y0010935D01*
X0020081Y0016559D02*
Y0010935D01*
X0019991Y0016559D02*
Y0010935D01*
X0019901Y0016559D02*
Y0010935D01*
X0019811Y0016559D02*
Y0010935D01*
X0019721Y0016559D02*
Y0010935D01*
X0019631Y0016559D02*
Y0010935D01*
X0019541Y0016559D02*
Y0010935D01*
X0019451Y0016559D02*
Y0010935D01*
X0019361Y0016559D02*
Y0010935D01*
X0019271Y0016559D02*
Y0010935D01*
X0019181Y0016559D02*
Y0010935D01*
X0019091Y0016559D02*
Y0010935D01*
X0019001Y0016559D02*
Y0010935D01*
X0018911Y0016559D02*
Y0010935D01*
X0018821Y0016559D02*
Y0010935D01*
X0018731Y0016559D02*
Y0010935D01*
X0018641Y0016559D02*
Y0010935D01*
X0018551Y0016559D02*
Y0010935D01*
X0018461Y0016559D02*
Y0010935D01*
X0018371Y0016559D02*
Y0010935D01*
X0018281Y0016559D02*
Y0010935D01*
X0018191Y0016559D02*
Y0010935D01*
X0018101Y0016559D02*
Y0010935D01*
X0018011Y0016559D02*
Y0010935D01*
X0017921Y0016559D02*
Y0010935D01*
X0017831Y0016559D02*
Y0010935D01*
X0017741Y0016559D02*
Y0010935D01*
X0017651Y0016559D02*
Y0010935D01*
X0017561Y0016559D02*
Y0010935D01*
X0017471Y0016559D02*
Y0010935D01*
X0017381Y0016559D02*
Y0010935D01*
X0017291Y0016559D02*
Y0010935D01*
X0017201Y0016559D02*
Y0010935D01*
X0024937Y0016465D02*
X0017071D01*
X0024937Y0016375D02*
X0017071D01*
X0024937Y0016285D02*
X0017071D01*
X0024937Y0016195D02*
X0017071D01*
X0024937Y0016105D02*
X0017071D01*
X0024937Y0016015D02*
X0017071D01*
X0024937Y0015925D02*
X0017071D01*
X0024937Y0015835D02*
X0017071D01*
X0024937Y0015745D02*
X0017071D01*
X0024937Y0015655D02*
X0017071D01*
X0024937Y0015565D02*
X0017071D01*
X0024937Y0015475D02*
X0017071D01*
X0024937Y0015385D02*
X0017071D01*
X0024937Y0015295D02*
X0017071D01*
X0024937Y0015205D02*
X0017071D01*
X0024937Y0015115D02*
X0017071D01*
X0024937Y0015025D02*
X0017071D01*
X0024937Y0014935D02*
X0017071D01*
X0024937Y0014845D02*
X0017071D01*
X0024937Y0014755D02*
X0017071D01*
X0024937Y0014665D02*
X0017071D01*
X0024937Y0014575D02*
X0017071D01*
X0024937Y0014485D02*
X0017071D01*
X0024937Y0014395D02*
X0017071D01*
X0024937Y0014305D02*
X0017071D01*
X0024937Y0014215D02*
X0017071D01*
X0024937Y0014125D02*
X0017071D01*
X0024937Y0014035D02*
X0017071D01*
X0024937Y0013945D02*
X0017071D01*
X0017111Y0016559D02*
Y0010935D01*
X0024937Y0013765D02*
X0017071D01*
X0024937Y0013675D02*
X0017071D01*
X0024937Y0013585D02*
X0017071D01*
X0024937Y0013495D02*
X0017071D01*
X0024937Y0013405D02*
X0017071D01*
X0024937Y0013315D02*
X0017071D01*
X0024937Y0013225D02*
X0017071D01*
X0024937Y0013135D02*
X0017071D01*
X0024937Y0013045D02*
X0017071D01*
X0024937Y0012955D02*
X0017071D01*
X0024937Y0012865D02*
X0017071D01*
X0024937Y0012775D02*
X0017071D01*
X0024937Y0012685D02*
X0017071D01*
X0024937Y0012595D02*
X0017071D01*
X0024937Y0012505D02*
X0017071D01*
X0024937Y0012415D02*
X0017071D01*
X0024937Y0012325D02*
X0017071D01*
X0024937Y0012235D02*
X0017071D01*
X0024937Y0012145D02*
X0017071D01*
X0024937Y0012055D02*
X0017071D01*
X0024937Y0011965D02*
X0017071D01*
X0024937Y0011875D02*
X0017071D01*
X0024937Y0011785D02*
X0017071D01*
X0024937Y0011695D02*
X0017071D01*
X0024937Y0011605D02*
X0017071D01*
X0024937Y0011515D02*
X0017071D01*
X0024937Y0011425D02*
X0017071D01*
X0024937Y0011335D02*
X0017071D01*
X0024937Y0011245D02*
X0017071D01*
X0024937Y0011155D02*
X0017071D01*
X0024937Y0011065D02*
X0017071D01*
X0014789Y0011014D02*
X0008377D01*
X0007159Y0022735D02*
Y0012233D01*
X0008417Y0010974D01*
X0014789D02*
X0008417D01*
X0014789Y0022735D02*
Y0010974D01*
Y0022735D02*
X0007159D01*
X0014789Y0016954D02*
X0007159D01*
X0014759Y0022735D02*
Y0010974D01*
X0014669Y0022735D02*
Y0010974D01*
X0014579Y0022735D02*
Y0010974D01*
X0014489Y0022735D02*
Y0010974D01*
X0014399Y0022735D02*
Y0010974D01*
X0014309Y0022735D02*
Y0010974D01*
X0014219Y0022735D02*
Y0010974D01*
X0014129Y0022735D02*
Y0010974D01*
X0014039Y0022735D02*
Y0010974D01*
X0013949Y0022735D02*
Y0010974D01*
X0013859Y0022735D02*
Y0010974D01*
X0013769Y0022735D02*
Y0010974D01*
X0013679Y0022735D02*
Y0010974D01*
X0013589Y0022735D02*
Y0010974D01*
X0013499Y0022735D02*
Y0010974D01*
X0013409Y0022735D02*
Y0010974D01*
X0013319Y0022735D02*
Y0010974D01*
X0013229Y0022735D02*
Y0010974D01*
X0013139Y0022735D02*
Y0010974D01*
X0013049Y0022735D02*
Y0010974D01*
X0012959Y0022735D02*
Y0010974D01*
X0012869Y0022735D02*
Y0010974D01*
X0012779Y0022735D02*
Y0010974D01*
X0012689Y0022735D02*
Y0010974D01*
X0012599Y0022735D02*
Y0010974D01*
X0012509Y0022735D02*
Y0010974D01*
X0012419Y0022735D02*
Y0010974D01*
X0012329Y0022735D02*
Y0010974D01*
X0012239Y0022735D02*
Y0010974D01*
X0012149Y0022735D02*
Y0010974D01*
X0012059Y0022735D02*
Y0010974D01*
X0011969Y0022735D02*
Y0010974D01*
X0011879Y0022735D02*
Y0010974D01*
X0011789Y0022735D02*
Y0010974D01*
X0011699Y0022735D02*
Y0010974D01*
X0011609Y0022735D02*
Y0010974D01*
X0011519Y0022735D02*
Y0010974D01*
X0011429Y0022735D02*
Y0010974D01*
X0011339Y0022735D02*
Y0010974D01*
X0011249Y0022735D02*
Y0010974D01*
X0011159Y0022735D02*
Y0010974D01*
X0011069Y0022735D02*
Y0010974D01*
X0010979Y0022735D02*
Y0010974D01*
X0010889Y0022735D02*
Y0010974D01*
X0010799Y0022735D02*
Y0010974D01*
X0010709Y0022735D02*
Y0010974D01*
X0010619Y0022735D02*
Y0010974D01*
X0010529Y0022735D02*
Y0010974D01*
X0010439Y0022735D02*
Y0010974D01*
X0010349Y0022735D02*
Y0010974D01*
X0010259Y0022735D02*
Y0010974D01*
X0010169Y0022735D02*
Y0010974D01*
X0010079Y0022735D02*
Y0010974D01*
X0009989Y0022735D02*
Y0010974D01*
X0009899Y0022735D02*
Y0010974D01*
X0009809Y0022735D02*
Y0010974D01*
X0009719Y0022735D02*
Y0010974D01*
X0009629Y0022735D02*
Y0010974D01*
X0009539Y0022735D02*
Y0010974D01*
X0009449Y0022735D02*
Y0010974D01*
X0009359Y0022735D02*
Y0010974D01*
X0009269Y0022735D02*
Y0010974D01*
X0009179Y0022735D02*
Y0010974D01*
X0009089Y0022735D02*
Y0010974D01*
X0008999Y0022735D02*
Y0010974D01*
X0008909Y0022735D02*
Y0010974D01*
X0008819Y0022735D02*
Y0010974D01*
X0008729Y0022735D02*
Y0010974D01*
X0008639Y0022735D02*
Y0010974D01*
X0008549Y0022735D02*
Y0010974D01*
X0008459Y0022735D02*
Y0010974D01*
X0008369Y0022735D02*
Y0011023D01*
X0008279Y0022735D02*
Y0011113D01*
X0008189Y0022735D02*
Y0011203D01*
X0008099Y0022735D02*
Y0011293D01*
X0008009Y0022735D02*
Y0011383D01*
X0007919Y0022735D02*
Y0011473D01*
X0007829Y0022735D02*
Y0011563D01*
X0007739Y0022735D02*
Y0011653D01*
X0007649Y0022735D02*
Y0011743D01*
X0007559Y0022735D02*
Y0011833D01*
X0007469Y0022735D02*
Y0011923D01*
X0007379Y0022735D02*
Y0012013D01*
X0007289Y0022735D02*
Y0012103D01*
X0014789Y0022714D02*
X0007159D01*
X0014789Y0022624D02*
X0007159D01*
X0014789Y0022534D02*
X0007159D01*
X0014789Y0022444D02*
X0007159D01*
X0014789Y0022354D02*
X0007159D01*
X0014789Y0022264D02*
X0007159D01*
X0014789Y0022174D02*
X0007159D01*
X0014789Y0022084D02*
X0007159D01*
X0014789Y0021994D02*
X0007159D01*
X0014789Y0021904D02*
X0007159D01*
X0014789Y0021814D02*
X0007159D01*
X0014789Y0021724D02*
X0007159D01*
X0014789Y0021634D02*
X0007159D01*
X0014789Y0021544D02*
X0007159D01*
X0014789Y0021454D02*
X0007159D01*
X0014789Y0021364D02*
X0007159D01*
X0014789Y0021274D02*
X0007159D01*
X0014789Y0021184D02*
X0007159D01*
X0014789Y0021094D02*
X0007159D01*
X0014789Y0021004D02*
X0007159D01*
X0014789Y0020914D02*
X0007159D01*
X0014789Y0020824D02*
X0007159D01*
X0014789Y0020734D02*
X0007159D01*
X0014789Y0020644D02*
X0007159D01*
X0014789Y0020554D02*
X0007159D01*
X0014789Y0020464D02*
X0007159D01*
X0014789Y0020374D02*
X0007159D01*
X0014789Y0020284D02*
X0007159D01*
X0014789Y0020194D02*
X0007159D01*
X0014789Y0020104D02*
X0007159D01*
X0014789Y0020014D02*
X0007159D01*
X0014789Y0019924D02*
X0007159D01*
X0014789Y0019834D02*
X0007159D01*
X0014789Y0019744D02*
X0007159D01*
X0014789Y0019654D02*
X0007159D01*
X0014789Y0019564D02*
X0007159D01*
X0014789Y0019474D02*
X0007159D01*
X0014789Y0019384D02*
X0007159D01*
X0014789Y0019294D02*
X0007159D01*
X0014789Y0019204D02*
X0007159D01*
X0014789Y0019114D02*
X0007159D01*
X0014789Y0019024D02*
X0007159D01*
X0014789Y0018934D02*
X0007159D01*
X0014789Y0018844D02*
X0007159D01*
X0014789Y0018754D02*
X0007159D01*
X0014789Y0018664D02*
X0007159D01*
X0014789Y0018574D02*
X0007159D01*
X0014789Y0018484D02*
X0007159D01*
X0014789Y0018394D02*
X0007159D01*
X0014789Y0018304D02*
X0007159D01*
X0014789Y0018214D02*
X0007159D01*
X0014789Y0018124D02*
X0007159D01*
X0014789Y0018034D02*
X0007159D01*
X0014789Y0017944D02*
X0007159D01*
X0014789Y0017854D02*
X0007159D01*
X0014789Y0017764D02*
X0007159D01*
X0014789Y0017674D02*
X0007159D01*
X0014789Y0017584D02*
X0007159D01*
X0014789Y0017494D02*
X0007159D01*
X0014789Y0017404D02*
X0007159D01*
X0014789Y0017314D02*
X0007159D01*
X0014789Y0017224D02*
X0007159D01*
X0014789Y0017134D02*
X0007159D01*
X0014789Y0017044D02*
X0007159D01*
X0007199Y0022735D02*
Y0012193D01*
X0014789Y0016864D02*
X0007159D01*
X0014789Y0016774D02*
X0007159D01*
X0014789Y0016684D02*
X0007159D01*
X0014789Y0016594D02*
X0007159D01*
X0014789Y0016504D02*
X0007159D01*
X0014789Y0016414D02*
X0007159D01*
X0014789Y0016324D02*
X0007159D01*
X0014789Y0016234D02*
X0007159D01*
X0014789Y0016144D02*
X0007159D01*
X0014789Y0016054D02*
X0007159D01*
X0014789Y0015964D02*
X0007159D01*
X0014789Y0015874D02*
X0007159D01*
X0014789Y0015784D02*
X0007159D01*
X0014789Y0015694D02*
X0007159D01*
X0014789Y0015604D02*
X0007159D01*
X0014789Y0015514D02*
X0007159D01*
X0014789Y0015424D02*
X0007159D01*
X0014789Y0015334D02*
X0007159D01*
X0014789Y0015244D02*
X0007159D01*
X0014789Y0015154D02*
X0007159D01*
X0014789Y0015064D02*
X0007159D01*
X0014789Y0014974D02*
X0007159D01*
X0014789Y0014884D02*
X0007159D01*
X0014789Y0014794D02*
X0007159D01*
X0014789Y0014704D02*
X0007159D01*
X0014789Y0014614D02*
X0007159D01*
X0014789Y0014524D02*
X0007159D01*
X0014789Y0014434D02*
X0007159D01*
X0014789Y0014344D02*
X0007159D01*
X0014789Y0014254D02*
X0007159D01*
X0014789Y0014164D02*
X0007159D01*
X0014789Y0014074D02*
X0007159D01*
X0014789Y0013984D02*
X0007159D01*
X0014789Y0013894D02*
X0007159D01*
X0014789Y0013804D02*
X0007159D01*
X0014789Y0013714D02*
X0007159D01*
X0014789Y0013624D02*
X0007159D01*
X0014789Y0013534D02*
X0007159D01*
X0014789Y0013444D02*
X0007159D01*
X0014789Y0013354D02*
X0007159D01*
X0014789Y0013264D02*
X0007159D01*
X0014789Y0013174D02*
X0007159D01*
X0014789Y0013084D02*
X0007159D01*
X0014789Y0012994D02*
X0007159D01*
X0014789Y0012904D02*
X0007159D01*
X0014789Y0012814D02*
X0007159D01*
X0014789Y0012724D02*
X0007159D01*
X0014789Y0012634D02*
X0007159D01*
X0014789Y0012544D02*
X0007159D01*
X0014789Y0012454D02*
X0007159D01*
X0014789Y0012364D02*
X0007159D01*
X0014789Y0012274D02*
X0007159D01*
X0014789Y0012184D02*
X0007207D01*
X0014789Y0012094D02*
X0007297D01*
X0014789Y0012004D02*
X0007387D01*
X0014789Y0011914D02*
X0007477D01*
X0014789Y0011824D02*
X0007567D01*
X0014789Y0011734D02*
X0007657D01*
X0014789Y0011644D02*
X0007747D01*
X0014789Y0011554D02*
X0007837D01*
X0014789Y0011464D02*
X0007927D01*
X0014789Y0011374D02*
X0008017D01*
X0014789Y0011284D02*
X0008107D01*
X0014789Y0011194D02*
X0008197D01*
X0014789Y0011104D02*
X0008287D01*
G54D63*
G01X0035017Y0009133D02*
X0034185D01*
X0034961Y0009129D02*
X0034241D01*
X0034961Y0009909D02*
X0034241D01*
X0035349Y0009558D02*
Y0009479D01*
X0035340Y0009610D02*
Y0009427D01*
X0035331Y0009642D02*
Y0009395D01*
X0035322Y0009666D02*
Y0009371D01*
X0035313Y0009686D02*
Y0009351D01*
X0035304Y0009704D02*
Y0009333D01*
X0035295Y0009720D02*
Y0009317D01*
X0035286Y0009734D02*
Y0009303D01*
X0035277Y0009747D02*
Y0009290D01*
X0035268Y0009759D02*
Y0009278D01*
X0035259Y0009770D02*
Y0009267D01*
X0035250Y0009780D02*
Y0009257D01*
X0035241Y0009790D02*
Y0009247D01*
X0035232Y0009799D02*
Y0009238D01*
X0035223Y0009807D02*
Y0009230D01*
X0035214Y0009815D02*
Y0009222D01*
X0035205Y0009823D02*
Y0009214D01*
X0035196Y0009830D02*
Y0009207D01*
X0035187Y0009836D02*
Y0009201D01*
X0035178Y0009843D02*
Y0009194D01*
X0035169Y0009848D02*
Y0009189D01*
X0035160Y0009854D02*
Y0009183D01*
X0035151Y0009859D02*
Y0009178D01*
X0035142Y0009864D02*
Y0009173D01*
X0035133Y0009869D02*
Y0009168D01*
X0035124Y0009873D02*
Y0009164D01*
X0035115Y0009877D02*
Y0009160D01*
X0035106Y0009881D02*
Y0009156D01*
X0035097Y0009884D02*
Y0009153D01*
X0035088Y0009887D02*
Y0009150D01*
X0035079Y0009890D02*
Y0009147D01*
X0035070Y0009893D02*
Y0009144D01*
X0035061Y0009895D02*
Y0009142D01*
X0035052Y0009898D02*
Y0009139D01*
X0035043Y0009900D02*
Y0009137D01*
X0035034Y0009902D02*
Y0009135D01*
X0035025Y0009903D02*
Y0009134D01*
X0035016Y0009905D02*
Y0009132D01*
X0035007Y0009906D02*
Y0009131D01*
X0034998Y0009907D02*
Y0009130D01*
X0034989Y0009907D02*
Y0009130D01*
X0034980Y0009908D02*
Y0009129D01*
X0034971Y0009908D02*
Y0009129D01*
X0034962Y0009909D02*
Y0009129D01*
X0034953Y0009909D02*
Y0009129D01*
X0034944Y0009909D02*
Y0009129D01*
X0034935Y0009909D02*
Y0009129D01*
X0034926Y0009909D02*
Y0009129D01*
X0034917Y0009909D02*
Y0009129D01*
X0034908Y0009909D02*
Y0009129D01*
X0034899Y0009909D02*
Y0009129D01*
X0034890Y0009909D02*
Y0009129D01*
X0034881Y0009909D02*
Y0009129D01*
X0034872Y0009909D02*
Y0009129D01*
X0034863Y0009909D02*
Y0009129D01*
X0034854Y0009909D02*
Y0009129D01*
X0034845Y0009909D02*
Y0009129D01*
X0034836Y0009909D02*
Y0009129D01*
X0034827Y0009909D02*
Y0009129D01*
X0034818Y0009909D02*
Y0009129D01*
X0034809Y0009909D02*
Y0009129D01*
X0034800Y0009909D02*
Y0009129D01*
X0034791Y0009909D02*
Y0009129D01*
X0034782Y0009909D02*
Y0009129D01*
X0034773Y0009909D02*
Y0009129D01*
X0034764Y0009909D02*
Y0009129D01*
X0034755Y0009909D02*
Y0009129D01*
X0034746Y0009909D02*
Y0009129D01*
X0034737Y0009909D02*
Y0009129D01*
X0034728Y0009909D02*
Y0009129D01*
X0034719Y0009909D02*
Y0009129D01*
X0034710Y0009909D02*
Y0009129D01*
X0034701Y0009909D02*
Y0009129D01*
X0034692Y0009909D02*
Y0009129D01*
X0034683Y0009909D02*
Y0009129D01*
X0034674Y0009909D02*
Y0009129D01*
X0034665Y0009909D02*
Y0009129D01*
X0034656Y0009909D02*
Y0009129D01*
X0034647Y0009909D02*
Y0009129D01*
X0034638Y0009909D02*
Y0009129D01*
X0034629Y0009909D02*
Y0009129D01*
X0034620Y0009909D02*
Y0009129D01*
X0034611Y0009909D02*
Y0009129D01*
X0034602Y0009909D02*
Y0009129D01*
X0034593Y0009909D02*
Y0009129D01*
X0034584Y0009909D02*
Y0009129D01*
X0034575Y0009909D02*
Y0009129D01*
X0034566Y0009909D02*
Y0009129D01*
X0034557Y0009909D02*
Y0009129D01*
X0034548Y0009909D02*
Y0009129D01*
X0034539Y0009909D02*
Y0009129D01*
X0034530Y0009909D02*
Y0009129D01*
X0034521Y0009909D02*
Y0009129D01*
X0034512Y0009909D02*
Y0009129D01*
X0034503Y0009909D02*
Y0009129D01*
X0034494Y0009909D02*
Y0009129D01*
X0034485Y0009909D02*
Y0009129D01*
X0034476Y0009909D02*
Y0009129D01*
X0034467Y0009909D02*
Y0009129D01*
X0034458Y0009909D02*
Y0009129D01*
X0034449Y0009909D02*
Y0009129D01*
X0034440Y0009909D02*
Y0009129D01*
X0034431Y0009909D02*
Y0009129D01*
X0034422Y0009909D02*
Y0009129D01*
X0034413Y0009909D02*
Y0009129D01*
X0034404Y0009909D02*
Y0009129D01*
X0034395Y0009909D02*
Y0009129D01*
X0034386Y0009909D02*
Y0009129D01*
X0034377Y0009909D02*
Y0009129D01*
X0034368Y0009909D02*
Y0009129D01*
X0034359Y0009909D02*
Y0009129D01*
X0034350Y0009909D02*
Y0009129D01*
X0034341Y0009909D02*
Y0009129D01*
X0034332Y0009909D02*
Y0009129D01*
X0034323Y0009909D02*
Y0009129D01*
X0034314Y0009909D02*
Y0009129D01*
X0034305Y0009909D02*
Y0009129D01*
X0034296Y0009909D02*
Y0009129D01*
X0034287Y0009909D02*
Y0009129D01*
X0034278Y0009909D02*
Y0009129D01*
X0034269Y0009909D02*
Y0009129D01*
X0034260Y0009909D02*
Y0009129D01*
X0034251Y0009909D02*
Y0009129D01*
X0034242Y0009909D02*
Y0009129D01*
X0034233Y0009908D02*
Y0009129D01*
X0034224Y0009908D02*
Y0009129D01*
X0034215Y0009908D02*
Y0009129D01*
X0034206Y0009907D02*
Y0009130D01*
X0034197Y0009906D02*
Y0009131D01*
X0034188Y0009905D02*
Y0009132D01*
X0034179Y0009904D02*
Y0009133D01*
X0034170Y0009902D02*
Y0009135D01*
X0034161Y0009900D02*
Y0009137D01*
X0034152Y0009898D02*
Y0009139D01*
X0034143Y0009896D02*
Y0009141D01*
X0034134Y0009894D02*
Y0009143D01*
X0034125Y0009891D02*
Y0009146D01*
X0034116Y0009888D02*
Y0009149D01*
X0034107Y0009885D02*
Y0009152D01*
X0034098Y0009881D02*
Y0009156D01*
X0034089Y0009878D02*
Y0009159D01*
X0034080Y0009874D02*
Y0009163D01*
X0034071Y0009869D02*
Y0009168D01*
X0034062Y0009865D02*
Y0009172D01*
X0034053Y0009860D02*
Y0009177D01*
X0034044Y0009855D02*
Y0009182D01*
X0034035Y0009850D02*
Y0009187D01*
X0034026Y0009844D02*
Y0009193D01*
X0034017Y0009838D02*
Y0009199D01*
X0034008Y0009831D02*
Y0009206D01*
X0033999Y0009824D02*
Y0009213D01*
X0033990Y0009817D02*
Y0009220D01*
X0033981Y0009809D02*
Y0009228D01*
X0033972Y0009801D02*
Y0009236D01*
X0033963Y0009792D02*
Y0009245D01*
X0033954Y0009783D02*
Y0009254D01*
X0033945Y0009772D02*
Y0009265D01*
X0033936Y0009762D02*
Y0009275D01*
X0033927Y0009750D02*
Y0009287D01*
X0033918Y0009737D02*
Y0009300D01*
X0033909Y0009723D02*
Y0009314D01*
X0033900Y0009708D02*
Y0009329D01*
X0033891Y0009691D02*
Y0009346D01*
X0033882Y0009671D02*
Y0009366D01*
X0033873Y0009648D02*
Y0009389D01*
X0033864Y0009618D02*
Y0009419D01*
X0033855Y0009574D02*
Y0009463D01*
X0035001Y0009907D02*
X0034202D01*
X0035053Y0009898D02*
X0034149D01*
X0035084Y0009889D02*
X0034118D01*
X0035109Y0009880D02*
X0034094D01*
X0035129Y0009871D02*
X0034073D01*
X0035147Y0009862D02*
X0034056D01*
X0035163Y0009853D02*
X0034040D01*
X0035177Y0009844D02*
X0034026D01*
X0035190Y0009835D02*
X0034013D01*
X0035202Y0009826D02*
X0034001D01*
X0035213Y0009817D02*
X0033990D01*
X0035223Y0009808D02*
X0033979D01*
X0035233Y0009799D02*
X0033970D01*
X0035242Y0009790D02*
X0033961D01*
X0035250Y0009781D02*
X0033952D01*
X0035258Y0009772D02*
X0033944D01*
X0035265Y0009763D02*
X0033937D01*
X0035272Y0009754D02*
X0033930D01*
X0035279Y0009745D02*
X0033923D01*
X0035285Y0009736D02*
X0033917D01*
X0035291Y0009727D02*
X0033911D01*
X0035297Y0009718D02*
X0033906D01*
X0035302Y0009709D02*
X0033901D01*
X0035307Y0009700D02*
X0033896D01*
X0035311Y0009691D02*
X0033891D01*
X0035315Y0009682D02*
X0033887D01*
X0035319Y0009673D02*
X0033883D01*
X0035323Y0009664D02*
X0033879D01*
X0035327Y0009655D02*
X0033876D01*
X0035330Y0009646D02*
X0033872D01*
X0035333Y0009637D02*
X0033869D01*
X0035336Y0009628D02*
X0033867D01*
X0035338Y0009619D02*
X0033864D01*
X0035340Y0009610D02*
X0033862D01*
X0035342Y0009601D02*
X0033860D01*
X0035344Y0009592D02*
X0033858D01*
X0035346Y0009583D02*
X0033856D01*
X0035347Y0009574D02*
X0033855D01*
X0035348Y0009565D02*
X0033854D01*
X0035349Y0009556D02*
X0033853D01*
X0035350Y0009547D02*
X0033852D01*
X0035351Y0009538D02*
X0033852D01*
X0035351Y0009529D02*
X0033851D01*
X0035351Y0009520D02*
X0033851D01*
X0035351Y0009511D02*
X0033851D01*
X0035351Y0009502D02*
X0033852D01*
X0035350Y0009493D02*
X0033852D01*
X0035350Y0009484D02*
X0033853D01*
X0035349Y0009475D02*
X0033854D01*
X0035348Y0009466D02*
X0033855D01*
X0035346Y0009457D02*
X0033856D01*
X0035345Y0009448D02*
X0033858D01*
X0035343Y0009439D02*
X0033859D01*
X0035341Y0009430D02*
X0033861D01*
X0035339Y0009421D02*
X0033864D01*
X0035336Y0009412D02*
X0033866D01*
X0035334Y0009403D02*
X0033869D01*
X0035331Y0009394D02*
X0033872D01*
X0035327Y0009385D02*
X0033875D01*
X0035324Y0009376D02*
X0033878D01*
X0035320Y0009367D02*
X0033882D01*
X0035316Y0009358D02*
X0033886D01*
X0035312Y0009349D02*
X0033890D01*
X0035308Y0009340D02*
X0033895D01*
X0035303Y0009331D02*
X0033899D01*
X0035298Y0009322D02*
X0033905D01*
X0035292Y0009313D02*
X0033910D01*
X0035287Y0009304D02*
X0033916D01*
X0035280Y0009295D02*
X0033922D01*
X0035274Y0009286D02*
X0033928D01*
X0035267Y0009277D02*
X0033935D01*
X0035260Y0009268D02*
X0033943D01*
X0035252Y0009259D02*
X0033950D01*
X0035244Y0009250D02*
X0033959D01*
X0035235Y0009241D02*
X0033968D01*
X0035225Y0009232D02*
X0033977D01*
X0035215Y0009223D02*
X0033987D01*
X0035204Y0009214D02*
X0033998D01*
X0035192Y0009205D02*
X0034010D01*
X0035180Y0009196D02*
X0034023D01*
X0035166Y0009187D02*
X0034037D01*
X0035150Y0009178D02*
X0034052D01*
X0035133Y0009169D02*
X0034069D01*
X0035114Y0009160D02*
X0034089D01*
X0035090Y0009151D02*
X0034112D01*
X0035061Y0009142D02*
X0034141D01*
G01X0033851Y0009519D02*
G03X0034241Y0009129I0000390J0000000D01*
Y0009909D02*
G03X0033851Y0009519I0000000J0000390D01*
G01X0035351D02*
G03X0034961Y0009909I0000390J0000000D01*
Y0009129D02*
G03X0035351Y0009519I0000000J0000390D01*
G54D10*
X0070249Y0042126D03*
X0042873Y0049639D03*
X0089090Y0007827D03*
X0114381Y0059590D03*
X0100457Y0059551D03*
X0091253Y0049639D03*
X0022381Y0059590D03*
X0114381Y0033040D03*
X0005821Y0059590D03*
X0051291D03*
X0114381Y0005939D03*
X0014907Y0049639D03*
X0040867Y0022459D03*
X0005979Y0005743D03*
X0022223Y0007749D03*
X0114381Y0049639D03*
G54D18*
X0046756Y0015792D03*
X0046752Y0016630D03*
X0068154Y0012724D03*
X0068150Y0013562D03*
X0057809Y0017405D03*
X0057805Y0018243D03*
X0056944Y0017405D03*
X0056940Y0018243D03*
X0065779Y0019694D03*
X0065783Y0018856D03*
X0064914Y0019694D03*
X0064918Y0018856D03*
X0063970Y0019694D03*
X0063974Y0018856D03*
X0063083Y0018868D03*
X0063079Y0019706D03*
X0058502Y0022054D03*
X0058506Y0021216D03*
X0050043Y0016697D03*
X0050047Y0015859D03*
X0058950Y0011230D03*
X0058946Y0012068D03*
X0069041Y0013550D03*
X0069045Y0012712D03*
X0064360Y0014730D03*
X0064364Y0013892D03*
X0050926Y0015871D03*
X0050922Y0016709D03*
X0057615Y0021189D03*
X0057611Y0022027D03*
G54D19*
X0046747Y0017650D03*
X0045909Y0017646D03*
X0067594Y0008485D03*
X0066756Y0008481D03*
X0065037Y0008564D03*
X0064199Y0008560D03*
X0067397Y0009468D03*
X0066559Y0009464D03*
X0066532Y0010513D03*
X0067370Y0010517D03*
X0065234Y0009547D03*
X0064396Y0009543D03*
X0065234Y0010530D03*
X0064396Y0010526D03*
X0066520Y0011535D03*
X0067358Y0011539D03*
X0065274Y0011541D03*
X0064436Y0011537D03*
X0063307Y0012576D03*
X0062469Y0012572D03*
X0066690Y0016570D03*
X0067528Y0016574D03*
X0065667Y0016588D03*
X0064829Y0016584D03*
X0061615Y0017335D03*
X0060777Y0017331D03*
X0112120Y0020621D03*
X0112958Y0020625D03*
X0065780Y0021229D03*
X0064942Y0021225D03*
X0063970Y0021229D03*
X0063132Y0021225D03*
X0062043Y0021662D03*
X0061205Y0021658D03*
X0060242Y0022024D03*
X0059404Y0022020D03*
X0111451Y0046227D03*
X0112289Y0046231D03*
X0098904Y0046149D03*
X0099742Y0046153D03*
X0047967Y0046227D03*
X0048805Y0046231D03*
X0039679Y0046167D03*
X0038841Y0046163D03*
X0029874Y0046188D03*
X0030712Y0046192D03*
X0033677Y0006835D03*
X0034515Y0006839D03*
X0033677Y0007701D03*
X0034515Y0007705D03*
X0054811Y0011120D03*
X0053973Y0011116D03*
X0063307Y0013441D03*
X0062469Y0013437D03*
X0049383Y0013345D03*
X0050221Y0013349D03*
X0061615Y0018200D03*
X0060777Y0018196D03*
X0054496Y0017907D03*
X0055334Y0017911D03*
X0060242Y0019310D03*
X0059404Y0019306D03*
G54D21*
X0111330Y0046925D03*
X0112330D03*
X0098665D03*
X0099665D03*
X0047925D03*
X0048925D03*
X0038760D03*
X0039760D03*
X0029792D03*
X0030792D03*
X0020627D03*
X0021627D03*
G54D23*
X0075756Y0018959D03*
X0078122Y0018167D03*
X0073394D03*
X0078122Y0013364D03*
X0073394D03*
X0094989Y0010541D03*
Y0019407D03*
X0090662Y0010541D03*
Y0019407D03*
X0086336Y0010541D03*
Y0019407D03*
G54D37*
X0113044Y0022321D03*
X0113794D03*
X0113419Y0023191D03*
G54D38*
X0060603Y0020211D03*
X0060601Y0020585D03*
Y0020957D03*
X0059690Y0020961D03*
X0059699Y0020211D03*
X0049747Y0014193D03*
X0049745Y0014567D03*
Y0014939D03*
X0048834Y0014943D03*
X0048843Y0014193D03*
G54D42*
X0025841Y0007823D03*
G54D43*
X0028281Y0006923D03*
Y0007823D03*
Y0008723D03*
G54D46*
X0052177Y0007670D03*
Y0008420D03*
X0051307Y0008045D03*
G54D48*
X0102975Y0025527D03*
X0102978Y0018791D03*
G54D49*
X0043390Y0007354D03*
Y0006375D03*
G54D56*
X0040277Y0014357D03*
G54D59*
X0033551Y0010109D03*
Y0008929D03*
G54D60*
X0033701Y0009519D03*
G54D81*
X0031899Y0028635D03*
X0031349Y0029185D03*
X0030759Y0029815D03*
X0043306Y0030405D03*
X0042637D03*
X0041929Y0030444D03*
X0105099Y0055027D03*
X0104351D03*
X0103565D03*
X0098491D03*
X0097783D03*
X0097075D03*
X0050543D03*
X0049835D03*
X0049127D03*
X0025409D03*
X0024741D03*
X0024033D03*
X0020768D03*
X0020021D03*
X0019313D03*
X0012469Y0018054D03*
X0056601Y0021279D03*
X0040277Y0012469D03*
X0008063Y0016638D03*
X0014671Y0021122D03*
X0020807Y0013491D03*
X0012469Y0016638D03*
X0009558Y0015930D03*
X0008653Y0005585D03*
X0102935Y0045273D03*
X0014632Y0018723D03*
X0010187Y0022538D03*
X0006490Y0054988D03*
X0007237Y0020296D03*
X0010935Y0022538D03*
X0008024Y0013413D03*
X0014671Y0014868D03*
X0007316Y0016677D03*
X0014671Y0016441D03*
X0009558Y0014435D03*
X0005821Y0046099D03*
X0011839Y0013452D03*
X0008732Y0020296D03*
X0007237Y0017385D03*
X0013098Y0022538D03*
X0009558Y0011997D03*
X0063287Y0014317D03*
X0017385Y0011721D03*
X0018054Y0016441D03*
X0007945Y0022538D03*
X0010266Y0016677D03*
X0017936Y0037563D03*
X0035400Y0007749D03*
X0018054Y0013452D03*
X0026983Y0006490D03*
X0101637Y0024190D03*
X0009558Y0015222D03*
X0019431Y0016441D03*
X0014042Y0013452D03*
X0019470Y0015025D03*
X0007237Y0019549D03*
Y0021004D03*
X0019509Y0014278D03*
X0006490Y0046099D03*
X0024387Y0019981D03*
X0013177Y0016677D03*
X0019588Y0011918D03*
X0024308Y0014396D03*
X0017385Y0021987D03*
X0014750Y0013413D03*
X0007237D03*
X0101637Y0026904D03*
X0008968Y0006175D03*
X0009676Y0021437D03*
X0022971Y0016441D03*
X0102896Y0046138D03*
X0045430Y0020807D03*
X0020611Y0009047D03*
X0011761Y0016677D03*
X0019470Y0015733D03*
X0022971Y0015104D03*
X0023639Y0014396D03*
X0024387Y0021987D03*
X0017385Y0015773D03*
X0023600Y0011053D03*
X0012547Y0013413D03*
X0007198Y0018093D03*
X0024387Y0019313D03*
X0008732Y0022538D03*
X0007198Y0054988D03*
X0005782D03*
X0024308Y0013727D03*
X0020178Y0016441D03*
X0022971Y0018683D03*
Y0014435D03*
X0014711Y0014121D03*
X0017385Y0020650D03*
X0014632Y0018015D03*
X0022892Y0011053D03*
X0013845Y0022538D03*
X0022971Y0019352D03*
X0023757Y0022656D03*
X0011131Y0013452D03*
X0101637Y0024859D03*
X0024308Y0011721D03*
X0018762Y0022656D03*
X0018054D03*
X0021476Y0017346D03*
X0019627Y0011092D03*
X0024308Y0011053D03*
X0105610Y0046610D03*
X0022971Y0018015D03*
X0012469Y0020414D03*
X0018762Y0013452D03*
X0020768Y0022656D03*
X0017385Y0013059D03*
X0010463Y0021437D03*
X0094990Y0043621D03*
X0019588Y0012626D03*
X0022105Y0013452D03*
X0014711Y0012705D03*
X0009558Y0011289D03*
X0014671Y0017189D03*
X0011643Y0022538D03*
X0014711Y0015615D03*
X0007237Y0021751D03*
X0009440Y0022538D03*
X0007198Y0046099D03*
X0014711Y0011997D03*
X0012469Y0019627D03*
X0014593Y0022538D03*
X0008850Y0016638D03*
X0093613Y0043621D03*
X0014711Y0019509D03*
X0010345Y0013452D03*
X0026983Y0009086D03*
X0033630Y0011171D03*
X0105256Y0032568D03*
X0018605Y0037563D03*
X0008771Y0018762D03*
X0009597Y0013413D03*
X0011013Y0016638D03*
X0101637Y0026235D03*
X0009401Y0005585D03*
X0011328Y0021437D03*
X0019509Y0013452D03*
X0008811Y0018133D03*
X0007867Y0005585D03*
X0102306Y0025252D03*
X0024308Y0013059D03*
X0101637Y0025527D03*
X0014671Y0011289D03*
X0021437Y0018054D03*
X0105846Y0032568D03*
X0019273Y0037563D03*
X0026117Y0006490D03*
X0007237Y0022538D03*
X0022420Y0022617D03*
X0046374Y0018919D03*
X0017385Y0021319D03*
X0019509Y0020414D03*
X0017385Y0013727D03*
Y0014435D03*
X0021437Y0019431D03*
X0023639Y0019352D03*
X0101637Y0020139D03*
X0021515Y0016441D03*
X0024308Y0012390D03*
X0101677Y0019470D03*
X0103997Y0046649D03*
X0009558Y0016677D03*
X0101677Y0017464D03*
X0094282Y0043621D03*
X0022971Y0017346D03*
X0009558Y0012705D03*
X0017385Y0016441D03*
X0014750Y0021869D03*
X0012390Y0022538D03*
X0025213Y0005585D03*
X0101677Y0018133D03*
X0020139Y0013452D03*
X0102267Y0019116D03*
X0040277Y0009361D03*
X0021751Y0022617D03*
X0024387Y0020650D03*
X0018841Y0020414D03*
X0026117Y0009086D03*
X0008732Y0019549D03*
X0022971Y0015773D03*
X0019431Y0022656D03*
X0101677Y0018801D03*
X0013255Y0013452D03*
X0020178Y0020414D03*
X0018723Y0016441D03*
X0024387Y0022656D03*
X0021437Y0018723D03*
X0017385Y0022656D03*
X0020099D03*
X0021437Y0013452D03*
X0013885Y0016677D03*
X0102267Y0018408D03*
X0023089Y0022617D03*
X0008181Y0006136D03*
X0014671Y0020296D03*
X0012469Y0018801D03*
X0008771Y0013413D03*
X0020847Y0016441D03*
X0102306Y0025999D03*
X0007198Y0018801D03*
X0104823Y0046649D03*
X0017385Y0012390D03*
X0024387Y0021319D03*
X0017385Y0015104D03*
X0032411Y0034299D03*
G54D82*
X0078588Y0035636D03*
Y0031699D03*
X0061832Y0035636D03*
Y0031699D03*
X0078627Y0052471D03*
Y0048534D03*
X0061871Y0052474D03*
Y0048537D03*
G54D83*
X0047711Y0006570D03*
X0048711D03*
X0049711D03*
X0050711D03*
X0051711D03*
X0052711D03*
X0105533Y0013491D03*
Y0012491D03*
Y0011491D03*
Y0010491D03*
Y0009491D03*
Y0008491D03*
X0060614Y0015143D03*
Y0014143D03*
Y0013143D03*
Y0012143D03*
Y0011143D03*
Y0010143D03*
Y0009147D03*
Y0008151D03*
X0088619Y0040671D03*
X0088615Y0038698D03*
X0088658Y0045469D03*
X0088654Y0043497D03*
G54D84*
X0096642Y0038885D03*
Y0037409D03*
X0043070Y0039475D03*
Y0037999D03*
X0024544Y0039908D03*
Y0038431D03*
G54D85*
X0044840Y0007395D03*
X0046178D03*
X0046177Y0009204D03*
X0044839D03*
X0037799Y0009361D03*
X0039138D03*
X0030444Y0018762D03*
X0029105D03*
X0089562Y0034889D03*
X0088223D03*
X0111825Y0039530D03*
X0113163D03*
X0103132Y0039412D03*
X0104470D03*
X0049953Y0040041D03*
X0051292D03*
X0031545Y0039530D03*
X0032884D03*
X0109898Y0042126D03*
X0108560D03*
X0044801Y0041851D03*
X0043462D03*
X0038271Y0040907D03*
X0039610D03*
X0099002Y0042441D03*
X0097663D03*
X0036305Y0042598D03*
X0034966D03*
X0026904Y0042480D03*
X0025565D03*
X0110605Y0044643D03*
X0111944D03*
X0099710Y0044840D03*
X0101048D03*
X0047397Y0044879D03*
X0046058D03*
X0038743Y0044801D03*
X0037405D03*
X0029421Y0044958D03*
X0028083D03*
X0034771Y0012941D03*
X0036109D03*
X0030208Y0014435D03*
X0028869D03*
X0111825Y0037839D03*
X0113163D03*
X0109425Y0036698D03*
X0110764D03*
X0101952Y0037996D03*
X0103290D03*
X0049835Y0038193D03*
X0048497D03*
X0035007Y0037524D03*
X0036345D03*
X0031742Y0038350D03*
X0030403D03*
X0103132Y0041143D03*
X0104470D03*
X0049953Y0041693D03*
X0051292D03*
X0038271Y0039255D03*
X0039610D03*
X0031545Y0041261D03*
X0032884D03*
G54D86*
X0039294Y0008142D03*
Y0006803D03*
X0037917Y0008142D03*
Y0006803D03*
X0018172Y0007316D03*
Y0008654D03*
X0016913Y0008653D03*
Y0007315D03*
X0037131Y0012823D03*
Y0014161D03*
X0112612Y0015300D03*
Y0016639D03*
X0030798Y0016009D03*
Y0017347D03*
X0112612Y0018132D03*
Y0019471D03*
X0030601Y0019903D03*
Y0021241D03*
X0029028Y0021240D03*
Y0019901D03*
X0112611Y0027533D03*
Y0028872D03*
Y0030641D03*
Y0031979D03*
X0088382Y0032371D03*
Y0033710D03*
X0100536Y0035321D03*
Y0036660D03*
X0046807Y0035439D03*
Y0036778D03*
X0028281Y0035990D03*
Y0037328D03*
X0108678Y0043502D03*
Y0044841D03*
X0044604Y0043345D03*
Y0044684D03*
X0097940Y0043739D03*
Y0045077D03*
X0036226Y0043739D03*
Y0045077D03*
X0026196Y0043739D03*
Y0045077D03*
X0103250Y0007827D03*
Y0006489D03*
X0047908Y0009440D03*
Y0008101D03*
X0040553Y0008142D03*
Y0006803D03*
X0029618Y0006490D03*
Y0007828D03*
X0024072Y0007277D03*
Y0008615D03*
X0019431Y0007316D03*
Y0008654D03*
X0015458Y0007316D03*
Y0008654D03*
X0044879Y0014947D03*
Y0016285D03*
X0037131Y0016087D03*
Y0017426D03*
X0032450Y0016009D03*
Y0017347D03*
X0027730Y0021240D03*
Y0019901D03*
X0089719Y0032332D03*
Y0033670D03*
X0098530Y0038586D03*
Y0037247D03*
X0044958Y0038822D03*
Y0037483D03*
X0026393Y0039215D03*
Y0037877D03*
G54D87*
X0112977Y0025016D03*
X0114607D03*
X0109673Y0034889D03*
X0111303D03*
X0102200Y0035951D03*
X0103829D03*
X0048549Y0036187D03*
X0050179D03*
X0034900Y0035754D03*
X0036530D03*
X0029826Y0036462D03*
X0031456D03*
G54D88*
X0042873Y0017606D03*
X0042881Y0015424D03*
X0035125Y0016937D03*
X0035132Y0014756D03*
G54D89*
X0006372Y0044525D03*
X0006411Y0056483D03*
G54D90*
X0010305Y0019037D03*
X0010384Y0035754D03*
X0010345Y0039963D03*
X0018683Y0018683D03*
X0010187Y0025370D03*
X0018565Y0036108D03*
X0104587Y0045155D03*
X0094125D03*
G54D91*
X0008181Y0021397D03*
X0012201D03*
X0008193Y0025413D03*
X0012201Y0025409D03*
X0008181Y0035872D03*
X0012201D03*
X0008193Y0039888D03*
X0012201Y0039884D03*
G54D92*
X0099238Y0010541D03*
X0076189Y0008378D03*
X0073868Y0010502D03*
X0099238Y0014750D03*
X0075756Y0020729D03*
G54D93*
X0110330Y0046925D03*
X0097665D03*
X0046925D03*
X0037760D03*
X0028792D03*
X0019627D03*
G54D94*
X0112021Y0043345D03*
X0110683D03*
X0101047Y0043621D03*
X0099709D03*
X0047397Y0043660D03*
X0046058D03*
X0038743Y0043581D03*
X0037405D03*
X0029421Y0043621D03*
X0028083D03*
G54D95*
X0041143Y0019824D03*
X0039765D03*
X0097901Y0035400D03*
X0099278D03*
X0042913Y0036147D03*
X0044290D03*
X0025763Y0036108D03*
X0027141D03*
G54D96*
X0041615Y0006805D03*
Y0007671D03*
X0020611Y0007277D03*
Y0008143D03*
X0091017Y0032804D03*
Y0033670D03*
G54D97*
X0111628Y0025645D03*
Y0024267D03*
G54D98*
X0030090Y0008732D03*
X0029224D03*
G54D99*
X0021358Y0011800D03*
X0018358Y0011796D03*
X0010905Y0011800D03*
X0007905D03*
X0021358Y0015065D03*
X0018358Y0015061D03*
X0010905Y0015065D03*
X0007905D03*
G54D100*
X0081732Y0011171D03*
Y0020029D03*
G54D101*
X0101915Y0039517D03*
Y0040017D03*
Y0040517D03*
X0099710Y0040513D03*
Y0040013D03*
Y0039513D03*
Y0039013D03*
X0048616Y0039912D03*
Y0040412D03*
Y0040912D03*
X0046411Y0040908D03*
Y0040408D03*
Y0039908D03*
Y0039408D03*
X0030365Y0039951D03*
Y0040451D03*
Y0040951D03*
X0028161Y0040947D03*
Y0040447D03*
Y0039947D03*
Y0039447D03*
G54D102*
X0101915Y0039017D03*
X0048616Y0039412D03*
X0030365Y0039451D03*
G54D103*
X0065872Y0012901D03*
X0066372D03*
X0066872D03*
X0066868Y0015106D03*
X0066368D03*
X0065868D03*
X0065368D03*
X0109886Y0038429D03*
X0110386D03*
X0110886D03*
X0110882Y0040633D03*
X0110382D03*
X0109882D03*
X0109382D03*
X0036175Y0038901D03*
X0036675D03*
X0037175D03*
X0037171Y0041105D03*
X0036671D03*
X0036171D03*
X0035671D03*
G54D104*
X0065372Y0012901D03*
X0109386Y0038429D03*
X0035675Y0038901D03*
G54D105*
X0005187Y0009417D03*
Y0007413D03*
G54D106*
X0010187Y0008417D03*
X0011687Y0008421D03*
X0013187D03*
G54D107*
X0043390Y0008333D03*
G54D108*
X0034456Y0020571D03*
X0038054Y0020567D03*
G54D109*
X0091489Y0041457D03*
Y0037707D03*
X0090349Y0041457D03*
Y0037707D03*
X0091489Y0045981D03*
Y0042231D03*
X0090309Y0045981D03*
Y0042231D03*
G54D110*
X0113618Y0017031D03*
Y0019705D03*
X0113617Y0028320D03*
X0113598Y0030896D03*
G54D111*
X0114618Y0017031D03*
Y0019705D03*
X0114617Y0028320D03*
X0114598Y0030896D03*
G54D112*
X0068715Y0018133D03*
Y0020455D03*
X0070566D03*
Y0018133D03*
G54D113*
X0023836Y0018144D03*
Y0017644D03*
Y0017144D03*
Y0016644D03*
Y0016144D03*
Y0015644D03*
Y0015144D03*
X0027586D03*
Y0015644D03*
Y0016144D03*
Y0016644D03*
Y0017144D03*
Y0017644D03*
Y0018144D03*
Y0018644D03*
G54D114*
X0023836D03*
G54D115*
X0040277Y0015026D03*
Y0015695D03*
Y0016364D03*
Y0017034D03*
G54D116*
X0051895Y0013137D03*
X0052145D03*
X0052395D03*
X0052645D03*
X0052895D03*
X0053145D03*
X0053395D03*
X0053645D03*
X0054145D03*
X0054395D03*
X0054645D03*
X0054895D03*
X0054893Y0015980D03*
X0054643D03*
X0054393D03*
X0054143D03*
X0053893D03*
X0053393D03*
X0053143D03*
X0052893D03*
X0052643D03*
X0052393D03*
X0052143D03*
X0051893D03*
X0051643D03*
G54D117*
X0051645Y0013137D03*
X0053895D03*
X0053643Y0015980D03*
G54D118*
X0032804Y0011171D03*
X0054083Y0006962D03*
X0066092Y0019694D03*
X0065372Y0013609D03*
X0066867Y0014396D03*
X0058725Y0018408D03*
X0106380Y0030897D03*
X0061714Y0016441D03*
X0063759Y0017307D03*
X0104391Y0031781D03*
X0101323Y0033669D03*
X0060770Y0018723D03*
X0070913Y0014929D03*
X0066190Y0021169D03*
X0070561Y0020859D03*
X0062535Y0019745D03*
X0061127Y0019989D03*
X0030798Y0015458D03*
X0055143Y0012989D03*
X0052603Y0008359D03*
X0054713Y0009991D03*
X0046217Y0014239D03*
X0043699Y0022263D03*
X0053847Y0015143D03*
X0054831Y0016874D03*
X0070448Y0017780D03*
X0069423Y0008811D03*
X0052393Y0015219D03*
X0055133Y0015979D03*
X0114027Y0037091D03*
X0052643Y0016889D03*
X0053887Y0011997D03*
X0057859Y0017031D03*
X0056533Y0017459D03*
X0112062Y0028872D03*
X0065885Y0015735D03*
X0066591Y0008181D03*
X0068597Y0017818D03*
X0049009Y0015340D03*
X0052113Y0021889D03*
X0052117Y0034889D03*
X0040395Y0038507D03*
X0111983Y0019392D03*
X0052510Y0014199D03*
X0053493Y0017661D03*
X0104813Y0037999D03*
X0112013Y0016560D03*
X0051723Y0014160D03*
X0111746Y0020689D03*
X0054643Y0015169D03*
X0058323Y0007499D03*
X0053633Y0014209D03*
X0050333Y0014559D03*
X0052823Y0022999D03*
X0052825Y0033866D03*
X0051292Y0038309D03*
X0054693Y0011979D03*
X0057702Y0008339D03*
X0054477Y0014199D03*
X0051363Y0011009D03*
X0029539Y0015537D03*
X0032883Y0038239D03*
X0051487Y0035715D03*
X0051493Y0020920D03*
X0052353Y0017709D03*
X0046728Y0010384D03*
G54D119*
X0046800Y0017210D03*
X0045773Y0010389D03*
X0064231Y0013295D03*
X0038153Y0035243D03*
X0050179Y0034938D03*
X0030883Y0034319D03*
X0032175Y0036462D03*
X0105256Y0034928D03*
X0110959Y0033394D03*
X0101323Y0032649D03*
X0031863Y0016269D03*
X0030247Y0006490D03*
X0026039Y0011643D03*
X0029185Y0012705D03*
X0050099Y0009912D03*
X0047463Y0019939D03*
X0109673Y0032595D03*
Y0031415D03*
X0031853Y0017979D03*
X0030090Y0009204D03*
X0056286Y0008181D03*
X0053926Y0008889D03*
X0047790Y0009912D03*
X0040946Y0010227D03*
X0103183Y0006139D03*
G54D76*
%LPC*%
X0046800Y0017210D03*
X0045773Y0010389D03*
X0050179Y0034938D03*
X0032175Y0036462D03*
X0030883Y0034319D03*
X0105256Y0034928D03*
X0064231Y0013295D03*
X0032175Y0036462D03*
X0050179Y0034938D03*
X0038153Y0035243D03*
X0050179Y0034938D03*
X0030883Y0034319D03*
X0032175Y0036462D03*
X0105256Y0034928D03*
X0110959Y0033394D03*
X0101323Y0032649D03*
X0031863Y0016269D03*
X0030247Y0006490D03*
X0026039Y0011643D03*
X0029185Y0012705D03*
X0050099Y0009912D03*
X0047463Y0019939D03*
X0109673Y0032595D03*
Y0031415D03*
X0031853Y0017979D03*
X0030090Y0009204D03*
X0056286Y0008181D03*
X0053926Y0008889D03*
X0047790Y0009912D03*
X0040946Y0010227D03*
D03*
X0103183Y0006139D03*
X0032804Y0011171D03*
X0030090Y0009204D03*
X0054083Y0006962D03*
X0066092Y0019694D03*
X0065372Y0013609D03*
X0066867Y0014396D03*
X0058725Y0018408D03*
X0106380Y0030897D03*
X0043699Y0022263D03*
X0061714Y0016441D03*
X0063759Y0017307D03*
X0104391Y0031781D03*
X0101323Y0033669D03*
X0060770Y0018723D03*
X0062535Y0019745D03*
X0070913Y0014929D03*
X0066190Y0021169D03*
X0070561Y0020859D03*
X0062535Y0019745D03*
X0061127Y0019989D03*
X0030798Y0015458D03*
X0055143Y0012989D03*
X0052603Y0008359D03*
X0054713Y0009991D03*
X0046217Y0014239D03*
X0043699Y0022263D03*
X0053847Y0015143D03*
X0056533Y0017459D03*
X0057859Y0017031D03*
X0054831Y0016874D03*
X0070448Y0017780D03*
X0069423Y0008811D03*
X0050333Y0014559D03*
X0052393Y0015219D03*
X0112062Y0028872D03*
X0055133Y0015979D03*
X0114027Y0037091D03*
X0052643Y0016889D03*
X0053887Y0011997D03*
X0057859Y0017031D03*
X0056533Y0017459D03*
X0112062Y0028872D03*
X0065885Y0015735D03*
X0066591Y0008181D03*
X0068597Y0017818D03*
X0049009Y0015340D03*
X0052113Y0021889D03*
X0052117Y0034889D03*
X0040395Y0038507D03*
X0111983Y0019392D03*
X0052510Y0014199D03*
X0053493Y0017661D03*
X0104813Y0037999D03*
X0112013Y0016560D03*
X0051723Y0014160D03*
X0111746Y0020689D03*
X0054643Y0015169D03*
X0058323Y0007499D03*
X0053633Y0014209D03*
X0050333Y0014559D03*
X0052823Y0022999D03*
X0052825Y0033866D03*
X0051292Y0038309D03*
X0054693Y0011979D03*
X0057702Y0008339D03*
X0054477Y0014199D03*
X0051363Y0011009D03*
X0029539Y0015537D03*
X0032883Y0038239D03*
X0051487Y0035715D03*
X0051493Y0020920D03*
X0052353Y0017709D03*
X0046728Y0010384D03*
%LPD*%
G54D77*
%LPC*%
X0031899Y0028635D03*
X0031349Y0029185D03*
X0030759Y0029815D03*
X0114618Y0017031D03*
X0113618D03*
X0075756Y0018959D03*
X0078122Y0018167D03*
X0073394D03*
X0078122Y0013364D03*
X0073394D03*
X0040277Y0014357D03*
Y0015026D03*
Y0015695D03*
Y0016364D03*
Y0017034D03*
X0114618Y0019705D03*
X0113618D03*
X0114617Y0028320D03*
X0113617D03*
X0114598Y0030896D03*
X0113598D03*
X0091489Y0041457D03*
Y0037707D03*
X0090349Y0041457D03*
Y0037707D03*
X0091489Y0045981D03*
Y0042231D03*
X0090309Y0045981D03*
Y0042231D03*
X0010305Y0019037D03*
X0010384Y0035754D03*
X0010345Y0039963D03*
X0110330Y0046925D03*
X0111330D03*
X0112330D03*
X0097665D03*
X0098665D03*
X0099665D03*
X0046925D03*
X0047925D03*
X0048925D03*
X0037760D03*
X0038760D03*
X0039760D03*
X0028792D03*
X0029792D03*
X0030792D03*
X0047711Y0006570D03*
X0048711D03*
X0049711D03*
X0050711D03*
X0051711D03*
X0052711D03*
X0043390Y0008333D03*
Y0007354D03*
Y0006375D03*
X0010187Y0008417D03*
X0011687Y0008421D03*
X0013187D03*
X0005187Y0009417D03*
Y0007413D03*
X0105533Y0013491D03*
Y0012491D03*
Y0011491D03*
Y0010491D03*
Y0009491D03*
Y0008491D03*
X0060614Y0015143D03*
Y0014143D03*
Y0013143D03*
Y0012143D03*
Y0011143D03*
Y0010143D03*
Y0009147D03*
Y0008151D03*
X0081732Y0011171D03*
Y0020029D03*
X0021358Y0011800D03*
X0018358Y0011796D03*
X0010905Y0011800D03*
X0007905D03*
X0021358Y0015065D03*
X0018358Y0015061D03*
X0010905Y0015065D03*
X0007905D03*
X0019627Y0046925D03*
X0020627D03*
X0021627D03*
X0099238Y0010541D03*
X0076189Y0008378D03*
X0073868Y0010502D03*
X0099238Y0014750D03*
X0018683Y0018683D03*
X0075756Y0020729D03*
X0010187Y0025370D03*
X0008181Y0021397D03*
X0012201D03*
X0008193Y0025413D03*
X0012201Y0025409D03*
X0018565Y0036108D03*
X0008181Y0035872D03*
X0012201D03*
X0008193Y0039888D03*
X0012201Y0039884D03*
X0006372Y0044525D03*
X0104587Y0045155D03*
X0094125D03*
X0006411Y0056483D03*
X0094989Y0010541D03*
Y0019407D03*
X0090662Y0010541D03*
Y0019407D03*
X0086336Y0010541D03*
Y0019407D03*
X0078588Y0035636D03*
Y0031699D03*
X0061832Y0035636D03*
Y0031699D03*
X0088619Y0040671D03*
X0088615Y0038698D03*
X0088658Y0045469D03*
X0088654Y0043497D03*
X0078627Y0052471D03*
Y0048534D03*
X0061871Y0052474D03*
Y0048537D03*
X0043306Y0030405D03*
X0042637D03*
X0041929Y0030444D03*
X0105099Y0055027D03*
X0104351D03*
X0103565D03*
X0098491D03*
X0097783D03*
X0070249Y0042126D03*
X0097075Y0055027D03*
X0050543D03*
X0049835D03*
X0049127D03*
X0025409D03*
X0024741D03*
X0024033D03*
X0020768D03*
X0020021D03*
X0019313D03*
X0012469Y0018054D03*
X0056601Y0021279D03*
X0040277Y0012469D03*
X0008063Y0016638D03*
X0042873Y0049639D03*
X0014671Y0021122D03*
X0020807Y0013491D03*
X0012469Y0016638D03*
X0009558Y0015930D03*
X0008653Y0005585D03*
X0089090Y0007827D03*
X0102935Y0045273D03*
X0014632Y0018723D03*
X0010187Y0022538D03*
X0006490Y0054988D03*
X0007237Y0020296D03*
X0114381Y0059590D03*
X0010935Y0022538D03*
X0008024Y0013413D03*
X0014671Y0014868D03*
X0007316Y0016677D03*
X0014671Y0016441D03*
X0009558Y0014435D03*
X0005821Y0046099D03*
X0011839Y0013452D03*
X0008732Y0020296D03*
X0007237Y0017385D03*
X0013098Y0022538D03*
X0009558Y0011997D03*
X0063287Y0014317D03*
X0017385Y0011721D03*
X0018054Y0016441D03*
X0007945Y0022538D03*
X0010266Y0016677D03*
X0017936Y0037563D03*
X0035400Y0007749D03*
X0018054Y0013452D03*
X0100457Y0059551D03*
X0026983Y0006490D03*
X0091253Y0049639D03*
X0101637Y0024190D03*
X0009558Y0015222D03*
X0019431Y0016441D03*
X0014042Y0013452D03*
X0019470Y0015025D03*
X0007237Y0019549D03*
Y0021004D03*
X0019509Y0014278D03*
X0006490Y0046099D03*
X0024387Y0019981D03*
X0013177Y0016677D03*
X0019588Y0011918D03*
X0024308Y0014396D03*
X0017385Y0021987D03*
X0014750Y0013413D03*
X0007237D03*
X0022381Y0059590D03*
X0101637Y0026904D03*
X0008968Y0006175D03*
X0009676Y0021437D03*
X0022971Y0016441D03*
X0102896Y0046138D03*
X0045430Y0020807D03*
X0020611Y0009047D03*
X0011761Y0016677D03*
X0019470Y0015733D03*
X0022971Y0015104D03*
X0023639Y0014396D03*
X0024387Y0021987D03*
X0017385Y0015773D03*
X0114381Y0033040D03*
X0023600Y0011053D03*
X0012547Y0013413D03*
X0007198Y0018093D03*
X0024387Y0019313D03*
X0008732Y0022538D03*
X0007198Y0054988D03*
X0005782D03*
X0024308Y0013727D03*
X0020178Y0016441D03*
X0022971Y0018683D03*
Y0014435D03*
X0014711Y0014121D03*
X0017385Y0020650D03*
X0014632Y0018015D03*
X0022892Y0011053D03*
X0013845Y0022538D03*
X0022971Y0019352D03*
X0023757Y0022656D03*
X0011131Y0013452D03*
X0101637Y0024859D03*
X0024308Y0011721D03*
X0018762Y0022656D03*
X0018054D03*
X0021476Y0017346D03*
X0019627Y0011092D03*
X0024308Y0011053D03*
X0105610Y0046610D03*
X0022971Y0018015D03*
X0012469Y0020414D03*
X0018762Y0013452D03*
X0020768Y0022656D03*
X0017385Y0013059D03*
X0010463Y0021437D03*
X0094990Y0043621D03*
X0019588Y0012626D03*
X0022105Y0013452D03*
X0014711Y0012705D03*
X0009558Y0011289D03*
X0014671Y0017189D03*
X0011643Y0022538D03*
X0014711Y0015615D03*
X0007237Y0021751D03*
X0009440Y0022538D03*
X0007198Y0046099D03*
X0014711Y0011997D03*
X0012469Y0019627D03*
X0014593Y0022538D03*
X0005821Y0059590D03*
X0008850Y0016638D03*
X0093613Y0043621D03*
X0014711Y0019509D03*
X0010345Y0013452D03*
X0026983Y0009086D03*
X0033630Y0011171D03*
X0105256Y0032568D03*
X0018605Y0037563D03*
X0008771Y0018762D03*
X0009597Y0013413D03*
X0011013Y0016638D03*
X0101637Y0026235D03*
X0009401Y0005585D03*
X0011328Y0021437D03*
X0019509Y0013452D03*
X0008811Y0018133D03*
X0007867Y0005585D03*
X0102306Y0025252D03*
X0024308Y0013059D03*
X0101637Y0025527D03*
X0014671Y0011289D03*
X0021437Y0018054D03*
X0105846Y0032568D03*
X0019273Y0037563D03*
X0026117Y0006490D03*
X0007237Y0022538D03*
X0051291Y0059590D03*
X0022420Y0022617D03*
X0046374Y0018919D03*
X0017385Y0021319D03*
X0019509Y0020414D03*
X0017385Y0013727D03*
X0114381Y0005939D03*
X0017385Y0014435D03*
X0021437Y0019431D03*
X0023639Y0019352D03*
X0101637Y0020139D03*
X0021515Y0016441D03*
X0024308Y0012390D03*
X0101677Y0019470D03*
X0103997Y0046649D03*
X0009558Y0016677D03*
X0101677Y0017464D03*
X0094282Y0043621D03*
X0022971Y0017346D03*
X0009558Y0012705D03*
X0014907Y0049639D03*
X0017385Y0016441D03*
X0014750Y0021869D03*
X0012390Y0022538D03*
X0025213Y0005585D03*
X0101677Y0018133D03*
X0020139Y0013452D03*
X0102267Y0019116D03*
X0040277Y0009361D03*
X0021751Y0022617D03*
X0024387Y0020650D03*
X0018841Y0020414D03*
X0026117Y0009086D03*
X0008732Y0019549D03*
X0022971Y0015773D03*
X0019431Y0022656D03*
X0101677Y0018801D03*
X0013255Y0013452D03*
X0020178Y0020414D03*
X0018723Y0016441D03*
X0024387Y0022656D03*
X0021437Y0018723D03*
X0017385Y0022656D03*
X0020099D03*
X0021437Y0013452D03*
X0013885Y0016677D03*
X0040867Y0022459D03*
X0102267Y0018408D03*
X0023089Y0022617D03*
X0008181Y0006136D03*
X0014671Y0020296D03*
X0012469Y0018801D03*
X0008771Y0013413D03*
X0020847Y0016441D03*
X0102306Y0025999D03*
X0007198Y0018801D03*
X0005979Y0005743D03*
X0104823Y0046649D03*
X0017385Y0012390D03*
X0024387Y0021319D03*
X0017385Y0015104D03*
X0032411Y0034299D03*
X0022223Y0007749D03*
X0114381Y0049639D03*
%LPD*%
M02*
