*
G04 Mass Parameters ***
*
G04 Image ***
*
%INW:\PROJECT WORKSPACE\PROJECT_WORK\AMOEBA2\IPS SCHEMATIC VER2_FINALPCB\IPS-1.SST*%
%ICAS*%
%MOIN*%
%IPPOS*%
%ASAXBY*%
G74*%FSLAN2X34Y34*%
*
G04 Aperture Definitions ***
*
%ADD10C,0.1378*%
%ADD11C,0.0550*%
%ADD12C,0.1575*%
%ADD13C,0.0606*%
%ADD14R,0.0394X0.0905*%
%ADD15R,0.0433X0.0669*%
%ADD16R,0.0669X0.0433*%
%ADD17R,0.1063X0.0394*%
%ADD18R,0.0512X0.0472*%
%ADD19R,0.0472X0.0512*%
%ADD20R,0.0630X0.1378*%
%ADD21C,0.0787*%
%ADD22R,0.1968X0.1968*%
%ADD23C,0.0866*%
%ADD24C,0.1772*%
%ADD25C,0.0750*%
%ADD26R,0.0750X0.0750*%
%ADD27R,0.0354X0.0354*%
%ADD28R,0.0571X0.0787*%
%ADD29R,0.0334X0.0256*%
%ADD30R,0.0787X0.0571*%
%ADD31R,0.0256X0.0334*%
%ADD32C,0.1181*%
%ADD33O,0.0940X0.0256*%
%ADD34R,0.0940X0.0256*%
%ADD35O,0.0256X0.0940*%
%ADD36R,0.0256X0.0940*%
%ADD37R,0.0400X0.0560*%
%ADD38R,0.0472X0.0236*%
%ADD39O,0.0606X0.0606*%
%ADD40R,0.0886X0.0886*%
%ADD41C,0.0886*%
%ADD42R,0.0880X0.1420*%
%ADD43R,0.0880X0.0480*%
%ADD44C,0.0472*%
%ADD45R,0.0433X0.0433*%
%ADD46R,0.0560X0.0400*%
%ADD47R,0.0708X0.1496*%
%ADD48R,0.3346X0.3346*%
%ADD49C,0.0551*%
%ADD50C,0.0531*%
%ADD51R,0.0531X0.0531*%
%ADD52R,0.0334X0.0620*%
%ADD53O,0.0886X0.0256*%
%ADD54R,0.0886X0.0256*%
%ADD55O,0.1063X0.0551*%
%ADD56R,0.0945X0.0551*%
%ADD57O,0.0177X0.0689*%
%ADD58R,0.0177X0.0689*%
%ADD59R,0.0640X0.0320*%
%ADD60R,0.0940X0.0320*%
%ADD61C,0.0039*%
%ADD62C,0.0100*%
%ADD63C,0.0010*%
%ADD64C,0.0079*%
%ADD65C,0.0059*%
%ADD66C,0.0394*%
%ADD67C,0.0120*%
%ADD68C,0.0080*%
%ADD69C,0.0394*%
%ADD70C,0.0472*%
%ADD71C,0.0394*%
%ADD72C,0.0276*%
%ADD73C,0.0197*%
%ADD74C,0.1181*%
%ADD75C,0.0118*%
%ADD76C,0.0140*%
%ADD77C,0.0140*%
%ADD78C,0.0787*%
%ADD79C,0.0590*%
%ADD80C,0.0984*%
%ADD81C,0.0600*%
%ADD82C,0.1693*%
%ADD83C,0.0724*%
%ADD84R,0.0512X0.1023*%
%ADD85R,0.0472X0.0708*%
%ADD86R,0.0708X0.0472*%
%ADD87R,0.1063X0.0512*%
%ADD88R,0.0669X0.1417*%
%ADD89R,0.2086X0.2086*%
%ADD90R,0.2047X0.2047*%
%ADD91C,0.0945*%
%ADD92C,0.1850*%
%ADD93R,0.0787X0.0787*%
%ADD94R,0.0394X0.0394*%
%ADD95R,0.0630X0.0866*%
%ADD96R,0.0354X0.0275*%
%ADD97R,0.0866X0.0630*%
%ADD98R,0.0275X0.0354*%
%ADD99C,0.1299*%
%ADD100C,0.0984*%
%ADD101O,0.0979X0.0295*%
%ADD102R,0.0979X0.0295*%
%ADD103O,0.0295X0.0979*%
%ADD104R,0.0295X0.0979*%
%ADD105R,0.0964X0.0964*%
%ADD106C,0.0964*%
%ADD107R,0.0551X0.0551*%
%ADD108R,0.0748X0.1535*%
%ADD109C,0.0669*%
%ADD110C,0.0649*%
%ADD111R,0.0649X0.0649*%
%ADD112R,0.0394X0.0670*%
%ADD113O,0.0925X0.0295*%
%ADD114R,0.0925X0.0295*%
%ADD115O,0.1142X0.0551*%
%ADD116O,0.0216X0.0728*%
%ADD117R,0.0216X0.0728*%
%ADD118C,0.0472*%
%ADD119C,0.0472*%
%ADD120C,0.0157*%
%ADD121C,0.0098*%
%ADD122C,0.0060*%
%ADD123C,0.0086*%
%ADD124C,0.0138*%
*
G04 Plot Data ***
*
G54D61*
G01X0039451Y0046361D02*
X0039097D01*
X0039451Y0046326D02*
X0039097D01*
X0039451Y0046291D02*
X0039097D01*
X0039451Y0046255D02*
X0039097D01*
X0039451Y0046220D02*
X0039097D01*
X0039451Y0046184D02*
X0039097D01*
X0039451Y0046149D02*
X0039097D01*
X0039451Y0046114D02*
X0039097D01*
X0039451Y0046078D02*
X0039097D01*
X0039451Y0046043D02*
X0039097D01*
X0039451Y0046008D02*
X0039097D01*
X0039411Y0046413D02*
Y0045941D01*
X0039376Y0046413D02*
Y0045941D01*
X0039340Y0046413D02*
Y0045941D01*
X0039305Y0046413D02*
Y0045941D01*
X0039270Y0046413D02*
Y0045941D01*
X0039234Y0046413D02*
Y0045941D01*
X0039199Y0046413D02*
Y0045941D01*
X0039164Y0046413D02*
Y0045941D01*
X0039128Y0046413D02*
Y0045941D01*
X0039451Y0046397D02*
X0039097D01*
X0039451Y0045972D02*
X0039097D01*
X0039451Y0046413D02*
X0039294D01*
X0039451D02*
Y0045941D01*
X0039097D01*
Y0046413D02*
Y0045941D01*
X0039294Y0046413D02*
X0039097D01*
X0030483Y0046361D02*
X0030129D01*
X0030483Y0046326D02*
X0030129D01*
X0030483Y0046291D02*
X0030129D01*
X0030483Y0046255D02*
X0030129D01*
X0030483Y0046220D02*
X0030129D01*
X0030483Y0046184D02*
X0030129D01*
X0030483Y0046149D02*
X0030129D01*
X0030483Y0046114D02*
X0030129D01*
X0030483Y0046078D02*
X0030129D01*
X0030483Y0046043D02*
X0030129D01*
X0030483Y0046008D02*
X0030129D01*
X0030443Y0046413D02*
Y0045941D01*
X0030408Y0046413D02*
Y0045941D01*
X0030372Y0046413D02*
Y0045941D01*
X0030337Y0046413D02*
Y0045941D01*
X0030302Y0046413D02*
Y0045941D01*
X0030266Y0046413D02*
Y0045941D01*
X0030231Y0046413D02*
Y0045941D01*
X0030196Y0046413D02*
Y0045941D01*
X0030160Y0046413D02*
Y0045941D01*
X0030483Y0046397D02*
X0030129D01*
X0030483Y0045972D02*
X0030129D01*
X0030483Y0046413D02*
X0030326D01*
X0030483D02*
Y0045941D01*
X0030129D01*
Y0046413D02*
Y0045941D01*
X0030326Y0046413D02*
X0030129D01*
X0036355Y0040159D02*
Y0039609D01*
X0036320Y0040159D02*
Y0039609D01*
X0036284Y0040159D02*
Y0039609D01*
X0036249Y0040159D02*
Y0039609D01*
X0036213Y0040159D02*
Y0039609D01*
X0036178Y0040159D02*
Y0039609D01*
X0036143Y0040159D02*
Y0039609D01*
X0036107Y0040159D02*
Y0039609D01*
X0036072Y0040159D02*
Y0039609D01*
X0036036Y0040159D02*
Y0039609D01*
X0036001Y0040159D02*
Y0039609D01*
X0035966Y0040159D02*
Y0039609D01*
X0035930Y0040159D02*
Y0039609D01*
X0035895Y0040159D02*
Y0039609D01*
X0035859Y0040159D02*
Y0039609D01*
X0035824Y0040159D02*
Y0039609D01*
X0035789Y0040159D02*
Y0039609D01*
X0035753Y0040159D02*
Y0039609D01*
X0035718Y0040159D02*
Y0039609D01*
X0035682Y0040159D02*
Y0039609D01*
X0035647Y0040159D02*
Y0039609D01*
X0035612Y0040159D02*
Y0039609D01*
X0035576Y0040159D02*
Y0039609D01*
X0035541Y0040159D02*
Y0039609D01*
X0035506Y0040159D02*
Y0039609D01*
X0035470Y0040159D02*
Y0039609D01*
X0037386Y0040135D02*
X0035439D01*
X0037386Y0040100D02*
X0035439D01*
X0037386Y0040064D02*
X0035439D01*
X0037386Y0040029D02*
X0035439D01*
X0037386Y0039993D02*
X0035439D01*
X0037386Y0039958D02*
X0035439D01*
X0037386Y0039923D02*
X0035439D01*
X0037386Y0039887D02*
X0035439D01*
X0037386Y0039852D02*
X0035439D01*
X0037386Y0039816D02*
X0035439D01*
X0037386Y0039781D02*
X0035439D01*
X0037386Y0039746D02*
X0035439D01*
X0037386Y0039710D02*
X0035439D01*
X0037393Y0039675D02*
X0035439D01*
X0037400Y0039639D02*
X0035439D01*
X0037386Y0039707D02*
X0037406Y0039609D01*
X0035439D01*
Y0040159D02*
Y0039609D01*
X0037386Y0040159D02*
X0035439D01*
X0037386D02*
Y0039707D01*
X0037381Y0040159D02*
Y0039609D01*
X0037346Y0040159D02*
Y0039609D01*
X0037311Y0040159D02*
Y0039609D01*
X0037275Y0040159D02*
Y0039609D01*
X0037240Y0040159D02*
Y0039609D01*
X0037205Y0040159D02*
Y0039609D01*
X0037169Y0040159D02*
Y0039609D01*
X0037134Y0040159D02*
Y0039609D01*
X0037098Y0040159D02*
Y0039609D01*
X0037063Y0040159D02*
Y0039609D01*
X0037028Y0040159D02*
Y0039609D01*
X0036992Y0040159D02*
Y0039609D01*
X0036957Y0040159D02*
Y0039609D01*
X0036921Y0040159D02*
Y0039609D01*
X0036886Y0040159D02*
Y0039609D01*
X0036851Y0040159D02*
Y0039609D01*
X0036815Y0040159D02*
Y0039609D01*
X0036780Y0040159D02*
Y0039609D01*
X0036744Y0040159D02*
Y0039609D01*
X0036709Y0040159D02*
Y0039609D01*
X0036674Y0040159D02*
Y0039609D01*
X0036638Y0040159D02*
Y0039609D01*
X0036603Y0040159D02*
Y0039609D01*
X0036567Y0040159D02*
Y0039609D01*
X0036532Y0040159D02*
Y0039609D01*
X0036497Y0040159D02*
Y0039609D01*
X0036461Y0040159D02*
Y0039609D01*
X0036426Y0040159D02*
Y0039609D01*
X0036390Y0040159D02*
Y0039609D01*
X0029264Y0040308D02*
X0028871D01*
X0029264Y0040273D02*
X0028871D01*
X0029264Y0040237D02*
X0028871D01*
X0029264Y0040202D02*
X0028871D01*
X0029264Y0040166D02*
X0028871D01*
X0029264Y0040131D02*
X0028871D01*
X0029264Y0040096D02*
X0028871D01*
X0029264Y0040060D02*
X0028871D01*
X0029264Y0040025D02*
X0028871D01*
X0029264Y0039989D02*
X0028871D01*
X0029264Y0039954D02*
X0028871D01*
X0029264Y0039919D02*
X0028871D01*
X0029264Y0039883D02*
X0028871D01*
X0029264Y0039848D02*
X0028871D01*
X0029264Y0039812D02*
X0028871D01*
X0029264Y0039777D02*
X0028871D01*
X0029264Y0039742D02*
X0028871D01*
X0029264Y0039706D02*
X0028871D01*
X0029264Y0039671D02*
X0028871D01*
X0029264Y0039635D02*
X0028871D01*
X0029264Y0039600D02*
X0028871D01*
X0029264Y0039565D02*
X0028871D01*
X0029264Y0039529D02*
X0028871D01*
X0029264Y0039494D02*
X0028871D01*
X0029264Y0039458D02*
X0028871D01*
X0029264Y0039423D02*
X0028871D01*
X0029264Y0039388D02*
X0028871D01*
X0029264Y0039352D02*
X0028871D01*
X0029264Y0039317D02*
X0028871D01*
X0029264Y0039282D02*
X0028871D01*
X0029078Y0041143D02*
Y0039215D01*
X0029043Y0041143D02*
Y0039215D01*
X0029008Y0041143D02*
Y0039215D01*
X0028972Y0041143D02*
Y0039215D01*
X0028937Y0041143D02*
Y0039215D01*
X0028901Y0041143D02*
Y0039215D01*
X0029264Y0041122D02*
X0028871D01*
X0029264Y0041087D02*
X0028871D01*
X0029264Y0041051D02*
X0028871D01*
X0029264Y0041016D02*
X0028871D01*
X0029264Y0040981D02*
X0028871D01*
X0029264Y0040945D02*
X0028871D01*
X0029264Y0040910D02*
X0028871D01*
X0029264Y0040874D02*
X0028871D01*
X0029264Y0040839D02*
X0028871D01*
X0029264Y0040804D02*
X0028871D01*
X0029264Y0040768D02*
X0028871D01*
X0029264Y0040733D02*
X0028871D01*
X0029264Y0040697D02*
X0028871D01*
X0029264Y0040662D02*
X0028871D01*
X0029264Y0040627D02*
X0028871D01*
X0029264Y0040591D02*
X0028871D01*
X0029264Y0040556D02*
X0028871D01*
X0029264Y0040520D02*
X0028871D01*
X0029264Y0040485D02*
X0028871D01*
X0029264Y0040450D02*
X0028871D01*
X0029264Y0040414D02*
X0028871D01*
X0029264Y0040379D02*
X0028871D01*
X0029264Y0040343D02*
X0028871D01*
X0029264Y0039246D02*
X0028871D01*
X0029264Y0039215D02*
X0028871D01*
X0029264Y0041143D02*
Y0039215D01*
Y0041143D02*
X0028871D01*
Y0039215D01*
X0029255Y0041143D02*
Y0039215D01*
X0029220Y0041143D02*
Y0039215D01*
X0029185Y0041143D02*
Y0039215D01*
X0029149Y0041143D02*
Y0039215D01*
X0029114Y0041143D02*
Y0039215D01*
X0100811Y0039915D02*
X0100418D01*
X0100811Y0039879D02*
X0100418D01*
X0100811Y0039844D02*
X0100418D01*
X0100811Y0039808D02*
X0100418D01*
X0100811Y0039773D02*
X0100418D01*
X0100811Y0039738D02*
X0100418D01*
X0100811Y0039702D02*
X0100418D01*
X0100811Y0039667D02*
X0100418D01*
X0100811Y0039631D02*
X0100418D01*
X0100811Y0039596D02*
X0100418D01*
X0100811Y0039561D02*
X0100418D01*
X0100811Y0039525D02*
X0100418D01*
X0100811Y0039490D02*
X0100418D01*
X0100811Y0039455D02*
X0100418D01*
X0100811Y0039419D02*
X0100418D01*
X0100811Y0039384D02*
X0100418D01*
X0100811Y0039348D02*
X0100418D01*
X0100811Y0039313D02*
X0100418D01*
X0100811Y0039278D02*
X0100418D01*
X0100811Y0039242D02*
X0100418D01*
X0100811Y0039207D02*
X0100418D01*
X0100811Y0039171D02*
X0100418D01*
X0100811Y0039136D02*
X0100418D01*
X0100811Y0039101D02*
X0100418D01*
X0100811Y0039065D02*
X0100418D01*
X0100811Y0039030D02*
X0100418D01*
X0100811Y0038994D02*
X0100418D01*
X0100811Y0038959D02*
X0100418D01*
X0100811Y0038924D02*
X0100418D01*
X0100811Y0038888D02*
X0100418D01*
X0100626Y0040749D02*
Y0038822D01*
X0100590Y0040749D02*
Y0038822D01*
X0100555Y0040749D02*
Y0038822D01*
X0100520Y0040749D02*
Y0038822D01*
X0100484Y0040749D02*
Y0038822D01*
X0100449Y0040749D02*
Y0038822D01*
X0100811Y0040729D02*
X0100418D01*
X0100811Y0040693D02*
X0100418D01*
X0100811Y0040658D02*
X0100418D01*
X0100811Y0040623D02*
X0100418D01*
X0100811Y0040587D02*
X0100418D01*
X0100811Y0040552D02*
X0100418D01*
X0100811Y0040516D02*
X0100418D01*
X0100811Y0040481D02*
X0100418D01*
X0100811Y0040446D02*
X0100418D01*
X0100811Y0040410D02*
X0100418D01*
X0100811Y0040375D02*
X0100418D01*
X0100811Y0040339D02*
X0100418D01*
X0100811Y0040304D02*
X0100418D01*
X0100811Y0040269D02*
X0100418D01*
X0100811Y0040233D02*
X0100418D01*
X0100811Y0040198D02*
X0100418D01*
X0100811Y0040162D02*
X0100418D01*
X0100811Y0040127D02*
X0100418D01*
X0100811Y0040092D02*
X0100418D01*
X0100811Y0040056D02*
X0100418D01*
X0100811Y0040021D02*
X0100418D01*
X0100811Y0039985D02*
X0100418D01*
X0100811Y0039950D02*
X0100418D01*
X0100811Y0038853D02*
X0100418D01*
X0100811Y0038822D02*
X0100418D01*
X0100811Y0040749D02*
Y0038822D01*
Y0040749D02*
X0100418D01*
Y0038822D01*
X0100803Y0040749D02*
Y0038822D01*
X0100767Y0040749D02*
Y0038822D01*
X0100732Y0040749D02*
Y0038822D01*
X0100697Y0040749D02*
Y0038822D01*
X0100661Y0040749D02*
Y0038822D01*
X0047515Y0040269D02*
X0047121D01*
X0047515Y0040233D02*
X0047121D01*
X0047515Y0040198D02*
X0047121D01*
X0047515Y0040162D02*
X0047121D01*
X0047515Y0040127D02*
X0047121D01*
X0047515Y0040092D02*
X0047121D01*
X0047515Y0040056D02*
X0047121D01*
X0047515Y0040021D02*
X0047121D01*
X0047515Y0039985D02*
X0047121D01*
X0047515Y0039950D02*
X0047121D01*
X0047515Y0039915D02*
X0047121D01*
X0047515Y0039879D02*
X0047121D01*
X0047515Y0039844D02*
X0047121D01*
X0047515Y0039809D02*
X0047121D01*
X0047515Y0039773D02*
X0047121D01*
X0047515Y0039738D02*
X0047121D01*
X0047515Y0039702D02*
X0047121D01*
X0047515Y0039667D02*
X0047121D01*
X0047515Y0039632D02*
X0047121D01*
X0047515Y0039596D02*
X0047121D01*
X0047515Y0039561D02*
X0047121D01*
X0047515Y0039525D02*
X0047121D01*
X0047515Y0039490D02*
X0047121D01*
X0047515Y0039455D02*
X0047121D01*
X0047515Y0039419D02*
X0047121D01*
X0047515Y0039384D02*
X0047121D01*
X0047515Y0039348D02*
X0047121D01*
X0047515Y0039313D02*
X0047121D01*
X0047515Y0039278D02*
X0047121D01*
X0047515Y0039242D02*
X0047121D01*
X0047329Y0041103D02*
Y0039176D01*
X0047294Y0041103D02*
Y0039176D01*
X0047258Y0041103D02*
Y0039176D01*
X0047223Y0041103D02*
Y0039176D01*
X0047188Y0041103D02*
Y0039176D01*
X0047152Y0041103D02*
Y0039176D01*
X0047515Y0041083D02*
X0047121D01*
X0047515Y0041047D02*
X0047121D01*
X0047515Y0041012D02*
X0047121D01*
X0047515Y0040977D02*
X0047121D01*
X0047515Y0040941D02*
X0047121D01*
X0047515Y0040906D02*
X0047121D01*
X0047515Y0040870D02*
X0047121D01*
X0047515Y0040835D02*
X0047121D01*
X0047515Y0040800D02*
X0047121D01*
X0047515Y0040764D02*
X0047121D01*
X0047515Y0040729D02*
X0047121D01*
X0047515Y0040693D02*
X0047121D01*
X0047515Y0040658D02*
X0047121D01*
X0047515Y0040623D02*
X0047121D01*
X0047515Y0040587D02*
X0047121D01*
X0047515Y0040552D02*
X0047121D01*
X0047515Y0040516D02*
X0047121D01*
X0047515Y0040481D02*
X0047121D01*
X0047515Y0040446D02*
X0047121D01*
X0047515Y0040410D02*
X0047121D01*
X0047515Y0040375D02*
X0047121D01*
X0047515Y0040339D02*
X0047121D01*
X0047515Y0040304D02*
X0047121D01*
X0047515Y0039207D02*
X0047121D01*
X0047515Y0039176D02*
X0047121D01*
X0047515Y0041103D02*
Y0039176D01*
Y0041103D02*
X0047121D01*
Y0039176D01*
X0047506Y0041103D02*
Y0039176D01*
X0047471Y0041103D02*
Y0039176D01*
X0047435Y0041103D02*
Y0039176D01*
X0047400Y0041103D02*
Y0039176D01*
X0047364Y0041103D02*
Y0039176D01*
X0019099Y0016992D02*
Y0016795D01*
X0019064Y0016992D02*
Y0016795D01*
X0019029Y0016992D02*
Y0016795D01*
X0018993Y0016992D02*
Y0016795D01*
X0018958Y0016992D02*
Y0016795D01*
X0018922Y0016992D02*
Y0016795D01*
X0018887Y0016992D02*
Y0016795D01*
X0018852Y0016992D02*
Y0016795D01*
X0018816Y0016992D02*
Y0016795D01*
X0018781Y0016992D02*
Y0016795D01*
X0018745Y0016992D02*
Y0016795D01*
X0018710Y0016992D02*
Y0016795D01*
X0018675Y0016992D02*
Y0016795D01*
X0018639Y0016992D02*
Y0016795D01*
X0018604Y0016992D02*
Y0016795D01*
X0018568Y0016992D02*
Y0016795D01*
X0018533Y0016992D02*
Y0016795D01*
X0018498Y0016992D02*
Y0016795D01*
X0018462Y0016992D02*
Y0016795D01*
X0018427Y0016992D02*
Y0016795D01*
X0018391Y0016992D02*
Y0016795D01*
X0018356Y0016992D02*
Y0016795D01*
X0018321Y0016992D02*
Y0016795D01*
X0018285Y0016992D02*
Y0016795D01*
X0018250Y0016992D02*
Y0016795D01*
X0018214Y0016992D02*
Y0016795D01*
X0018179Y0016992D02*
Y0016795D01*
X0018144Y0016992D02*
Y0016795D01*
X0018108Y0016992D02*
Y0016795D01*
X0018073Y0016992D02*
Y0016795D01*
X0018037Y0016992D02*
Y0016795D01*
X0018002Y0016992D02*
Y0016795D01*
X0017967Y0016992D02*
Y0016795D01*
X0017931Y0016992D02*
Y0016795D01*
X0017896Y0016992D02*
Y0016795D01*
X0017860Y0016992D02*
Y0016795D01*
X0017825Y0016992D02*
Y0016795D01*
X0017790Y0016992D02*
Y0016795D01*
X0017754Y0016992D02*
Y0016795D01*
X0017719Y0016992D02*
Y0016795D01*
X0017683Y0016992D02*
Y0016795D01*
X0017648Y0016992D02*
Y0016795D01*
X0017613Y0016992D02*
Y0016795D01*
X0017577Y0016992D02*
Y0016795D01*
X0017542Y0016992D02*
Y0016795D01*
X0017507Y0016992D02*
Y0016795D01*
X0017471Y0016992D02*
Y0016795D01*
X0017436Y0016992D02*
Y0016795D01*
X0017400Y0016992D02*
Y0016795D01*
X0017365Y0016992D02*
Y0016795D01*
X0017330Y0016992D02*
Y0016795D01*
X0017294Y0016992D02*
Y0016795D01*
X0017259Y0016992D02*
Y0016795D01*
X0017223Y0016992D02*
Y0016795D01*
X0017188Y0016992D02*
Y0016795D01*
X0017153Y0016992D02*
Y0016795D01*
X0017117Y0016992D02*
Y0016795D01*
X0017082Y0016992D02*
Y0016795D01*
X0017046Y0016992D02*
Y0016795D01*
X0017011Y0016992D02*
Y0016795D01*
X0016976Y0016992D02*
Y0016795D01*
X0016940Y0016992D02*
Y0016795D01*
X0025685Y0016968D02*
X0016874D01*
X0016905Y0016992D02*
Y0016795D01*
X0025685Y0016897D02*
X0016874D01*
X0025685Y0016862D02*
X0016874D01*
X0021506Y0016992D02*
Y0016795D01*
X0021471Y0016992D02*
Y0016795D01*
X0021435Y0016992D02*
Y0016795D01*
X0021400Y0016992D02*
Y0016795D01*
X0021365Y0016992D02*
Y0016795D01*
X0021329Y0016992D02*
Y0016795D01*
X0021294Y0016992D02*
Y0016795D01*
X0021258Y0016992D02*
Y0016795D01*
X0021223Y0016992D02*
Y0016795D01*
X0021188Y0016992D02*
Y0016795D01*
X0021152Y0016992D02*
Y0016795D01*
X0021117Y0016992D02*
Y0016795D01*
X0021081Y0016992D02*
Y0016795D01*
X0021046Y0016992D02*
Y0016795D01*
X0021011Y0016992D02*
Y0016795D01*
X0020975Y0016992D02*
Y0016795D01*
X0020940Y0016992D02*
Y0016795D01*
X0020905Y0016992D02*
Y0016795D01*
X0020869Y0016992D02*
Y0016795D01*
X0020834Y0016992D02*
Y0016795D01*
X0020798Y0016992D02*
Y0016795D01*
X0020763Y0016992D02*
Y0016795D01*
X0020728Y0016992D02*
Y0016795D01*
X0020692Y0016992D02*
Y0016795D01*
X0020657Y0016992D02*
Y0016795D01*
X0020621Y0016992D02*
Y0016795D01*
X0020586Y0016992D02*
Y0016795D01*
X0020551Y0016992D02*
Y0016795D01*
X0020515Y0016992D02*
Y0016795D01*
X0020480Y0016992D02*
Y0016795D01*
X0020444Y0016992D02*
Y0016795D01*
X0020409Y0016992D02*
Y0016795D01*
X0020374Y0016992D02*
Y0016795D01*
X0020338Y0016992D02*
Y0016795D01*
X0020303Y0016992D02*
Y0016795D01*
X0020267Y0016992D02*
Y0016795D01*
X0020232Y0016992D02*
Y0016795D01*
X0020197Y0016992D02*
Y0016795D01*
X0020161Y0016992D02*
Y0016795D01*
X0020126Y0016992D02*
Y0016795D01*
X0020090Y0016992D02*
Y0016795D01*
X0020055Y0016992D02*
Y0016795D01*
X0020020Y0016992D02*
Y0016795D01*
X0019984Y0016992D02*
Y0016795D01*
X0019949Y0016992D02*
Y0016795D01*
X0019913Y0016992D02*
Y0016795D01*
X0019878Y0016992D02*
Y0016795D01*
X0019843Y0016992D02*
Y0016795D01*
X0019807Y0016992D02*
Y0016795D01*
X0019772Y0016992D02*
Y0016795D01*
X0019736Y0016992D02*
Y0016795D01*
X0019701Y0016992D02*
Y0016795D01*
X0019666Y0016992D02*
Y0016795D01*
X0019630Y0016992D02*
Y0016795D01*
X0019595Y0016992D02*
Y0016795D01*
X0019559Y0016992D02*
Y0016795D01*
X0019524Y0016992D02*
Y0016795D01*
X0019489Y0016992D02*
Y0016795D01*
X0019453Y0016992D02*
Y0016795D01*
X0019418Y0016992D02*
Y0016795D01*
X0019382Y0016992D02*
Y0016795D01*
X0019347Y0016992D02*
Y0016795D01*
X0019312Y0016992D02*
Y0016795D01*
X0019276Y0016992D02*
Y0016795D01*
X0019241Y0016992D02*
Y0016795D01*
X0019206Y0016992D02*
Y0016795D01*
X0019170Y0016992D02*
Y0016795D01*
X0019135Y0016992D02*
Y0016795D01*
X0023913Y0016992D02*
Y0016795D01*
X0023878Y0016992D02*
Y0016795D01*
X0023842Y0016992D02*
Y0016795D01*
X0023807Y0016992D02*
Y0016795D01*
X0023772Y0016992D02*
Y0016795D01*
X0023736Y0016992D02*
Y0016795D01*
X0023701Y0016992D02*
Y0016795D01*
X0023665Y0016992D02*
Y0016795D01*
X0023630Y0016992D02*
Y0016795D01*
X0023595Y0016992D02*
Y0016795D01*
X0023559Y0016992D02*
Y0016795D01*
X0023524Y0016992D02*
Y0016795D01*
X0023488Y0016992D02*
Y0016795D01*
X0023453Y0016992D02*
Y0016795D01*
X0023418Y0016992D02*
Y0016795D01*
X0023382Y0016992D02*
Y0016795D01*
X0023347Y0016992D02*
Y0016795D01*
X0023311Y0016992D02*
Y0016795D01*
X0023276Y0016992D02*
Y0016795D01*
X0023241Y0016992D02*
Y0016795D01*
X0023205Y0016992D02*
Y0016795D01*
X0023170Y0016992D02*
Y0016795D01*
X0023134Y0016992D02*
Y0016795D01*
X0023099Y0016992D02*
Y0016795D01*
X0023064Y0016992D02*
Y0016795D01*
X0023028Y0016992D02*
Y0016795D01*
X0022993Y0016992D02*
Y0016795D01*
X0022957Y0016992D02*
Y0016795D01*
X0022922Y0016992D02*
Y0016795D01*
X0022887Y0016992D02*
Y0016795D01*
X0022851Y0016992D02*
Y0016795D01*
X0022816Y0016992D02*
Y0016795D01*
X0022780Y0016992D02*
Y0016795D01*
X0022745Y0016992D02*
Y0016795D01*
X0022710Y0016992D02*
Y0016795D01*
X0022674Y0016992D02*
Y0016795D01*
X0022639Y0016992D02*
Y0016795D01*
X0022604Y0016992D02*
Y0016795D01*
X0022568Y0016992D02*
Y0016795D01*
X0022533Y0016992D02*
Y0016795D01*
X0022497Y0016992D02*
Y0016795D01*
X0022462Y0016992D02*
Y0016795D01*
X0022427Y0016992D02*
Y0016795D01*
X0022391Y0016992D02*
Y0016795D01*
X0022356Y0016992D02*
Y0016795D01*
X0022320Y0016992D02*
Y0016795D01*
X0022285Y0016992D02*
Y0016795D01*
X0022250Y0016992D02*
Y0016795D01*
X0022214Y0016992D02*
Y0016795D01*
X0022179Y0016992D02*
Y0016795D01*
X0022143Y0016992D02*
Y0016795D01*
X0022108Y0016992D02*
Y0016795D01*
X0022073Y0016992D02*
Y0016795D01*
X0022037Y0016992D02*
Y0016795D01*
X0022002Y0016992D02*
Y0016795D01*
X0021966Y0016992D02*
Y0016795D01*
X0021931Y0016992D02*
Y0016795D01*
X0021896Y0016992D02*
Y0016795D01*
X0021860Y0016992D02*
Y0016795D01*
X0021825Y0016992D02*
Y0016795D01*
X0021789Y0016992D02*
Y0016795D01*
X0021754Y0016992D02*
Y0016795D01*
X0021719Y0016992D02*
Y0016795D01*
X0021683Y0016992D02*
Y0016795D01*
X0021648Y0016992D02*
Y0016795D01*
X0021612Y0016992D02*
Y0016795D01*
X0021577Y0016992D02*
Y0016795D01*
X0021542Y0016992D02*
Y0016795D01*
X0025685Y0016826D02*
X0016874D01*
X0019273Y0016795D02*
X0016874D01*
Y0016992D02*
Y0016795D01*
X0025685Y0016992D02*
X0016874D01*
X0025685D02*
Y0016795D01*
X0019273D01*
X0025685Y0016932D02*
X0016874D01*
X0025648Y0016992D02*
Y0016795D01*
X0025612Y0016992D02*
Y0016795D01*
X0025577Y0016992D02*
Y0016795D01*
X0025541Y0016992D02*
Y0016795D01*
X0025506Y0016992D02*
Y0016795D01*
X0025471Y0016992D02*
Y0016795D01*
X0025435Y0016992D02*
Y0016795D01*
X0025400Y0016992D02*
Y0016795D01*
X0025364Y0016992D02*
Y0016795D01*
X0025329Y0016992D02*
Y0016795D01*
X0025294Y0016992D02*
Y0016795D01*
X0025258Y0016992D02*
Y0016795D01*
X0025223Y0016992D02*
Y0016795D01*
X0025187Y0016992D02*
Y0016795D01*
X0025152Y0016992D02*
Y0016795D01*
X0025117Y0016992D02*
Y0016795D01*
X0025081Y0016992D02*
Y0016795D01*
X0025046Y0016992D02*
Y0016795D01*
X0025010Y0016992D02*
Y0016795D01*
X0024975Y0016992D02*
Y0016795D01*
X0024940Y0016992D02*
Y0016795D01*
X0024904Y0016992D02*
Y0016795D01*
X0024869Y0016992D02*
Y0016795D01*
X0024833Y0016992D02*
Y0016795D01*
X0024798Y0016992D02*
Y0016795D01*
X0024763Y0016992D02*
Y0016795D01*
X0024727Y0016992D02*
Y0016795D01*
X0024692Y0016992D02*
Y0016795D01*
X0024656Y0016992D02*
Y0016795D01*
X0024621Y0016992D02*
Y0016795D01*
X0024586Y0016992D02*
Y0016795D01*
X0024550Y0016992D02*
Y0016795D01*
X0024515Y0016992D02*
Y0016795D01*
X0024479Y0016992D02*
Y0016795D01*
X0024444Y0016992D02*
Y0016795D01*
X0024409Y0016992D02*
Y0016795D01*
X0024373Y0016992D02*
Y0016795D01*
X0024338Y0016992D02*
Y0016795D01*
X0024303Y0016992D02*
Y0016795D01*
X0024267Y0016992D02*
Y0016795D01*
X0024232Y0016992D02*
Y0016795D01*
X0024196Y0016992D02*
Y0016795D01*
X0024161Y0016992D02*
Y0016795D01*
X0024126Y0016992D02*
Y0016795D01*
X0024090Y0016992D02*
Y0016795D01*
X0024055Y0016992D02*
Y0016795D01*
X0024019Y0016992D02*
Y0016795D01*
X0023984Y0016992D02*
Y0016795D01*
X0023949Y0016992D02*
Y0016795D01*
G01X0078627Y0042633D02*
G03X0086536Y0050542I0000000J0007909D01*
G01X0070718D02*
G03X0078627Y0042633I0007909J0000000D01*
Y0058451D02*
G03X0070718Y0050542I0000000J0007909D01*
G01X0086536D02*
G03X0078627Y0058451I0007909J0000000D01*
G01X0078588Y0025798D02*
G03X0086497Y0033707I0000000J0007909D01*
G01X0070679D02*
G03X0078588Y0025798I0007909J0000000D01*
Y0041616D02*
G03X0070679Y0033707I0000000J0007909D01*
G01X0086497D02*
G03X0078588Y0041616I0007909J0000000D01*
G01X0061832Y0025798D02*
G03X0069741Y0033707I0000000J0007909D01*
G01X0053923D02*
G03X0061832Y0025798I0007909J0000000D01*
Y0041616D02*
G03X0053923Y0033707I0000000J0007909D01*
G01X0069741D02*
G03X0061832Y0041616I0007909J0000000D01*
G01X0061871Y0042636D02*
G03X0069780Y0050545I0000000J0007909D01*
G01X0053962D02*
G03X0061871Y0042636I0007909J0000000D01*
Y0058454D02*
G03X0053962Y0050545I0000000J0007909D01*
G01X0069780D02*
G03X0061871Y0058454I0007909J0000000D01*
G54D62*
G01X0036549Y0055222D02*
X0036439Y0055331D01*
X0036385Y0055441D01*
Y0055659D01*
X0036439Y0055769D01*
X0036549Y0055878D01*
X0036658D01*
X0036767Y0055769D01*
X0036822Y0055659D01*
Y0055441D01*
X0036767Y0055331D01*
X0036658Y0055222D01*
X0036549D01*
X0035192Y0055878D02*
Y0055659D01*
X0034973Y0055222D01*
X0034754Y0055659D01*
Y0055878D01*
X0034390Y0055550D02*
X0034062D01*
X0034500Y0055222D02*
X0034062D01*
Y0055878D01*
X0034500D01*
X0033643Y0055550D02*
X0033807Y0055222D01*
X0033370Y0055550D02*
X0033698D01*
X0033807Y0055659D01*
Y0055769D01*
X0033698Y0055878D01*
X0033370D01*
Y0055222D01*
X0041312Y0056717D02*
Y0057045D01*
X0041531Y0057373D02*
X0041367Y0057045D01*
X0041257D01*
X0041093Y0057373D01*
X0040839Y0056935D02*
X0040401D01*
X0040839Y0056717D02*
Y0057045D01*
X0040675Y0057373D01*
X0040565D01*
X0040401Y0057045D01*
Y0056717D01*
X0039764D02*
Y0057373D01*
X0039709Y0056717D02*
X0040037D01*
X0040147Y0056826D01*
Y0056935D01*
X0040092Y0057045D01*
X0039764D02*
X0040092D01*
X0040147Y0057154D01*
Y0057263D01*
X0040037Y0057373D01*
X0039709D01*
X0039454Y0056717D02*
Y0057373D01*
X0039345Y0057263D01*
X0039236Y0057045D01*
X0039126Y0057263D01*
X0039017Y0057373D01*
Y0056717D01*
X0038379D02*
X0038325Y0056826D01*
Y0057263D01*
X0038379Y0057373D01*
X0038707D01*
X0038762Y0057263D01*
Y0056826D01*
X0038707Y0056717D01*
X0038379D01*
X0037687D02*
Y0057373D01*
X0037633Y0056717D02*
X0037961D01*
X0038070Y0056826D01*
Y0056935D01*
X0038015Y0057045D01*
X0037687D02*
X0038015D01*
X0038070Y0057154D01*
Y0057263D01*
X0037961Y0057373D01*
X0037633D01*
X0036221Y0056717D02*
Y0057373D01*
X0036440D02*
X0036002D01*
X0035748Y0056717D02*
X0035529D01*
X0035638D02*
Y0057373D01*
X0035748D02*
X0035529D01*
X0035165Y0056717D02*
X0034946D01*
X0035056D02*
Y0057373D01*
X0035165D02*
X0034946D01*
X0033261Y0056717D02*
Y0057373D01*
X0033207Y0056717D02*
X0033535D01*
X0033644Y0056826D01*
Y0056935D01*
X0033589Y0057045D01*
X0033261D02*
X0033589D01*
X0033644Y0057154D01*
Y0057263D01*
X0033535Y0057373D01*
X0033207D01*
X0032952Y0056935D02*
X0032514D01*
X0032952Y0056717D02*
Y0057045D01*
X0032788Y0057373D01*
X0032678D01*
X0032514Y0057045D01*
Y0056717D01*
X0032260D02*
X0031877D01*
Y0057373D01*
X0030575Y0057045D02*
X0030247D01*
X0030684Y0056717D02*
X0030247D01*
Y0057373D01*
X0030684D01*
X0029555Y0057045D02*
X0029883D01*
X0029992Y0057154D01*
Y0057263D01*
X0029883Y0057373D01*
X0029555D01*
Y0056717D01*
X0041987Y0058382D02*
X0042151Y0058054D01*
X0041714Y0058382D02*
X0042042D01*
X0042151Y0058491D01*
Y0058601D01*
X0042042Y0058710D01*
X0041714D01*
Y0058054D01*
X0041350Y0058382D02*
X0041022D01*
X0041459Y0058054D02*
X0041022D01*
Y0058710D01*
X0041459D01*
X0040548Y0058054D02*
Y0058710D01*
X0040767D02*
X0040330D01*
X0039911Y0058382D02*
X0040075Y0058054D01*
X0039637Y0058382D02*
X0039965D01*
X0040075Y0058491D01*
Y0058601D01*
X0039965Y0058710D01*
X0039637D01*
Y0058054D01*
X0039273Y0058382D02*
X0038945D01*
X0039383Y0058054D02*
X0038945D01*
Y0058710D01*
X0039383D01*
X0038691D02*
Y0058491D01*
X0038472Y0058054D01*
X0038253Y0058491D01*
Y0058710D01*
X0037998D02*
Y0058054D01*
X0037889Y0058163D01*
X0037670Y0058601D01*
X0037561Y0058710D01*
Y0058054D01*
X0037306D02*
X0037088D01*
X0037197D02*
Y0058710D01*
X0037306D02*
X0037088D01*
X0035785Y0058273D02*
X0035348D01*
X0035785Y0058054D02*
Y0058382D01*
X0035621Y0058710D01*
X0035512D01*
X0035348Y0058382D01*
Y0058054D01*
X0035093Y0058601D02*
X0035038Y0058710D01*
X0034710D01*
X0034656Y0058601D01*
Y0058491D01*
X0034710Y0058382D01*
X0035038D01*
X0035093Y0058273D01*
Y0058163D01*
X0035038Y0058054D01*
X0034710D01*
X0034656Y0058163D01*
X0033463Y0058273D02*
X0033025D01*
X0033463Y0058054D02*
Y0058382D01*
X0033299Y0058710D01*
X0033189D01*
X0033025Y0058382D01*
Y0058054D01*
X0032771Y0058710D02*
Y0058491D01*
X0032552Y0058054D01*
X0032333Y0058491D01*
Y0058710D01*
X0030867Y0058054D02*
X0030758Y0058163D01*
X0030703Y0058273D01*
Y0058491D01*
X0030758Y0058601D01*
X0030867Y0058710D01*
X0030976D01*
X0031086Y0058601D01*
X0031140Y0058491D01*
Y0058273D01*
X0031086Y0058163D01*
X0030976Y0058054D01*
X0030867D01*
X0030175D02*
X0030065Y0058163D01*
X0030011Y0058273D01*
Y0058491D01*
X0030065Y0058601D01*
X0030175Y0058710D01*
X0030284D01*
X0030393Y0058601D01*
X0030448Y0058491D01*
Y0058273D01*
X0030393Y0058163D01*
X0030284Y0058054D01*
X0030175D01*
X0029319Y0058163D02*
X0029373Y0058054D01*
X0029701D01*
X0029756Y0058163D01*
Y0058382D01*
X0029647Y0058491D01*
X0029319D01*
Y0058710D01*
X0029756D01*
X0042410Y0008031D02*
X0042760Y0007856D01*
X0042410Y0007681D01*
X0042935Y0007131D02*
X0042410D01*
Y0007394D01*
X0042498Y0007438D01*
X0042672D01*
X0042760Y0007394D01*
Y0007131D01*
Y0006888D02*
Y0006713D01*
Y0006800D02*
X0042235D01*
Y0006888D02*
Y0006713D01*
X0051091Y0005592D02*
X0051223D01*
Y0005461D01*
X0051190Y0005395D01*
X0050993D01*
X0050960Y0005461D01*
Y0005723D01*
X0050993Y0005789D01*
X0051190D01*
X0051223Y0005723D01*
X0050498Y0005395D02*
X0050465Y0005461D01*
Y0005723D01*
X0050498Y0005789D01*
X0050695D01*
X0050727Y0005723D01*
Y0005461D01*
X0050695Y0005395D01*
X0050498D01*
X0050134Y0005592D02*
X0050232Y0005395D01*
X0049970Y0005592D02*
X0050167D01*
X0050232Y0005658D01*
Y0005723D01*
X0050167Y0005789D01*
X0049970D01*
Y0005395D01*
X0049475Y0005592D02*
X0049671D01*
X0049737Y0005658D01*
Y0005723D01*
X0049671Y0005789D01*
X0049475D01*
Y0005395D01*
X0063076Y0006221D02*
Y0006418D01*
X0063208Y0006615D02*
X0063109Y0006418D01*
X0063044D01*
X0062945Y0006615D01*
X0062712Y0006352D02*
X0062450D01*
X0062712Y0006221D02*
Y0006418D01*
X0062614Y0006615D01*
X0062548D01*
X0062450Y0006418D01*
Y0006221D01*
X0062217D02*
X0061988D01*
Y0006615D01*
X0061492Y0006418D02*
X0061689D01*
X0061755Y0006484D01*
Y0006549D01*
X0061689Y0006615D01*
X0061492D01*
Y0006221D01*
X0061260Y0006549D02*
X0061227Y0006615D01*
X0061030D01*
X0060997Y0006549D01*
Y0006484D01*
X0061030Y0006418D01*
X0061227D01*
X0061260Y0006352D01*
Y0006287D01*
X0061227Y0006221D01*
X0061030D01*
X0060997Y0006287D01*
X0060765Y0006221D02*
X0060633D01*
X0060699D02*
Y0006615D01*
X0060765D02*
X0060633D01*
X0060105Y0006221D02*
Y0006615D01*
X0060073Y0006221D02*
X0060269D01*
X0060335Y0006352D01*
Y0006484D01*
X0060269Y0006615D01*
X0060073D01*
X0059197Y0006287D02*
X0059164Y0006221D01*
X0058967D01*
X0058935Y0006287D01*
Y0006549D01*
X0058967Y0006615D01*
X0059164D01*
X0059197Y0006549D01*
X0058702Y0006221D02*
X0058439D01*
X0058702Y0006484D01*
Y0006549D01*
X0058669Y0006615D01*
X0058472D01*
X0058439Y0006549D01*
X0058207Y0006221D02*
X0058076D01*
X0058141D02*
Y0006615D01*
X0058207D02*
X0058076D01*
X0066906Y0020185D02*
X0066277D01*
X0066906Y0020095D02*
X0066277D01*
X0066906Y0020005D02*
X0066277D01*
X0066906Y0019915D02*
X0066277D01*
X0066906Y0019825D02*
X0066277D01*
X0066906Y0019735D02*
X0066277D01*
X0066906Y0019645D02*
X0066277D01*
X0066906Y0019555D02*
X0066277D01*
X0066906Y0019465D02*
X0066277D01*
X0066906Y0019375D02*
X0066277D01*
X0066906Y0019285D02*
X0066277D01*
X0066906Y0021175D02*
X0066277D01*
X0066906Y0021085D02*
X0066277D01*
X0066906Y0020995D02*
X0066277D01*
X0066906Y0020905D02*
X0066277D01*
X0066906Y0020815D02*
X0066277D01*
X0066906Y0020725D02*
X0066277D01*
X0066906Y0020635D02*
X0066277D01*
X0066906Y0020545D02*
X0066277D01*
X0066906Y0020455D02*
X0066277D01*
X0066906Y0020365D02*
X0066277D01*
X0066906Y0020275D02*
X0066277D01*
X0066587Y0021830D02*
Y0019155D01*
X0066497Y0021830D02*
Y0019155D01*
X0066407Y0021830D02*
Y0019155D01*
X0066317Y0021830D02*
Y0019155D01*
X0066906Y0021805D02*
X0066277D01*
X0066906Y0021715D02*
X0066277D01*
X0066906Y0021625D02*
X0066277D01*
X0066906Y0021535D02*
X0066277D01*
X0066906Y0021445D02*
X0066277D01*
X0066906Y0021355D02*
X0066277D01*
X0066906Y0021265D02*
X0066277D01*
X0066906Y0019195D02*
X0066277D01*
Y0020414D02*
Y0019155D01*
X0066906D02*
X0066277D01*
X0066906Y0021830D02*
Y0019155D01*
Y0021830D02*
X0066277D01*
Y0020414D01*
X0066857Y0021830D02*
Y0019155D01*
X0066767Y0021830D02*
Y0019155D01*
X0066677Y0021830D02*
Y0019155D01*
X0068576Y0017307D02*
Y0016638D01*
X0068486Y0017307D02*
Y0016638D01*
X0068396Y0017307D02*
Y0016638D01*
X0068306Y0017307D02*
Y0016638D01*
X0068216Y0017307D02*
Y0016638D01*
X0068126Y0017307D02*
Y0016638D01*
X0071272Y0017218D02*
X0068086D01*
X0071272Y0017128D02*
X0068086D01*
X0071272Y0017038D02*
X0068086D01*
X0071272Y0016948D02*
X0068086D01*
X0071272Y0016858D02*
X0068086D01*
X0071272Y0016768D02*
X0068086D01*
X0069746Y0017307D02*
Y0016638D01*
X0069656Y0017307D02*
Y0016638D01*
X0069566Y0017307D02*
Y0016638D01*
X0069476Y0017307D02*
Y0016638D01*
X0069386Y0017307D02*
Y0016638D01*
X0069296Y0017307D02*
Y0016638D01*
X0069206Y0017307D02*
Y0016638D01*
X0069116Y0017307D02*
Y0016638D01*
X0069026Y0017307D02*
Y0016638D01*
X0068936Y0017307D02*
Y0016638D01*
X0068846Y0017307D02*
Y0016638D01*
X0068756Y0017307D02*
Y0016638D01*
X0068666Y0017307D02*
Y0016638D01*
X0070916Y0017307D02*
Y0016638D01*
X0070826Y0017307D02*
Y0016638D01*
X0070736Y0017307D02*
Y0016638D01*
X0070646Y0017307D02*
Y0016638D01*
X0070556Y0017307D02*
Y0016638D01*
X0070466Y0017307D02*
Y0016638D01*
X0070376Y0017307D02*
Y0016638D01*
X0070286Y0017307D02*
Y0016638D01*
X0070196Y0017307D02*
Y0016638D01*
X0070106Y0017307D02*
Y0016638D01*
X0070016Y0017307D02*
Y0016638D01*
X0069926Y0017307D02*
Y0016638D01*
X0069836Y0017307D02*
Y0016638D01*
X0071272Y0016678D02*
X0068086D01*
Y0017307D02*
Y0016638D01*
X0071272D02*
X0068086D01*
X0071272Y0017307D02*
Y0016638D01*
Y0017307D02*
X0068086D01*
X0071186D02*
Y0016638D01*
X0071096Y0017307D02*
Y0016638D01*
X0071006Y0017307D02*
Y0016638D01*
X0075967Y0022577D02*
Y0022027D01*
X0075877Y0022577D02*
Y0022027D01*
X0075787Y0022577D02*
Y0022027D01*
X0075697Y0022577D02*
Y0022027D01*
X0075607Y0022577D02*
Y0022027D01*
X0075517Y0022577D02*
Y0022027D01*
X0075427Y0022577D02*
Y0022027D01*
X0075337Y0022577D02*
Y0022027D01*
X0075247Y0022577D02*
Y0022027D01*
X0075157Y0022577D02*
Y0022027D01*
X0075067Y0022577D02*
Y0022027D01*
X0074977Y0022577D02*
Y0022027D01*
X0074887Y0022577D02*
Y0022027D01*
X0074797Y0022577D02*
Y0022027D01*
X0074707Y0022577D02*
Y0022027D01*
X0074617Y0022577D02*
Y0022027D01*
X0074527Y0022577D02*
Y0022027D01*
X0074437Y0022577D02*
Y0022027D01*
X0074347Y0022577D02*
Y0022027D01*
X0074257Y0022577D02*
Y0022027D01*
X0074167Y0022577D02*
Y0022027D01*
X0074077Y0022577D02*
Y0022027D01*
X0073987Y0022577D02*
Y0022027D01*
X0073897Y0022577D02*
Y0022027D01*
X0073807Y0022577D02*
Y0022027D01*
X0073717Y0022577D02*
Y0022027D01*
X0073627Y0022577D02*
Y0022027D01*
X0073537Y0022577D02*
Y0022027D01*
X0073447Y0022577D02*
Y0022027D01*
X0073357Y0022577D02*
Y0022027D01*
X0073267Y0022577D02*
Y0022027D01*
X0073177Y0022577D02*
Y0022027D01*
X0073087Y0022577D02*
Y0022027D01*
X0072997Y0022577D02*
Y0022027D01*
X0072907Y0022577D02*
Y0022027D01*
X0072817Y0022577D02*
Y0022027D01*
X0072727Y0022577D02*
Y0022027D01*
X0072637Y0022577D02*
Y0022027D01*
X0072547Y0022577D02*
Y0022027D01*
X0072457Y0022577D02*
Y0022027D01*
X0072367Y0022577D02*
Y0022027D01*
X0072277Y0022577D02*
Y0022027D01*
X0072187Y0022577D02*
Y0022027D01*
X0072097Y0022577D02*
Y0022027D01*
X0072007Y0022577D02*
Y0022027D01*
X0071917Y0022577D02*
Y0022027D01*
X0071827Y0022577D02*
Y0022027D01*
X0071737Y0022577D02*
Y0022027D01*
X0071647Y0022577D02*
Y0022027D01*
X0071557Y0022577D02*
Y0022027D01*
X0071467Y0022577D02*
Y0022027D01*
X0071377Y0022577D02*
Y0022027D01*
X0071287Y0022577D02*
Y0022027D01*
X0071197Y0022577D02*
Y0022027D01*
X0071107Y0022577D02*
Y0022027D01*
X0071017Y0022577D02*
Y0022027D01*
X0070927Y0022577D02*
Y0022027D01*
X0070837Y0022577D02*
Y0022027D01*
X0070747Y0022577D02*
Y0022027D01*
X0070657Y0022577D02*
Y0022027D01*
X0070567Y0022577D02*
Y0022027D01*
X0070477Y0022577D02*
Y0022027D01*
X0070387Y0022577D02*
Y0022027D01*
X0070297Y0022577D02*
Y0022027D01*
X0070207Y0022577D02*
Y0022027D01*
X0070117Y0022577D02*
Y0022027D01*
X0070027Y0022577D02*
Y0022027D01*
X0069937Y0022577D02*
Y0022027D01*
X0069847Y0022577D02*
Y0022027D01*
X0069757Y0022577D02*
Y0022027D01*
X0069667Y0022577D02*
Y0022027D01*
X0069577Y0022577D02*
Y0022027D01*
X0069487Y0022577D02*
Y0022027D01*
X0069397Y0022577D02*
Y0022027D01*
X0069307Y0022577D02*
Y0022027D01*
X0069217Y0022577D02*
Y0022027D01*
X0069127Y0022577D02*
Y0022027D01*
X0069037Y0022577D02*
Y0022027D01*
X0068947Y0022577D02*
Y0022027D01*
X0068857Y0022577D02*
Y0022027D01*
X0068767Y0022577D02*
Y0022027D01*
X0068677Y0022577D02*
Y0022027D01*
X0068587Y0022577D02*
Y0022027D01*
X0068497Y0022577D02*
Y0022027D01*
X0068407Y0022577D02*
Y0022027D01*
X0068317Y0022577D02*
Y0022027D01*
X0068227Y0022577D02*
Y0022027D01*
X0068137Y0022577D02*
Y0022027D01*
X0094636Y0022517D02*
X0068007D01*
X0081367Y0022577D02*
Y0022035D01*
X0094636Y0022337D02*
X0068007D01*
X0068047Y0022577D02*
Y0022027D01*
X0094636Y0022157D02*
X0068007D01*
X0084517Y0022577D02*
Y0022042D01*
X0084427Y0022577D02*
Y0022042D01*
X0084337Y0022577D02*
Y0022042D01*
X0084247Y0022577D02*
Y0022042D01*
X0084157Y0022577D02*
Y0022041D01*
X0084067Y0022577D02*
Y0022041D01*
X0083977Y0022577D02*
Y0022041D01*
X0083887Y0022577D02*
Y0022041D01*
X0083797Y0022577D02*
Y0022041D01*
X0083707Y0022577D02*
Y0022040D01*
X0083617Y0022577D02*
Y0022040D01*
X0083527Y0022577D02*
Y0022040D01*
X0083437Y0022577D02*
Y0022040D01*
X0083347Y0022577D02*
Y0022040D01*
X0083257Y0022577D02*
Y0022039D01*
X0083167Y0022577D02*
Y0022039D01*
X0083077Y0022577D02*
Y0022039D01*
X0082987Y0022577D02*
Y0022039D01*
X0082897Y0022577D02*
Y0022039D01*
X0082807Y0022577D02*
Y0022038D01*
X0082717Y0022577D02*
Y0022038D01*
X0082627Y0022577D02*
Y0022038D01*
X0082537Y0022577D02*
Y0022038D01*
X0082447Y0022577D02*
Y0022037D01*
X0082357Y0022577D02*
Y0022037D01*
X0082267Y0022577D02*
Y0022037D01*
X0082177Y0022577D02*
Y0022037D01*
X0082087Y0022577D02*
Y0022037D01*
X0081997Y0022577D02*
Y0022036D01*
X0081907Y0022577D02*
Y0022036D01*
X0081817Y0022577D02*
Y0022036D01*
X0081727Y0022577D02*
Y0022036D01*
X0081637Y0022577D02*
Y0022036D01*
X0081547Y0022577D02*
Y0022035D01*
X0081457Y0022577D02*
Y0022035D01*
X0094636Y0022247D02*
X0068007D01*
X0081277Y0022577D02*
Y0022035D01*
X0081187Y0022577D02*
Y0022035D01*
X0081097Y0022577D02*
Y0022034D01*
X0081007Y0022577D02*
Y0022034D01*
X0080917Y0022577D02*
Y0022034D01*
X0080827Y0022577D02*
Y0022034D01*
X0080737Y0022577D02*
Y0022034D01*
X0080647Y0022577D02*
Y0022033D01*
X0080557Y0022577D02*
Y0022033D01*
X0080467Y0022577D02*
Y0022033D01*
X0080377Y0022577D02*
Y0022033D01*
X0080287Y0022577D02*
Y0022032D01*
X0080197Y0022577D02*
Y0022032D01*
X0080107Y0022577D02*
Y0022032D01*
X0080017Y0022577D02*
Y0022032D01*
X0079927Y0022577D02*
Y0022032D01*
X0079837Y0022577D02*
Y0022031D01*
X0079747Y0022577D02*
Y0022031D01*
X0079657Y0022577D02*
Y0022031D01*
X0079567Y0022577D02*
Y0022031D01*
X0079477Y0022577D02*
Y0022031D01*
X0079387Y0022577D02*
Y0022030D01*
X0079297Y0022577D02*
Y0022030D01*
X0079207Y0022577D02*
Y0022030D01*
X0079117Y0022577D02*
Y0022030D01*
X0079027Y0022577D02*
Y0022030D01*
X0078937Y0022577D02*
Y0022029D01*
X0078847Y0022577D02*
Y0022029D01*
X0078757Y0022577D02*
Y0022029D01*
X0078667Y0022577D02*
Y0022029D01*
X0078577Y0022577D02*
Y0022028D01*
X0078487Y0022577D02*
Y0022028D01*
X0078397Y0022577D02*
Y0022028D01*
X0078307Y0022577D02*
Y0022028D01*
X0078217Y0022577D02*
Y0022028D01*
X0078127Y0022577D02*
Y0022027D01*
X0078037Y0022577D02*
Y0022027D01*
X0077947Y0022577D02*
Y0022027D01*
X0077857Y0022577D02*
Y0022027D01*
X0077767Y0022577D02*
Y0022027D01*
X0077677Y0022577D02*
Y0022027D01*
X0077587Y0022577D02*
Y0022027D01*
X0077497Y0022577D02*
Y0022027D01*
X0077407Y0022577D02*
Y0022027D01*
X0077317Y0022577D02*
Y0022027D01*
X0077227Y0022577D02*
Y0022027D01*
X0077137Y0022577D02*
Y0022027D01*
X0077047Y0022577D02*
Y0022027D01*
X0076957Y0022577D02*
Y0022027D01*
X0076867Y0022577D02*
Y0022027D01*
X0076777Y0022577D02*
Y0022027D01*
X0076687Y0022577D02*
Y0022027D01*
X0076597Y0022577D02*
Y0022027D01*
X0076507Y0022577D02*
Y0022027D01*
X0076417Y0022577D02*
Y0022027D01*
X0076327Y0022577D02*
Y0022027D01*
X0076237Y0022577D02*
Y0022027D01*
X0076147Y0022577D02*
Y0022027D01*
X0076057Y0022577D02*
Y0022027D01*
X0093067Y0022577D02*
Y0022062D01*
X0092977Y0022577D02*
Y0022062D01*
X0092887Y0022577D02*
Y0022062D01*
X0092797Y0022577D02*
Y0022062D01*
X0092707Y0022577D02*
Y0022061D01*
X0092617Y0022577D02*
Y0022061D01*
X0092527Y0022577D02*
Y0022061D01*
X0092437Y0022577D02*
Y0022061D01*
X0092347Y0022577D02*
Y0022061D01*
X0092257Y0022577D02*
Y0022060D01*
X0092167Y0022577D02*
Y0022060D01*
X0092077Y0022577D02*
Y0022060D01*
X0091987Y0022577D02*
Y0022060D01*
X0091897Y0022577D02*
Y0022059D01*
X0091807Y0022577D02*
Y0022059D01*
X0091717Y0022577D02*
Y0022059D01*
X0091627Y0022577D02*
Y0022059D01*
X0091537Y0022577D02*
Y0022059D01*
X0091447Y0022577D02*
Y0022058D01*
X0091357Y0022577D02*
Y0022058D01*
X0091267Y0022577D02*
Y0022058D01*
X0091177Y0022577D02*
Y0022058D01*
X0091087Y0022577D02*
Y0022058D01*
X0090997Y0022577D02*
Y0022057D01*
X0090907Y0022577D02*
Y0022057D01*
X0090817Y0022577D02*
Y0022057D01*
X0090727Y0022577D02*
Y0022057D01*
X0090637Y0022577D02*
Y0022057D01*
X0090547Y0022577D02*
Y0022056D01*
X0090457Y0022577D02*
Y0022056D01*
X0090367Y0022577D02*
Y0022056D01*
X0090277Y0022577D02*
Y0022056D01*
X0090187Y0022577D02*
Y0022055D01*
X0090097Y0022577D02*
Y0022055D01*
X0090007Y0022577D02*
Y0022055D01*
X0089917Y0022577D02*
Y0022055D01*
X0089827Y0022577D02*
Y0022055D01*
X0089737Y0022577D02*
Y0022054D01*
X0089647Y0022577D02*
Y0022054D01*
X0089557Y0022577D02*
Y0022054D01*
X0089467Y0022577D02*
Y0022054D01*
X0089377Y0022577D02*
Y0022054D01*
X0089287Y0022577D02*
Y0022053D01*
X0089197Y0022577D02*
Y0022053D01*
X0089107Y0022577D02*
Y0022053D01*
X0089017Y0022577D02*
Y0022053D01*
X0088927Y0022577D02*
Y0022053D01*
X0088837Y0022577D02*
Y0022052D01*
X0088747Y0022577D02*
Y0022052D01*
X0088657Y0022577D02*
Y0022052D01*
X0088567Y0022577D02*
Y0022052D01*
X0088477Y0022577D02*
Y0022052D01*
X0088387Y0022577D02*
Y0022051D01*
X0088297Y0022577D02*
Y0022051D01*
X0088207Y0022577D02*
Y0022051D01*
X0088117Y0022577D02*
Y0022051D01*
X0088027Y0022577D02*
Y0022050D01*
X0087937Y0022577D02*
Y0022050D01*
X0087847Y0022577D02*
Y0022050D01*
X0087757Y0022577D02*
Y0022050D01*
X0087667Y0022577D02*
Y0022050D01*
X0087577Y0022577D02*
Y0022049D01*
X0087487Y0022577D02*
Y0022049D01*
X0087397Y0022577D02*
Y0022049D01*
X0087307Y0022577D02*
Y0022049D01*
X0087217Y0022577D02*
Y0022049D01*
X0087127Y0022577D02*
Y0022048D01*
X0087037Y0022577D02*
Y0022048D01*
X0086947Y0022577D02*
Y0022048D01*
X0086857Y0022577D02*
Y0022048D01*
X0086767Y0022577D02*
Y0022048D01*
X0086677Y0022577D02*
Y0022047D01*
X0086587Y0022577D02*
Y0022047D01*
X0086497Y0022577D02*
Y0022047D01*
X0086407Y0022577D02*
Y0022047D01*
X0086317Y0022577D02*
Y0022046D01*
X0086227Y0022577D02*
Y0022046D01*
X0086137Y0022577D02*
Y0022046D01*
X0086047Y0022577D02*
Y0022046D01*
X0085957Y0022577D02*
Y0022046D01*
X0085867Y0022577D02*
Y0022045D01*
X0085777Y0022577D02*
Y0022045D01*
X0085687Y0022577D02*
Y0022045D01*
X0085597Y0022577D02*
Y0022045D01*
X0085507Y0022577D02*
Y0022045D01*
X0085417Y0022577D02*
Y0022044D01*
X0085327Y0022577D02*
Y0022044D01*
X0085237Y0022577D02*
Y0022044D01*
X0085147Y0022577D02*
Y0022044D01*
X0085057Y0022577D02*
Y0022044D01*
X0084967Y0022577D02*
Y0022043D01*
X0084877Y0022577D02*
Y0022043D01*
X0084787Y0022577D02*
Y0022043D01*
X0084697Y0022577D02*
Y0022043D01*
X0084607Y0022577D02*
Y0022043D01*
X0094636Y0022067D02*
X0068007D01*
X0077723Y0022027D02*
X0068007D01*
X0094636Y0022066D02*
X0077723Y0022027D01*
X0094636Y0022577D02*
Y0022066D01*
Y0022577D02*
X0068007D01*
Y0022027D01*
X0094636Y0022427D02*
X0068007D01*
X0094597Y0022577D02*
Y0022066D01*
X0094507Y0022577D02*
Y0022066D01*
X0094417Y0022577D02*
Y0022065D01*
X0094327Y0022577D02*
Y0022065D01*
X0094237Y0022577D02*
Y0022065D01*
X0094147Y0022577D02*
Y0022065D01*
X0094057Y0022577D02*
Y0022064D01*
X0093967Y0022577D02*
Y0022064D01*
X0093877Y0022577D02*
Y0022064D01*
X0093787Y0022577D02*
Y0022064D01*
X0093697Y0022577D02*
Y0022064D01*
X0093607Y0022577D02*
Y0022063D01*
X0093517Y0022577D02*
Y0022063D01*
X0093427Y0022577D02*
Y0022063D01*
X0093337Y0022577D02*
Y0022063D01*
X0093247Y0022577D02*
Y0022063D01*
X0093157Y0022577D02*
Y0022062D01*
X0092957Y0020356D02*
Y0009675D01*
X0096973D01*
Y0016340D01*
X0096981Y0020372D01*
X0092965D01*
X0079764Y0017588D02*
Y0020659D01*
X0083701D01*
Y0010541D01*
X0079764D01*
Y0017982D01*
X0084304Y0020356D02*
Y0009675D01*
X0088320D01*
Y0016340D01*
X0088328Y0020372D01*
X0084312D01*
X0088631Y0020356D02*
Y0009675D01*
X0092646D01*
Y0016340D01*
X0092654Y0020372D01*
X0088639D01*
X0026943Y0017377D02*
X0025685D01*
X0026943Y0017287D02*
X0025685D01*
X0026943Y0017197D02*
X0025685D01*
X0026943Y0017107D02*
X0025685D01*
X0026943Y0017017D02*
X0025685D01*
X0026943Y0016927D02*
X0025685D01*
X0026943Y0016837D02*
X0025685D01*
X0026943Y0016747D02*
X0025685D01*
X0026943Y0016657D02*
X0025685D01*
X0026943Y0016567D02*
X0025685D01*
X0026943Y0016477D02*
X0025685D01*
X0026943Y0016387D02*
X0025685D01*
X0026943Y0016297D02*
X0025685D01*
X0026943Y0016207D02*
X0025685D01*
X0026943Y0016117D02*
X0025685D01*
X0026943Y0016027D02*
X0025685D01*
X0026943Y0015937D02*
X0025685D01*
X0026943Y0015847D02*
X0025685D01*
X0026943Y0015757D02*
X0025685D01*
X0026943Y0015667D02*
X0025685D01*
X0026943Y0015577D02*
X0025685D01*
X0026943Y0015487D02*
X0025685D01*
X0026943Y0015397D02*
X0025685D01*
X0026943Y0015307D02*
X0025685D01*
X0026943Y0015217D02*
X0025685D01*
X0026943Y0015127D02*
X0025685D01*
X0026943Y0015037D02*
X0025685D01*
X0026805Y0018644D02*
Y0014907D01*
X0026715Y0018644D02*
Y0014907D01*
X0026625Y0018644D02*
Y0014907D01*
X0026535Y0018644D02*
Y0014907D01*
X0026445Y0018644D02*
Y0014907D01*
X0026355Y0018644D02*
Y0014907D01*
X0026265Y0018644D02*
Y0014907D01*
X0026175Y0018644D02*
Y0014907D01*
X0026085Y0018644D02*
Y0014907D01*
X0025995Y0018644D02*
Y0014907D01*
X0025905Y0018644D02*
Y0014907D01*
X0025815Y0018644D02*
Y0014907D01*
X0025725Y0018644D02*
Y0014907D01*
X0026943Y0018547D02*
X0025685D01*
X0026943Y0018457D02*
X0025685D01*
X0026943Y0018367D02*
X0025685D01*
X0026943Y0018277D02*
X0025685D01*
X0026943Y0018187D02*
X0025685D01*
X0026943Y0018097D02*
X0025685D01*
X0026943Y0018007D02*
X0025685D01*
X0026943Y0017917D02*
X0025685D01*
X0026943Y0017827D02*
X0025685D01*
X0026943Y0017737D02*
X0025685D01*
X0026943Y0017647D02*
X0025685D01*
X0026943Y0017557D02*
X0025685D01*
X0026943Y0017467D02*
X0025685D01*
X0026943Y0014947D02*
X0025685D01*
X0026943Y0018644D02*
X0025685D01*
X0026943D02*
Y0014907D01*
X0025685D01*
Y0018644D02*
Y0014907D01*
X0026895Y0018644D02*
Y0014907D01*
X0089611Y0039749D02*
Y0041643D01*
X0087639D01*
X0087635Y0041230D01*
X0087639Y0037679D01*
X0089611D01*
Y0039797D01*
X0089650Y0044548D02*
Y0046442D01*
X0087678D01*
X0087674Y0046028D01*
X0087678Y0042477D01*
X0089650D01*
Y0044595D01*
G54D64*
G01X0047099Y0016960D02*
Y0015458D01*
X0046413D01*
Y0016962D01*
X0047088Y0016963D02*
X0046419D01*
X0045576Y0017981D02*
Y0017312D01*
X0045580Y0017992D02*
X0047082D01*
Y0017307D01*
X0045578D01*
X0062894Y0013924D02*
Y0014711D01*
X0063681D01*
Y0013924D01*
X0062894D01*
X0039884Y0012075D02*
Y0012862D01*
X0040671D01*
Y0012075D01*
X0039884D01*
X0060444Y0018532D02*
Y0017863D01*
X0067691Y0011203D02*
Y0011873D01*
X0067688Y0011193D02*
X0066186D01*
Y0011878D01*
X0067690D01*
X0064106Y0011883D02*
X0065608D01*
Y0011198D01*
X0064104D01*
X0064103Y0011873D02*
Y0011203D01*
X0064028Y0013559D02*
X0064698D01*
X0064018Y0013563D02*
Y0015065D01*
X0064703D01*
Y0013561D01*
X0068709Y0012379D02*
X0069379D01*
X0068699Y0012383D02*
Y0013885D01*
X0069384D01*
Y0012381D01*
X0114327Y0026083D02*
X0112355D01*
Y0023957D01*
X0115245D01*
X0115237Y0024689D01*
Y0026083D01*
X0114233D01*
X0060448Y0018543D02*
X0061950D01*
Y0017857D01*
X0060446D01*
X0111136Y0026011D02*
Y0023893D01*
X0112120D01*
Y0026015D01*
X0111144D01*
X0111175Y0025228D02*
X0112085D01*
X0113291Y0020290D02*
Y0020959D01*
X0113287Y0020279D02*
X0111785D01*
Y0020965D01*
X0113289D01*
X0068485Y0013895D02*
X0067816D01*
X0068496Y0013892D02*
Y0012390D01*
X0067811D01*
Y0013894D01*
X0062136Y0013773D02*
Y0013103D01*
X0062139Y0013783D02*
X0063641D01*
Y0013098D01*
X0062137D01*
X0062139Y0012918D02*
X0063641D01*
Y0012233D01*
X0062137D01*
X0062136Y0012907D02*
Y0012238D01*
X0064067Y0009889D02*
X0065569D01*
Y0009204D01*
X0064065D01*
X0064063Y0009879D02*
Y0009209D01*
X0066427Y0008827D02*
X0067929D01*
Y0008142D01*
X0066425D01*
X0066423Y0008817D02*
Y0008147D01*
X0049135Y0045885D02*
X0047633D01*
Y0046571D01*
X0049137D01*
X0100075Y0045817D02*
Y0046487D01*
X0100071Y0045807D02*
X0098569D01*
Y0046492D01*
X0100073D01*
X0112619Y0045885D02*
X0111117D01*
Y0046571D01*
X0112621D01*
X0112622Y0045896D02*
Y0046565D01*
X0049138Y0045896D02*
Y0046565D01*
X0113005Y0027218D02*
X0113044D01*
Y0029187D01*
X0112178D01*
Y0027218D01*
X0113005D01*
X0097420Y0027677D02*
X0108459D01*
Y0016677D01*
X0097447D01*
Y0027669D01*
X0059281Y0012401D02*
X0058612D01*
X0059292Y0012397D02*
Y0010895D01*
X0058607D01*
Y0012399D01*
X0058160Y0020887D02*
Y0022389D01*
X0058846D01*
Y0020885D01*
X0058171Y0020883D02*
X0058840D01*
X0064582Y0018523D02*
X0065252D01*
X0064572Y0018527D02*
Y0020029D01*
X0065257D01*
Y0018525D01*
X0064609Y0021561D02*
Y0020891D01*
X0064612Y0021571D02*
X0066114D01*
Y0020886D01*
X0064610D01*
X0062803Y0021571D02*
X0064305D01*
Y0020886D01*
X0062801D01*
X0062799Y0021561D02*
Y0020891D01*
X0065437Y0018527D02*
Y0020029D01*
X0066122D01*
Y0018525D01*
X0065447Y0018523D02*
X0066117D01*
X0060448Y0017677D02*
X0061950D01*
Y0016992D01*
X0060446D01*
X0060444Y0017667D02*
Y0016997D01*
X0063638Y0018523D02*
X0064308D01*
X0063628Y0018527D02*
Y0020029D01*
X0064313D01*
Y0018525D01*
X0059074Y0022366D02*
X0060576D01*
Y0021681D01*
X0059072D01*
X0059071Y0022355D02*
Y0021686D01*
X0063414Y0020039D02*
X0062745D01*
X0063425Y0020036D02*
Y0018534D01*
X0062740D01*
Y0020038D01*
X0060876Y0022004D02*
X0062378D01*
Y0021319D01*
X0060874D01*
X0060872Y0021993D02*
Y0021324D01*
X0059071Y0019641D02*
Y0018972D01*
X0059074Y0019652D02*
X0060576D01*
Y0018967D01*
X0059072D01*
X0043792Y0006835D02*
Y0006012D01*
X0042996D01*
Y0008729D01*
X0043794D01*
Y0006575D01*
X0105452Y0032174D02*
Y0032962D01*
X0106240D01*
Y0032174D01*
X0105452D01*
X0045036Y0020414D02*
Y0021201D01*
X0045824D01*
Y0020414D01*
X0045036D01*
X0057958Y0022357D02*
Y0020855D01*
X0057272D01*
Y0022359D01*
X0057947Y0022360D02*
X0057278D01*
X0050554Y0013013D02*
Y0013683D01*
X0050551Y0013003D02*
X0049049D01*
Y0013688D01*
X0050553D01*
X0034848Y0007369D02*
Y0008038D01*
X0034845Y0007358D02*
X0033343D01*
Y0008044D01*
X0034847D01*
X0051257Y0017042D02*
X0050588D01*
X0051268Y0017039D02*
Y0015537D01*
X0050583D01*
Y0017041D01*
X0049711Y0015526D02*
X0050381D01*
X0049701Y0015529D02*
Y0017031D01*
X0050386D01*
Y0015527D01*
X0055667Y0017576D02*
Y0018245D01*
X0055664Y0017565D02*
X0054162D01*
Y0018251D01*
X0055666D01*
X0053640Y0011452D02*
Y0010783D01*
X0053643Y0011463D02*
X0055145D01*
Y0010777D01*
X0053641D01*
X0039884Y0008968D02*
Y0009755D01*
X0040671D01*
Y0008968D01*
X0039884D01*
X0020217Y0008653D02*
Y0009440D01*
X0021004D01*
Y0008653D01*
X0020217D01*
X0037524Y0008457D02*
X0037484D01*
Y0006488D01*
X0038350D01*
Y0008457D01*
X0037524D01*
X0032017Y0033905D02*
Y0034692D01*
X0032804D01*
Y0033905D01*
X0032017D01*
X0024466Y0006962D02*
X0024505D01*
Y0008930D01*
X0023639D01*
Y0006962D01*
X0024466D01*
X0063866Y0008895D02*
Y0008226D01*
X0063870Y0008906D02*
X0065372D01*
Y0008221D01*
X0063868D01*
X0067703Y0010181D02*
Y0010851D01*
X0067857Y0016228D02*
X0066355D01*
Y0016913D01*
X0067859D01*
X0067861Y0016238D02*
Y0016908D01*
X0064496Y0016919D02*
Y0016250D01*
X0067700Y0010171D02*
X0066198D01*
Y0010856D01*
X0067702D01*
X0035006Y0007355D02*
Y0008142D01*
X0035794D01*
Y0007355D01*
X0035006D01*
X0024819Y0005192D02*
Y0005979D01*
X0025606D01*
Y0005192D01*
X0024819D01*
X0033236Y0010777D02*
Y0011564D01*
X0034024D01*
Y0010777D01*
X0033236D01*
X0106033Y0008354D02*
Y0007999D01*
X0105037D01*
Y0013987D01*
X0106033D01*
Y0008342D01*
X0030012Y0006175D02*
X0030051D01*
Y0008143D01*
X0029185D01*
Y0006175D01*
X0030012D01*
X0113005Y0030326D02*
X0113044D01*
Y0032294D01*
X0112178D01*
Y0030326D01*
X0113005D01*
X0064067Y0010873D02*
X0065569D01*
Y0010187D01*
X0064065D01*
X0064063Y0010862D02*
Y0010193D01*
X0015852Y0007001D02*
X0015891D01*
Y0008969D01*
X0015025D01*
Y0007001D01*
X0015852D01*
X0038512Y0046509D02*
X0040014D01*
Y0045824D01*
X0038510D01*
X0038508Y0046498D02*
Y0045829D01*
X0031041Y0045846D02*
X0029539D01*
Y0046531D01*
X0031043D01*
X0031045Y0045856D02*
Y0046526D01*
X0044137Y0038302D02*
Y0037369D01*
X0042011D01*
Y0040053D01*
X0042007Y0040073D01*
X0044137D01*
Y0038207D01*
X0036251Y0036821D02*
X0034278D01*
Y0034695D01*
X0037168D01*
X0037160Y0035427D01*
Y0036821D01*
X0036156D01*
X0050150Y0038586D02*
Y0038626D01*
X0048182D01*
Y0037760D01*
X0050150D01*
Y0038586D01*
X0049638Y0039648D02*
Y0039608D01*
X0051607D01*
Y0040474D01*
X0049638D01*
Y0039648D01*
Y0041300D02*
Y0041260D01*
X0051607D01*
Y0042126D01*
X0049638D01*
Y0041300D01*
X0045115Y0042244D02*
Y0042284D01*
X0043147D01*
Y0041418D01*
X0045115D01*
Y0042244D01*
X0049899Y0037253D02*
X0047927D01*
Y0035128D01*
X0050817D01*
X0050809Y0035860D01*
Y0037253D01*
X0049805D01*
X0044998Y0043030D02*
X0045037D01*
Y0044999D01*
X0044171D01*
Y0043030D01*
X0044998D01*
X0047672Y0043621D02*
Y0044054D01*
X0045782D01*
Y0043266D01*
X0047672D01*
Y0043660D01*
X0047711Y0045273D02*
Y0045312D01*
X0045743D01*
Y0044446D01*
X0047711D01*
Y0045273D01*
X0047200Y0035124D02*
X0047240D01*
Y0037093D01*
X0046374D01*
Y0035124D01*
X0047200D01*
X0098318Y0034947D02*
Y0035857D01*
X0027336Y0021555D02*
X0027297D01*
Y0019586D01*
X0028163D01*
Y0021555D01*
X0027336D01*
X0106029Y0013003D02*
X0105033D01*
X0097709Y0037712D02*
Y0036779D01*
X0095583D01*
Y0039463D01*
X0095579Y0039483D01*
X0097709D01*
Y0037617D01*
X0061110Y0014655D02*
X0060114D01*
X0045980Y0018526D02*
Y0019313D01*
X0046768D01*
Y0018526D01*
X0045980D01*
X0040725Y0020277D02*
Y0019367D01*
X0058151Y0018573D02*
Y0017071D01*
X0057466D01*
Y0018575D01*
X0113005Y0017817D02*
X0113045D01*
Y0019786D01*
X0112179D01*
Y0017817D01*
X0113005D01*
Y0014985D02*
X0113045D01*
Y0016954D01*
X0112179D01*
Y0014985D01*
X0113005D01*
X0034848Y0006504D02*
Y0007173D01*
X0031177Y0037529D02*
X0029204D01*
Y0035403D01*
X0032094D01*
X0032086Y0036135D01*
Y0037529D01*
X0031082D01*
X0030326Y0008850D02*
Y0009007D01*
X0028988D01*
Y0008456D01*
X0030326D01*
Y0008929D01*
X0037956Y0038861D02*
Y0038822D01*
X0039925D01*
Y0039688D01*
X0037956D01*
Y0038861D01*
X0019824Y0007001D02*
X0019864D01*
Y0008969D01*
X0018998D01*
Y0007001D01*
X0019824D01*
X0016520Y0008968D02*
X0016480D01*
Y0007000D01*
X0017346D01*
Y0008968D01*
X0016520D01*
X0058141Y0018576D02*
X0057471D01*
X0110290Y0044250D02*
Y0044210D01*
X0112259D01*
Y0045076D01*
X0110290D01*
Y0044250D01*
X0111510Y0039136D02*
Y0039097D01*
X0113478D01*
Y0039963D01*
X0111510D01*
Y0039136D01*
X0030759Y0019156D02*
Y0019195D01*
X0028790D01*
Y0018329D01*
X0030759D01*
Y0019156D01*
X0104750Y0014664D02*
Y0007239D01*
X0115994D01*
Y0014672D01*
X0104746D01*
X0026590Y0043424D02*
X0026629D01*
Y0045392D01*
X0025763D01*
Y0043424D01*
X0026590D01*
X0089877Y0035282D02*
Y0035322D01*
X0087908D01*
Y0034456D01*
X0089877D01*
Y0035282D01*
X0109072Y0043187D02*
X0109111D01*
Y0045156D01*
X0108245D01*
Y0043187D01*
X0109072D01*
X0037524Y0012508D02*
X0037564D01*
Y0014476D01*
X0036698D01*
Y0012508D01*
X0037524D01*
X0109110Y0036304D02*
Y0036265D01*
X0111079D01*
Y0037131D01*
X0109110D01*
Y0036304D01*
X0112297Y0043306D02*
Y0043739D01*
X0110407D01*
Y0042952D01*
X0112297D01*
Y0043345D01*
X0045273Y0014632D02*
X0045312D01*
Y0016600D01*
X0044446D01*
Y0014632D01*
X0045273D01*
X0039019Y0043542D02*
Y0043975D01*
X0037129D01*
Y0043188D01*
X0039019D01*
Y0043581D01*
X0037524Y0015772D02*
X0037564D01*
Y0017741D01*
X0036698D01*
Y0015772D01*
X0037524D01*
X0044184Y0016330D02*
Y0018413D01*
X0041586D01*
Y0014586D01*
X0044180D01*
Y0016507D01*
X0036436Y0015661D02*
Y0017744D01*
X0033837D01*
Y0013917D01*
X0036432D01*
Y0015838D01*
X0028634Y0021555D02*
X0028595D01*
Y0019586D01*
X0029461D01*
Y0021555D01*
X0028634D01*
X0041733Y0006568D02*
X0041890D01*
Y0007907D01*
X0041339D01*
Y0006568D01*
X0041811D01*
X0034692Y0037130D02*
Y0037091D01*
X0036660D01*
Y0037957D01*
X0034692D01*
Y0037130D01*
X0051176Y0015255D02*
Y0013818D01*
X0055310D01*
Y0015259D01*
X0051176D01*
X0099317Y0042834D02*
Y0042874D01*
X0097348D01*
Y0042008D01*
X0099317D01*
Y0042834D01*
X0027219Y0042874D02*
Y0042913D01*
X0025250D01*
Y0042047D01*
X0027219D01*
Y0042874D01*
X0039458Y0013805D02*
X0039065D01*
Y0017597D01*
X0039462D01*
Y0013813D01*
X0025999Y0039530D02*
X0025960D01*
Y0037562D01*
X0026826D01*
Y0039530D01*
X0025999D01*
X0101323Y0043581D02*
Y0044014D01*
X0099433D01*
Y0043227D01*
X0101323D01*
Y0043621D01*
X0098136Y0038901D02*
X0098097D01*
Y0036932D01*
X0098963D01*
Y0038901D01*
X0098136D01*
X0034845Y0006493D02*
X0033343D01*
Y0007178D01*
X0034847D01*
X0101637Y0037602D02*
Y0037563D01*
X0103605D01*
Y0038429D01*
X0101637D01*
Y0037602D01*
X0030995Y0019588D02*
X0031034D01*
Y0021556D01*
X0030168D01*
Y0019588D01*
X0030995D01*
X0090113Y0032017D02*
X0090152D01*
Y0033985D01*
X0089286D01*
Y0032017D01*
X0090113D01*
X0042547Y0035655D02*
X0044664D01*
Y0036639D01*
X0042543D01*
Y0035663D01*
X0099395Y0044446D02*
Y0044407D01*
X0101363D01*
Y0045273D01*
X0099395D01*
Y0044446D01*
X0037956Y0040513D02*
Y0040474D01*
X0039925D01*
Y0041340D01*
X0037956D01*
Y0040513D01*
X0052849Y0007070D02*
X0053203D01*
Y0006074D01*
X0047215D01*
Y0007070D01*
X0052861D01*
X0048199Y0007066D02*
Y0006070D01*
X0102817Y0039018D02*
Y0038979D01*
X0104785D01*
Y0039845D01*
X0102817D01*
Y0039018D01*
X0029697Y0043581D02*
Y0044014D01*
X0027807D01*
Y0043227D01*
X0029697D01*
Y0043621D01*
X0037484Y0008968D02*
Y0008928D01*
X0039453D01*
Y0009794D01*
X0037484D01*
Y0008968D01*
X0032057Y0038744D02*
Y0038783D01*
X0030088D01*
Y0037917D01*
X0032057D01*
Y0038744D01*
X0030523Y0014829D02*
Y0014868D01*
X0028554D01*
Y0014002D01*
X0030523D01*
Y0014829D01*
X0047514Y0009755D02*
X0047475D01*
Y0007786D01*
X0048341D01*
Y0009755D01*
X0047514D01*
X0061114Y0009994D02*
Y0015639D01*
X0060118D01*
Y0007553D01*
X0061114D01*
Y0010006D01*
X0056994Y0020886D02*
X0056207D01*
Y0021673D01*
X0056994D01*
Y0020886D01*
X0020729Y0007040D02*
X0020886D01*
Y0008379D01*
X0020335D01*
Y0007040D01*
X0020807D01*
X0031230Y0039136D02*
Y0039097D01*
X0033199D01*
Y0039963D01*
X0031230D01*
Y0039136D01*
X0057275Y0018576D02*
X0056606D01*
X0036620Y0043424D02*
X0036659D01*
Y0045392D01*
X0035793D01*
Y0043424D01*
X0036620D01*
X0031230Y0040867D02*
Y0040828D01*
X0033199D01*
Y0041694D01*
X0031230D01*
Y0040867D01*
X0034456Y0012547D02*
Y0012508D01*
X0036424D01*
Y0013374D01*
X0034456D01*
Y0012547D01*
X0032844Y0015694D02*
X0032883D01*
Y0017662D01*
X0032017D01*
Y0015694D01*
X0032844D01*
X0064499Y0016930D02*
X0066001D01*
Y0016245D01*
X0064497D01*
X0111510Y0037445D02*
Y0037406D01*
X0113478D01*
Y0038272D01*
X0111510D01*
Y0037445D01*
X0040159Y0008457D02*
X0040120D01*
Y0006488D01*
X0040986D01*
Y0008457D01*
X0040159D01*
X0028674Y0035675D02*
X0028714D01*
Y0037643D01*
X0027848D01*
Y0035675D01*
X0028674D01*
X0029736Y0045352D02*
Y0045391D01*
X0027768D01*
Y0044525D01*
X0029736D01*
Y0045352D01*
X0091135Y0032568D02*
X0091293D01*
Y0033906D01*
X0090742D01*
Y0032568D01*
X0091214D01*
X0025397Y0035616D02*
X0027515D01*
Y0036600D01*
X0025393D01*
Y0035624D01*
X0044564Y0039137D02*
X0044525D01*
Y0037168D01*
X0045391D01*
Y0039137D01*
X0044564D01*
X0041509Y0020316D02*
X0039391D01*
Y0019332D01*
X0041513D01*
Y0020308D01*
X0102817Y0040749D02*
Y0040710D01*
X0104785D01*
Y0041576D01*
X0102817D01*
Y0040749D01*
X0103550Y0037017D02*
X0101578D01*
Y0034892D01*
X0104467D01*
X0104459Y0035624D01*
Y0037017D01*
X0103455D01*
X0039058Y0045194D02*
Y0045234D01*
X0037090D01*
Y0044368D01*
X0039058D01*
Y0045194D01*
X0111023Y0035955D02*
X0109051D01*
Y0033830D01*
X0111941D01*
X0111933Y0034562D01*
Y0035955D01*
X0110929D01*
X0102856Y0008142D02*
X0102817D01*
Y0006174D01*
X0103683D01*
Y0008142D01*
X0102856D01*
X0057286Y0018573D02*
Y0017071D01*
X0056601D01*
Y0018575D01*
X0110213Y0042520D02*
Y0042559D01*
X0108245D01*
Y0041693D01*
X0110213D01*
Y0042520D01*
X0036619Y0042992D02*
Y0043031D01*
X0034651D01*
Y0042165D01*
X0036619D01*
Y0042992D01*
X0031192Y0015694D02*
X0031231D01*
Y0017662D01*
X0030365D01*
Y0015694D01*
X0031192D01*
X0088776Y0032056D02*
X0088815D01*
Y0034025D01*
X0087949D01*
Y0032056D01*
X0088776D01*
X0044525Y0007001D02*
Y0006962D01*
X0046493D01*
Y0007828D01*
X0044525D01*
Y0007001D01*
X0025611Y0038734D02*
Y0037801D01*
X0023485D01*
Y0040486D01*
X0023481Y0040506D01*
X0025611D01*
Y0038640D01*
X0098334Y0043424D02*
X0098373D01*
Y0045392D01*
X0097507D01*
Y0043424D01*
X0098334D01*
X0038900Y0008457D02*
X0038861D01*
Y0006488D01*
X0039727D01*
Y0008457D01*
X0038900D01*
X0018566Y0007001D02*
X0018605D01*
Y0008969D01*
X0017739D01*
Y0007001D01*
X0018566D01*
X0043330Y0035695D02*
Y0036604D01*
X0100930Y0035006D02*
X0100969D01*
Y0036975D01*
X0100103D01*
Y0035006D01*
X0100930D01*
X0046492Y0009598D02*
Y0009637D01*
X0044524D01*
Y0008771D01*
X0046492D01*
Y0009598D01*
X0033877Y0019772D02*
Y0018193D01*
X0038609D01*
Y0022914D01*
X0033877D01*
Y0019449D01*
X0026180Y0035655D02*
Y0036565D01*
X0097535Y0034908D02*
X0099652D01*
Y0035892D01*
X0097531D01*
Y0034916D01*
X0066226Y0009800D02*
Y0009131D01*
X0066230Y0009811D02*
X0067732D01*
Y0009125D01*
X0066228D01*
G54D68*
G01X0005528Y0027366D02*
Y0019464D01*
X0013173D01*
Y0027366D01*
X0005524D01*
X0005528Y0041840D02*
Y0033939D01*
X0013173D01*
Y0041840D01*
X0005524D01*
X0065372Y0013506D02*
Y0014476D01*
X0065122Y0014256D02*
Y0013506D01*
X0067122D01*
Y0014472D01*
X0065128D01*
Y0014476D01*
X0065124Y0014429D01*
X0065122Y0014256D01*
X0114019Y0022736D02*
Y0023036D01*
X0113759D01*
X0113079D02*
X0112819D01*
Y0022736D01*
X0112769D01*
X0072807Y0019750D02*
X0072532D01*
X0072528Y0019746D01*
Y0011797D01*
X0078976D01*
Y0019750D01*
X0072721D01*
X0113587Y0028850D02*
X0113831Y0029012D01*
X0114117Y0029069D01*
X0114403Y0029012D01*
X0114647Y0028850D01*
Y0027790D02*
X0114403Y0027628D01*
X0114117Y0027571D01*
X0113831Y0027628D01*
X0113587Y0027790D01*
X0051762Y0008645D02*
X0051462D01*
Y0008385D01*
Y0007705D02*
Y0007445D01*
X0051762D01*
Y0007395D01*
X0060076Y0020252D02*
Y0019992D01*
X0060376D01*
Y0019942D01*
Y0021192D02*
X0060076D01*
Y0020932D01*
X0114648Y0019175D02*
X0114404Y0019014D01*
X0114118Y0018957D01*
X0113832Y0019014D01*
X0113588Y0019175D01*
Y0020235D02*
X0113832Y0020397D01*
X0114118Y0020454D01*
X0114404Y0020397D01*
X0114648Y0020235D01*
X0113588Y0017561D02*
X0113832Y0017723D01*
X0114118Y0017780D01*
X0114404Y0017723D01*
X0114648Y0017561D01*
Y0016501D02*
X0114404Y0016339D01*
X0114118Y0016282D01*
X0113832Y0016339D01*
X0113588Y0016501D01*
X0114628Y0030366D02*
X0114384Y0030204D01*
X0114098Y0030147D01*
X0113812Y0030204D01*
X0113568Y0030366D01*
Y0031426D02*
X0113812Y0031588D01*
X0114098Y0031645D01*
X0114384Y0031588D01*
X0114628Y0031426D01*
X0049520Y0015174D02*
X0049220D01*
Y0014914D01*
Y0014234D02*
Y0013974D01*
X0049520D01*
Y0013924D01*
X0022527Y0012154D02*
Y0013383D01*
X0006827D01*
Y0010253D01*
X0022527D01*
Y0012186D01*
Y0015419D02*
Y0016647D01*
X0006827D01*
Y0013517D01*
X0022527D01*
Y0015450D01*
X0091489Y0045481D02*
Y0045231D01*
Y0040957D02*
Y0040707D01*
X0090989D02*
Y0038457D01*
X0091489D01*
X0091989D01*
Y0040707D01*
X0091489D01*
X0090989D01*
X0090349Y0038207D02*
Y0038457D01*
X0090309Y0042731D02*
Y0042981D01*
X0089809Y0045231D02*
Y0042981D01*
X0090309D01*
X0090809D01*
Y0045231D01*
X0090309D01*
X0089809D01*
X0090309Y0045481D02*
Y0045231D01*
X0090349Y0040957D02*
Y0040707D01*
X0089849D02*
Y0038457D01*
X0090349D01*
X0090849D01*
Y0040707D01*
X0090349D01*
X0089849D01*
X0047261Y0039162D02*
X0048011D01*
Y0041162D01*
X0047045D01*
Y0039168D01*
X0047041D01*
X0047088Y0039164D01*
X0047261Y0039162D01*
X0048011Y0039412D02*
X0047041D01*
X0045825Y0048075D02*
X0050025D01*
Y0045825D01*
X0045825D01*
Y0048075D01*
X0018527D02*
X0022727D01*
Y0045825D01*
X0018527D01*
Y0048075D01*
X0022727Y0047525D02*
X0018527D01*
X0036660Y0048075D02*
X0040860D01*
Y0045825D01*
X0036660D01*
Y0048075D01*
X0109230D02*
X0113430D01*
Y0045825D01*
X0109230D01*
Y0048075D01*
X0113430Y0047525D02*
X0109230D01*
X0031892D02*
X0027692D01*
X0096565Y0048075D02*
X0100765D01*
Y0045825D01*
X0096565D01*
Y0048075D01*
X0050025Y0047525D02*
X0045825D01*
X0100765D02*
X0096565D01*
X0040860D02*
X0036660D01*
X0029760Y0039451D02*
X0028791D01*
X0029010Y0039201D02*
X0029760D01*
Y0041201D01*
X0028794D01*
Y0039207D01*
X0028791D01*
X0028838Y0039203D01*
X0029010Y0039201D01*
X0101310Y0039017D02*
X0100340D01*
X0100560Y0038767D02*
X0101310D01*
Y0040767D01*
X0100344D01*
Y0038773D01*
X0100340D01*
X0100387Y0038769D01*
X0100560Y0038767D01*
X0051520Y0013862D02*
Y0015240D01*
X0091489Y0038207D02*
Y0038457D01*
Y0042731D02*
Y0042981D01*
X0090989Y0045231D02*
Y0042981D01*
X0091489D01*
X0091989D01*
Y0045231D01*
X0091489D01*
X0090989D01*
X0026961Y0014894D02*
Y0018894D01*
X0024461D01*
Y0014894D01*
X0026961D01*
X0024461Y0018644D02*
X0026961D01*
X0027692Y0048075D02*
X0031892D01*
Y0045825D01*
X0027692D01*
Y0048075D01*
X0109386Y0039033D02*
Y0040003D01*
X0109136Y0039783D02*
Y0039033D01*
X0111136D01*
Y0039999D01*
X0109142D01*
Y0040003D01*
X0109138Y0039956D01*
X0109136Y0039783D01*
X0035675Y0039505D02*
Y0040475D01*
X0035425Y0040255D02*
Y0039505D01*
X0037425D01*
Y0040471D01*
X0035431D01*
Y0040475D01*
X0035427Y0040428D01*
X0035425Y0040255D01*
G54D73*
G01X0088067Y0048183D02*
X0115837D01*
Y0060416D01*
X0088067D01*
Y0048183D01*
X0013019Y0060495D02*
Y0048105D01*
X0052392D01*
Y0060495D01*
X0013019D01*
G01X0043091Y0008998D02*
G03X0043158Y0009065I0000000J0000067D01*
G01X0043024D02*
G03X0043091Y0008998I0000067J0000000D01*
Y0009132D02*
G03X0043024Y0009065I0000000J0000067D01*
G01X0043158D02*
G03X0043091Y0009132I0000067J0000000D01*
G54D120*
G01X0046491Y0043306D02*
Y0044014D01*
X0029499Y0008496D02*
Y0008968D01*
X0111116Y0042991D02*
Y0043699D01*
X0037838Y0043227D02*
Y0043935D01*
X0041378Y0007395D02*
X0041851D01*
X0100142Y0043266D02*
Y0043975D01*
X0028516Y0043266D02*
Y0043975D01*
X0020374Y0007867D02*
X0020847D01*
X0090781Y0033394D02*
X0091253D01*
G54D121*
G01X0048528Y0016023D02*
X0048265D01*
X0048528Y0016286D01*
Y0016351D01*
X0048495Y0016417D01*
X0048298D01*
X0048265Y0016351D01*
X0047839Y0016023D02*
X0048035Y0016417D01*
X0047773D01*
X0047445Y0016220D02*
X0047543Y0016023D01*
X0047281Y0016220D02*
X0047478D01*
X0047543Y0016286D01*
Y0016351D01*
X0047478Y0016417D01*
X0047281D01*
Y0016023D01*
X0048445Y0017440D02*
X0048314D01*
X0048379D02*
Y0017834D01*
X0048314Y0017768D01*
X0047822Y0017440D02*
X0048018Y0017834D01*
X0047756D01*
X0047428Y0017637D02*
X0047526Y0017440D01*
X0047264Y0017637D02*
X0047461D01*
X0047526Y0017702D01*
Y0017768D01*
X0047461Y0017834D01*
X0047264D01*
Y0017440D01*
X0048323Y0018669D02*
Y0019193D01*
X0048279Y0018669D02*
X0048542D01*
X0048629Y0018844D01*
Y0019018D01*
X0048542Y0019193D01*
X0048279D01*
X0048038D02*
Y0018669D01*
X0047951Y0018756D01*
X0047776Y0019106D01*
X0047688Y0019193D01*
Y0018669D01*
X0047273Y0018931D02*
X0047448D01*
Y0018756D01*
X0047404Y0018669D01*
X0047141D01*
X0047098Y0018756D01*
Y0019106D01*
X0047141Y0019193D01*
X0047404D01*
X0047448Y0019106D01*
X0062447Y0014639D02*
X0062622D01*
X0062666Y0014726D01*
Y0015164D01*
X0062403D01*
X0062360Y0015076D01*
Y0014901D01*
X0062403Y0014814D01*
X0062666D01*
X0062119Y0015339D02*
Y0015164D01*
X0061944Y0014814D01*
X0061769Y0015164D01*
Y0015339D01*
X0041386Y0012528D02*
X0041649D01*
X0041692Y0012441D01*
Y0012266D01*
X0041649Y0012179D01*
X0041386D01*
Y0012703D01*
X0041146Y0012179D02*
X0040971D01*
X0041058D02*
Y0012703D01*
X0041146D02*
X0040971D01*
X0111510Y0005867D02*
X0111707D01*
X0111740Y0005802D01*
Y0005736D01*
X0111707Y0005671D01*
X0111510D01*
X0111477Y0005736D01*
Y0005802D01*
X0111609Y0006064D01*
X0111084Y0005671D02*
X0111018Y0005736D01*
X0110985Y0005802D01*
Y0005933D01*
X0111018Y0005999D01*
X0111084Y0006064D01*
X0111149D01*
X0111215Y0005999D01*
X0111248Y0005933D01*
Y0005802D01*
X0111215Y0005736D01*
X0111149Y0005671D01*
X0111084D01*
X0110755Y0005736D02*
X0110723Y0005671D01*
X0110526D01*
X0110493Y0005736D01*
Y0005999D01*
X0110526Y0006064D01*
X0110723D01*
X0110755Y0005999D01*
X0110263Y0005867D02*
X0110001D01*
X0110263Y0005671D02*
Y0006064D01*
X0110001Y0005671D02*
Y0006064D01*
X0109066Y0005867D02*
X0108869D01*
X0109131Y0005671D02*
X0108869D01*
Y0006064D01*
X0109131D01*
X0108639Y0005671D02*
X0108409D01*
Y0006064D01*
X0108180D02*
Y0005736D01*
X0108147Y0005671D01*
X0107950D01*
X0107917Y0005736D01*
Y0006064D01*
X0107458Y0005671D02*
Y0006064D01*
X0107425Y0005671D02*
X0107622D01*
X0107688Y0005802D01*
Y0005933D01*
X0107622Y0006064D01*
X0107425D01*
X0106966Y0005671D02*
X0106933Y0005736D01*
Y0005999D01*
X0106966Y0006064D01*
X0107163D01*
X0107195Y0005999D01*
Y0005736D01*
X0107163Y0005671D01*
X0106966D01*
X0106703D02*
Y0006064D01*
X0106638Y0005999D01*
X0106572Y0005867D01*
X0106506Y0005999D01*
X0106441Y0006064D01*
Y0005671D01*
X0105440D02*
Y0006064D01*
X0105571D02*
X0105309D01*
X0104849Y0005671D02*
Y0006064D01*
X0104817Y0005671D02*
X0105013D01*
X0105079Y0005736D01*
Y0005802D01*
X0105046Y0005867D01*
X0104849D02*
X0105046D01*
X0105079Y0005933D01*
Y0005999D01*
X0105013Y0006064D01*
X0104817D01*
X0101599Y0011610D02*
X0101336D01*
X0101599Y0011872D01*
Y0011938D01*
X0101566Y0012004D01*
X0101369D01*
X0101336Y0011938D01*
X0101106D02*
X0101074Y0012004D01*
X0100877D01*
X0100844Y0011938D01*
Y0011872D01*
X0100877Y0011807D01*
X0101074D01*
X0101106Y0011741D01*
Y0011675D01*
X0101074Y0011610D01*
X0100877D01*
X0100844Y0011675D01*
X0101690Y0014835D02*
X0101559D01*
X0101625D02*
Y0015229D01*
X0101559Y0015163D01*
X0101264D02*
X0101231Y0015229D01*
X0101034D01*
X0101001Y0015163D01*
Y0015098D01*
X0101034Y0015032D01*
X0101231D01*
X0101264Y0014966D01*
Y0014901D01*
X0101231Y0014835D01*
X0101034D01*
X0101001Y0014901D01*
X0074763Y0007559D02*
X0074533D01*
Y0007952D01*
X0074303Y0007690D02*
X0074041D01*
X0074303Y0007559D02*
Y0007755D01*
X0074205Y0007952D01*
X0074139D01*
X0074041Y0007755D01*
Y0007559D01*
X0073713Y0007755D02*
X0073811Y0007559D01*
X0073549Y0007755D02*
X0073745D01*
X0073811Y0007821D01*
Y0007887D01*
X0073745Y0007952D01*
X0073549D01*
Y0007559D01*
X0073188D02*
Y0007952D01*
X0073319D02*
X0073056D01*
X0072827D02*
Y0007624D01*
X0072794Y0007559D01*
X0072597D01*
X0072564Y0007624D01*
Y0007952D01*
X0072269Y0007755D02*
X0072072D01*
X0072335Y0007559D02*
X0072072D01*
Y0007952D01*
X0072335D01*
X0071842D02*
Y0007559D01*
X0071777Y0007624D01*
X0071646Y0007887D01*
X0071580Y0007952D01*
Y0007559D01*
X0072422Y0010378D02*
X0072225D01*
X0072192Y0010312D01*
Y0010181D01*
X0072225Y0010115D01*
X0072422D01*
X0071766Y0010378D02*
X0071897D01*
X0071930Y0010312D01*
Y0010181D01*
X0071962Y0010115D01*
X0071733D01*
X0071700Y0010181D01*
X0071733Y0010246D01*
X0071930D01*
X0071470Y0010509D02*
Y0010378D01*
X0071339Y0010115D01*
X0071208Y0010378D01*
Y0010509D01*
X0070814Y0010115D02*
X0070748Y0010181D01*
X0070716Y0010246D01*
Y0010378D01*
X0070748Y0010443D01*
X0070814Y0010509D01*
X0070880D01*
X0070945Y0010443D01*
X0070978Y0010378D01*
Y0010246D01*
X0070945Y0010181D01*
X0070880Y0010115D01*
X0070814D01*
X0070486D02*
X0070223D01*
X0070486Y0010378D01*
Y0010443D01*
X0070453Y0010509D01*
X0070256D01*
X0070223Y0010443D01*
X0069994Y0010115D02*
X0069731D01*
X0069994Y0010378D01*
Y0010443D01*
X0069961Y0010509D01*
X0069764D01*
X0069731Y0010443D01*
X0074664Y0020486D02*
X0074467D01*
X0074434Y0020421D01*
Y0020289D01*
X0074467Y0020224D01*
X0074664D01*
X0074008Y0020486D02*
X0074139D01*
X0074172Y0020421D01*
Y0020289D01*
X0074204Y0020224D01*
X0073975D01*
X0073942Y0020289D01*
X0073975Y0020355D01*
X0074172D01*
X0073712Y0020618D02*
Y0020486D01*
X0073581Y0020224D01*
X0073450Y0020486D01*
Y0020618D01*
X0073056Y0020224D02*
X0072990Y0020289D01*
X0072958Y0020355D01*
Y0020486D01*
X0072990Y0020552D01*
X0073056Y0020618D01*
X0073122D01*
X0073187Y0020552D01*
X0073220Y0020486D01*
Y0020355D01*
X0073187Y0020289D01*
X0073122Y0020224D01*
X0073056D01*
X0072465Y0020289D02*
X0072531Y0020224D01*
X0072662D01*
X0072728Y0020289D01*
Y0020355D01*
X0072597Y0020486D01*
X0072728Y0020618D01*
X0072465D01*
X0072236Y0020224D02*
X0071973D01*
X0072236Y0020486D01*
Y0020552D01*
X0072203Y0020618D01*
X0072006D01*
X0071973Y0020552D01*
X0041254Y0020535D02*
X0040992D01*
X0041254Y0020798D01*
Y0020863D01*
X0041222Y0020929D01*
X0041025D01*
X0040992Y0020863D01*
X0040763Y0020535D02*
X0040631D01*
X0040697D02*
Y0020929D01*
X0040631Y0020863D01*
X0040107Y0020535D02*
Y0020929D01*
X0040074Y0020535D02*
X0040271D01*
X0040336Y0020667D01*
Y0020798D01*
X0040271Y0020929D01*
X0040074D01*
X0064374Y0015286D02*
X0064407Y0015220D01*
X0064604D01*
X0064637Y0015286D01*
Y0015417D01*
X0064571Y0015483D01*
X0064374D01*
Y0015614D01*
X0064637D01*
X0064144Y0015352D02*
X0063882D01*
X0064013Y0015614D01*
X0064079D01*
Y0015220D01*
X0063652Y0015286D02*
X0063619Y0015220D01*
X0063423D01*
X0063390Y0015286D01*
Y0015548D01*
X0063423Y0015614D01*
X0063619D01*
X0063652Y0015548D01*
X0068516Y0015066D02*
X0068385D01*
X0068450D02*
Y0015459D01*
X0068385Y0015394D01*
X0068089Y0015066D02*
X0067958D01*
X0068024D02*
Y0015459D01*
X0067958Y0015394D01*
X0067663Y0015459D02*
Y0015131D01*
X0067630Y0015066D01*
X0067433D01*
X0067400Y0015131D01*
Y0015459D01*
X0067577Y0017068D02*
X0067446D01*
X0067512D02*
Y0017462D01*
X0067446Y0017396D01*
X0066888Y0017134D02*
X0066921Y0017068D01*
X0067118D01*
X0067151Y0017134D01*
Y0017265D01*
X0067085Y0017331D01*
X0066888D01*
Y0017462D01*
X0067151D01*
X0066560Y0017265D02*
X0066659Y0017068D01*
X0066396Y0017265D02*
X0066593D01*
X0066659Y0017331D01*
Y0017396D01*
X0066593Y0017462D01*
X0066396D01*
Y0017068D01*
X0065614Y0017086D02*
X0065548Y0017152D01*
X0065515Y0017217D01*
Y0017348D01*
X0065548Y0017414D01*
X0065614Y0017480D01*
X0065680D01*
X0065745Y0017414D01*
X0065778Y0017348D01*
Y0017217D01*
X0065745Y0017152D01*
X0065680Y0017086D01*
X0065614D01*
X0065023Y0017152D02*
X0065056Y0017086D01*
X0065253D01*
X0065286Y0017152D01*
Y0017283D01*
X0065220Y0017348D01*
X0065023D01*
Y0017480D01*
X0065286D01*
X0064695Y0017283D02*
X0064794Y0017086D01*
X0064531Y0017283D02*
X0064728D01*
X0064794Y0017348D01*
Y0017414D01*
X0064728Y0017480D01*
X0064531D01*
Y0017086D01*
X0070622Y0013057D02*
X0070818D01*
X0070851Y0012992D01*
Y0012926D01*
X0070818Y0012860D01*
X0070622D01*
X0070589Y0012926D01*
Y0012992D01*
X0070720Y0013254D01*
X0070359Y0012992D02*
X0070097D01*
X0070228Y0013254D01*
X0070293D01*
Y0012860D01*
X0069867Y0012926D02*
X0069834Y0012860D01*
X0069637D01*
X0069604Y0012926D01*
Y0013188D01*
X0069637Y0013254D01*
X0069834D01*
X0069867Y0013188D01*
X0075012Y0008608D02*
X0075078Y0008543D01*
X0075209D01*
X0075275Y0008608D01*
Y0008674D01*
X0075144Y0008805D01*
X0075275Y0008936D01*
X0075012D01*
X0074783Y0008543D02*
X0074651D01*
X0074717D02*
Y0008936D01*
X0074651Y0008871D01*
X0074356Y0008936D02*
Y0008543D01*
X0074290Y0008608D01*
X0074159Y0008871D01*
X0074094Y0008936D01*
Y0008543D01*
X0073634D02*
X0073601Y0008608D01*
Y0008871D01*
X0073634Y0008936D01*
X0073831D01*
X0073864Y0008871D01*
Y0008608D01*
X0073831Y0008543D01*
X0073634D01*
X0073372Y0008608D02*
X0073339Y0008543D01*
X0073142D01*
X0073109Y0008608D01*
Y0008871D01*
X0073142Y0008936D01*
X0073339D01*
X0073372Y0008871D01*
X0078591Y0021011D02*
X0078395D01*
X0078362Y0021077D01*
Y0021143D01*
X0078395Y0021208D01*
X0078591D01*
X0078624Y0021143D01*
Y0021077D01*
X0078493Y0020815D01*
X0078132Y0021208D02*
Y0020815D01*
X0078066Y0020880D01*
X0077935Y0021143D01*
X0077870Y0021208D01*
Y0020815D01*
X0077410D02*
X0077377Y0020880D01*
Y0021143D01*
X0077410Y0021208D01*
X0077607D01*
X0077640Y0021143D01*
Y0020880D01*
X0077607Y0020815D01*
X0077410D01*
X0077148Y0020880D02*
X0077115Y0020815D01*
X0076918D01*
X0076885Y0020880D01*
Y0021143D01*
X0076918Y0021208D01*
X0077115D01*
X0077148Y0021143D01*
X0114179Y0026440D02*
X0113982D01*
X0113949Y0026505D01*
Y0026571D01*
X0113982Y0026637D01*
X0114179D01*
X0114211Y0026571D01*
Y0026505D01*
X0114080Y0026243D01*
X0113719D02*
X0113457D01*
X0113719Y0026505D01*
Y0026571D01*
X0113686Y0026637D01*
X0113490D01*
X0113457Y0026571D01*
X0113227Y0026309D02*
X0113194Y0026243D01*
X0112997D01*
X0112965Y0026309D01*
Y0026571D01*
X0112997Y0026637D01*
X0113194D01*
X0113227Y0026571D01*
X0110813Y0024629D02*
X0110681D01*
X0110747D02*
Y0025023D01*
X0110681Y0024957D01*
X0110386Y0024629D02*
X0110255D01*
X0110321D02*
Y0025023D01*
X0110255Y0024957D01*
X0109730Y0024629D02*
Y0025023D01*
X0109697Y0024629D02*
X0109894D01*
X0109960Y0024760D01*
Y0024892D01*
X0109894Y0025023D01*
X0109697D01*
X0112568Y0021395D02*
X0112371D01*
X0112338Y0021461D01*
Y0021526D01*
X0112371Y0021592D01*
X0112568D01*
X0112601Y0021526D01*
Y0021461D01*
X0112470Y0021198D01*
X0111846Y0021264D02*
X0111912Y0021198D01*
X0112043D01*
X0112109Y0021264D01*
Y0021330D01*
X0111978Y0021461D01*
X0112109Y0021592D01*
X0111846D01*
X0111518Y0021395D02*
X0111617Y0021198D01*
X0111354Y0021395D02*
X0111551D01*
X0111617Y0021461D01*
Y0021526D01*
X0111551Y0021592D01*
X0111354D01*
Y0021198D01*
X0112291Y0022591D02*
X0112488D01*
X0112521Y0022525D01*
Y0022460D01*
X0112488Y0022394D01*
X0112291D01*
X0112258Y0022460D01*
Y0022525D01*
X0112390Y0022788D01*
X0111799Y0022525D02*
Y0022460D01*
X0111832Y0022394D01*
X0111963D01*
X0111996Y0022460D01*
Y0022788D01*
X0112029D02*
X0111898D01*
X0073072Y0010981D02*
X0072810D01*
X0073072Y0011244D01*
Y0011309D01*
X0073039Y0011375D01*
X0072842D01*
X0072810Y0011309D01*
X0072580Y0010981D02*
X0072449D01*
X0072514D02*
Y0011375D01*
X0072449Y0011309D01*
X0072153Y0011375D02*
Y0010981D01*
X0072088Y0011047D01*
X0071957Y0011309D01*
X0071891Y0011375D01*
Y0010981D01*
X0071432D02*
X0071399Y0011047D01*
Y0011309D01*
X0071432Y0011375D01*
X0071628D01*
X0071661Y0011309D01*
Y0011047D01*
X0071628Y0010981D01*
X0071432D01*
X0071169Y0011047D02*
X0071136Y0010981D01*
X0070939D01*
X0070907Y0011047D01*
Y0011309D01*
X0070939Y0011375D01*
X0071136D01*
X0071169Y0011309D01*
X0072030Y0013931D02*
X0071833D01*
X0071800Y0013996D01*
Y0014062D01*
X0071833Y0014128D01*
X0072030D01*
X0072062Y0014062D01*
Y0013996D01*
X0071931Y0013734D01*
X0071570Y0014128D02*
Y0013799D01*
X0071537Y0013734D01*
X0071341D01*
X0071308Y0013799D01*
Y0014128D01*
X0068443Y0014162D02*
X0068476Y0014096D01*
X0068673D01*
X0068706Y0014162D01*
Y0014293D01*
X0068640Y0014358D01*
X0068443D01*
Y0014490D01*
X0068706D01*
X0067951Y0014162D02*
X0067984Y0014096D01*
X0068181D01*
X0068213Y0014162D01*
Y0014293D01*
X0068148Y0014358D01*
X0067951D01*
Y0014490D01*
X0068213D01*
X0067623Y0014293D02*
X0067721Y0014096D01*
X0067459Y0014293D02*
X0067656D01*
X0067721Y0014358D01*
Y0014424D01*
X0067656Y0014490D01*
X0067459D01*
Y0014096D01*
X0062671Y0014031D02*
X0062408D01*
X0062539Y0014294D01*
X0062605D01*
Y0013900D01*
X0062178Y0014031D02*
X0061916D01*
X0062047Y0014294D01*
X0062113D01*
Y0013900D01*
X0061686Y0013966D02*
X0061653Y0013900D01*
X0061457D01*
X0061424Y0013966D01*
Y0014228D01*
X0061457Y0014294D01*
X0061653D01*
X0061686Y0014228D01*
X0065109Y0012615D02*
X0064847D01*
X0064978Y0012878D01*
X0065044D01*
Y0012484D01*
X0064355Y0012550D02*
X0064387Y0012484D01*
X0064584D01*
X0064617Y0012550D01*
Y0012681D01*
X0064551Y0012746D01*
X0064355D01*
Y0012878D01*
X0064617D01*
X0064027Y0012681D02*
X0064125Y0012484D01*
X0063862Y0012681D02*
X0064059D01*
X0064125Y0012746D01*
Y0012812D01*
X0064059Y0012878D01*
X0063862D01*
Y0012484D01*
X0067548Y0007528D02*
X0067745Y0007922D01*
X0067482D01*
X0067023Y0007725D02*
X0067220D01*
X0067252Y0007659D01*
Y0007594D01*
X0067220Y0007528D01*
X0067023D01*
X0066990Y0007594D01*
Y0007659D01*
X0067121Y0007922D01*
X0066662Y0007725D02*
X0066760Y0007528D01*
X0066498Y0007725D02*
X0066695D01*
X0066760Y0007790D01*
Y0007856D01*
X0066695Y0007922D01*
X0066498D01*
Y0007528D01*
X0063464Y0008551D02*
X0063660D01*
X0063693Y0008485D01*
Y0008420D01*
X0063660Y0008354D01*
X0063464D01*
X0063431Y0008420D01*
Y0008485D01*
X0063562Y0008748D01*
X0062971Y0008551D02*
X0063168D01*
X0063201Y0008485D01*
Y0008420D01*
X0063168Y0008354D01*
X0062971D01*
X0062939Y0008420D01*
Y0008485D01*
X0063070Y0008748D01*
X0062611Y0008551D02*
X0062709Y0008354D01*
X0062446Y0008551D02*
X0062643D01*
X0062709Y0008616D01*
Y0008682D01*
X0062643Y0008748D01*
X0062446D01*
Y0008354D01*
X0069463Y0021453D02*
X0069201D01*
X0069332Y0021716D01*
X0069398D01*
Y0021322D01*
X0068971Y0021716D02*
Y0021388D01*
X0068938Y0021322D01*
X0068741D01*
X0068709Y0021388D01*
Y0021716D01*
X0070979Y0018350D02*
X0071242D01*
X0068280Y0018144D02*
Y0018407D01*
X0068149Y0018276D02*
X0068411D01*
X0006294Y0011410D02*
X0006031D01*
X0006294Y0011672D01*
Y0011738D01*
X0006261Y0011804D01*
X0006064D01*
X0006031Y0011738D01*
X0005736Y0011607D02*
X0005539D01*
Y0011410D02*
Y0011804D01*
X0005802D01*
X0048638Y0045336D02*
X0048703Y0045270D01*
X0048834D01*
X0048900Y0045336D01*
Y0045402D01*
X0048769Y0045533D01*
X0048900Y0045664D01*
X0048638D01*
X0048310Y0045467D02*
X0048408Y0045270D01*
X0048145Y0045467D02*
X0048342D01*
X0048408Y0045533D01*
Y0045598D01*
X0048342Y0045664D01*
X0048145D01*
Y0045270D01*
X0101489Y0045795D02*
X0101226D01*
X0101358Y0046057D01*
X0101423D01*
Y0045664D01*
X0100898Y0045861D02*
X0100997Y0045664D01*
X0100734Y0045861D02*
X0100931D01*
X0100997Y0045926D01*
Y0045992D01*
X0100931Y0046057D01*
X0100734D01*
Y0045664D01*
X0114246Y0046201D02*
X0114278Y0046136D01*
X0114475D01*
X0114508Y0046201D01*
Y0046333D01*
X0114442Y0046398D01*
X0114246D01*
Y0046529D01*
X0114508D01*
X0113918Y0046333D02*
X0114016Y0046136D01*
X0113753Y0046333D02*
X0113950D01*
X0114016Y0046398D01*
Y0046464D01*
X0113950Y0046529D01*
X0113753D01*
Y0046136D01*
X0095525Y0009093D02*
X0095328D01*
X0095295Y0009158D01*
Y0009224D01*
X0095328Y0009290D01*
X0095525D01*
X0095558Y0009224D01*
Y0009158D01*
X0095426Y0008896D01*
X0095066Y0009027D02*
X0094803D01*
X0094935Y0009290D01*
X0095000D01*
Y0008896D01*
X0094574Y0008961D02*
X0094541Y0008896D01*
X0094344D01*
X0094311Y0008961D01*
Y0009224D01*
X0094344Y0009290D01*
X0094541D01*
X0094574Y0009224D01*
X0111740Y0027579D02*
X0111609D01*
X0111674D02*
Y0027972D01*
X0111609Y0027907D01*
X0111051Y0027644D02*
X0111116Y0027579D01*
X0111248D01*
X0111313Y0027644D01*
Y0027710D01*
X0111182Y0027841D01*
X0111313Y0027972D01*
X0111051D01*
X0110723Y0027775D02*
X0110821Y0027579D01*
X0110559Y0027775D02*
X0110755D01*
X0110821Y0027841D01*
Y0027907D01*
X0110755Y0027972D01*
X0110559D01*
Y0027579D01*
X0115478Y0029034D02*
X0115216D01*
X0115478Y0029296D01*
Y0029362D01*
X0115445Y0029428D01*
X0115248D01*
X0115216Y0029362D01*
X0114986Y0029428D02*
Y0029100D01*
X0114953Y0029034D01*
X0114756D01*
X0114723Y0029100D01*
Y0029428D01*
X0082530Y0009710D02*
X0082596Y0009644D01*
X0082727D01*
X0082793Y0009710D01*
Y0009775D01*
X0082662Y0009906D01*
X0082793Y0010038D01*
X0082530D01*
X0082235Y0009841D02*
X0082038D01*
Y0009644D02*
Y0010038D01*
X0082301D01*
X0090727Y0009014D02*
X0090760Y0009080D01*
Y0009145D01*
X0090727Y0009211D01*
X0090530D01*
X0090497Y0009145D01*
Y0009080D01*
X0090530Y0009014D01*
X0090727D01*
X0090760Y0008948D01*
Y0008883D01*
X0090727Y0008817D01*
X0090530D01*
X0090497Y0008883D01*
Y0008948D01*
X0090530Y0009014D01*
X0090267Y0008948D02*
X0090005D01*
X0090136Y0009211D01*
X0090202D01*
Y0008817D01*
X0089775Y0008883D02*
X0089742Y0008817D01*
X0089546D01*
X0089513Y0008883D01*
Y0009145D01*
X0089546Y0009211D01*
X0089742D01*
X0089775Y0009145D01*
X0087101Y0008778D02*
X0087298Y0009172D01*
X0087036D01*
X0086806Y0008909D02*
X0086544D01*
X0086675Y0009172D01*
X0086740D01*
Y0008778D01*
X0086314Y0008843D02*
X0086281Y0008778D01*
X0086084D01*
X0086051Y0008843D01*
Y0009106D01*
X0086084Y0009172D01*
X0086281D01*
X0086314Y0009106D01*
X0096265Y0023415D02*
X0096462Y0023808D01*
X0096199D01*
X0095970Y0023415D02*
X0095740D01*
Y0023808D01*
X0058807Y0012641D02*
X0058675D01*
X0058741D02*
Y0013034D01*
X0058675Y0012969D01*
X0058118Y0012706D02*
X0058150Y0012641D01*
X0058347D01*
X0058380Y0012706D01*
Y0012838D01*
X0058314Y0012903D01*
X0058118D01*
Y0013034D01*
X0058380D01*
X0057888Y0012706D02*
X0057855Y0012641D01*
X0057658D01*
X0057625Y0012706D01*
Y0012969D01*
X0057658Y0013034D01*
X0057855D01*
X0057888Y0012969D01*
X0059787Y0014035D02*
X0059754Y0013970D01*
X0059558D01*
X0059525Y0014035D01*
Y0014298D01*
X0059558Y0014364D01*
X0059754D01*
X0059787Y0014298D01*
X0059295Y0014364D02*
Y0013970D01*
X0059229Y0014035D01*
X0059098Y0014298D01*
X0059033Y0014364D01*
Y0013970D01*
X0059827Y0013170D02*
X0059794Y0013105D01*
X0059597D01*
X0059564Y0013170D01*
Y0013433D01*
X0059597Y0013498D01*
X0059794D01*
X0059827Y0013433D01*
X0059334Y0013498D02*
Y0013105D01*
X0059269Y0013170D01*
X0059138Y0013433D01*
X0059072Y0013498D01*
Y0013105D01*
X0058122Y0011925D02*
Y0012318D01*
X0058090Y0011925D02*
X0058286D01*
X0058352Y0012056D01*
Y0012187D01*
X0058286Y0012318D01*
X0058090D01*
X0057630Y0011925D02*
Y0012318D01*
X0057597Y0011925D02*
X0057794D01*
X0057860Y0012056D01*
Y0012187D01*
X0057794Y0012318D01*
X0057597D01*
X0057368D02*
Y0012187D01*
X0057237Y0011925D01*
X0057105Y0012187D01*
Y0012318D01*
X0058313Y0011387D02*
X0058280Y0011453D01*
X0058083D01*
X0058050Y0011387D01*
Y0011322D01*
X0058083Y0011256D01*
X0058280D01*
X0058313Y0011190D01*
Y0011125D01*
X0058280Y0011059D01*
X0058083D01*
X0058050Y0011125D01*
X0057821Y0011387D02*
X0057788Y0011453D01*
X0057591D01*
X0057558Y0011387D01*
Y0011322D01*
X0057591Y0011256D01*
X0057788D01*
X0057821Y0011190D01*
Y0011125D01*
X0057788Y0011059D01*
X0057591D01*
X0057558Y0011125D01*
X0057328Y0011453D02*
Y0011322D01*
X0057197Y0011059D01*
X0057066Y0011322D01*
Y0011453D01*
X0059873Y0007991D02*
Y0008385D01*
X0060004D02*
X0059742D01*
X0059512Y0008319D02*
X0059479Y0008385D01*
X0059282D01*
X0059249Y0008319D01*
Y0008254D01*
X0059282Y0008188D01*
X0059479D01*
X0059512Y0008122D01*
Y0008057D01*
X0059479Y0007991D01*
X0059282D01*
X0059249Y0008057D01*
X0058921Y0008188D02*
X0059020Y0007991D01*
X0058757Y0008188D02*
X0058954D01*
X0059020Y0008254D01*
Y0008319D01*
X0058954Y0008385D01*
X0058757D01*
Y0007991D01*
X0103540Y0008582D02*
X0103474Y0008647D01*
X0103442Y0008713D01*
Y0008844D01*
X0103474Y0008910D01*
X0103540Y0008976D01*
X0103606D01*
X0103671Y0008910D01*
X0103704Y0008844D01*
Y0008713D01*
X0103671Y0008647D01*
X0103606Y0008582D01*
X0103540D01*
X0102982Y0008779D02*
X0103179D01*
X0103212Y0008713D01*
Y0008647D01*
X0103179Y0008582D01*
X0102982D01*
X0102949Y0008647D01*
Y0008713D01*
X0103081Y0008976D01*
X0102720Y0008647D02*
X0102687Y0008582D01*
X0102490D01*
X0102457Y0008647D01*
Y0008910D01*
X0102490Y0008976D01*
X0102687D01*
X0102720Y0008910D01*
X0058102Y0022521D02*
X0057970D01*
X0058036D02*
Y0022915D01*
X0057970Y0022849D01*
X0057413Y0022587D02*
X0057478Y0022521D01*
X0057609D01*
X0057675Y0022587D01*
Y0022653D01*
X0057544Y0022784D01*
X0057675Y0022915D01*
X0057413D01*
X0057183Y0022587D02*
X0057150Y0022521D01*
X0056953D01*
X0056920Y0022587D01*
Y0022849D01*
X0056953Y0022915D01*
X0057150D01*
X0057183Y0022849D01*
X0059212Y0020342D02*
X0058949D01*
X0059212Y0020604D01*
Y0020670D01*
X0059179Y0020735D01*
X0058982D01*
X0058949Y0020670D01*
X0058457Y0020407D02*
X0058523Y0020342D01*
X0058654D01*
X0058719Y0020407D01*
Y0020473D01*
X0058588Y0020604D01*
X0058719Y0020735D01*
X0058457D01*
X0058129Y0020539D02*
X0058227Y0020342D01*
X0057965Y0020539D02*
X0058162D01*
X0058227Y0020604D01*
Y0020670D01*
X0058162Y0020735D01*
X0057965D01*
Y0020342D01*
X0066528Y0018113D02*
X0066265D01*
X0066396Y0018375D01*
X0066462D01*
Y0017982D01*
X0066035Y0018113D02*
X0065773D01*
X0065904Y0018375D01*
X0065970D01*
Y0017982D01*
X0065445Y0018179D02*
X0065543Y0017982D01*
X0065281Y0018179D02*
X0065478D01*
X0065543Y0018244D01*
Y0018310D01*
X0065478Y0018375D01*
X0065281D01*
Y0017982D01*
X0065203Y0020329D02*
X0065269Y0020263D01*
X0065400D01*
X0065466Y0020329D01*
Y0020394D01*
X0065334Y0020525D01*
X0065466Y0020657D01*
X0065203D01*
X0064973Y0020394D02*
X0064711D01*
X0064842Y0020657D01*
X0064908D01*
Y0020263D01*
X0064383Y0020460D02*
X0064481Y0020263D01*
X0064219Y0020460D02*
X0064416D01*
X0064481Y0020525D01*
Y0020591D01*
X0064416Y0020657D01*
X0064219D01*
Y0020263D01*
X0065858Y0021964D02*
X0065891Y0022029D01*
Y0022095D01*
X0065858Y0022160D01*
X0065661D01*
X0065628Y0022095D01*
Y0022029D01*
X0065661Y0021964D01*
X0065858D01*
X0065891Y0021898D01*
Y0021832D01*
X0065858Y0021767D01*
X0065661D01*
X0065628Y0021832D01*
Y0021898D01*
X0065661Y0021964D01*
X0065136Y0021832D02*
X0065202Y0021767D01*
X0065333D01*
X0065399Y0021832D01*
Y0021898D01*
X0065268Y0022029D01*
X0065399Y0022160D01*
X0065136D01*
X0064808Y0021964D02*
X0064907Y0021767D01*
X0064644Y0021964D02*
X0064841D01*
X0064907Y0022029D01*
Y0022095D01*
X0064841Y0022160D01*
X0064644D01*
Y0021767D01*
X0063924D02*
X0064121Y0022160D01*
X0063858D01*
X0063366Y0021832D02*
X0063432Y0021767D01*
X0063563D01*
X0063629Y0021832D01*
Y0021898D01*
X0063498Y0022029D01*
X0063629Y0022160D01*
X0063366D01*
X0063038Y0021964D02*
X0063137Y0021767D01*
X0062874Y0021964D02*
X0063071D01*
X0063137Y0022029D01*
Y0022095D01*
X0063071Y0022160D01*
X0062874D01*
Y0021767D01*
X0051796Y0008733D02*
X0051533D01*
X0051665Y0008995D01*
X0051730D01*
Y0008602D01*
X0051304D02*
X0051173D01*
X0051238D02*
Y0008995D01*
X0051173Y0008930D01*
X0050648Y0008733D02*
Y0008667D01*
X0050680Y0008602D01*
X0050812D01*
X0050844Y0008667D01*
Y0008995D01*
X0050877D02*
X0050746D01*
X0060238Y0017283D02*
X0060271Y0017348D01*
Y0017414D01*
X0060238Y0017480D01*
X0060042D01*
X0060009Y0017414D01*
Y0017348D01*
X0060042Y0017283D01*
X0060238D01*
X0060271Y0017217D01*
Y0017152D01*
X0060238Y0017086D01*
X0060042D01*
X0060009Y0017152D01*
Y0017217D01*
X0060042Y0017283D01*
X0059779Y0017217D02*
X0059517D01*
X0059648Y0017480D01*
X0059713D01*
Y0017086D01*
X0059189Y0017283D02*
X0059287Y0017086D01*
X0059024Y0017283D02*
X0059221D01*
X0059287Y0017348D01*
Y0017414D01*
X0059221Y0017480D01*
X0059024D01*
Y0017086D01*
X0069072Y0010382D02*
X0068941D01*
X0069006D02*
Y0010775D01*
X0068941Y0010710D01*
X0068416Y0010579D02*
X0068613D01*
X0068645Y0010513D01*
Y0010447D01*
X0068613Y0010382D01*
X0068416D01*
X0068383Y0010447D01*
Y0010513D01*
X0068514Y0010775D01*
X0068055Y0010579D02*
X0068153Y0010382D01*
X0067891Y0010579D02*
X0068088D01*
X0068153Y0010644D01*
Y0010710D01*
X0068088Y0010775D01*
X0067891D01*
Y0010382D01*
X0062154Y0022331D02*
X0061892D01*
X0062023Y0022593D01*
X0062089D01*
Y0022199D01*
X0061400Y0022265D02*
X0061465Y0022199D01*
X0061596D01*
X0061662Y0022265D01*
Y0022331D01*
X0061531Y0022462D01*
X0061662Y0022593D01*
X0061400D01*
X0061072Y0022396D02*
X0061170Y0022199D01*
X0060907Y0022396D02*
X0061104D01*
X0061170Y0022462D01*
Y0022527D01*
X0061104Y0022593D01*
X0060907D01*
Y0022199D01*
X0064797Y0017942D02*
X0064534D01*
X0064797Y0018205D01*
Y0018270D01*
X0064764Y0018336D01*
X0064567D01*
X0064534Y0018270D01*
X0064305Y0018074D02*
X0064042D01*
X0064174Y0018336D01*
X0064239D01*
Y0017942D01*
X0063714Y0018139D02*
X0063813Y0017942D01*
X0063550Y0018139D02*
X0063747D01*
X0063813Y0018205D01*
Y0018270D01*
X0063747Y0018336D01*
X0063550D01*
Y0017942D01*
X0060090Y0022588D02*
X0060156Y0022522D01*
X0060287D01*
X0060353Y0022588D01*
Y0022653D01*
X0060222Y0022784D01*
X0060353Y0022916D01*
X0060090D01*
X0059598Y0022588D02*
X0059664Y0022522D01*
X0059795D01*
X0059861Y0022588D01*
Y0022653D01*
X0059730Y0022784D01*
X0059861Y0022916D01*
X0059598D01*
X0059270Y0022719D02*
X0059369Y0022522D01*
X0059106Y0022719D02*
X0059303D01*
X0059369Y0022784D01*
Y0022850D01*
X0059303Y0022916D01*
X0059106D01*
Y0022522D01*
X0063490Y0020279D02*
X0063359D01*
X0063425D02*
Y0020673D01*
X0063359Y0020607D01*
X0063064Y0020411D02*
X0062801D01*
X0062933Y0020673D01*
X0062998D01*
Y0020279D01*
X0062473Y0020476D02*
X0062572Y0020279D01*
X0062309Y0020476D02*
X0062506D01*
X0062572Y0020542D01*
Y0020607D01*
X0062506Y0020673D01*
X0062309D01*
Y0020279D01*
X0058898Y0019061D02*
X0058635D01*
X0058898Y0019323D01*
Y0019389D01*
X0058865Y0019454D01*
X0058668D01*
X0058635Y0019389D01*
X0058143Y0019126D02*
X0058209Y0019061D01*
X0058340D01*
X0058405Y0019126D01*
Y0019192D01*
X0058274Y0019323D01*
X0058405Y0019454D01*
X0058143D01*
X0057913Y0019126D02*
X0057880Y0019061D01*
X0057684D01*
X0057651Y0019126D01*
Y0019389D01*
X0057684Y0019454D01*
X0057880D01*
X0057913Y0019389D01*
X0044104Y0005368D02*
X0043841D01*
X0044104Y0005630D01*
Y0005696D01*
X0044071Y0005761D01*
X0043874D01*
X0043841Y0005696D01*
X0043612Y0005368D02*
X0043481D01*
X0043546D02*
Y0005761D01*
X0043481Y0005696D01*
X0042956Y0005499D02*
Y0005433D01*
X0042988Y0005368D01*
X0043120D01*
X0043152Y0005433D01*
Y0005761D01*
X0043185D02*
X0043054D01*
X0061536Y0020518D02*
X0061602Y0020453D01*
X0061733D01*
X0061799Y0020518D01*
Y0020584D01*
X0061667Y0020715D01*
X0061799Y0020847D01*
X0061536D01*
X0061306D02*
Y0020518D01*
X0061274Y0020453D01*
X0061077D01*
X0061044Y0020518D01*
Y0020847D01*
X0107795Y0032278D02*
Y0032803D01*
X0107751Y0032278D02*
X0108014D01*
X0108101Y0032453D01*
Y0032628D01*
X0108014Y0032803D01*
X0107751D01*
X0107510D02*
Y0032278D01*
X0107423Y0032365D01*
X0107248Y0032715D01*
X0107160Y0032803D01*
Y0032278D01*
X0106745Y0032540D02*
X0106920D01*
Y0032365D01*
X0106876Y0032278D01*
X0106613D01*
X0106570Y0032365D01*
Y0032715D01*
X0106613Y0032803D01*
X0106876D01*
X0106920Y0032715D01*
X0046497Y0022065D02*
Y0021890D01*
X0046322Y0021540D01*
X0046147Y0021890D01*
Y0022065D01*
X0045556Y0021627D02*
X0045600Y0021540D01*
X0045862D01*
X0045906Y0021627D01*
Y0021802D01*
X0045819Y0021890D01*
X0045556D01*
Y0022065D01*
X0045906D01*
X0045316Y0021540D02*
X0045141D01*
X0045228D02*
Y0022065D01*
X0045141Y0021977D01*
X0044637D02*
Y0021627D01*
X0044812Y0021802D02*
X0044462D01*
X0086304Y0056365D02*
X0086042D01*
X0086304Y0056627D01*
Y0056693D01*
X0086272Y0056758D01*
X0086075D01*
X0086042Y0056693D01*
X0085812Y0056430D02*
X0085779Y0056365D01*
X0085583D01*
X0085550Y0056430D01*
Y0056693D01*
X0085583Y0056758D01*
X0085779D01*
X0085812Y0056693D01*
X0084601Y0058155D02*
X0084338D01*
X0084470Y0058024D02*
Y0058286D01*
X0084562Y0041320D02*
X0084299D01*
X0084430Y0041189D02*
Y0041452D01*
X0085505Y0040395D02*
X0085702D01*
X0085735Y0040330D01*
Y0040264D01*
X0085702Y0040199D01*
X0085505D01*
X0085472Y0040264D01*
Y0040330D01*
X0085603Y0040592D01*
X0085242Y0040199D02*
X0084980D01*
X0085242Y0040461D01*
Y0040527D01*
X0085210Y0040592D01*
X0085013D01*
X0084980Y0040527D01*
X0084750Y0040264D02*
X0084717Y0040199D01*
X0084521D01*
X0084488Y0040264D01*
Y0040527D01*
X0084521Y0040592D01*
X0084717D01*
X0084750Y0040527D01*
X0059847Y0015058D02*
X0059814Y0014993D01*
X0059617D01*
X0059584Y0015058D01*
Y0015321D01*
X0059617Y0015386D01*
X0059814D01*
X0059847Y0015321D01*
X0059355Y0015058D02*
X0059322Y0014993D01*
X0059125D01*
X0059092Y0015058D01*
Y0015321D01*
X0059125Y0015386D01*
X0059322D01*
X0059355Y0015321D01*
X0058862Y0015386D02*
Y0015255D01*
X0058731Y0014993D01*
X0058600Y0015255D01*
Y0015386D01*
X0050310Y0012453D02*
X0050375Y0012388D01*
X0050507D01*
X0050572Y0012453D01*
Y0012519D01*
X0050441Y0012650D01*
X0050572Y0012781D01*
X0050310D01*
X0050080Y0012519D02*
X0049818D01*
X0049949Y0012781D01*
X0050014D01*
Y0012388D01*
X0049588Y0012453D02*
X0049555Y0012388D01*
X0049358D01*
X0049325Y0012453D01*
Y0012716D01*
X0049358Y0012781D01*
X0049555D01*
X0049588Y0012716D01*
X0027161Y0005335D02*
Y0005859D01*
X0027118Y0005335D02*
X0027380D01*
X0027468Y0005510D01*
Y0005684D01*
X0027380Y0005859D01*
X0027118D01*
X0026877D02*
Y0005335D01*
X0026790Y0005422D01*
X0026615Y0005772D01*
X0026527Y0005859D01*
Y0005335D01*
X0026111Y0005597D02*
X0026286D01*
Y0005422D01*
X0026243Y0005335D01*
X0025980D01*
X0025936Y0005422D01*
Y0005772D01*
X0025980Y0005859D01*
X0026243D01*
X0026286Y0005772D01*
X0034194Y0012310D02*
Y0012135D01*
X0034019Y0011785D01*
X0033844Y0012135D01*
Y0012310D01*
X0033253Y0011873D02*
X0033297Y0011785D01*
X0033559D01*
X0033603Y0011873D01*
Y0012048D01*
X0033516Y0012135D01*
X0033253D01*
Y0012310D01*
X0033603D01*
X0032837Y0012223D02*
Y0011873D01*
X0033012Y0012048D02*
X0032662D01*
X0032978Y0006586D02*
X0033175Y0006980D01*
X0032912D01*
X0032420Y0006652D02*
X0032453Y0006586D01*
X0032650D01*
X0032683Y0006652D01*
Y0006783D01*
X0032617Y0006849D01*
X0032420D01*
Y0006980D01*
X0032683D01*
X0032191Y0006652D02*
X0032158Y0006586D01*
X0031961D01*
X0031928Y0006652D01*
Y0006914D01*
X0031961Y0006980D01*
X0032158D01*
X0032191Y0006914D01*
X0051635Y0017203D02*
X0051832Y0017597D01*
X0051569D01*
X0051077Y0017269D02*
X0051143Y0017203D01*
X0051274D01*
X0051339Y0017269D01*
Y0017335D01*
X0051208Y0017466D01*
X0051339Y0017597D01*
X0051077D01*
X0050847Y0017269D02*
X0050814Y0017203D01*
X0050618D01*
X0050585Y0017269D01*
Y0017531D01*
X0050618Y0017597D01*
X0050814D01*
X0050847Y0017531D01*
X0050155Y0017423D02*
X0050188Y0017489D01*
Y0017554D01*
X0050155Y0017620D01*
X0049958D01*
X0049925Y0017554D01*
Y0017489D01*
X0049958Y0017423D01*
X0050155D01*
X0050188Y0017358D01*
Y0017292D01*
X0050155Y0017226D01*
X0049958D01*
X0049925Y0017292D01*
Y0017358D01*
X0049958Y0017423D01*
X0049695Y0017226D02*
X0049466D01*
Y0017620D01*
X0055338Y0018681D02*
X0055371Y0018747D01*
Y0018812D01*
X0055338Y0018878D01*
X0055141D01*
X0055108Y0018812D01*
Y0018747D01*
X0055141Y0018681D01*
X0055338D01*
X0055371Y0018616D01*
Y0018550D01*
X0055338Y0018484D01*
X0055141D01*
X0055108Y0018550D01*
Y0018616D01*
X0055141Y0018681D01*
X0054616Y0018550D02*
X0054682Y0018484D01*
X0054813D01*
X0054879Y0018550D01*
Y0018616D01*
X0054748Y0018747D01*
X0054879Y0018878D01*
X0054616D01*
X0054387Y0018550D02*
X0054354Y0018484D01*
X0054157D01*
X0054124Y0018550D01*
Y0018812D01*
X0054157Y0018878D01*
X0054354D01*
X0054387Y0018812D01*
X0053932Y0010163D02*
X0053866Y0010229D01*
X0053833Y0010295D01*
Y0010426D01*
X0053866Y0010491D01*
X0053932Y0010557D01*
X0053998D01*
X0054063Y0010491D01*
X0054096Y0010426D01*
Y0010295D01*
X0054063Y0010229D01*
X0053998Y0010163D01*
X0053932D01*
X0053341Y0010229D02*
X0053374Y0010163D01*
X0053571D01*
X0053604Y0010229D01*
Y0010360D01*
X0053538Y0010426D01*
X0053341D01*
Y0010557D01*
X0053604D01*
X0053112Y0010229D02*
X0053079Y0010163D01*
X0052882D01*
X0052849Y0010229D01*
Y0010491D01*
X0052882Y0010557D01*
X0053079D01*
X0053112Y0010491D01*
X0036348Y0010470D02*
X0036085D01*
X0036348Y0010732D01*
Y0010798D01*
X0036315Y0010863D01*
X0036118D01*
X0036085Y0010798D01*
X0035856Y0010470D02*
X0035725D01*
X0035790D02*
Y0010863D01*
X0035725Y0010798D01*
X0035429Y0010863D02*
Y0010535D01*
X0035396Y0010470D01*
X0035200D01*
X0035167Y0010535D01*
Y0010863D01*
X0042165Y0009279D02*
X0042034Y0009017D01*
X0041902Y0009279D01*
X0041443Y0008885D02*
Y0009279D01*
X0041640D01*
X0041673Y0009213D01*
Y0009082D01*
X0041640Y0009017D01*
X0041443D01*
X0041213Y0009410D02*
Y0009279D01*
X0041082Y0009017D01*
X0040951Y0009279D01*
Y0009410D01*
X0021886Y0009146D02*
X0022148D01*
X0022192Y0009058D01*
Y0008883D01*
X0022148Y0008796D01*
X0021886D01*
Y0009321D01*
X0021645D02*
Y0009146D01*
X0021470Y0008796D01*
X0021295Y0009146D01*
Y0009321D01*
X0037827Y0005907D02*
X0037860Y0005973D01*
Y0006039D01*
X0037827Y0006104D01*
X0037630D01*
X0037598Y0006039D01*
Y0005973D01*
X0037630Y0005907D01*
X0037827D01*
X0037860Y0005842D01*
Y0005776D01*
X0037827Y0005711D01*
X0037630D01*
X0037598Y0005776D01*
Y0005842D01*
X0037630Y0005907D01*
X0037138D02*
X0037335D01*
X0037368Y0005842D01*
Y0005776D01*
X0037335Y0005711D01*
X0037138D01*
X0037105Y0005776D01*
Y0005842D01*
X0037237Y0006104D01*
X0036777Y0005907D02*
X0036876Y0005711D01*
X0036613Y0005907D02*
X0036810D01*
X0036876Y0005973D01*
Y0006039D01*
X0036810Y0006104D01*
X0036613D01*
Y0005711D01*
X0034359Y0033891D02*
Y0034415D01*
X0034316Y0033891D02*
X0034578D01*
X0034666Y0034066D01*
Y0034240D01*
X0034578Y0034415D01*
X0034316D01*
X0034075D02*
Y0033891D01*
X0033988Y0033978D01*
X0033813Y0034328D01*
X0033725Y0034415D01*
Y0033891D01*
X0033309Y0034153D02*
X0033484D01*
Y0033978D01*
X0033441Y0033891D01*
X0033178D01*
X0033134Y0033978D01*
Y0034328D01*
X0033178Y0034415D01*
X0033441D01*
X0033484Y0034328D01*
X0024564Y0006116D02*
X0024302D01*
X0024433Y0006378D01*
X0024498D01*
Y0005985D01*
X0023809Y0006050D02*
X0023842Y0005985D01*
X0024039D01*
X0024072Y0006050D01*
Y0006181D01*
X0024006Y0006247D01*
X0023809D01*
Y0006378D01*
X0024072D01*
X0023580Y0006050D02*
X0023547Y0005985D01*
X0023350D01*
X0023317Y0006050D01*
Y0006313D01*
X0023350Y0006378D01*
X0023547D01*
X0023580Y0006313D01*
X0027130Y0009654D02*
X0026998D01*
X0027064D02*
Y0010047D01*
X0026998Y0009982D01*
X0026703Y0009654D02*
X0026572D01*
X0026638D02*
Y0010047D01*
X0026572Y0009982D01*
X0026047Y0009785D02*
Y0009719D01*
X0026080Y0009654D01*
X0026211D01*
X0026244Y0009719D01*
Y0010047D01*
X0026277D02*
X0026145D01*
X0102113Y0015583D02*
X0101982D01*
X0102048D02*
Y0015977D01*
X0101982Y0015911D01*
X0101687Y0015583D02*
X0101555D01*
X0101621D02*
Y0015977D01*
X0101555Y0015911D01*
X0101260Y0015977D02*
Y0015583D01*
X0101194Y0015649D01*
X0101063Y0015911D01*
X0100998Y0015977D01*
Y0015583D01*
X0100538D02*
X0100505Y0015649D01*
Y0015911D01*
X0100538Y0015977D01*
X0100735D01*
X0100768Y0015911D01*
Y0015649D01*
X0100735Y0015583D01*
X0100538D01*
X0100276Y0015649D02*
X0100243Y0015583D01*
X0100046D01*
X0100013Y0015649D01*
Y0015911D01*
X0100046Y0015977D01*
X0100243D01*
X0100276Y0015911D01*
X0069200Y0009259D02*
X0068937D01*
X0069200Y0009521D01*
Y0009587D01*
X0069167Y0009652D01*
X0068970D01*
X0068937Y0009587D01*
X0068478Y0009456D02*
X0068675D01*
X0068708Y0009390D01*
Y0009324D01*
X0068675Y0009259D01*
X0068478D01*
X0068445Y0009324D01*
Y0009390D01*
X0068577Y0009652D01*
X0068117Y0009456D02*
X0068216Y0009259D01*
X0067953Y0009456D02*
X0068150D01*
X0068216Y0009521D01*
Y0009587D01*
X0068150Y0009652D01*
X0067953D01*
Y0009259D01*
X0036084Y0009035D02*
X0036259D01*
X0036609Y0008860D01*
X0036259Y0008685D01*
X0036084D01*
X0036521Y0008094D02*
X0036609Y0008181D01*
Y0008356D01*
X0036521Y0008444D01*
X0036434D01*
X0036259Y0008269D01*
X0036084Y0008444D01*
Y0008094D01*
X0036609Y0007766D02*
Y0007853D01*
X0036521D01*
Y0007766D01*
X0036609D01*
X0036521Y0007088D02*
X0036609Y0007175D01*
Y0007350D01*
X0036521Y0007438D01*
X0036434D01*
X0036259Y0007263D01*
X0036084Y0007438D01*
Y0007088D01*
X0036171Y0006672D02*
X0036521D01*
X0036346Y0006847D02*
Y0006497D01*
X0112501Y0026423D02*
X0112238D01*
X0112370Y0026292D02*
Y0026554D01*
X0115511Y0031413D02*
X0115380D01*
X0115446D02*
Y0031807D01*
X0115380Y0031741D01*
X0115085Y0031807D02*
Y0031479D01*
X0115052Y0031413D01*
X0114855D01*
X0114822Y0031479D01*
Y0031807D01*
X0011736Y0006092D02*
X0011671Y0006158D01*
X0011638Y0006224D01*
Y0006355D01*
X0011671Y0006420D01*
X0011736Y0006486D01*
X0011802D01*
X0011867Y0006420D01*
X0011900Y0006355D01*
Y0006224D01*
X0011867Y0006158D01*
X0011802Y0006092D01*
X0011736D01*
X0011408D02*
X0011277D01*
X0011343D02*
Y0006486D01*
X0011277Y0006420D01*
X0010752Y0006224D02*
Y0006158D01*
X0010785Y0006092D01*
X0010916D01*
X0010949Y0006158D01*
Y0006486D01*
X0010982D02*
X0010850D01*
X0115334Y0020485D02*
X0115367Y0020420D01*
X0115564D01*
X0115597Y0020485D01*
Y0020616D01*
X0115531Y0020682D01*
X0115334D01*
Y0020813D01*
X0115597D01*
X0115104D02*
Y0020485D01*
X0115072Y0020420D01*
X0114875D01*
X0114842Y0020485D01*
Y0020813D01*
X0115859Y0017666D02*
X0115793Y0017732D01*
X0115761Y0017797D01*
Y0017929D01*
X0115793Y0017994D01*
X0115859Y0018060D01*
X0115925D01*
X0115990Y0017994D01*
X0116023Y0017929D01*
Y0017797D01*
X0115990Y0017732D01*
X0115925Y0017666D01*
X0115859D01*
X0115531D02*
X0115400D01*
X0115465D02*
Y0018060D01*
X0115400Y0017994D01*
X0115104Y0018060D02*
Y0017732D01*
X0115072Y0017666D01*
X0114875D01*
X0114842Y0017732D01*
Y0018060D01*
X0048235Y0014553D02*
X0048432Y0014947D01*
X0048169D01*
X0047710Y0014684D02*
Y0014618D01*
X0047743Y0014553D01*
X0047874D01*
X0047907Y0014618D01*
Y0014947D01*
X0047940D02*
X0047808D01*
X0062163Y0007323D02*
X0062196Y0007388D01*
Y0007454D01*
X0062163Y0007520D01*
X0061967D01*
X0061934Y0007454D01*
Y0007388D01*
X0061967Y0007323D01*
X0062163D01*
X0062196Y0007257D01*
Y0007191D01*
X0062163Y0007126D01*
X0061967D01*
X0061934Y0007191D01*
Y0007257D01*
X0061967Y0007323D01*
X0061474Y0007257D02*
Y0007191D01*
X0061507Y0007126D01*
X0061639D01*
X0061671Y0007191D01*
Y0007520D01*
X0061704D02*
X0061573D01*
X0060503Y0015945D02*
X0060568Y0016011D01*
X0060634Y0016044D01*
X0060765D01*
X0060831Y0016011D01*
X0060896Y0015945D01*
Y0015879D01*
X0060831Y0015814D01*
X0060765Y0015781D01*
X0060634D01*
X0060568Y0015814D01*
X0060503Y0015879D01*
Y0015945D01*
X0057109Y0018934D02*
X0057305D01*
X0057338Y0018869D01*
Y0018803D01*
X0057305Y0018737D01*
X0057109D01*
X0057076Y0018803D01*
Y0018869D01*
X0057207Y0019131D01*
X0056846Y0018869D02*
X0056584D01*
X0056715Y0019131D01*
X0056780D01*
Y0018737D01*
X0056256Y0018934D02*
X0056354Y0018737D01*
X0056091Y0018934D02*
X0056288D01*
X0056354Y0019000D01*
Y0019065D01*
X0056288Y0019131D01*
X0056091D01*
Y0018737D01*
X0060238Y0018188D02*
X0060042D01*
X0060009Y0018253D01*
Y0018319D01*
X0060042Y0018384D01*
X0060238D01*
X0060271Y0018319D01*
Y0018253D01*
X0060140Y0017991D01*
X0059517Y0018056D02*
X0059582Y0017991D01*
X0059713D01*
X0059779Y0018056D01*
Y0018122D01*
X0059648Y0018253D01*
X0059779Y0018384D01*
X0059517D01*
X0059287Y0018056D02*
X0059254Y0017991D01*
X0059057D01*
X0059024Y0018056D01*
Y0018319D01*
X0059057Y0018384D01*
X0059254D01*
X0059287Y0018319D01*
X0108882Y0034958D02*
X0108620D01*
X0108751Y0034827D02*
Y0035090D01*
X0113431Y0034739D02*
X0113464Y0034805D01*
Y0034870D01*
X0113431Y0034936D01*
X0113234D01*
X0113202Y0034870D01*
Y0034805D01*
X0113234Y0034739D01*
X0113431D01*
X0113464Y0034674D01*
Y0034608D01*
X0113431Y0034542D01*
X0113234D01*
X0113202Y0034608D01*
Y0034674D01*
X0113234Y0034739D01*
X0112972Y0034542D02*
X0112709D01*
X0112972Y0034805D01*
Y0034870D01*
X0112939Y0034936D01*
X0112742D01*
X0112709Y0034870D01*
X0112480Y0034608D02*
X0112447Y0034542D01*
X0112250D01*
X0112217Y0034608D01*
Y0034870D01*
X0112250Y0034936D01*
X0112447D01*
X0112480Y0034870D01*
X0105148Y0047155D02*
X0105213Y0047089D01*
X0105345D01*
X0105410Y0047155D01*
Y0047220D01*
X0105279Y0047352D01*
X0105410Y0047483D01*
X0105148D01*
X0104918D02*
Y0047089D01*
X0104852Y0047155D01*
X0104721Y0047417D01*
X0104656Y0047483D01*
Y0047089D01*
X0104196D02*
X0104163Y0047155D01*
Y0047417D01*
X0104196Y0047483D01*
X0104393D01*
X0104426Y0047417D01*
Y0047155D01*
X0104393Y0047089D01*
X0104196D01*
X0103934Y0047155D02*
X0103901Y0047089D01*
X0103704D01*
X0103671Y0047155D01*
Y0047417D01*
X0103704Y0047483D01*
X0103901D01*
X0103934Y0047417D01*
X0104981Y0042959D02*
X0104719D01*
X0104981Y0043221D01*
Y0043287D01*
X0104948Y0043352D01*
X0104752D01*
X0104719Y0043287D01*
X0104227Y0043155D02*
X0104423D01*
X0104489Y0043221D01*
Y0043287D01*
X0104423Y0043352D01*
X0104227D01*
Y0042959D01*
X0097813Y0039719D02*
Y0039982D01*
X0097682Y0039850D02*
X0097944D01*
X0097155Y0039885D02*
X0096959D01*
X0096926Y0039950D01*
Y0040016D01*
X0096959Y0040082D01*
X0097155D01*
X0097188Y0040016D01*
Y0039950D01*
X0097057Y0039688D01*
X0096696D02*
X0096565D01*
X0096631D02*
Y0040082D01*
X0096565Y0040016D01*
X0096270Y0039753D02*
X0096237Y0039688D01*
X0096040D01*
X0096007Y0039753D01*
Y0040016D01*
X0096040Y0040082D01*
X0096237D01*
X0096270Y0040016D01*
X0099017Y0036076D02*
X0098951Y0036141D01*
X0098918Y0036207D01*
Y0036338D01*
X0098951Y0036404D01*
X0099017Y0036470D01*
X0099082D01*
X0099148Y0036404D01*
X0099181Y0036338D01*
Y0036207D01*
X0099148Y0036141D01*
X0099082Y0036076D01*
X0099017D01*
X0098689D02*
X0098426D01*
X0098689Y0036338D01*
Y0036404D01*
X0098656Y0036470D01*
X0098459D01*
X0098426Y0036404D01*
X0098196Y0036141D02*
X0098164Y0036076D01*
X0097967D01*
X0097934Y0036141D01*
Y0036404D01*
X0097967Y0036470D01*
X0098164D01*
X0098196Y0036404D01*
X0105912Y0035840D02*
X0105650D01*
X0105912Y0036103D01*
Y0036168D01*
X0105879Y0036234D01*
X0105682D01*
X0105650Y0036168D01*
X0105420Y0035840D02*
X0105157D01*
X0105420Y0036103D01*
Y0036168D01*
X0105387Y0036234D01*
X0105190D01*
X0105157Y0036168D01*
X0104928Y0035906D02*
X0104895Y0035840D01*
X0104698D01*
X0104665Y0035906D01*
Y0036168D01*
X0104698Y0036234D01*
X0104895D01*
X0104928Y0036168D01*
X0092722Y0036748D02*
X0092460D01*
X0092722Y0037010D01*
Y0037076D01*
X0092690Y0037142D01*
X0092493D01*
X0092460Y0037076D01*
X0092230Y0036748D02*
X0091968D01*
X0092230Y0037010D01*
Y0037076D01*
X0092197Y0037142D01*
X0092001D01*
X0091968Y0037076D01*
X0091640Y0036945D02*
X0091738Y0036748D01*
X0091476Y0036945D02*
X0091672D01*
X0091738Y0037010D01*
Y0037076D01*
X0091672Y0037142D01*
X0091476D01*
Y0036748D01*
X0092453Y0046660D02*
X0092388Y0046725D01*
X0092355Y0046791D01*
Y0046922D01*
X0092388Y0046988D01*
X0092453Y0047054D01*
X0092519D01*
X0092585Y0046988D01*
X0092617Y0046922D01*
Y0046791D01*
X0092585Y0046725D01*
X0092519Y0046660D01*
X0092453D01*
X0092125D02*
X0091994D01*
X0092060D02*
Y0047054D01*
X0091994Y0046988D01*
X0091600Y0046857D02*
X0091699Y0046660D01*
X0091436Y0046857D02*
X0091633D01*
X0091699Y0046922D01*
Y0046988D01*
X0091633Y0047054D01*
X0091436D01*
Y0046660D01*
X0090926Y0036748D02*
X0090795D01*
X0090861D02*
Y0037142D01*
X0090795Y0037076D01*
X0090500Y0036748D02*
X0090237D01*
X0090500Y0037010D01*
Y0037076D01*
X0090467Y0037142D01*
X0090270D01*
X0090237Y0037076D01*
X0089909Y0036945D02*
X0090007Y0036748D01*
X0089745Y0036945D02*
X0089942D01*
X0090007Y0037010D01*
Y0037076D01*
X0089942Y0037142D01*
X0089745D01*
Y0036748D01*
X0090506Y0046857D02*
X0090309D01*
X0090276Y0046922D01*
Y0046988D01*
X0090309Y0047054D01*
X0090506D01*
X0090539Y0046988D01*
Y0046922D01*
X0090408Y0046660D01*
X0089948Y0046857D02*
X0090047Y0046660D01*
X0089784Y0046857D02*
X0089981D01*
X0090047Y0046922D01*
Y0046988D01*
X0089981Y0047054D01*
X0089784D01*
Y0046660D01*
X0088668Y0037177D02*
X0088471D01*
X0088438Y0037242D01*
Y0037308D01*
X0088471Y0037374D01*
X0088668D01*
X0088700Y0037308D01*
Y0037242D01*
X0088569Y0036980D01*
X0088208Y0037045D02*
X0088175Y0036980D01*
X0087979D01*
X0087946Y0037045D01*
Y0037308D01*
X0087979Y0037374D01*
X0088175D01*
X0088208Y0037308D01*
X0088635Y0046800D02*
X0088700Y0046735D01*
X0088831D01*
X0088897Y0046800D01*
Y0046866D01*
X0088766Y0046997D01*
X0088897Y0047128D01*
X0088635D01*
X0088405Y0046800D02*
X0088372Y0046735D01*
X0088175D01*
X0088142Y0046800D01*
Y0047063D01*
X0088175Y0047128D01*
X0088372D01*
X0088405Y0047063D01*
X0101448Y0037161D02*
X0101186D01*
X0101317Y0037030D02*
Y0037292D01*
X0043628Y0035213D02*
X0043661Y0035279D01*
Y0035344D01*
X0043628Y0035410D01*
X0043431D01*
X0043398Y0035344D01*
Y0035279D01*
X0043431Y0035213D01*
X0043628D01*
X0043661Y0035148D01*
Y0035082D01*
X0043628Y0035016D01*
X0043431D01*
X0043398Y0035082D01*
Y0035148D01*
X0043431Y0035213D01*
X0042939Y0035016D02*
Y0035410D01*
X0042906Y0035016D02*
X0043103D01*
X0043168Y0035148D01*
Y0035279D01*
X0043103Y0035410D01*
X0042906D01*
X0026196Y0035016D02*
X0026393Y0035410D01*
X0026131D01*
X0025671Y0035016D02*
Y0035410D01*
X0025639Y0035016D02*
X0025835D01*
X0025901Y0035148D01*
Y0035279D01*
X0025835Y0035410D01*
X0025639D01*
X0047915Y0037515D02*
X0047653D01*
X0047784Y0037384D02*
Y0037646D01*
X0051343Y0036305D02*
X0051408Y0036272D01*
X0051474D01*
X0051540Y0036305D01*
Y0036502D01*
X0051474Y0036534D01*
X0051408D01*
X0051343Y0036502D01*
Y0036305D01*
X0051277Y0036272D01*
X0051211D01*
X0051146Y0036305D01*
Y0036502D01*
X0051211Y0036534D01*
X0051277D01*
X0051343Y0036502D01*
X0051146Y0036764D02*
Y0036895D01*
Y0036830D02*
X0051540D01*
X0051474Y0036895D01*
X0051211Y0037191D02*
X0051146Y0037223D01*
Y0037420D01*
X0051211Y0037453D01*
X0051474D01*
X0051540Y0037420D01*
Y0037223D01*
X0051474Y0037191D01*
X0033913Y0035666D02*
X0033650D01*
X0033782Y0035535D02*
Y0035798D01*
X0033840Y0036260D02*
X0033873Y0036194D01*
X0034070D01*
X0034102Y0036260D01*
Y0036391D01*
X0034037Y0036457D01*
X0033840D01*
Y0036588D01*
X0034102D01*
X0033610Y0036194D02*
X0033479D01*
X0033545D02*
Y0036588D01*
X0033479Y0036522D01*
X0033184Y0036260D02*
X0033151Y0036194D01*
X0032954D01*
X0032921Y0036260D01*
Y0036522D01*
X0032954Y0036588D01*
X0033151D01*
X0033184Y0036522D01*
X0040085Y0045249D02*
X0039823D01*
X0040085Y0045511D01*
Y0045577D01*
X0040052Y0045643D01*
X0039855D01*
X0039823Y0045577D01*
X0039495Y0045446D02*
X0039593Y0045249D01*
X0039330Y0045446D02*
X0039527D01*
X0039593Y0045511D01*
Y0045577D01*
X0039527Y0045643D01*
X0039330D01*
Y0045249D01*
X0030741Y0045349D02*
X0030610D01*
X0030676D02*
Y0045743D01*
X0030610Y0045677D01*
X0030216Y0045546D02*
X0030315Y0045349D01*
X0030052Y0045546D02*
X0030249D01*
X0030315Y0045611D01*
Y0045677D01*
X0030249Y0045743D01*
X0030052D01*
Y0045349D01*
X0046611Y0038121D02*
X0046808D01*
X0046841Y0038056D01*
Y0037990D01*
X0046808Y0037925D01*
X0046611D01*
X0046579Y0037990D01*
Y0038056D01*
X0046710Y0038318D01*
X0046349Y0037925D02*
X0046218D01*
X0046283D02*
Y0038318D01*
X0046218Y0038253D01*
X0045922Y0037990D02*
X0045890Y0037925D01*
X0045693D01*
X0045660Y0037990D01*
Y0038253D01*
X0045693Y0038318D01*
X0045890D01*
X0045922Y0038253D01*
X0047266Y0034580D02*
X0047463D01*
X0047495Y0034514D01*
Y0034449D01*
X0047463Y0034383D01*
X0047266D01*
X0047233Y0034449D01*
Y0034514D01*
X0047364Y0034777D01*
X0047003Y0034383D02*
X0046741D01*
X0047003Y0034646D01*
Y0034711D01*
X0046970Y0034777D01*
X0046774D01*
X0046741Y0034711D01*
X0046413Y0034580D02*
X0046511Y0034383D01*
X0046249Y0034580D02*
X0046445D01*
X0046511Y0034646D01*
Y0034711D01*
X0046445Y0034777D01*
X0046249D01*
Y0034383D01*
X0042521Y0040278D02*
X0042718Y0040672D01*
X0042455D01*
X0042226Y0040343D02*
X0042193Y0040278D01*
X0041996D01*
X0041963Y0040343D01*
Y0040606D01*
X0041996Y0040672D01*
X0042193D01*
X0042226Y0040606D01*
X0056601Y0040697D02*
X0056634Y0040631D01*
X0056831D01*
X0056864Y0040697D01*
Y0040828D01*
X0056798Y0040894D01*
X0056601D01*
Y0041025D01*
X0056864D01*
X0056372Y0040631D02*
X0056109D01*
X0056372Y0040894D01*
Y0040959D01*
X0056339Y0041025D01*
X0056142D01*
X0056109Y0040959D01*
X0055880Y0040697D02*
X0055847Y0040631D01*
X0055650D01*
X0055617Y0040697D01*
Y0040959D01*
X0055650Y0041025D01*
X0055847D01*
X0055880Y0040959D01*
X0067806Y0041084D02*
X0067543D01*
X0067674Y0040953D02*
Y0041216D01*
X0050550Y0042645D02*
X0050583Y0042710D01*
Y0042776D01*
X0050550Y0042842D01*
X0050353D01*
X0050320Y0042776D01*
Y0042710D01*
X0050353Y0042645D01*
X0050550D01*
X0050583Y0042579D01*
Y0042513D01*
X0050550Y0042448D01*
X0050353D01*
X0050320Y0042513D01*
Y0042579D01*
X0050353Y0042645D01*
X0050090Y0042513D02*
X0050058Y0042448D01*
X0049861D01*
X0049828Y0042513D01*
Y0042776D01*
X0049861Y0042842D01*
X0050058D01*
X0050090Y0042776D01*
X0042632Y0041699D02*
X0042829Y0042093D01*
X0042567D01*
X0042337Y0041699D02*
X0042206D01*
X0042271D02*
Y0042093D01*
X0042206Y0042027D01*
X0041812Y0041896D02*
X0041910Y0041699D01*
X0041648Y0041896D02*
X0041845D01*
X0041910Y0041962D01*
Y0042027D01*
X0041845Y0042093D01*
X0041648D01*
Y0041699D01*
X0047422Y0041558D02*
X0047488Y0041493D01*
X0047619D01*
X0047685Y0041558D01*
Y0041624D01*
X0047553Y0041755D01*
X0047685Y0041887D01*
X0047422D01*
X0046963Y0041624D02*
Y0041558D01*
X0046996Y0041493D01*
X0047127D01*
X0047160Y0041558D01*
Y0041887D01*
X0047192D02*
X0047061D01*
X0051443Y0037963D02*
X0051640Y0038356D01*
X0051377D01*
X0051148Y0037963D02*
X0051016D01*
X0051082D02*
Y0038356D01*
X0051016Y0038291D01*
X0050721Y0038028D02*
X0050688Y0037963D01*
X0050491D01*
X0050459Y0038028D01*
Y0038291D01*
X0050491Y0038356D01*
X0050688D01*
X0050721Y0038291D01*
X0053074Y0039655D02*
X0053008Y0039721D01*
X0052976Y0039786D01*
Y0039918D01*
X0053008Y0039983D01*
X0053074Y0040049D01*
X0053140D01*
X0053205Y0039983D01*
X0053238Y0039918D01*
Y0039786D01*
X0053205Y0039721D01*
X0053140Y0039655D01*
X0053074D01*
X0052746D02*
X0052483D01*
X0052746Y0039918D01*
Y0039983D01*
X0052713Y0040049D01*
X0052516D01*
X0052483Y0039983D01*
X0052155Y0039852D02*
X0052254Y0039655D01*
X0051991Y0039852D02*
X0052188D01*
X0052254Y0039918D01*
Y0039983D01*
X0052188Y0040049D01*
X0051991D01*
Y0039655D01*
X0048624Y0044649D02*
X0048657Y0044715D01*
Y0044781D01*
X0048624Y0044846D01*
X0048427D01*
X0048394Y0044781D01*
Y0044715D01*
X0048427Y0044649D01*
X0048624D01*
X0048657Y0044584D01*
Y0044518D01*
X0048624Y0044453D01*
X0048427D01*
X0048394Y0044518D01*
Y0044584D01*
X0048427Y0044649D01*
X0048066D02*
X0048164Y0044453D01*
X0047902Y0044649D02*
X0048099D01*
X0048164Y0044715D01*
Y0044781D01*
X0048099Y0044846D01*
X0047902D01*
Y0044453D01*
X0043902Y0043994D02*
X0043640D01*
X0043771Y0044256D01*
X0043837D01*
Y0043863D01*
X0043410D02*
X0043181D01*
Y0044256D01*
X0048695Y0043480D02*
X0048433D01*
X0048564Y0043742D01*
X0048630D01*
Y0043349D01*
X0047973D02*
Y0043742D01*
X0047941Y0043349D02*
X0048137D01*
X0048203Y0043480D01*
Y0043611D01*
X0048137Y0043742D01*
X0047941D01*
X0043730Y0040230D02*
Y0040493D01*
X0043598Y0040362D02*
X0043861D01*
X0045064Y0045970D02*
X0045130Y0045904D01*
X0045261D01*
X0045327Y0045970D01*
Y0046035D01*
X0045195Y0046166D01*
X0045327Y0046298D01*
X0045064D01*
X0044834Y0045904D02*
Y0046298D01*
X0044769Y0046232D01*
X0044703Y0046101D01*
X0044638Y0046232D01*
X0044572Y0046298D01*
Y0045904D01*
X0063739Y0010518D02*
X0063542D01*
X0063509Y0010583D01*
Y0010649D01*
X0063542Y0010714D01*
X0063739D01*
X0063772Y0010649D01*
Y0010583D01*
X0063641Y0010321D01*
X0063017Y0010386D02*
X0063050Y0010321D01*
X0063247D01*
X0063280Y0010386D01*
Y0010518D01*
X0063214Y0010583D01*
X0063017D01*
Y0010714D01*
X0063280D01*
X0062689Y0010518D02*
X0062788Y0010321D01*
X0062525Y0010518D02*
X0062722D01*
X0062788Y0010583D01*
Y0010649D01*
X0062722Y0010714D01*
X0062525D01*
Y0010321D01*
X0094532Y0042762D02*
X0094400D01*
X0094466D02*
Y0043156D01*
X0094400Y0043090D01*
X0093843Y0042959D02*
X0094039D01*
X0094105Y0043024D01*
Y0043090D01*
X0094039Y0043156D01*
X0093843D01*
Y0042762D01*
X0036241Y0045943D02*
X0035978D01*
X0036241Y0046206D01*
Y0046271D01*
X0036208Y0046337D01*
X0036011D01*
X0035978Y0046271D01*
X0035748Y0045943D02*
Y0046337D01*
X0035683Y0046271D01*
X0035617Y0046140D01*
X0035552Y0046271D01*
X0035486Y0046337D01*
Y0045943D01*
X0027246Y0045983D02*
X0027115D01*
X0027181D02*
Y0046376D01*
X0027115Y0046311D01*
X0026820Y0045983D02*
Y0046376D01*
X0026754Y0046311D01*
X0026689Y0046180D01*
X0026623Y0046311D01*
X0026557Y0046376D01*
Y0045983D01*
X0108509Y0047622D02*
X0108542Y0047556D01*
X0108738D01*
X0108771Y0047622D01*
Y0047753D01*
X0108706Y0047818D01*
X0108509D01*
Y0047950D01*
X0108771D01*
X0108279Y0047556D02*
Y0047950D01*
X0108213Y0047884D01*
X0108148Y0047753D01*
X0108082Y0047884D01*
X0108017Y0047950D01*
Y0047556D01*
X0017806Y0045943D02*
X0017675D01*
X0017741D02*
Y0046337D01*
X0017675Y0046271D01*
X0017150Y0045943D02*
Y0046337D01*
X0017117Y0045943D02*
X0017314D01*
X0017380Y0046075D01*
Y0046206D01*
X0017314Y0046337D01*
X0017117D01*
X0019424Y0006129D02*
X0019490Y0006063D01*
X0019621D01*
X0019687Y0006129D01*
Y0006194D01*
X0019556Y0006326D01*
X0019687Y0006457D01*
X0019424D01*
X0018932Y0006129D02*
X0018965Y0006063D01*
X0019162D01*
X0019195Y0006129D01*
Y0006260D01*
X0019129Y0006326D01*
X0018932D01*
Y0006457D01*
X0019195D01*
X0018702Y0006129D02*
X0018670Y0006063D01*
X0018473D01*
X0018440Y0006129D01*
Y0006391D01*
X0018473Y0006457D01*
X0018670D01*
X0018702Y0006391D01*
X0029887Y0005460D02*
X0029920Y0005395D01*
X0030117D01*
X0030149Y0005460D01*
Y0005591D01*
X0030084Y0005657D01*
X0029887D01*
Y0005788D01*
X0030149D01*
X0029395Y0005460D02*
X0029428Y0005395D01*
X0029624D01*
X0029657Y0005460D01*
Y0005591D01*
X0029592Y0005657D01*
X0029395D01*
Y0005788D01*
X0029657D01*
X0029165Y0005460D02*
X0029132Y0005395D01*
X0028935D01*
X0028903Y0005460D01*
Y0005723D01*
X0028935Y0005788D01*
X0029132D01*
X0029165Y0005723D01*
X0017262Y0009277D02*
X0017328Y0009211D01*
X0017459D01*
X0017525Y0009277D01*
Y0009342D01*
X0017394Y0009474D01*
X0017525Y0009605D01*
X0017262D01*
X0016803Y0009408D02*
X0017000D01*
X0017033Y0009342D01*
Y0009277D01*
X0017000Y0009211D01*
X0016803D01*
X0016770Y0009277D01*
Y0009342D01*
X0016901Y0009605D01*
X0016442Y0009408D02*
X0016540Y0009211D01*
X0016278Y0009408D02*
X0016475D01*
X0016540Y0009474D01*
Y0009539D01*
X0016475Y0009605D01*
X0016278D01*
Y0009211D01*
X0063661Y0011528D02*
X0063857D01*
X0063890Y0011463D01*
Y0011397D01*
X0063857Y0011331D01*
X0063661D01*
X0063628Y0011397D01*
Y0011463D01*
X0063759Y0011725D01*
X0063136Y0011397D02*
X0063168Y0011331D01*
X0063365D01*
X0063398Y0011397D01*
Y0011528D01*
X0063332Y0011594D01*
X0063136D01*
Y0011725D01*
X0063398D01*
X0062808Y0011528D02*
X0062906Y0011331D01*
X0062643Y0011528D02*
X0062840D01*
X0062906Y0011594D01*
Y0011659D01*
X0062840Y0011725D01*
X0062643D01*
Y0011331D01*
X0113746Y0044375D02*
X0113483D01*
X0113746Y0044638D01*
Y0044703D01*
X0113713Y0044769D01*
X0113516D01*
X0113483Y0044703D01*
X0113254Y0044375D02*
X0113122D01*
X0113188D02*
Y0044769D01*
X0113122Y0044703D01*
X0112729Y0044572D02*
X0112827Y0044375D01*
X0112565Y0044572D02*
X0112761D01*
X0112827Y0044638D01*
Y0044703D01*
X0112761Y0044769D01*
X0112565D01*
Y0044375D01*
X0029526Y0041611D02*
X0029394D01*
X0029460D02*
Y0042005D01*
X0029394Y0041939D01*
X0028869Y0041742D02*
Y0041676D01*
X0028902Y0041611D01*
X0029034D01*
X0029066Y0041676D01*
Y0042005D01*
X0029099D02*
X0028968D01*
X0113064Y0040337D02*
X0112802D01*
X0112933Y0040600D01*
X0112998D01*
Y0040206D01*
X0112572D02*
X0112309D01*
X0112572Y0040468D01*
Y0040534D01*
X0112539Y0040600D01*
X0112342D01*
X0112309Y0040534D01*
X0111981Y0040403D02*
X0112080Y0040206D01*
X0111817Y0040403D02*
X0112014D01*
X0112080Y0040468D01*
Y0040534D01*
X0112014Y0040600D01*
X0111817D01*
Y0040206D01*
X0032111Y0018650D02*
X0032045Y0018715D01*
X0032012Y0018781D01*
Y0018912D01*
X0032045Y0018978D01*
X0032111Y0019044D01*
X0032176D01*
X0032242Y0018978D01*
X0032275Y0018912D01*
Y0018781D01*
X0032242Y0018715D01*
X0032176Y0018650D01*
X0032111D01*
X0031783Y0018781D02*
X0031520D01*
X0031651Y0019044D01*
X0031717D01*
Y0018650D01*
X0031192Y0018847D02*
X0031290Y0018650D01*
X0031028Y0018847D02*
X0031225D01*
X0031290Y0018912D01*
Y0018978D01*
X0031225Y0019044D01*
X0031028D01*
Y0018650D01*
X0106439Y0006701D02*
X0106242D01*
X0106209Y0006767D01*
Y0006833D01*
X0106242Y0006898D01*
X0106439D01*
X0106472Y0006833D01*
Y0006767D01*
X0106341Y0006505D01*
X0105750Y0006636D02*
Y0006570D01*
X0105783Y0006505D01*
X0105914D01*
X0105947Y0006570D01*
Y0006898D01*
X0105980D02*
X0105849D01*
X0025389Y0044177D02*
X0025258D01*
X0025324D02*
Y0044571D01*
X0025258Y0044505D01*
X0024963Y0044177D02*
X0024733D01*
Y0044571D01*
X0089505Y0035563D02*
X0089701Y0035957D01*
X0089439D01*
X0089209Y0035563D02*
X0088947D01*
X0089209Y0035826D01*
Y0035891D01*
X0089176Y0035957D01*
X0088980D01*
X0088947Y0035891D01*
X0088619Y0035760D02*
X0088717Y0035563D01*
X0088455Y0035760D02*
X0088651D01*
X0088717Y0035826D01*
Y0035891D01*
X0088651Y0035957D01*
X0088455D01*
Y0035563D01*
X0107439Y0043849D02*
X0107472Y0043783D01*
X0107669D01*
X0107702Y0043849D01*
Y0043980D01*
X0107636Y0044046D01*
X0107439D01*
Y0044177D01*
X0107702D01*
X0107209Y0043783D02*
X0106980D01*
Y0044177D01*
X0037478Y0011871D02*
X0037544Y0011806D01*
X0037675D01*
X0037741Y0011871D01*
Y0011937D01*
X0037610Y0012068D01*
X0037741Y0012200D01*
X0037478D01*
X0036986Y0011871D02*
X0037019Y0011806D01*
X0037216D01*
X0037249Y0011871D01*
Y0012003D01*
X0037183Y0012068D01*
X0036986D01*
Y0012200D01*
X0037249D01*
X0036658Y0012003D02*
X0036756Y0011806D01*
X0036494Y0012003D02*
X0036691D01*
X0036756Y0012068D01*
Y0012134D01*
X0036691Y0012200D01*
X0036494D01*
Y0011806D01*
X0108514Y0036692D02*
X0108580Y0036627D01*
X0108711D01*
X0108777Y0036692D01*
Y0036758D01*
X0108646Y0036889D01*
X0108777Y0037020D01*
X0108514D01*
X0108285Y0036627D02*
X0108022D01*
X0108285Y0036889D01*
Y0036955D01*
X0108252Y0037020D01*
X0108055D01*
X0108022Y0036955D01*
X0107792Y0036692D02*
X0107760Y0036627D01*
X0107563D01*
X0107530Y0036692D01*
Y0036955D01*
X0107563Y0037020D01*
X0107760D01*
X0107792Y0036955D01*
X0113169Y0043310D02*
X0113366D01*
X0113399Y0043244D01*
Y0043178D01*
X0113366Y0043113D01*
X0113169D01*
X0113136Y0043178D01*
Y0043244D01*
X0113267Y0043506D01*
X0112677Y0043113D02*
Y0043506D01*
X0112644Y0043113D02*
X0112841D01*
X0112906Y0043244D01*
Y0043375D01*
X0112841Y0043506D01*
X0112644D01*
X0045607Y0013891D02*
X0045345D01*
X0045607Y0014153D01*
Y0014219D01*
X0045575Y0014284D01*
X0045378D01*
X0045345Y0014219D01*
X0045115Y0014022D02*
X0044853D01*
X0044984Y0014284D01*
X0045050D01*
Y0013891D01*
X0044623Y0013956D02*
X0044590Y0013891D01*
X0044393D01*
X0044361Y0013956D01*
Y0014219D01*
X0044393Y0014284D01*
X0044590D01*
X0044623Y0014219D01*
X0039858Y0043375D02*
X0039924Y0043309D01*
X0040055D01*
X0040121Y0043375D01*
Y0043441D01*
X0039989Y0043572D01*
X0040121Y0043703D01*
X0039858D01*
X0039399Y0043309D02*
Y0043703D01*
X0039366Y0043309D02*
X0039563D01*
X0039628Y0043441D01*
Y0043572D01*
X0039563Y0043703D01*
X0039366D01*
X0037675Y0015057D02*
X0037708Y0014992D01*
X0037905D01*
X0037937Y0015057D01*
Y0015189D01*
X0037872Y0015254D01*
X0037675D01*
Y0015386D01*
X0037937D01*
X0037183Y0015057D02*
X0037248Y0014992D01*
X0037380D01*
X0037445Y0015057D01*
Y0015123D01*
X0037314Y0015254D01*
X0037445Y0015386D01*
X0037183D01*
X0036953Y0015057D02*
X0036920Y0014992D01*
X0036723D01*
X0036691Y0015057D01*
Y0015320D01*
X0036723Y0015386D01*
X0036920D01*
X0036953Y0015320D01*
X0043290Y0014094D02*
X0043487D01*
X0043520Y0014029D01*
Y0013963D01*
X0043487Y0013898D01*
X0043290D01*
X0043257Y0013963D01*
Y0014029D01*
X0043389Y0014291D01*
X0042765Y0013963D02*
X0042831Y0013898D01*
X0042962D01*
X0043028Y0013963D01*
Y0014029D01*
X0042896Y0014160D01*
X0043028Y0014291D01*
X0042765D01*
X0042535Y0013963D02*
X0042503Y0013898D01*
X0042306D01*
X0042273Y0013963D01*
Y0014226D01*
X0042306Y0014291D01*
X0042503D01*
X0042535Y0014226D01*
X0043022Y0019124D02*
Y0019387D01*
X0042891Y0019255D02*
X0043153D01*
X0033647Y0014147D02*
X0033385D01*
X0033516Y0014409D01*
X0033581D01*
Y0014016D01*
X0032892Y0014081D02*
X0032958Y0014016D01*
X0033089D01*
X0033155Y0014081D01*
Y0014147D01*
X0033024Y0014278D01*
X0033155Y0014409D01*
X0032892D01*
X0032663Y0014081D02*
X0032630Y0014016D01*
X0032433D01*
X0032400Y0014081D01*
Y0014344D01*
X0032433Y0014409D01*
X0032630D01*
X0032663Y0014344D01*
X0033464Y0017236D02*
Y0017499D01*
X0033333Y0017367D02*
X0033595D01*
X0101153Y0034344D02*
X0101185Y0034410D01*
Y0034475D01*
X0101153Y0034541D01*
X0100956D01*
X0100923Y0034475D01*
Y0034410D01*
X0100956Y0034344D01*
X0101153D01*
X0101185Y0034278D01*
Y0034213D01*
X0101153Y0034147D01*
X0100956D01*
X0100923Y0034213D01*
Y0034278D01*
X0100956Y0034344D01*
X0100693Y0034147D02*
X0100431D01*
X0100693Y0034410D01*
Y0034475D01*
X0100660Y0034541D01*
X0100464D01*
X0100431Y0034475D01*
X0100103Y0034344D02*
X0100201Y0034147D01*
X0099939Y0034344D02*
X0100135D01*
X0100201Y0034410D01*
Y0034475D01*
X0100135Y0034541D01*
X0099939D01*
Y0034147D01*
X0029456Y0021903D02*
X0029488Y0021837D01*
X0029685D01*
X0029718Y0021903D01*
Y0022034D01*
X0029652Y0022100D01*
X0029456D01*
Y0022231D01*
X0029718D01*
X0028963Y0021903D02*
X0029029Y0021837D01*
X0029160D01*
X0029226Y0021903D01*
Y0021968D01*
X0029095Y0022100D01*
X0029226Y0022231D01*
X0028963D01*
X0028635Y0022034D02*
X0028734Y0021837D01*
X0028471Y0022034D02*
X0028668D01*
X0028734Y0022100D01*
Y0022165D01*
X0028668Y0022231D01*
X0028471D01*
Y0021837D01*
X0042487Y0005853D02*
X0042520Y0005788D01*
X0042716D01*
X0042749Y0005853D01*
Y0005985D01*
X0042684Y0006050D01*
X0042487D01*
Y0006181D01*
X0042749D01*
X0042257Y0005788D02*
X0042126D01*
X0042192D02*
Y0006181D01*
X0042126Y0006116D01*
X0041601Y0005788D02*
Y0006181D01*
X0041568Y0005788D02*
X0041765D01*
X0041831Y0005919D01*
Y0006050D01*
X0041765Y0006181D01*
X0041568D01*
X0038186Y0037348D02*
X0037924D01*
X0038055Y0037610D01*
X0038121D01*
Y0037217D01*
X0037694D02*
X0037563D01*
X0037629D02*
Y0037610D01*
X0037563Y0037545D01*
X0037268Y0037282D02*
X0037235Y0037217D01*
X0037038D01*
X0037005Y0037282D01*
Y0037545D01*
X0037038Y0037610D01*
X0037235D01*
X0037268Y0037545D01*
X0101377Y0041308D02*
X0101114D01*
X0101245Y0041570D01*
X0101311D01*
Y0041177D01*
X0100655Y0041308D02*
Y0041242D01*
X0100688Y0041177D01*
X0100819D01*
X0100852Y0041242D01*
Y0041570D01*
X0100884D02*
X0100753D01*
X0056350Y0014523D02*
X0056383Y0014588D01*
Y0014654D01*
X0056350Y0014719D01*
X0056153D01*
X0056121Y0014654D01*
Y0014588D01*
X0056153Y0014523D01*
X0056350D01*
X0056383Y0014457D01*
Y0014391D01*
X0056350Y0014326D01*
X0056153D01*
X0056121Y0014391D01*
Y0014457D01*
X0056153Y0014523D01*
X0055891Y0014719D02*
Y0014391D01*
X0055858Y0014326D01*
X0055661D01*
X0055628Y0014391D01*
Y0014719D01*
X0100544Y0042197D02*
X0100577Y0042132D01*
X0100774D01*
X0100806Y0042197D01*
Y0042329D01*
X0100741Y0042394D01*
X0100544D01*
Y0042526D01*
X0100806D01*
X0100314Y0042132D02*
X0100183D01*
X0100249D02*
Y0042526D01*
X0100183Y0042460D01*
X0099789Y0042329D02*
X0099888Y0042132D01*
X0099625Y0042329D02*
X0099822D01*
X0099888Y0042394D01*
Y0042460D01*
X0099822Y0042526D01*
X0099625D01*
Y0042132D01*
X0024513Y0042394D02*
X0024578Y0042329D01*
X0024709D01*
X0024775Y0042394D01*
Y0042460D01*
X0024644Y0042591D01*
X0024775Y0042722D01*
X0024513D01*
X0024283Y0042329D02*
X0024152D01*
X0024217D02*
Y0042722D01*
X0024152Y0042657D01*
X0023758Y0042525D02*
X0023856Y0042329D01*
X0023594Y0042525D02*
X0023791D01*
X0023856Y0042591D01*
Y0042657D01*
X0023791Y0042722D01*
X0023594D01*
Y0042329D01*
X0040564Y0013376D02*
X0040761Y0013770D01*
X0040498D01*
X0040269D02*
Y0013441D01*
X0040236Y0013376D01*
X0040039D01*
X0040006Y0013441D01*
Y0013770D01*
X0028171Y0038200D02*
X0028040D01*
X0028105D02*
Y0038594D01*
X0028040Y0038528D01*
X0027744Y0038200D02*
X0027613D01*
X0027679D02*
Y0038594D01*
X0027613Y0038528D01*
X0027318Y0038265D02*
X0027285Y0038200D01*
X0027088D01*
X0027055Y0038265D01*
Y0038528D01*
X0027088Y0038594D01*
X0027285D01*
X0027318Y0038528D01*
X0102201Y0043414D02*
X0102234Y0043349D01*
X0102431D01*
X0102464Y0043414D01*
Y0043546D01*
X0102398Y0043611D01*
X0102201D01*
Y0043742D01*
X0102464D01*
X0101742Y0043349D02*
Y0043742D01*
X0101709Y0043349D02*
X0101906D01*
X0101972Y0043480D01*
Y0043611D01*
X0101906Y0043742D01*
X0101709D01*
X0032985Y0007688D02*
X0033181D01*
X0033214Y0007622D01*
Y0007556D01*
X0033181Y0007491D01*
X0032985D01*
X0032952Y0007556D01*
Y0007622D01*
X0033083Y0007885D01*
X0032460Y0007556D02*
X0032492Y0007491D01*
X0032689D01*
X0032722Y0007556D01*
Y0007688D01*
X0032656Y0007753D01*
X0032460D01*
Y0007885D01*
X0032722D01*
X0032230Y0007556D02*
X0032197Y0007491D01*
X0032000D01*
X0031967Y0007556D01*
Y0007819D01*
X0032000Y0007885D01*
X0032197D01*
X0032230Y0007819D01*
X0105053Y0038121D02*
X0104922D01*
X0104988D02*
Y0038515D01*
X0104922Y0038449D01*
X0104627Y0038121D02*
X0104364D01*
X0104627Y0038384D01*
Y0038449D01*
X0104594Y0038515D01*
X0104397D01*
X0104364Y0038449D01*
X0104134Y0038187D02*
X0104102Y0038121D01*
X0103905D01*
X0103872Y0038187D01*
Y0038449D01*
X0103905Y0038515D01*
X0104102D01*
X0104134Y0038449D01*
X0031100Y0022033D02*
X0031297D01*
X0031329Y0021967D01*
Y0021901D01*
X0031297Y0021836D01*
X0031100D01*
X0031067Y0021901D01*
Y0021967D01*
X0031198Y0022230D01*
X0030575Y0021901D02*
X0030640Y0021836D01*
X0030772D01*
X0030837Y0021901D01*
Y0021967D01*
X0030706Y0022098D01*
X0030837Y0022230D01*
X0030575D01*
X0030247Y0022033D02*
X0030345Y0021836D01*
X0030083Y0022033D02*
X0030279D01*
X0030345Y0022098D01*
Y0022164D01*
X0030279Y0022230D01*
X0030083D01*
Y0021836D01*
X0026236Y0019448D02*
X0026433D01*
X0026466Y0019382D01*
Y0019316D01*
X0026433Y0019251D01*
X0026236D01*
X0026203Y0019316D01*
Y0019382D01*
X0026335Y0019645D01*
X0025974D02*
Y0019316D01*
X0025941Y0019251D01*
X0025744D01*
X0025711Y0019316D01*
Y0019645D01*
X0096263Y0047491D02*
X0096001D01*
X0096132Y0047753D01*
X0096198D01*
Y0047359D01*
X0095771D02*
Y0047753D01*
X0095705Y0047687D01*
X0095640Y0047556D01*
X0095574Y0047687D01*
X0095509Y0047753D01*
Y0047359D01*
X0090487Y0031158D02*
X0090683Y0031552D01*
X0090421D01*
X0090191Y0031158D02*
X0089929D01*
X0090191Y0031420D01*
Y0031486D01*
X0090158Y0031552D01*
X0089962D01*
X0089929Y0031486D01*
X0089699Y0031223D02*
X0089666Y0031158D01*
X0089469D01*
X0089437Y0031223D01*
Y0031486D01*
X0089469Y0031552D01*
X0089666D01*
X0089699Y0031486D01*
X0029547Y0037869D02*
X0029284D01*
X0029416Y0037738D02*
Y0038000D01*
X0030916Y0034818D02*
X0030654D01*
X0030916Y0035080D01*
Y0035146D01*
X0030884Y0035211D01*
X0030687D01*
X0030654Y0035146D01*
X0030424Y0034818D02*
X0030293D01*
X0030359D02*
Y0035211D01*
X0030293Y0035146D01*
X0029998Y0034883D02*
X0029965Y0034818D01*
X0029768D01*
X0029735Y0034883D01*
Y0035146D01*
X0029768Y0035211D01*
X0029965D01*
X0029998Y0035146D01*
X0102942Y0044611D02*
X0102811D01*
X0102877D02*
Y0045005D01*
X0102811Y0044939D01*
X0102516Y0044611D02*
X0102384D01*
X0102450D02*
Y0045005D01*
X0102384Y0044939D01*
X0101991Y0044808D02*
X0102089Y0044611D01*
X0101827Y0044808D02*
X0102023D01*
X0102089Y0044874D01*
Y0044939D01*
X0102023Y0045005D01*
X0101827D01*
Y0044611D01*
X0039215Y0041701D02*
X0039412D01*
X0039445Y0041635D01*
Y0041569D01*
X0039412Y0041504D01*
X0039215D01*
X0039183Y0041569D01*
Y0041635D01*
X0039314Y0041898D01*
X0038953Y0041504D02*
X0038822D01*
X0038887D02*
Y0041898D01*
X0038822Y0041832D01*
X0038428Y0041701D02*
X0038526Y0041504D01*
X0038264Y0041701D02*
X0038461D01*
X0038526Y0041766D01*
Y0041832D01*
X0038461Y0041898D01*
X0038264D01*
Y0041504D01*
X0054490Y0005975D02*
X0054556Y0005910D01*
X0054687D01*
X0054753Y0005975D01*
Y0006041D01*
X0054622Y0006172D01*
X0054753Y0006303D01*
X0054490D01*
X0054261Y0005910D02*
X0054130D01*
X0054195D02*
Y0006303D01*
X0054130Y0006238D01*
X0053605Y0006041D02*
Y0005975D01*
X0053637Y0005910D01*
X0053769D01*
X0053801Y0005975D01*
Y0006303D01*
X0053834D02*
X0053703D01*
X0046831Y0006341D02*
X0046765Y0006406D01*
X0046732Y0006472D01*
Y0006603D01*
X0046765Y0006669D01*
X0046831Y0006734D01*
X0046896D01*
X0046962Y0006669D01*
X0046995Y0006603D01*
Y0006472D01*
X0046962Y0006406D01*
X0046896Y0006341D01*
X0046831D01*
X0106115Y0039091D02*
X0106181Y0039026D01*
X0106312D01*
X0106377Y0039091D01*
Y0039157D01*
X0106246Y0039288D01*
X0106377Y0039420D01*
X0106115D01*
X0105885Y0039026D02*
X0105623D01*
X0105885Y0039288D01*
Y0039354D01*
X0105852Y0039420D01*
X0105656D01*
X0105623Y0039354D01*
X0105295Y0039223D02*
X0105393Y0039026D01*
X0105131Y0039223D02*
X0105327D01*
X0105393Y0039288D01*
Y0039354D01*
X0105327Y0039420D01*
X0105131D01*
Y0039026D01*
X0059971Y0009014D02*
X0059742D01*
Y0009408D01*
X0059512Y0009079D02*
X0059479Y0009014D01*
X0059282D01*
X0059249Y0009079D01*
Y0009342D01*
X0059282Y0009408D01*
X0059479D01*
X0059512Y0009342D01*
X0059020D02*
X0058987Y0009408D01*
X0058790D01*
X0058757Y0009342D01*
Y0009276D01*
X0058790Y0009211D01*
X0058987D01*
X0059020Y0009145D01*
Y0009079D01*
X0058987Y0009014D01*
X0058790D01*
X0058757Y0009079D01*
X0059847Y0010128D02*
X0059584D01*
X0059847Y0009997D02*
Y0010194D01*
X0059748Y0010391D01*
X0059683D01*
X0059584Y0010194D01*
Y0009997D01*
X0059125D02*
Y0010391D01*
X0059092Y0009997D02*
X0059289D01*
X0059355Y0010128D01*
Y0010260D01*
X0059289Y0010391D01*
X0059092D01*
X0058862Y0010325D02*
X0058830Y0010391D01*
X0058633D01*
X0058600Y0010325D01*
Y0010260D01*
X0058633Y0010194D01*
X0058830D01*
X0058862Y0010128D01*
Y0010063D01*
X0058830Y0009997D01*
X0058633D01*
X0058600Y0010063D01*
X0030838Y0043388D02*
X0030575D01*
X0030838Y0043650D01*
Y0043716D01*
X0030805Y0043782D01*
X0030608D01*
X0030575Y0043716D01*
X0030116Y0043388D02*
Y0043782D01*
X0030083Y0043388D02*
X0030280D01*
X0030346Y0043519D01*
Y0043650D01*
X0030280Y0043782D01*
X0030083D01*
X0039006Y0010155D02*
X0039039Y0010221D01*
Y0010287D01*
X0039006Y0010352D01*
X0038809D01*
X0038776Y0010287D01*
Y0010221D01*
X0038809Y0010155D01*
X0039006D01*
X0039039Y0010090D01*
Y0010024D01*
X0039006Y0009959D01*
X0038809D01*
X0038776Y0010024D01*
Y0010090D01*
X0038809Y0010155D01*
X0038284Y0010024D02*
X0038317Y0009959D01*
X0038514D01*
X0038547Y0010024D01*
Y0010155D01*
X0038481Y0010221D01*
X0038284D01*
Y0010352D01*
X0038547D01*
X0037956Y0010155D02*
X0038054Y0009959D01*
X0037792Y0010155D02*
X0037989D01*
X0038054Y0010221D01*
Y0010287D01*
X0037989Y0010352D01*
X0037792D01*
Y0009959D01*
X0033166Y0037477D02*
X0033232Y0037412D01*
X0033363D01*
X0033428Y0037477D01*
Y0037543D01*
X0033297Y0037674D01*
X0033428Y0037806D01*
X0033166D01*
X0032936Y0037412D02*
X0032805D01*
X0032871D02*
Y0037806D01*
X0032805Y0037740D01*
X0032510Y0037477D02*
X0032477Y0037412D01*
X0032280D01*
X0032247Y0037477D01*
Y0037740D01*
X0032280Y0037806D01*
X0032477D01*
X0032510Y0037740D01*
X0030026Y0013301D02*
X0029960Y0013366D01*
X0029928Y0013432D01*
Y0013563D01*
X0029960Y0013629D01*
X0030026Y0013694D01*
X0030092D01*
X0030157Y0013629D01*
X0030190Y0013563D01*
Y0013432D01*
X0030157Y0013366D01*
X0030092Y0013301D01*
X0030026D01*
X0029698Y0013432D02*
X0029435D01*
X0029567Y0013694D01*
X0029632D01*
Y0013301D01*
X0029206Y0013366D02*
X0029173Y0013301D01*
X0028976D01*
X0028943Y0013366D01*
Y0013629D01*
X0028976Y0013694D01*
X0029173D01*
X0029206Y0013629D01*
X0095114Y0047009D02*
X0094852D01*
X0095114Y0047272D01*
Y0047337D01*
X0095081Y0047403D01*
X0094885D01*
X0094852Y0047337D01*
X0094622Y0047403D02*
Y0047009D01*
X0094556Y0047075D01*
X0094425Y0047337D01*
X0094360Y0047403D01*
Y0047009D01*
X0093900D02*
X0093867Y0047075D01*
Y0047337D01*
X0093900Y0047403D01*
X0094097D01*
X0094130Y0047337D01*
Y0047075D01*
X0094097Y0047009D01*
X0093900D01*
X0093638Y0047075D02*
X0093605Y0047009D01*
X0093408D01*
X0093375Y0047075D01*
Y0047337D01*
X0093408Y0047403D01*
X0093605D01*
X0093638Y0047337D01*
X0049981Y0008582D02*
X0049784D01*
X0049752Y0008648D01*
Y0008713D01*
X0049784Y0008779D01*
X0049981D01*
X0050014Y0008713D01*
Y0008648D01*
X0049883Y0008385D01*
X0049259Y0008451D02*
X0049292Y0008385D01*
X0049489D01*
X0049522Y0008451D01*
Y0008582D01*
X0049456Y0008648D01*
X0049259D01*
Y0008779D01*
X0049522D01*
X0049030Y0008451D02*
X0048997Y0008385D01*
X0048800D01*
X0048767Y0008451D01*
Y0008713D01*
X0048800Y0008779D01*
X0048997D01*
X0049030Y0008713D01*
X0057294Y0020576D02*
X0057097D01*
X0057064Y0020511D01*
Y0020380D01*
X0057097Y0020314D01*
X0057294D01*
X0056638Y0020576D02*
X0056769D01*
X0056802Y0020511D01*
Y0020380D01*
X0056835Y0020314D01*
X0056605D01*
X0056572Y0020380D01*
X0056605Y0020445D01*
X0056802D01*
X0056342Y0020708D02*
Y0020576D01*
X0056211Y0020314D01*
X0056080Y0020576D01*
Y0020708D01*
X0021089Y0006168D02*
X0021155Y0006102D01*
X0021286D01*
X0021352Y0006168D01*
Y0006234D01*
X0021221Y0006365D01*
X0021352Y0006496D01*
X0021089D01*
X0020860Y0006102D02*
X0020729D01*
X0020794D02*
Y0006496D01*
X0020729Y0006430D01*
X0020204Y0006102D02*
Y0006496D01*
X0020171Y0006102D02*
X0020368D01*
X0020433Y0006234D01*
Y0006365D01*
X0020368Y0006496D01*
X0020171D01*
X0034653Y0039419D02*
X0034456D01*
X0034423Y0039485D01*
Y0039551D01*
X0034456Y0039616D01*
X0034653D01*
X0034686Y0039551D01*
Y0039485D01*
X0034555Y0039223D01*
X0034194D02*
X0034062D01*
X0034128D02*
Y0039616D01*
X0034062Y0039551D01*
X0033669Y0039419D02*
X0033767Y0039223D01*
X0033505Y0039419D02*
X0033701D01*
X0033767Y0039485D01*
Y0039551D01*
X0033701Y0039616D01*
X0033505D01*
Y0039223D01*
X0006228Y0014911D02*
X0006097D01*
X0006163D02*
Y0015304D01*
X0006097Y0015239D01*
X0005736Y0015108D02*
X0005539D01*
Y0014911D02*
Y0015304D01*
X0005802D01*
X0035328Y0044767D02*
X0035065D01*
X0035328Y0045030D01*
Y0045095D01*
X0035295Y0045161D01*
X0035098D01*
X0035065Y0045095D01*
X0034836Y0044767D02*
X0034606D01*
Y0045161D01*
X0031912Y0042081D02*
X0031945Y0042015D01*
X0032142D01*
X0032175Y0042081D01*
Y0042212D01*
X0032109Y0042278D01*
X0031912D01*
Y0042409D01*
X0032175D01*
X0031682Y0042081D02*
X0031650Y0042015D01*
X0031453D01*
X0031420Y0042081D01*
Y0042343D01*
X0031453Y0042409D01*
X0031650D01*
X0031682Y0042343D01*
X0035866Y0011768D02*
X0035735D01*
X0035800D02*
Y0012162D01*
X0035735Y0012096D01*
X0035439Y0011899D02*
X0035177D01*
X0035308Y0012162D01*
X0035374D01*
Y0011768D01*
X0034947Y0011833D02*
X0034914Y0011768D01*
X0034717D01*
X0034685Y0011833D01*
Y0012096D01*
X0034717Y0012162D01*
X0034914D01*
X0034947Y0012096D01*
X0032798Y0015018D02*
X0032863Y0014953D01*
X0032994D01*
X0033060Y0015018D01*
Y0015084D01*
X0032929Y0015215D01*
X0033060Y0015346D01*
X0032798D01*
X0032305Y0015018D02*
X0032371Y0014953D01*
X0032502D01*
X0032568Y0015018D01*
Y0015084D01*
X0032437Y0015215D01*
X0032568Y0015346D01*
X0032305D01*
X0032076Y0015018D02*
X0032043Y0014953D01*
X0031846D01*
X0031813Y0015018D01*
Y0015281D01*
X0031846Y0015346D01*
X0032043D01*
X0032076Y0015281D01*
X0105421Y0014293D02*
X0105487Y0014359D01*
X0105553Y0014392D01*
X0105684D01*
X0105749Y0014359D01*
X0105815Y0014293D01*
Y0014227D01*
X0105749Y0014162D01*
X0105684Y0014129D01*
X0105553D01*
X0105487Y0014162D01*
X0105421Y0014227D01*
Y0014293D01*
X0113300Y0036718D02*
X0113038D01*
X0113169Y0036981D01*
X0113234D01*
Y0036587D01*
X0112808D02*
X0112545D01*
X0112808Y0036850D01*
Y0036915D01*
X0112775Y0036981D01*
X0112578D01*
X0112545Y0036915D01*
X0112316Y0036653D02*
X0112283Y0036587D01*
X0112086D01*
X0112053Y0036653D01*
Y0036915D01*
X0112086Y0036981D01*
X0112283D01*
X0112316Y0036915D01*
X0041210Y0005986D02*
X0041243Y0006052D01*
Y0006117D01*
X0041210Y0006183D01*
X0041013D01*
X0040980Y0006117D01*
Y0006052D01*
X0041013Y0005986D01*
X0041210D01*
X0041243Y0005920D01*
Y0005855D01*
X0041210Y0005789D01*
X0041013D01*
X0040980Y0005855D01*
Y0005920D01*
X0041013Y0005986D01*
X0040488Y0005855D02*
X0040521Y0005789D01*
X0040718D01*
X0040751Y0005855D01*
Y0005986D01*
X0040685Y0006052D01*
X0040488D01*
Y0006183D01*
X0040751D01*
X0040258Y0005855D02*
X0040226Y0005789D01*
X0040029D01*
X0039996Y0005855D01*
Y0006117D01*
X0040029Y0006183D01*
X0040226D01*
X0040258Y0006117D01*
X0028668Y0034921D02*
X0028700Y0034855D01*
X0028897D01*
X0028930Y0034921D01*
Y0035052D01*
X0028864Y0035118D01*
X0028668D01*
Y0035249D01*
X0028930D01*
X0028438Y0034855D02*
X0028175D01*
X0028438Y0035118D01*
Y0035183D01*
X0028405Y0035249D01*
X0028208D01*
X0028175Y0035183D01*
X0027847Y0035052D02*
X0027946Y0034855D01*
X0027683Y0035052D02*
X0027880D01*
X0027946Y0035118D01*
Y0035183D01*
X0027880Y0035249D01*
X0027683D01*
Y0034855D01*
X0096531Y0035371D02*
X0096334D01*
X0096301Y0035436D01*
Y0035502D01*
X0096334Y0035567D01*
X0096531D01*
X0096564Y0035502D01*
Y0035436D01*
X0096433Y0035174D01*
X0095842D02*
Y0035567D01*
X0095809Y0035174D02*
X0096006D01*
X0096072Y0035305D01*
Y0035436D01*
X0096006Y0035567D01*
X0095809D01*
X0030648Y0044846D02*
X0030845D01*
X0030878Y0044780D01*
Y0044715D01*
X0030845Y0044649D01*
X0030648D01*
X0030615Y0044715D01*
Y0044780D01*
X0030747Y0045043D01*
X0030287Y0044846D02*
X0030386Y0044649D01*
X0030123Y0044846D02*
X0030320D01*
X0030386Y0044912D01*
Y0044977D01*
X0030320Y0045043D01*
X0030123D01*
Y0044649D01*
X0091555Y0034147D02*
X0091490Y0034213D01*
X0091457Y0034278D01*
Y0034409D01*
X0091490Y0034475D01*
X0091555Y0034541D01*
X0091621D01*
X0091686Y0034475D01*
X0091719Y0034409D01*
Y0034278D01*
X0091686Y0034213D01*
X0091621Y0034147D01*
X0091555D01*
X0091227D02*
X0091096D01*
X0091162D02*
Y0034541D01*
X0091096Y0034475D01*
X0090571Y0034147D02*
Y0034541D01*
X0090538Y0034147D02*
X0090735D01*
X0090801Y0034278D01*
Y0034409D01*
X0090735Y0034541D01*
X0090538D01*
X0111583Y0018282D02*
X0111616Y0018217D01*
X0111812D01*
X0111845Y0018282D01*
Y0018414D01*
X0111780Y0018479D01*
X0111583D01*
Y0018610D01*
X0111845D01*
X0111353Y0018348D02*
X0111091D01*
X0111222Y0018610D01*
X0111287D01*
Y0018217D01*
X0110763Y0018414D02*
X0110861Y0018217D01*
X0110598Y0018414D02*
X0110795D01*
X0110861Y0018479D01*
Y0018545D01*
X0110795Y0018610D01*
X0110598D01*
Y0018217D01*
X0106148Y0040835D02*
X0106082Y0040901D01*
X0106049Y0040966D01*
Y0041098D01*
X0106082Y0041163D01*
X0106148Y0041229D01*
X0106213D01*
X0106279Y0041163D01*
X0106312Y0041098D01*
Y0040966D01*
X0106279Y0040901D01*
X0106213Y0040835D01*
X0106148D01*
X0105820D02*
X0105688D01*
X0105754D02*
Y0041229D01*
X0105688Y0041163D01*
X0105393Y0040901D02*
X0105360Y0040835D01*
X0105163D01*
X0105131Y0040901D01*
Y0041163D01*
X0105163Y0041229D01*
X0105360D01*
X0105393Y0041163D01*
X0039924Y0044374D02*
X0040121Y0044768D01*
X0039859D01*
X0039531Y0044571D02*
X0039629Y0044374D01*
X0039367Y0044571D02*
X0039563D01*
X0039629Y0044636D01*
Y0044702D01*
X0039563Y0044768D01*
X0039367D01*
Y0044374D01*
X0111709Y0042093D02*
X0111742Y0042158D01*
Y0042224D01*
X0111709Y0042290D01*
X0111513D01*
X0111480Y0042224D01*
Y0042158D01*
X0111513Y0042093D01*
X0111709D01*
X0111742Y0042027D01*
Y0041961D01*
X0111709Y0041896D01*
X0111513D01*
X0111480Y0041961D01*
Y0042027D01*
X0111513Y0042093D01*
X0111250Y0041896D02*
X0111119D01*
X0111185D02*
Y0042290D01*
X0111119Y0042224D01*
X0110725Y0042093D02*
X0110824Y0041896D01*
X0110561Y0042093D02*
X0110758D01*
X0110824Y0042158D01*
Y0042224D01*
X0110758Y0042290D01*
X0110561D01*
Y0041896D01*
X0034372Y0042538D02*
X0034110D01*
X0034241Y0042801D01*
X0034307D01*
Y0042407D01*
X0033880D02*
X0033749D01*
X0033815D02*
Y0042801D01*
X0033749Y0042735D01*
X0033355Y0042604D02*
X0033454Y0042407D01*
X0033191Y0042604D02*
X0033388D01*
X0033454Y0042670D01*
Y0042735D01*
X0033388Y0042801D01*
X0033191D01*
Y0042407D01*
X0015950Y0006024D02*
X0015688D01*
X0015950Y0006286D01*
Y0006352D01*
X0015917Y0006418D01*
X0015720D01*
X0015688Y0006352D01*
X0015195Y0006089D02*
X0015228Y0006024D01*
X0015425D01*
X0015458Y0006089D01*
Y0006221D01*
X0015392Y0006286D01*
X0015195D01*
Y0006418D01*
X0015458D01*
X0014966Y0006089D02*
X0014933Y0006024D01*
X0014736D01*
X0014703Y0006089D01*
Y0006352D01*
X0014736Y0006418D01*
X0014933D01*
X0014966Y0006352D01*
X0111767Y0015267D02*
X0111504D01*
X0111767Y0015529D01*
Y0015595D01*
X0111734Y0015660D01*
X0111537D01*
X0111504Y0015595D01*
X0111012Y0015332D02*
X0111045Y0015267D01*
X0111242D01*
X0111274Y0015332D01*
Y0015464D01*
X0111209Y0015529D01*
X0111012D01*
Y0015660D01*
X0111274D01*
X0110684Y0015464D02*
X0110782Y0015267D01*
X0110520Y0015464D02*
X0110717D01*
X0110782Y0015529D01*
Y0015595D01*
X0110717Y0015660D01*
X0110520D01*
Y0015267D01*
X0030038Y0016841D02*
X0029841D01*
X0029808Y0016906D01*
Y0016972D01*
X0029841Y0017038D01*
X0030038D01*
X0030071Y0016972D01*
Y0016906D01*
X0029940Y0016644D01*
X0029579Y0016775D02*
X0029316D01*
X0029447Y0017038D01*
X0029513D01*
Y0016644D01*
X0028988Y0016841D02*
X0029086Y0016644D01*
X0028824Y0016841D02*
X0029021D01*
X0029086Y0016906D01*
Y0016972D01*
X0029021Y0017038D01*
X0028824D01*
Y0016644D01*
X0088763Y0031394D02*
X0088566D01*
X0088533Y0031460D01*
Y0031525D01*
X0088566Y0031591D01*
X0088763D01*
X0088795Y0031525D01*
Y0031460D01*
X0088664Y0031197D01*
X0088303D02*
X0088041D01*
X0088303Y0031460D01*
Y0031525D01*
X0088270Y0031591D01*
X0088074D01*
X0088041Y0031525D01*
X0087713Y0031394D02*
X0087811Y0031197D01*
X0087549Y0031394D02*
X0087745D01*
X0087811Y0031460D01*
Y0031525D01*
X0087745Y0031591D01*
X0087549D01*
Y0031197D01*
X0045719Y0006222D02*
X0045653Y0006287D01*
X0045620Y0006353D01*
Y0006484D01*
X0045653Y0006550D01*
X0045719Y0006616D01*
X0045784D01*
X0045850Y0006550D01*
X0045883Y0006484D01*
Y0006353D01*
X0045850Y0006287D01*
X0045784Y0006222D01*
X0045719D01*
X0045194D02*
X0045391Y0006616D01*
X0045128D01*
X0044800Y0006419D02*
X0044898Y0006222D01*
X0044636Y0006419D02*
X0044833D01*
X0044898Y0006484D01*
Y0006550D01*
X0044833Y0006616D01*
X0044636D01*
Y0006222D01*
X0026266Y0040348D02*
Y0040611D01*
X0026134Y0040480D02*
X0026397D01*
X0024664Y0040842D02*
X0024401D01*
X0024533Y0041104D01*
X0024598D01*
Y0040711D01*
X0024172Y0040776D02*
X0024139Y0040711D01*
X0023942D01*
X0023909Y0040776D01*
Y0041039D01*
X0023942Y0041104D01*
X0024139D01*
X0024172Y0041039D01*
X0096897Y0044282D02*
X0096963Y0044217D01*
X0097094D01*
X0097160Y0044282D01*
Y0044348D01*
X0097029Y0044479D01*
X0097160Y0044610D01*
X0096897D01*
X0096668Y0044217D02*
X0096438D01*
Y0044610D01*
X0039637Y0005947D02*
X0039440D01*
X0039407Y0006012D01*
Y0006078D01*
X0039440Y0006144D01*
X0039637D01*
X0039669Y0006078D01*
Y0006012D01*
X0039538Y0005750D01*
X0038948Y0005947D02*
X0039144D01*
X0039177Y0005881D01*
Y0005815D01*
X0039144Y0005750D01*
X0038948D01*
X0038915Y0005815D01*
Y0005881D01*
X0039046Y0006144D01*
X0038587Y0005947D02*
X0038685Y0005750D01*
X0038423Y0005947D02*
X0038619D01*
X0038685Y0006012D01*
Y0006078D01*
X0038619Y0006144D01*
X0038423D01*
Y0005750D01*
X0108058Y0039557D02*
X0108091Y0039492D01*
X0108288D01*
X0108321Y0039557D01*
Y0039689D01*
X0108255Y0039754D01*
X0108058D01*
Y0039885D01*
X0108321D01*
X0107599Y0039623D02*
Y0039557D01*
X0107632Y0039492D01*
X0107763D01*
X0107796Y0039557D01*
Y0039885D01*
X0107829D02*
X0107697D01*
X0017877Y0006194D02*
X0017615D01*
X0017746Y0006457D01*
X0017812D01*
Y0006063D01*
X0017156Y0006260D02*
X0017352D01*
X0017385Y0006194D01*
Y0006129D01*
X0017352Y0006063D01*
X0017156D01*
X0017123Y0006129D01*
Y0006194D01*
X0017254Y0006457D01*
X0016795Y0006260D02*
X0016893Y0006063D01*
X0016631Y0006260D02*
X0016827D01*
X0016893Y0006326D01*
Y0006391D01*
X0016827Y0006457D01*
X0016631D01*
Y0006063D01*
X0058321Y0016299D02*
X0058518Y0016692D01*
X0058256D01*
X0058026Y0016430D02*
X0057764D01*
X0057895Y0016692D01*
X0057960D01*
Y0016299D01*
X0057436Y0016496D02*
X0057534Y0016299D01*
X0057271Y0016496D02*
X0057468D01*
X0057534Y0016561D01*
Y0016627D01*
X0057468Y0016692D01*
X0057271D01*
Y0016299D01*
X0029889Y0009381D02*
X0029626D01*
X0029757Y0009643D01*
X0029823D01*
Y0009249D01*
X0029396D02*
X0029265D01*
X0029331D02*
Y0009643D01*
X0029265Y0009577D01*
X0028740Y0009249D02*
Y0009643D01*
X0028707Y0009249D02*
X0028904D01*
X0028970Y0009381D01*
Y0009512D01*
X0028904Y0009643D01*
X0028707D01*
X0068929Y0011286D02*
X0069126Y0011680D01*
X0068863D01*
X0068371Y0011352D02*
X0068404Y0011286D01*
X0068601D01*
X0068633Y0011352D01*
Y0011483D01*
X0068568Y0011548D01*
X0068371D01*
Y0011680D01*
X0068633D01*
X0068043Y0011483D02*
X0068141Y0011286D01*
X0067879Y0011483D02*
X0068076D01*
X0068141Y0011548D01*
Y0011614D01*
X0068076Y0011680D01*
X0067879D01*
Y0011286D01*
X0044914Y0009983D02*
X0044946Y0009918D01*
X0045143D01*
X0045176Y0009983D01*
Y0010115D01*
X0045110Y0010180D01*
X0044914D01*
Y0010312D01*
X0045176D01*
X0044454Y0010115D02*
X0044651D01*
X0044684Y0010049D01*
Y0009983D01*
X0044651Y0009918D01*
X0044454D01*
X0044421Y0009983D01*
Y0010049D01*
X0044553Y0010312D01*
X0044093Y0010115D02*
X0044192Y0009918D01*
X0043929Y0010115D02*
X0044126D01*
X0044192Y0010180D01*
Y0010246D01*
X0044126Y0010312D01*
X0043929D01*
Y0009918D01*
X0027863Y0021877D02*
X0027797Y0021942D01*
X0027764Y0022008D01*
Y0022139D01*
X0027797Y0022205D01*
X0027863Y0022270D01*
X0027928D01*
X0027994Y0022205D01*
X0028027Y0022139D01*
Y0022008D01*
X0027994Y0021942D01*
X0027928Y0021877D01*
X0027863D01*
X0027272Y0021942D02*
X0027338Y0021877D01*
X0027469D01*
X0027535Y0021942D01*
Y0022008D01*
X0027403Y0022139D01*
X0027535Y0022270D01*
X0027272D01*
X0027042Y0021942D02*
X0027010Y0021877D01*
X0026813D01*
X0026780Y0021942D01*
Y0022205D01*
X0026813Y0022270D01*
X0027010D01*
X0027042Y0022205D01*
X0035003Y0040082D02*
X0034741D01*
X0035003Y0040344D01*
Y0040410D01*
X0034971Y0040475D01*
X0034774D01*
X0034741Y0040410D01*
X0034282Y0040213D02*
Y0040147D01*
X0034314Y0040082D01*
X0034446D01*
X0034478Y0040147D01*
Y0040475D01*
X0034511D02*
X0034380D01*
X0036118Y0023326D02*
X0036314D01*
X0036347Y0023260D01*
Y0023195D01*
X0036314Y0023129D01*
X0036118D01*
X0036085Y0023195D01*
Y0023260D01*
X0036216Y0023523D01*
X0035855Y0023129D02*
X0035625D01*
Y0023523D01*
X0067845Y0058159D02*
X0067582D01*
X0067714Y0058027D02*
Y0058290D01*
X0055441Y0056840D02*
X0055310D01*
X0055375D02*
Y0057234D01*
X0055310Y0057168D01*
X0055014Y0056906D02*
X0054981Y0056840D01*
X0054785D01*
X0054752Y0056906D01*
Y0057168D01*
X0054785Y0057234D01*
X0054981D01*
X0055014Y0057168D01*
X0102493Y0010798D02*
X0102231D01*
X0102362Y0011060D01*
X0102428D01*
Y0010667D01*
X0102001D02*
X0101870D01*
X0101936D02*
Y0011060D01*
X0101870Y0010995D01*
X0101575Y0011060D02*
Y0010667D01*
X0101509Y0010732D01*
X0101378Y0010995D01*
X0101312Y0011060D01*
Y0010667D01*
X0100853D02*
X0100820Y0010732D01*
Y0010995D01*
X0100853Y0011060D01*
X0101050D01*
X0101083Y0010995D01*
Y0010732D01*
X0101050Y0010667D01*
X0100853D01*
X0100590Y0010732D02*
X0100558Y0010667D01*
X0100361D01*
X0100328Y0010732D01*
Y0010995D01*
X0100361Y0011060D01*
X0100558D01*
X0100590Y0010995D01*
X0111681Y0030843D02*
X0111615Y0030909D01*
X0111582Y0030974D01*
Y0031106D01*
X0111615Y0031171D01*
X0111681Y0031237D01*
X0111746D01*
X0111812Y0031171D01*
X0111845Y0031106D01*
Y0030974D01*
X0111812Y0030909D01*
X0111746Y0030843D01*
X0111681D01*
X0111090Y0030909D02*
X0111156Y0030843D01*
X0111287D01*
X0111353Y0030909D01*
Y0030974D01*
X0111221Y0031106D01*
X0111353Y0031237D01*
X0111090D01*
X0110762Y0031040D02*
X0110860Y0030843D01*
X0110598Y0031040D02*
X0110795D01*
X0110860Y0031106D01*
Y0031171D01*
X0110795Y0031237D01*
X0110598D01*
Y0030843D01*
X0039025Y0038318D02*
X0039222D01*
X0039255Y0038252D01*
Y0038187D01*
X0039222Y0038121D01*
X0039025D01*
X0038992Y0038187D01*
Y0038252D01*
X0039123Y0038515D01*
X0038762Y0038187D02*
X0038730Y0038121D01*
X0038533D01*
X0038500Y0038187D01*
Y0038449D01*
X0038533Y0038515D01*
X0038730D01*
X0038762Y0038449D01*
X0063687Y0009337D02*
X0063621Y0009403D01*
X0063588Y0009469D01*
Y0009600D01*
X0063621Y0009665D01*
X0063687Y0009731D01*
X0063752D01*
X0063818Y0009665D01*
X0063851Y0009600D01*
Y0009469D01*
X0063818Y0009403D01*
X0063752Y0009337D01*
X0063687D01*
X0063129Y0009534D02*
X0063326D01*
X0063358Y0009469D01*
Y0009403D01*
X0063326Y0009337D01*
X0063129D01*
X0063096Y0009403D01*
Y0009469D01*
X0063227Y0009731D01*
X0062768Y0009534D02*
X0062866Y0009337D01*
X0062604Y0009534D02*
X0062801D01*
X0062866Y0009600D01*
Y0009665D01*
X0062801Y0009731D01*
X0062604D01*
Y0009337D01*
X0014112Y0009996D02*
X0014108Y0009771D01*
Y0006858D01*
X0005778D01*
Y0009996D01*
X0014112D01*
G54D122*
G01X0034861Y0010049D02*
Y0010419D01*
X0033861D01*
Y0008619D02*
X0034861D01*
Y0008989D01*
X0027791Y0009143D02*
X0026331D01*
Y0008683D01*
Y0006963D02*
Y0006503D01*
X0027791D01*
G54D123*
G01X0070979Y0018636D02*
X0068337D01*
Y0019955D01*
X0070979D01*
Y0018644D01*
G54D124*
G01X0012316Y0032674D02*
X0012393Y0032520D01*
X0012852D01*
X0012929Y0032674D01*
Y0032980D01*
X0012776Y0033133D01*
X0012316D01*
Y0033439D01*
X0012929D01*
X0011964D02*
Y0032520D01*
X0011811Y0032674D01*
X0011505Y0033286D01*
X0011352Y0033439D01*
Y0032520D01*
X0010463D02*
X0010387Y0032674D01*
Y0033286D01*
X0010463Y0033439D01*
X0010923D01*
X0010999Y0033286D01*
Y0032674D01*
X0010923Y0032520D01*
X0010463D01*
X0010035Y0032674D02*
X0009958Y0032520D01*
X0009499D01*
X0009422Y0032674D01*
Y0033286D01*
X0009499Y0033439D01*
X0009958D01*
X0010035Y0033286D01*
X0012548Y0027918D02*
X0013007Y0028837D01*
X0012395D01*
X0012043D02*
Y0027918D01*
X0011890Y0028072D01*
X0011583Y0028684D01*
X0011430Y0028837D01*
Y0027918D01*
X0010542D02*
X0010466Y0028072D01*
Y0028684D01*
X0010542Y0028837D01*
X0011001D01*
X0011078Y0028684D01*
Y0028072D01*
X0011001Y0027918D01*
X0010542D01*
X0010113Y0028072D02*
X0010037Y0027918D01*
X0009577D01*
X0009501Y0028072D01*
Y0028684D01*
X0009577Y0028837D01*
X0010037D01*
X0010113Y0028684D01*
X0011368Y0045058D02*
X0010756D01*
X0011062Y0045670D01*
X0011215D01*
Y0044752D01*
X0010404Y0045670D02*
Y0044752D01*
X0010251Y0044905D01*
X0009944Y0045517D01*
X0009791Y0045670D01*
Y0044752D01*
X0008903D02*
X0008827Y0044905D01*
Y0045517D01*
X0008903Y0045670D01*
X0009362D01*
X0009439Y0045517D01*
Y0044905D01*
X0009362Y0044752D01*
X0008903D01*
X0008474Y0044905D02*
X0008398Y0044752D01*
X0007938D01*
X0007862Y0044905D01*
Y0045517D01*
X0007938Y0045670D01*
X0008398D01*
X0008474Y0045517D01*
X0011297Y0056356D02*
X0010991D01*
X0011144D02*
Y0057275D01*
X0010991Y0057122D01*
X0010486Y0057275D02*
Y0056356D01*
X0010333Y0056510D01*
X0010027Y0057122D01*
X0009873Y0057275D01*
Y0056356D01*
X0008985D02*
X0008909Y0056510D01*
Y0057122D01*
X0008985Y0057275D01*
X0009445D01*
X0009521Y0057122D01*
Y0056510D01*
X0009445Y0056356D01*
X0008985D01*
X0008557Y0056510D02*
X0008480Y0056356D01*
X0008021D01*
X0007944Y0056510D01*
Y0057122D01*
X0008021Y0057275D01*
X0008480D01*
X0008557Y0057122D01*
X0007650Y0032860D02*
X0007038D01*
X0006686Y0033320D02*
Y0033013D01*
X0006379Y0032401D01*
X0006073Y0033013D01*
Y0033320D01*
X0005109Y0032860D02*
X0005568D01*
X0005721Y0033013D01*
Y0033167D01*
X0005568Y0033320D01*
X0005109D01*
Y0032401D01*
X0021432Y0023551D02*
X0021278Y0023704D01*
X0021202Y0023857D01*
Y0024163D01*
X0021278Y0024316D01*
X0021432Y0024469D01*
X0021585D01*
X0021738Y0024316D01*
X0021814Y0024163D01*
Y0023857D01*
X0021738Y0023704D01*
X0021585Y0023551D01*
X0021432D01*
X0020850D02*
X0020544D01*
X0020697D02*
Y0024469D01*
X0020544Y0024316D01*
X0020038Y0024469D02*
Y0023551D01*
X0019885Y0023704D01*
X0019579Y0024316D01*
X0019426Y0024469D01*
Y0023551D01*
X0018538D02*
X0018461Y0023704D01*
Y0024316D01*
X0018538Y0024469D01*
X0018997D01*
X0019074Y0024316D01*
Y0023704D01*
X0018997Y0023551D01*
X0018538D01*
X0018109Y0023704D02*
X0018032Y0023551D01*
X0017573D01*
X0017496Y0023704D01*
Y0024316D01*
X0017573Y0024469D01*
X0018032D01*
X0018109Y0024316D01*
X0006843Y0028416D02*
X0006231D01*
X0005342Y0027956D02*
Y0028875D01*
X0005266Y0027956D02*
X0005725D01*
X0005878Y0028109D01*
Y0028263D01*
X0005802Y0028416D01*
X0005342D02*
X0005802D01*
X0005878Y0028569D01*
Y0028722D01*
X0005725Y0028875D01*
X0005266D01*
X0006222Y0018613D02*
Y0018001D01*
X0006528Y0018307D02*
X0005916D01*
X0005028Y0017848D02*
Y0018766D01*
X0004951Y0017848D02*
X0005411D01*
X0005564Y0018001D01*
Y0018154D01*
X0005487Y0018307D01*
X0005028D02*
X0005487D01*
X0005564Y0018460D01*
Y0018613D01*
X0005411Y0018766D01*
X0004951D01*
X0007383Y0043236D02*
Y0042623D01*
X0007690Y0042930D02*
X0007077D01*
X0006725Y0043389D02*
Y0043083D01*
X0006419Y0042470D01*
X0006113Y0043083D01*
Y0043389D01*
X0005148Y0042930D02*
X0005607D01*
X0005760Y0043083D01*
Y0043236D01*
X0005607Y0043389D01*
X0005148D01*
Y0042470D01*
X0020152Y0038917D02*
X0020612D01*
X0020688Y0038764D01*
Y0038611D01*
X0020612Y0038458D01*
X0020152D01*
X0020076Y0038611D01*
Y0038764D01*
X0020382Y0039377D01*
X0019724D02*
Y0038458D01*
X0019570Y0038611D01*
X0019264Y0039224D01*
X0019111Y0039377D01*
Y0038458D01*
X0018223D02*
X0018146Y0038611D01*
Y0039224D01*
X0018223Y0039377D01*
X0018682D01*
X0018759Y0039224D01*
Y0038611D01*
X0018682Y0038458D01*
X0018223D01*
X0017794Y0038611D02*
X0017718Y0038458D01*
X0017258D01*
X0017182Y0038611D01*
Y0039224D01*
X0017258Y0039377D01*
X0017718D01*
X0017794Y0039224D01*
G54D76*
%LPC*%
X0046800Y0017210D03*
X0045773Y0010389D03*
X0050179Y0034938D03*
X0032175Y0036462D03*
X0030883Y0034319D03*
X0105256Y0034928D03*
X0064231Y0013295D03*
X0032175Y0036462D03*
X0050179Y0034938D03*
X0038153Y0035243D03*
X0050179Y0034938D03*
X0030883Y0034319D03*
X0032175Y0036462D03*
X0105256Y0034928D03*
X0110959Y0033394D03*
X0101323Y0032649D03*
X0031863Y0016269D03*
X0030247Y0006490D03*
X0026039Y0011643D03*
X0029185Y0012705D03*
X0050099Y0009912D03*
X0047463Y0019939D03*
X0109673Y0032595D03*
Y0031415D03*
X0031853Y0017979D03*
X0030090Y0009204D03*
X0056286Y0008181D03*
X0053926Y0008889D03*
X0047790Y0009912D03*
X0040946Y0010227D03*
D03*
X0103183Y0006139D03*
X0032804Y0011171D03*
X0030090Y0009204D03*
X0054083Y0006962D03*
X0066092Y0019694D03*
X0065372Y0013609D03*
X0066867Y0014396D03*
X0058725Y0018408D03*
X0106380Y0030897D03*
X0043699Y0022263D03*
X0061714Y0016441D03*
X0063759Y0017307D03*
X0104391Y0031781D03*
X0101323Y0033669D03*
X0060770Y0018723D03*
X0062535Y0019745D03*
X0070913Y0014929D03*
X0066190Y0021169D03*
X0070561Y0020859D03*
X0062535Y0019745D03*
X0061127Y0019989D03*
X0030798Y0015458D03*
X0055143Y0012989D03*
X0052603Y0008359D03*
X0054713Y0009991D03*
X0046217Y0014239D03*
X0043699Y0022263D03*
X0053847Y0015143D03*
X0056533Y0017459D03*
X0057859Y0017031D03*
X0054831Y0016874D03*
X0070448Y0017780D03*
X0069423Y0008811D03*
X0050333Y0014559D03*
X0052393Y0015219D03*
X0112062Y0028872D03*
X0055133Y0015979D03*
X0114027Y0037091D03*
X0052643Y0016889D03*
X0053887Y0011997D03*
X0057859Y0017031D03*
X0056533Y0017459D03*
X0112062Y0028872D03*
X0065885Y0015735D03*
X0066591Y0008181D03*
X0068597Y0017818D03*
X0049009Y0015340D03*
X0052113Y0021889D03*
X0052117Y0034889D03*
X0040395Y0038507D03*
X0111983Y0019392D03*
X0052510Y0014199D03*
X0053493Y0017661D03*
X0104813Y0037999D03*
X0112013Y0016560D03*
X0051723Y0014160D03*
X0111746Y0020689D03*
X0054643Y0015169D03*
X0058323Y0007499D03*
X0053633Y0014209D03*
X0050333Y0014559D03*
X0052823Y0022999D03*
X0052825Y0033866D03*
X0051292Y0038309D03*
X0054693Y0011979D03*
X0057702Y0008339D03*
X0054477Y0014199D03*
X0051363Y0011009D03*
X0029539Y0015537D03*
X0032883Y0038239D03*
X0051487Y0035715D03*
X0051493Y0020920D03*
X0052353Y0017709D03*
X0046728Y0010384D03*
%LPD*%
G54D77*
%LPC*%
X0031899Y0028635D03*
X0031349Y0029185D03*
X0030759Y0029815D03*
X0114618Y0017031D03*
X0113618D03*
X0075756Y0018959D03*
X0078122Y0018167D03*
X0073394D03*
X0078122Y0013364D03*
X0073394D03*
X0040277Y0014357D03*
Y0015026D03*
Y0015695D03*
Y0016364D03*
Y0017034D03*
X0114618Y0019705D03*
X0113618D03*
X0114617Y0028320D03*
X0113617D03*
X0114598Y0030896D03*
X0113598D03*
X0091489Y0041457D03*
Y0037707D03*
X0090349Y0041457D03*
Y0037707D03*
X0091489Y0045981D03*
Y0042231D03*
X0090309Y0045981D03*
Y0042231D03*
X0010305Y0019037D03*
X0010384Y0035754D03*
X0010345Y0039963D03*
X0110330Y0046925D03*
X0111330D03*
X0112330D03*
X0097665D03*
X0098665D03*
X0099665D03*
X0046925D03*
X0047925D03*
X0048925D03*
X0037760D03*
X0038760D03*
X0039760D03*
X0028792D03*
X0029792D03*
X0030792D03*
X0047711Y0006570D03*
X0048711D03*
X0049711D03*
X0050711D03*
X0051711D03*
X0052711D03*
X0043390Y0008333D03*
Y0007354D03*
Y0006375D03*
X0010187Y0008417D03*
X0011687Y0008421D03*
X0013187D03*
X0005187Y0009417D03*
Y0007413D03*
X0105533Y0013491D03*
Y0012491D03*
Y0011491D03*
Y0010491D03*
Y0009491D03*
Y0008491D03*
X0060614Y0015143D03*
Y0014143D03*
Y0013143D03*
Y0012143D03*
Y0011143D03*
Y0010143D03*
Y0009147D03*
Y0008151D03*
X0081732Y0011171D03*
Y0020029D03*
X0021358Y0011800D03*
X0018358Y0011796D03*
X0010905Y0011800D03*
X0007905D03*
X0021358Y0015065D03*
X0018358Y0015061D03*
X0010905Y0015065D03*
X0007905D03*
X0019627Y0046925D03*
X0020627D03*
X0021627D03*
X0099238Y0010541D03*
X0076189Y0008378D03*
X0073868Y0010502D03*
X0099238Y0014750D03*
X0018683Y0018683D03*
X0075756Y0020729D03*
X0010187Y0025370D03*
X0008181Y0021397D03*
X0012201D03*
X0008193Y0025413D03*
X0012201Y0025409D03*
X0018565Y0036108D03*
X0008181Y0035872D03*
X0012201D03*
X0008193Y0039888D03*
X0012201Y0039884D03*
X0006372Y0044525D03*
X0104587Y0045155D03*
X0094125D03*
X0006411Y0056483D03*
X0094989Y0010541D03*
Y0019407D03*
X0090662Y0010541D03*
Y0019407D03*
X0086336Y0010541D03*
Y0019407D03*
X0078588Y0035636D03*
Y0031699D03*
X0061832Y0035636D03*
Y0031699D03*
X0088619Y0040671D03*
X0088615Y0038698D03*
X0088658Y0045469D03*
X0088654Y0043497D03*
X0078627Y0052471D03*
Y0048534D03*
X0061871Y0052474D03*
Y0048537D03*
X0043306Y0030405D03*
X0042637D03*
X0041929Y0030444D03*
X0105099Y0055027D03*
X0104351D03*
X0103565D03*
X0098491D03*
X0097783D03*
X0070249Y0042126D03*
X0097075Y0055027D03*
X0050543D03*
X0049835D03*
X0049127D03*
X0025409D03*
X0024741D03*
X0024033D03*
X0020768D03*
X0020021D03*
X0019313D03*
X0012469Y0018054D03*
X0056601Y0021279D03*
X0040277Y0012469D03*
X0008063Y0016638D03*
X0042873Y0049639D03*
X0014671Y0021122D03*
X0020807Y0013491D03*
X0012469Y0016638D03*
X0009558Y0015930D03*
X0008653Y0005585D03*
X0089090Y0007827D03*
X0102935Y0045273D03*
X0014632Y0018723D03*
X0010187Y0022538D03*
X0006490Y0054988D03*
X0007237Y0020296D03*
X0114381Y0059590D03*
X0010935Y0022538D03*
X0008024Y0013413D03*
X0014671Y0014868D03*
X0007316Y0016677D03*
X0014671Y0016441D03*
X0009558Y0014435D03*
X0005821Y0046099D03*
X0011839Y0013452D03*
X0008732Y0020296D03*
X0007237Y0017385D03*
X0013098Y0022538D03*
X0009558Y0011997D03*
X0063287Y0014317D03*
X0017385Y0011721D03*
X0018054Y0016441D03*
X0007945Y0022538D03*
X0010266Y0016677D03*
X0017936Y0037563D03*
X0035400Y0007749D03*
X0018054Y0013452D03*
X0100457Y0059551D03*
X0026983Y0006490D03*
X0091253Y0049639D03*
X0101637Y0024190D03*
X0009558Y0015222D03*
X0019431Y0016441D03*
X0014042Y0013452D03*
X0019470Y0015025D03*
X0007237Y0019549D03*
Y0021004D03*
X0019509Y0014278D03*
X0006490Y0046099D03*
X0024387Y0019981D03*
X0013177Y0016677D03*
X0019588Y0011918D03*
X0024308Y0014396D03*
X0017385Y0021987D03*
X0014750Y0013413D03*
X0007237D03*
X0022381Y0059590D03*
X0101637Y0026904D03*
X0008968Y0006175D03*
X0009676Y0021437D03*
X0022971Y0016441D03*
X0102896Y0046138D03*
X0045430Y0020807D03*
X0020611Y0009047D03*
X0011761Y0016677D03*
X0019470Y0015733D03*
X0022971Y0015104D03*
X0023639Y0014396D03*
X0024387Y0021987D03*
X0017385Y0015773D03*
X0114381Y0033040D03*
X0023600Y0011053D03*
X0012547Y0013413D03*
X0007198Y0018093D03*
X0024387Y0019313D03*
X0008732Y0022538D03*
X0007198Y0054988D03*
X0005782D03*
X0024308Y0013727D03*
X0020178Y0016441D03*
X0022971Y0018683D03*
Y0014435D03*
X0014711Y0014121D03*
X0017385Y0020650D03*
X0014632Y0018015D03*
X0022892Y0011053D03*
X0013845Y0022538D03*
X0022971Y0019352D03*
X0023757Y0022656D03*
X0011131Y0013452D03*
X0101637Y0024859D03*
X0024308Y0011721D03*
X0018762Y0022656D03*
X0018054D03*
X0021476Y0017346D03*
X0019627Y0011092D03*
X0024308Y0011053D03*
X0105610Y0046610D03*
X0022971Y0018015D03*
X0012469Y0020414D03*
X0018762Y0013452D03*
X0020768Y0022656D03*
X0017385Y0013059D03*
X0010463Y0021437D03*
X0094990Y0043621D03*
X0019588Y0012626D03*
X0022105Y0013452D03*
X0014711Y0012705D03*
X0009558Y0011289D03*
X0014671Y0017189D03*
X0011643Y0022538D03*
X0014711Y0015615D03*
X0007237Y0021751D03*
X0009440Y0022538D03*
X0007198Y0046099D03*
X0014711Y0011997D03*
X0012469Y0019627D03*
X0014593Y0022538D03*
X0005821Y0059590D03*
X0008850Y0016638D03*
X0093613Y0043621D03*
X0014711Y0019509D03*
X0010345Y0013452D03*
X0026983Y0009086D03*
X0033630Y0011171D03*
X0105256Y0032568D03*
X0018605Y0037563D03*
X0008771Y0018762D03*
X0009597Y0013413D03*
X0011013Y0016638D03*
X0101637Y0026235D03*
X0009401Y0005585D03*
X0011328Y0021437D03*
X0019509Y0013452D03*
X0008811Y0018133D03*
X0007867Y0005585D03*
X0102306Y0025252D03*
X0024308Y0013059D03*
X0101637Y0025527D03*
X0014671Y0011289D03*
X0021437Y0018054D03*
X0105846Y0032568D03*
X0019273Y0037563D03*
X0026117Y0006490D03*
X0007237Y0022538D03*
X0051291Y0059590D03*
X0022420Y0022617D03*
X0046374Y0018919D03*
X0017385Y0021319D03*
X0019509Y0020414D03*
X0017385Y0013727D03*
X0114381Y0005939D03*
X0017385Y0014435D03*
X0021437Y0019431D03*
X0023639Y0019352D03*
X0101637Y0020139D03*
X0021515Y0016441D03*
X0024308Y0012390D03*
X0101677Y0019470D03*
X0103997Y0046649D03*
X0009558Y0016677D03*
X0101677Y0017464D03*
X0094282Y0043621D03*
X0022971Y0017346D03*
X0009558Y0012705D03*
X0014907Y0049639D03*
X0017385Y0016441D03*
X0014750Y0021869D03*
X0012390Y0022538D03*
X0025213Y0005585D03*
X0101677Y0018133D03*
X0020139Y0013452D03*
X0102267Y0019116D03*
X0040277Y0009361D03*
X0021751Y0022617D03*
X0024387Y0020650D03*
X0018841Y0020414D03*
X0026117Y0009086D03*
X0008732Y0019549D03*
X0022971Y0015773D03*
X0019431Y0022656D03*
X0101677Y0018801D03*
X0013255Y0013452D03*
X0020178Y0020414D03*
X0018723Y0016441D03*
X0024387Y0022656D03*
X0021437Y0018723D03*
X0017385Y0022656D03*
X0020099D03*
X0021437Y0013452D03*
X0013885Y0016677D03*
X0040867Y0022459D03*
X0102267Y0018408D03*
X0023089Y0022617D03*
X0008181Y0006136D03*
X0014671Y0020296D03*
X0012469Y0018801D03*
X0008771Y0013413D03*
X0020847Y0016441D03*
X0102306Y0025999D03*
X0007198Y0018801D03*
X0005979Y0005743D03*
X0104823Y0046649D03*
X0017385Y0012390D03*
X0024387Y0021319D03*
X0017385Y0015104D03*
X0032411Y0034299D03*
X0022223Y0007749D03*
X0114381Y0049639D03*
%LPD*%
M02*
