%
T1C0.0280F200S100
X026039Y011643
X029185Y012705
X029539Y015537
X030090Y009204
X030247Y006490
X030798Y015458
X030883Y034319
X031853Y017979
X031863Y016269
X032175Y036462
X032804Y011171
X032883Y038239
X038153Y035243
X040395Y038507
X040946Y010227
X043699Y022263
X045773Y010389
X046217Y014239
X046728Y010384
X046800Y017210
X047463Y019939
X047790Y009912
X049009Y015340
X050099Y009912
X050179Y034938
X050333Y014559
X051292Y038309
X051363Y011009
X051487Y035715
X051493Y020920
X051723Y014160
X052113Y021889
X052117Y034889
X052353Y017709
X052393Y015219
X052510Y014199
X052603Y008359
X052643Y016889
X052823Y022999
X052825Y033866
X053493Y017661
X053633Y014209
X053847Y015143
X053887Y011997
X053926Y008889
X054083Y006962
X054477Y014199
X054643Y015169
X054693Y011979
X054713Y009991
X054831Y016874
X055133Y015979
X055143Y012989
X056286Y008181
X056533Y017459
X057702Y008339
X057859Y017031
X058323Y007499
X058725Y018408
X060770Y018723
X061127Y019989
X061714Y016441
X062535Y019745
X063759Y017307
X064231Y013295
X065372Y013609
X065885Y015735
X066092Y019694
X066190Y021169
X066591Y008181
X066867Y014396
X068597Y017818
X069423Y008811
X070448Y017780
X070561Y020859
X070913Y014929
X101323Y032649
X101323Y033669
X103183Y006139
X104391Y031781
X104813Y037999
X105256Y034928
X106380Y030897
X109673Y031415
X109673Y032595
X110959Y033394
X111746Y020689
X111983Y019392
X112013Y016560
X112062Y028872
X114027Y037091
T6C0.0370F200S100
X047711Y006570
X048711Y006570
X049711Y006570
X050711Y006570
X051711Y006570
X052711Y006570
X060614Y008151
X060614Y009147
X060614Y010143
X060614Y011143
X060614Y012143
X060614Y013143
X060614Y014143
X060614Y015143
X105533Y008491
X105533Y009491
X105533Y010491
X105533Y011491
X105533Y012491
X105533Y013491
T16C0.1653F200S100
X018565Y036108
X018683Y018683
X094125Y045155
X104587Y045155
T12C0.0708F200S100
X061832Y031699
X061832Y035636
X061871Y048537
X061871Y052474
X078588Y031699
X078588Y035636
X078627Y048534
X078627Y052471
T9C0.0551F200S100
X019627Y046925
X020627Y046925
X021627Y046925
X028792Y046925
X029792Y046925
X030792Y046925
X037760Y046925
X038760Y046925
X039760Y046925
X046925Y046925
X047925Y046925
X048925Y046925
X097665Y046925
X098665Y046925
X099665Y046925
X110330Y046925
X111330Y046925
X112330Y046925
T5C0.0360F200S100
X005782Y054988
X005821Y046099
X006490Y046099
X006490Y054988
X007198Y018093
X007198Y018801
X007198Y046099
X007198Y054988
X007237Y013413
X007316Y016677
X007237Y017385
X007237Y019549
X007237Y020296
X007237Y021004
X007237Y021751
X007237Y022538
X007867Y005585
X007945Y022538
X008024Y013413
X008063Y016638
X008181Y006136
X008653Y005585
X008732Y019549
X008732Y020296
X008732Y022538
X008771Y013413
X008771Y018762
X008811Y018133
X008850Y016638
X008968Y006175
X009401Y005585
X009440Y022538
X009558Y011289
X009558Y011997
X009558Y012705
X009558Y014435
X009558Y015222
X009558Y015930
X009558Y016677
X009597Y013413
X009676Y021437
X010187Y022538
X010266Y016677
X010345Y013452
X010463Y021437
X010935Y022538
X011013Y016638
X011131Y013452
X011328Y021437
X011643Y022538
X011761Y016677
X011839Y013452
X012390Y022538
X012469Y016638
X012469Y018054
X012469Y018801
X012469Y019627
X012469Y020414
X012547Y013413
X013098Y022538
X013177Y016677
X013255Y013452
X013845Y022538
X013885Y016677
X014042Y013452
X014593Y022538
X014632Y018015
X014632Y018723
X014671Y011289
X014711Y011997
X014711Y012705
X014711Y014121
X014671Y014868
X014711Y015615
X014671Y016441
X014671Y017189
X014711Y019509
X014671Y020296
X014671Y021122
X014750Y013413
X017385Y011721
X017385Y012390
X017385Y013059
X017385Y013727
X017385Y014435
X017385Y015104
X017385Y015773
X017385Y016441
X017385Y020650
X017385Y021319
X017385Y021987
X017385Y022656
X014750Y021869
X017936Y037563
X018054Y013452
X018054Y016441
X018054Y022656
X018605Y037563
X018723Y016441
X018762Y013452
X018841Y020414
X018762Y022656
X019273Y037563
X019313Y055027
X019431Y016441
X019470Y015025
X019470Y015733
X019431Y022656
X019509Y013452
X019509Y014278
X019588Y011918
X019588Y012626
X019509Y020414
X019627Y011092
X020021Y055027
X020099Y022656
X020139Y013452
X020178Y016441
X020178Y020414
X020611Y009047
X020768Y022656
X020807Y013491
X020768Y055027
X020847Y016441
X021437Y013452
X021437Y018054
X021437Y018723
X021437Y019431
X021476Y017346
X021515Y016441
X021751Y022617
X022105Y013452
X022420Y022617
X022892Y011053
X022971Y014435
X022971Y015104
X022971Y015773
X022971Y016441
X022971Y017346
X022971Y018015
X022971Y018683
X022971Y019352
X023089Y022617
X023600Y011053
X023639Y014396
X023639Y019352
X023757Y022656
X024033Y055027
X024308Y011053
X024308Y011721
X024308Y012390
X024308Y013059
X024308Y013727
X024308Y014396
X024387Y019313
X024387Y019981
X024387Y020650
X024387Y021319
X024387Y021987
X024387Y022656
X024741Y055027
X025213Y005585
X025409Y055027
X026117Y006490
X026117Y009086
X026983Y006490
X026983Y009086
X030759Y029815
X031349Y029185
X031899Y028635
X032411Y034299
X033630Y011171
X035400Y007749
X040277Y009361
X040277Y012469
X041929Y030444
X042637Y030405
X043306Y030405
X045430Y020807
X046374Y018919
X049127Y055027
X049835Y055027
X050543Y055027
X056601Y021279
X063287Y014317
X093613Y043621
X094282Y043621
X094990Y043621
X097075Y055027
X097783Y055027
X098491Y055027
X101637Y020139
X101677Y017464
X101677Y018133
X101677Y018801
X101677Y019470
X101637Y024190
X101637Y024859
X101637Y025527
X101637Y026235
X101637Y026904
X102267Y018408
X102267Y019116
X102306Y025252
X102306Y025999
X102896Y046138
X102935Y045273
X103565Y055027
X103997Y046649
X104351Y055027
X104823Y046649
X105099Y055027
X105256Y032568
X105610Y046610
X105846Y032568
T15C0.1378F200S100
X005821Y059590
X005979Y005743
X006372Y044525
X006411Y056483
X014907Y049639
X022223Y007749
X022381Y059590
X040867Y022459
X042873Y049639
X051291Y059590
X070249Y042126
X073868Y010502
X075756Y020729
X076189Y008378
X089090Y007827
X091253Y049639
X099238Y010541
X099238Y014750
X100457Y059551
X114381Y005939
X114381Y033040
X114381Y049639
X114381Y059590
T4C0.0334F200S100
X088615Y038698
X088619Y040671
X088654Y043497
X088658Y045469
T3C0.0315F200S100
X043390Y006375
X043390Y007354
X043390Y008333
X090309Y042231
X090309Y045981
X090349Y037707
X091489Y037707
X091489Y041457
X091489Y042231
X090349Y041457
X091489Y045981
T17C0.1772F200S100
X010187Y025370
X010305Y019037
X010345Y039963
X010384Y035754
T13C0.0728F200S100
X005187Y007413
X005187Y009417
X010187Y008417
X011687Y008421
X013187Y008421
T2C0.0295F200S100
X113598Y030896
X113617Y028320
X113618Y017031
X113618Y019705
X114598Y030896
X114617Y028320
X114618Y017031
X114618Y019705
T8C0.0520F200S100
X040277Y014357
X040277Y015026
X040277Y015695
X040277Y016364
X040277Y017034
T7C0.0472F200S100
X086336Y010541
X090662Y010541
X090662Y019407
X086336Y019407
X094989Y010541
X094989Y019407
T11C0.0630F200S100
X008181Y021397
X008193Y025413
X008181Y035872
X008193Y039888
X012201Y021397
X012201Y025409
X012201Y035872
X012201Y039884
X081732Y011171
X081732Y020029
T10C0.0590F200S100
X073394Y013364
X073394Y018167
X075756Y018959
X078122Y013364
X078122Y018167
T14C0.1008F200S100
X007905Y011800
X010905Y011800
X010905Y015065
X007905Y015065
X018358Y011796
X021358Y011800
X021358Y015065
X018358Y015061
M30
